G04 (Genere par PCBNEW (2007-11-29-a)) le 23/5/2012-13:51:01*
G01*
G70*
G90*
%MOIN*%
G04 Gerber Fmt 3.4, Leading zero omitted, Abs format*
%FSLAX34Y34*%
G04 APERTURE LIST*
%ADD10R,0.078700X0.078700*%
%ADD11C,0.078700*%
%ADD12C,0.052000*%
%ADD13O,0.086200X0.102400*%
%ADD14O,0.102400X0.086200*%
%ADD15R,0.055000X0.059100*%
%ADD16C,0.059100*%
%ADD17C,0.082700*%
%ADD18O,0.094500X0.082700*%
%ADD19C,0.074800*%
%ADD20C,0.045000*%
%ADD21C,0.031500*%
%ADD22C,0.031000*%
%ADD23C,0.005000*%
%ADD24R,0.020000X0.045000*%
%ADD25R,0.060000X0.080000*%
%ADD26R,0.080000X0.060000*%
%ADD27R,0.055000X0.035000*%
%ADD28R,0.035000X0.055000*%
%ADD29R,0.050000X0.016000*%
%ADD30R,0.118100X0.118100*%
%ADD31C,0.118100*%
%ADD32C,0.020000*%
%ADD33C,0.017000*%
%ADD34C,0.022000*%
%ADD35C,0.015000*%
%ADD36C,0.000900*%
%ADD37C,0.000100*%
%ADD38C,0.008000*%
%ADD39C,0.006000*%
%ADD40C,0.003000*%
%ADD41C,0.001000*%
%ADD42C,0.098700*%
%ADD43C,0.072000*%
%ADD44O,0.106200X0.122400*%
%ADD45O,0.122400X0.106200*%
%ADD46R,0.075000X0.079100*%
%ADD47C,0.079100*%
%ADD48C,0.102700*%
%ADD49O,0.114500X0.102700*%
%ADD50C,0.094800*%
%ADD51R,0.040000X0.065000*%
%ADD52R,0.080000X0.100000*%
%ADD53R,0.100000X0.080000*%
%ADD54R,0.075000X0.055000*%
%ADD55R,0.055000X0.075000*%
%ADD56R,0.070000X0.036000*%
%ADD57R,0.138100X0.138100*%
%ADD58R,0.078700X0.078700*%
%ADD59R,0.098700X0.098700*%
G04 APERTURE END LIST*
G54D10*
X53800Y-17200D03*
G54D11*
X51800Y-17200D03*
G54D12*
X65625Y-33722D03*
X66413Y-33722D03*
X67184Y-33722D03*
G54D13*
X63562Y-34116D03*
X69271Y-34116D03*
G54D12*
X57910Y-27863D03*
X57910Y-27075D03*
X57910Y-26304D03*
G54D14*
X58304Y-29926D03*
X58304Y-24217D03*
G54D15*
X50600Y-22100D03*
G54D16*
X50600Y-23100D03*
G54D17*
X68374Y-28559D02*
X68374Y-28441D01*
G54D18*
X67075Y-26709D03*
X65303Y-30488D03*
G54D17*
X64043Y-26985D02*
X64043Y-26867D01*
G54D18*
X65854Y-29543D03*
G54D17*
X68374Y-21759D02*
X68374Y-21641D01*
G54D18*
X67075Y-19909D03*
X65303Y-23688D03*
G54D17*
X64043Y-20185D02*
X64043Y-20067D01*
G54D18*
X65854Y-22743D03*
G54D19*
X55600Y-28600D03*
X55600Y-26600D03*
X51600Y-27600D03*
X64600Y-15600D03*
X64600Y-17600D03*
X68600Y-16600D03*
G54D20*
X57050Y-20550D03*
X57000Y-19500D03*
X57000Y-21500D03*
X62750Y-22000D03*
X65000Y-19250D03*
X50250Y-19500D03*
X53000Y-22250D03*
X55050Y-21150D03*
X54600Y-19350D03*
X60800Y-26000D03*
X59800Y-21100D03*
X53100Y-25300D03*
X59500Y-26700D03*
X61500Y-17400D03*
X61200Y-18800D03*
X63400Y-19350D03*
X59100Y-30900D03*
X56900Y-28200D03*
X63400Y-18000D03*
G54D21*
X53950Y-22250D02*
X53000Y-22250D01*
X55050Y-21150D02*
X53950Y-22250D01*
G54D22*
X50600Y-21100D02*
X50600Y-22100D01*
X51800Y-19900D02*
X50600Y-21100D01*
X54050Y-19900D02*
X51800Y-19900D01*
X54600Y-19350D02*
X54050Y-19900D01*
G54D21*
X60800Y-22100D02*
X60800Y-26000D01*
X59800Y-21100D02*
X60800Y-22100D01*
X58100Y-25300D02*
X53100Y-25300D01*
X59500Y-26700D02*
X58100Y-25300D01*
X61600Y-18400D02*
X61500Y-17400D01*
X61200Y-18800D02*
X61600Y-18400D01*
G54D22*
X64600Y-18150D02*
X64600Y-17600D01*
X63400Y-19350D02*
X64600Y-18150D01*
G54D21*
X59100Y-29500D02*
X59100Y-30900D01*
X58600Y-29000D02*
X59100Y-29500D01*
X57700Y-29000D02*
X58600Y-29000D01*
X56900Y-28200D02*
X57700Y-29000D01*
X64700Y-16600D02*
X68600Y-16600D01*
X64000Y-17300D02*
X64700Y-16600D01*
X64000Y-17400D02*
X64000Y-17300D01*
X63400Y-18000D02*
X64000Y-17400D01*
X55600Y-28600D02*
X55600Y-28026D01*
X55600Y-28600D02*
X56174Y-28600D01*
X55600Y-28600D02*
X55600Y-29174D01*
X55600Y-28600D02*
X55026Y-28600D01*
X68374Y-21700D02*
X67761Y-21700D01*
X68374Y-21700D02*
X68374Y-21028D01*
X68374Y-21700D02*
X68987Y-21700D01*
X68374Y-21700D02*
X68374Y-22372D01*
X68374Y-28500D02*
X67761Y-28500D01*
X68374Y-28500D02*
X68374Y-27828D01*
X68374Y-28500D02*
X68987Y-28500D01*
X68374Y-28500D02*
X68374Y-29172D01*
X50600Y-22100D02*
X50125Y-22100D01*
X50600Y-22100D02*
X50600Y-21605D01*
X50600Y-22100D02*
X51075Y-22100D01*
G54D23*
X69800Y-34850D02*
X69800Y-35700D01*
X69800Y-15700D02*
X69800Y-33400D01*
X69750Y-34850D02*
X69750Y-35700D01*
X69750Y-15700D02*
X69750Y-33400D01*
X69700Y-34850D02*
X69700Y-35700D01*
X69700Y-15700D02*
X69700Y-33400D01*
X69650Y-34850D02*
X69650Y-35700D01*
X69650Y-15700D02*
X69650Y-33400D01*
X69600Y-34850D02*
X69600Y-35700D01*
X69600Y-15700D02*
X69600Y-33400D01*
X69550Y-34850D02*
X69550Y-35700D01*
X69550Y-15700D02*
X69550Y-33400D01*
X69500Y-34850D02*
X69500Y-35700D01*
X69500Y-15700D02*
X69500Y-33400D01*
X69450Y-34850D02*
X69450Y-35700D01*
X69450Y-15700D02*
X69450Y-33400D01*
X69400Y-34850D02*
X69400Y-35700D01*
X69400Y-15700D02*
X69400Y-33400D01*
X69350Y-34850D02*
X69350Y-35700D01*
X69350Y-15700D02*
X69350Y-33400D01*
X69300Y-34850D02*
X69300Y-35700D01*
X69300Y-15700D02*
X69300Y-33400D01*
X69250Y-34850D02*
X69250Y-35700D01*
X69250Y-15700D02*
X69250Y-33400D01*
X69200Y-34850D02*
X69200Y-35700D01*
X69200Y-15700D02*
X69200Y-33400D01*
X69150Y-34850D02*
X69150Y-35700D01*
X69150Y-15700D02*
X69150Y-33400D01*
X69100Y-34850D02*
X69100Y-35700D01*
X69100Y-16850D02*
X69100Y-33400D01*
X69100Y-15700D02*
X69100Y-16350D01*
X69050Y-34850D02*
X69050Y-35700D01*
X69050Y-16950D02*
X69050Y-33400D01*
X69050Y-15700D02*
X69050Y-16250D01*
X69000Y-34850D02*
X69000Y-35700D01*
X69000Y-17000D02*
X69000Y-33400D01*
X69000Y-15700D02*
X69000Y-16200D01*
X68950Y-34850D02*
X68950Y-35700D01*
X68950Y-29150D02*
X68950Y-33400D01*
X68950Y-22350D02*
X68950Y-27850D01*
X68950Y-17050D02*
X68950Y-21050D01*
X68950Y-15700D02*
X68950Y-16150D01*
X68900Y-34850D02*
X68900Y-35700D01*
X68900Y-29150D02*
X68900Y-33400D01*
X68900Y-22350D02*
X68900Y-27850D01*
X68900Y-17100D02*
X68900Y-21050D01*
X68900Y-15700D02*
X68900Y-16100D01*
X68850Y-34850D02*
X68850Y-35700D01*
X68850Y-29150D02*
X68850Y-33400D01*
X68850Y-22350D02*
X68850Y-27850D01*
X68850Y-17100D02*
X68850Y-21050D01*
X68850Y-15700D02*
X68850Y-16100D01*
X68800Y-34850D02*
X68800Y-35700D01*
X68800Y-29150D02*
X68800Y-33400D01*
X68800Y-22350D02*
X68800Y-27850D01*
X68800Y-17150D02*
X68800Y-21050D01*
X68800Y-15700D02*
X68800Y-16050D01*
X68750Y-34850D02*
X68750Y-35700D01*
X68750Y-29150D02*
X68750Y-33400D01*
X68750Y-22350D02*
X68750Y-27850D01*
X68750Y-17150D02*
X68750Y-21050D01*
X68750Y-15700D02*
X68750Y-16050D01*
X68700Y-34850D02*
X68700Y-35700D01*
X68700Y-29150D02*
X68700Y-33400D01*
X68700Y-22350D02*
X68700Y-27850D01*
X68700Y-17150D02*
X68700Y-21050D01*
X68700Y-15700D02*
X68700Y-16050D01*
X68650Y-29150D02*
X68650Y-35700D01*
X68650Y-22350D02*
X68650Y-27850D01*
X68650Y-17150D02*
X68650Y-21050D01*
X68650Y-15700D02*
X68650Y-16050D01*
X68600Y-29150D02*
X68600Y-35700D01*
X68600Y-22350D02*
X68600Y-27850D01*
X68600Y-17150D02*
X68600Y-21050D01*
X68600Y-15700D02*
X68600Y-16050D01*
X68550Y-29150D02*
X68550Y-35700D01*
X68550Y-22350D02*
X68550Y-27850D01*
X68550Y-17150D02*
X68550Y-21050D01*
X68550Y-15700D02*
X68550Y-16050D01*
X68500Y-29150D02*
X68500Y-35700D01*
X68500Y-22350D02*
X68500Y-27850D01*
X68500Y-17150D02*
X68500Y-21050D01*
X68500Y-15700D02*
X68500Y-16050D01*
X68450Y-29150D02*
X68450Y-35700D01*
X68450Y-22350D02*
X68450Y-27850D01*
X68450Y-17150D02*
X68450Y-21050D01*
X68450Y-15700D02*
X68450Y-16050D01*
X68400Y-29150D02*
X68400Y-35700D01*
X68400Y-22350D02*
X68400Y-27850D01*
X68400Y-17150D02*
X68400Y-21050D01*
X68400Y-15700D02*
X68400Y-16050D01*
X68350Y-29150D02*
X68350Y-35700D01*
X68350Y-22350D02*
X68350Y-27850D01*
X68350Y-17100D02*
X68350Y-21050D01*
X68350Y-15700D02*
X68350Y-16100D01*
X68300Y-29150D02*
X68300Y-35700D01*
X68300Y-22350D02*
X68300Y-27850D01*
X68300Y-17100D02*
X68300Y-21050D01*
X68300Y-15700D02*
X68300Y-16100D01*
X68250Y-29150D02*
X68250Y-35700D01*
X68250Y-22350D02*
X68250Y-27850D01*
X68250Y-17050D02*
X68250Y-21050D01*
X68250Y-15700D02*
X68250Y-16150D01*
X68200Y-29150D02*
X68200Y-35700D01*
X68200Y-22350D02*
X68200Y-27850D01*
X68200Y-17000D02*
X68200Y-21050D01*
X68200Y-15700D02*
X68200Y-16200D01*
X68150Y-29150D02*
X68150Y-35700D01*
X68150Y-22350D02*
X68150Y-27850D01*
X68150Y-16950D02*
X68150Y-21050D01*
X68150Y-15700D02*
X68150Y-16250D01*
X68100Y-29150D02*
X68100Y-35700D01*
X68100Y-22350D02*
X68100Y-27850D01*
X68100Y-16950D02*
X68100Y-21050D01*
X68100Y-15700D02*
X68100Y-16250D01*
X68050Y-29150D02*
X68050Y-35700D01*
X68050Y-22350D02*
X68050Y-27850D01*
X68050Y-16950D02*
X68050Y-21050D01*
X68050Y-15700D02*
X68050Y-16250D01*
X68000Y-29150D02*
X68000Y-35700D01*
X68000Y-22350D02*
X68000Y-27850D01*
X68000Y-16950D02*
X68000Y-21050D01*
X68000Y-15700D02*
X68000Y-16250D01*
X67950Y-29150D02*
X67950Y-35700D01*
X67950Y-22350D02*
X67950Y-27850D01*
X67950Y-16950D02*
X67950Y-21050D01*
X67950Y-15700D02*
X67950Y-16250D01*
X67900Y-29150D02*
X67900Y-35700D01*
X67900Y-22350D02*
X67900Y-27850D01*
X67900Y-16950D02*
X67900Y-21050D01*
X67900Y-15700D02*
X67900Y-16250D01*
X67850Y-29150D02*
X67850Y-35700D01*
X67850Y-22350D02*
X67850Y-27850D01*
X67850Y-16950D02*
X67850Y-21050D01*
X67850Y-15700D02*
X67850Y-16250D01*
X67800Y-29150D02*
X67800Y-35700D01*
X67800Y-22350D02*
X67800Y-27850D01*
X67800Y-16950D02*
X67800Y-21050D01*
X67800Y-15700D02*
X67800Y-16250D01*
X67750Y-16950D02*
X67750Y-35700D01*
X67750Y-15700D02*
X67750Y-16250D01*
X67700Y-27300D02*
X67700Y-35700D01*
X67700Y-20500D02*
X67700Y-26100D01*
X67700Y-16950D02*
X67700Y-19300D01*
X67700Y-15700D02*
X67700Y-16250D01*
X67650Y-27300D02*
X67650Y-35700D01*
X67650Y-20500D02*
X67650Y-26100D01*
X67650Y-16950D02*
X67650Y-19300D01*
X67650Y-15700D02*
X67650Y-16250D01*
X67600Y-34200D02*
X67600Y-35700D01*
X67600Y-27300D02*
X67600Y-33250D01*
X67600Y-20500D02*
X67600Y-26100D01*
X67600Y-16950D02*
X67600Y-19300D01*
X67600Y-15700D02*
X67600Y-16250D01*
X67550Y-34200D02*
X67550Y-35700D01*
X67550Y-27300D02*
X67550Y-33250D01*
X67550Y-20500D02*
X67550Y-26100D01*
X67550Y-16950D02*
X67550Y-19300D01*
X67550Y-15700D02*
X67550Y-16250D01*
X67500Y-34200D02*
X67500Y-35700D01*
X67500Y-27300D02*
X67500Y-33250D01*
X67500Y-20500D02*
X67500Y-26100D01*
X67500Y-16950D02*
X67500Y-19300D01*
X67500Y-15700D02*
X67500Y-16250D01*
X67450Y-34200D02*
X67450Y-35700D01*
X67450Y-27300D02*
X67450Y-33250D01*
X67450Y-20500D02*
X67450Y-26100D01*
X67450Y-16950D02*
X67450Y-19300D01*
X67450Y-15700D02*
X67450Y-16250D01*
X67400Y-34200D02*
X67400Y-35700D01*
X67400Y-27300D02*
X67400Y-33250D01*
X67400Y-20500D02*
X67400Y-26100D01*
X67400Y-16950D02*
X67400Y-19300D01*
X67400Y-15700D02*
X67400Y-16250D01*
X67350Y-34200D02*
X67350Y-35700D01*
X67350Y-27300D02*
X67350Y-33250D01*
X67350Y-20500D02*
X67350Y-26100D01*
X67350Y-16950D02*
X67350Y-19300D01*
X67350Y-15700D02*
X67350Y-16250D01*
X67300Y-34200D02*
X67300Y-35700D01*
X67300Y-27300D02*
X67300Y-33250D01*
X67300Y-20500D02*
X67300Y-26100D01*
X67300Y-16950D02*
X67300Y-19300D01*
X67300Y-15700D02*
X67300Y-16250D01*
X67250Y-34200D02*
X67250Y-35700D01*
X67250Y-27300D02*
X67250Y-33250D01*
X67250Y-20500D02*
X67250Y-26100D01*
X67250Y-16950D02*
X67250Y-19300D01*
X67250Y-15700D02*
X67250Y-16250D01*
X67200Y-34200D02*
X67200Y-35700D01*
X67200Y-27300D02*
X67200Y-33250D01*
X67200Y-20500D02*
X67200Y-26100D01*
X67200Y-16950D02*
X67200Y-19300D01*
X67200Y-15700D02*
X67200Y-16250D01*
X67150Y-34200D02*
X67150Y-35700D01*
X67150Y-27300D02*
X67150Y-33250D01*
X67150Y-20500D02*
X67150Y-26100D01*
X67150Y-16950D02*
X67150Y-19300D01*
X67150Y-15700D02*
X67150Y-16250D01*
X67100Y-34200D02*
X67100Y-35700D01*
X67100Y-27300D02*
X67100Y-33250D01*
X67100Y-20500D02*
X67100Y-26100D01*
X67100Y-16950D02*
X67100Y-19300D01*
X67100Y-15700D02*
X67100Y-16250D01*
X67050Y-34200D02*
X67050Y-35700D01*
X67050Y-27300D02*
X67050Y-33250D01*
X67050Y-20500D02*
X67050Y-26100D01*
X67050Y-16950D02*
X67050Y-19300D01*
X67050Y-15700D02*
X67050Y-16250D01*
X67000Y-34200D02*
X67000Y-35700D01*
X67000Y-27300D02*
X67000Y-33250D01*
X67000Y-20500D02*
X67000Y-26100D01*
X67000Y-16950D02*
X67000Y-19300D01*
X67000Y-15700D02*
X67000Y-16250D01*
X66950Y-34200D02*
X66950Y-35700D01*
X66950Y-27300D02*
X66950Y-33250D01*
X66950Y-20500D02*
X66950Y-26100D01*
X66950Y-16950D02*
X66950Y-19300D01*
X66950Y-15700D02*
X66950Y-16250D01*
X66900Y-34200D02*
X66900Y-35700D01*
X66900Y-27300D02*
X66900Y-33250D01*
X66900Y-20500D02*
X66900Y-26100D01*
X66900Y-16950D02*
X66900Y-19300D01*
X66900Y-15700D02*
X66900Y-16250D01*
X66850Y-34200D02*
X66850Y-35700D01*
X66850Y-27300D02*
X66850Y-33250D01*
X66850Y-20500D02*
X66850Y-26100D01*
X66850Y-16950D02*
X66850Y-19300D01*
X66850Y-15700D02*
X66850Y-16250D01*
X66800Y-34200D02*
X66800Y-35700D01*
X66800Y-27300D02*
X66800Y-33250D01*
X66800Y-20500D02*
X66800Y-26100D01*
X66800Y-16950D02*
X66800Y-19300D01*
X66800Y-15700D02*
X66800Y-16250D01*
X66750Y-34200D02*
X66750Y-35700D01*
X66750Y-27300D02*
X66750Y-33250D01*
X66750Y-20500D02*
X66750Y-26100D01*
X66750Y-16950D02*
X66750Y-19300D01*
X66750Y-15700D02*
X66750Y-16250D01*
X66700Y-34200D02*
X66700Y-35700D01*
X66700Y-27300D02*
X66700Y-33250D01*
X66700Y-20500D02*
X66700Y-26100D01*
X66700Y-16950D02*
X66700Y-19300D01*
X66700Y-15700D02*
X66700Y-16250D01*
X66650Y-34200D02*
X66650Y-35700D01*
X66650Y-27300D02*
X66650Y-33250D01*
X66650Y-20500D02*
X66650Y-26100D01*
X66650Y-16950D02*
X66650Y-19300D01*
X66650Y-15700D02*
X66650Y-16250D01*
X66600Y-34200D02*
X66600Y-35700D01*
X66600Y-27300D02*
X66600Y-33250D01*
X66600Y-20500D02*
X66600Y-26100D01*
X66600Y-16950D02*
X66600Y-19300D01*
X66600Y-15700D02*
X66600Y-16250D01*
X66550Y-34200D02*
X66550Y-35700D01*
X66550Y-27300D02*
X66550Y-33250D01*
X66550Y-20500D02*
X66550Y-26100D01*
X66550Y-16950D02*
X66550Y-19300D01*
X66550Y-15700D02*
X66550Y-16250D01*
X66500Y-34200D02*
X66500Y-35700D01*
X66500Y-30150D02*
X66500Y-33250D01*
X66500Y-27300D02*
X66500Y-28950D01*
X66500Y-23350D02*
X66500Y-26100D01*
X66500Y-20500D02*
X66500Y-22150D01*
X66500Y-16950D02*
X66500Y-19300D01*
X66500Y-15700D02*
X66500Y-16250D01*
X66450Y-34200D02*
X66450Y-35700D01*
X66450Y-30150D02*
X66450Y-33250D01*
X66450Y-27300D02*
X66450Y-28950D01*
X66450Y-23350D02*
X66450Y-26100D01*
X66450Y-20500D02*
X66450Y-22150D01*
X66450Y-16950D02*
X66450Y-19300D01*
X66450Y-15700D02*
X66450Y-16250D01*
X66400Y-34200D02*
X66400Y-35700D01*
X66400Y-30150D02*
X66400Y-33250D01*
X66400Y-23350D02*
X66400Y-28950D01*
X66400Y-16950D02*
X66400Y-22150D01*
X66400Y-15700D02*
X66400Y-16250D01*
X66350Y-34200D02*
X66350Y-35700D01*
X66350Y-30150D02*
X66350Y-33250D01*
X66350Y-23350D02*
X66350Y-28950D01*
X66350Y-16950D02*
X66350Y-22150D01*
X66350Y-15700D02*
X66350Y-16250D01*
X66300Y-34200D02*
X66300Y-35700D01*
X66300Y-30150D02*
X66300Y-33250D01*
X66300Y-23350D02*
X66300Y-28950D01*
X66300Y-16950D02*
X66300Y-22150D01*
X66300Y-15700D02*
X66300Y-16250D01*
X66250Y-34200D02*
X66250Y-35700D01*
X66250Y-30150D02*
X66250Y-33250D01*
X66250Y-23350D02*
X66250Y-28950D01*
X66250Y-16950D02*
X66250Y-22150D01*
X66250Y-15700D02*
X66250Y-16250D01*
X66200Y-34200D02*
X66200Y-35700D01*
X66200Y-30150D02*
X66200Y-33250D01*
X66200Y-23350D02*
X66200Y-28950D01*
X66200Y-16950D02*
X66200Y-22150D01*
X66200Y-15700D02*
X66200Y-16250D01*
X66150Y-34200D02*
X66150Y-35700D01*
X66150Y-30150D02*
X66150Y-33250D01*
X66150Y-23350D02*
X66150Y-28950D01*
X66150Y-16950D02*
X66150Y-22150D01*
X66150Y-15700D02*
X66150Y-16250D01*
X66100Y-34200D02*
X66100Y-35700D01*
X66100Y-30150D02*
X66100Y-33250D01*
X66100Y-23350D02*
X66100Y-28950D01*
X66100Y-16950D02*
X66100Y-22150D01*
X66100Y-15700D02*
X66100Y-16250D01*
X66050Y-34200D02*
X66050Y-35700D01*
X66050Y-30150D02*
X66050Y-33250D01*
X66050Y-23350D02*
X66050Y-28950D01*
X66050Y-16950D02*
X66050Y-22150D01*
X66050Y-15700D02*
X66050Y-16250D01*
X66000Y-34200D02*
X66000Y-35700D01*
X66000Y-30150D02*
X66000Y-33250D01*
X66000Y-23350D02*
X66000Y-28950D01*
X66000Y-16950D02*
X66000Y-22150D01*
X66000Y-15700D02*
X66000Y-16250D01*
X65950Y-34200D02*
X65950Y-35700D01*
X65950Y-31100D02*
X65950Y-33250D01*
X65950Y-24300D02*
X65950Y-28950D01*
X65950Y-16950D02*
X65950Y-22150D01*
X65950Y-15700D02*
X65950Y-16250D01*
X65900Y-34200D02*
X65900Y-35700D01*
X65900Y-31100D02*
X65900Y-33250D01*
X65900Y-24300D02*
X65900Y-28950D01*
X65900Y-16950D02*
X65900Y-22150D01*
X65900Y-15700D02*
X65900Y-16250D01*
X65850Y-34200D02*
X65850Y-35700D01*
X65850Y-31100D02*
X65850Y-33250D01*
X65850Y-24300D02*
X65850Y-28950D01*
X65850Y-16950D02*
X65850Y-22150D01*
X65850Y-15700D02*
X65850Y-16250D01*
X65800Y-34200D02*
X65800Y-35700D01*
X65800Y-31100D02*
X65800Y-33250D01*
X65800Y-24300D02*
X65800Y-28950D01*
X65800Y-16950D02*
X65800Y-22150D01*
X65800Y-15700D02*
X65800Y-16250D01*
X65750Y-34200D02*
X65750Y-35700D01*
X65750Y-31100D02*
X65750Y-33250D01*
X65750Y-24300D02*
X65750Y-28950D01*
X65750Y-16950D02*
X65750Y-22150D01*
X65750Y-15700D02*
X65750Y-16250D01*
X65700Y-34200D02*
X65700Y-35700D01*
X65700Y-31100D02*
X65700Y-33250D01*
X65700Y-24300D02*
X65700Y-28950D01*
X65700Y-16950D02*
X65700Y-22150D01*
X65700Y-15700D02*
X65700Y-16250D01*
X65650Y-34200D02*
X65650Y-35700D01*
X65650Y-31100D02*
X65650Y-33250D01*
X65650Y-24300D02*
X65650Y-28950D01*
X65650Y-16950D02*
X65650Y-22150D01*
X65650Y-15700D02*
X65650Y-16250D01*
X65600Y-34200D02*
X65600Y-35700D01*
X65600Y-31100D02*
X65600Y-33250D01*
X65600Y-24300D02*
X65600Y-28950D01*
X65600Y-16950D02*
X65600Y-22150D01*
X65600Y-15700D02*
X65600Y-16250D01*
X65550Y-34200D02*
X65550Y-35700D01*
X65550Y-31100D02*
X65550Y-33250D01*
X65550Y-24300D02*
X65550Y-28950D01*
X65550Y-16950D02*
X65550Y-22150D01*
X65550Y-15700D02*
X65550Y-16250D01*
X65500Y-34200D02*
X65500Y-35700D01*
X65500Y-31100D02*
X65500Y-33250D01*
X65500Y-24300D02*
X65500Y-28950D01*
X65500Y-16950D02*
X65500Y-22150D01*
X65500Y-15700D02*
X65500Y-16250D01*
X65450Y-34200D02*
X65450Y-35700D01*
X65450Y-31100D02*
X65450Y-33250D01*
X65450Y-24300D02*
X65450Y-28950D01*
X65450Y-16950D02*
X65450Y-22150D01*
X65450Y-15700D02*
X65450Y-16250D01*
X65400Y-34200D02*
X65400Y-35700D01*
X65400Y-31100D02*
X65400Y-33250D01*
X65400Y-24300D02*
X65400Y-28950D01*
X65400Y-16950D02*
X65400Y-22150D01*
X65400Y-15700D02*
X65400Y-16250D01*
X65350Y-34200D02*
X65350Y-35700D01*
X65350Y-31100D02*
X65350Y-33250D01*
X65350Y-24300D02*
X65350Y-28950D01*
X65350Y-16950D02*
X65350Y-22150D01*
X65350Y-15700D02*
X65350Y-16250D01*
X65300Y-34200D02*
X65300Y-35700D01*
X65300Y-31100D02*
X65300Y-33250D01*
X65300Y-24300D02*
X65300Y-28950D01*
X65300Y-16950D02*
X65300Y-22150D01*
X65300Y-15700D02*
X65300Y-16250D01*
X65250Y-34200D02*
X65250Y-35700D01*
X65250Y-31100D02*
X65250Y-33250D01*
X65250Y-24300D02*
X65250Y-28950D01*
X65250Y-16950D02*
X65250Y-22150D01*
X65250Y-15700D02*
X65250Y-16250D01*
X65200Y-34200D02*
X65200Y-35700D01*
X65200Y-31100D02*
X65200Y-33250D01*
X65200Y-24300D02*
X65200Y-29850D01*
X65200Y-16950D02*
X65200Y-23050D01*
X65200Y-15700D02*
X65200Y-16250D01*
X65150Y-31100D02*
X65150Y-35700D01*
X65150Y-24300D02*
X65150Y-29850D01*
X65150Y-16950D02*
X65150Y-23050D01*
X65150Y-15700D02*
X65150Y-16250D01*
X65100Y-31100D02*
X65100Y-35700D01*
X65100Y-24300D02*
X65100Y-29850D01*
X65100Y-17850D02*
X65100Y-23050D01*
X65100Y-16950D02*
X65100Y-17350D01*
X65100Y-15850D02*
X65100Y-16250D01*
X65050Y-31100D02*
X65050Y-35700D01*
X65050Y-24300D02*
X65050Y-29850D01*
X65050Y-17950D02*
X65050Y-23050D01*
X65050Y-16950D02*
X65050Y-17250D01*
X65050Y-15950D02*
X65050Y-16250D01*
X65000Y-31100D02*
X65000Y-35700D01*
X65000Y-24300D02*
X65000Y-29850D01*
X65000Y-18000D02*
X65000Y-23050D01*
X65000Y-16950D02*
X65000Y-17200D01*
X65000Y-16000D02*
X65000Y-16250D01*
X64950Y-31100D02*
X64950Y-35700D01*
X64950Y-24300D02*
X64950Y-29850D01*
X64950Y-18050D02*
X64950Y-23050D01*
X64950Y-16950D02*
X64950Y-17150D01*
X64950Y-16050D02*
X64950Y-16250D01*
X64900Y-31100D02*
X64900Y-35700D01*
X64900Y-24300D02*
X64900Y-29850D01*
X64900Y-18300D02*
X64900Y-23050D01*
X64900Y-16950D02*
X64900Y-17100D01*
X64900Y-16100D02*
X64900Y-16250D01*
X64850Y-31100D02*
X64850Y-35700D01*
X64850Y-24300D02*
X64850Y-29850D01*
X64850Y-18400D02*
X64850Y-23050D01*
X64850Y-16950D02*
X64850Y-17100D01*
X64850Y-16100D02*
X64850Y-16250D01*
X64800Y-31100D02*
X64800Y-35700D01*
X64800Y-24300D02*
X64800Y-29850D01*
X64800Y-18450D02*
X64800Y-23050D01*
X64800Y-17000D02*
X64800Y-17050D01*
X64800Y-16150D02*
X64800Y-16250D01*
X64750Y-31100D02*
X64750Y-35700D01*
X64750Y-24300D02*
X64750Y-29850D01*
X64750Y-18500D02*
X64750Y-23050D01*
X64750Y-16150D02*
X64750Y-16250D01*
X64700Y-31100D02*
X64700Y-35700D01*
X64700Y-24300D02*
X64700Y-29850D01*
X64700Y-18550D02*
X64700Y-23050D01*
X64700Y-16150D02*
X64700Y-16250D01*
X64650Y-18600D02*
X64650Y-35700D01*
X64650Y-16150D02*
X64650Y-16250D01*
X64600Y-27600D02*
X64600Y-35700D01*
X64600Y-20800D02*
X64600Y-26250D01*
X64600Y-18650D02*
X64600Y-19450D01*
X64600Y-16150D02*
X64600Y-16250D01*
X64550Y-27600D02*
X64550Y-35700D01*
X64550Y-20800D02*
X64550Y-26250D01*
X64550Y-18700D02*
X64550Y-19450D01*
X64550Y-16150D02*
X64550Y-16300D01*
X64500Y-27600D02*
X64500Y-35700D01*
X64500Y-20800D02*
X64500Y-26250D01*
X64500Y-18750D02*
X64500Y-19450D01*
X64500Y-16150D02*
X64500Y-16300D01*
X64450Y-27600D02*
X64450Y-35700D01*
X64450Y-20800D02*
X64450Y-26250D01*
X64450Y-18800D02*
X64450Y-19450D01*
X64450Y-16150D02*
X64450Y-16350D01*
X64400Y-27600D02*
X64400Y-35700D01*
X64400Y-20800D02*
X64400Y-26250D01*
X64400Y-18850D02*
X64400Y-19450D01*
X64400Y-16150D02*
X64400Y-16400D01*
X64350Y-27600D02*
X64350Y-35700D01*
X64350Y-20800D02*
X64350Y-26250D01*
X64350Y-18900D02*
X64350Y-19450D01*
X64350Y-16100D02*
X64350Y-16450D01*
X64300Y-27600D02*
X64300Y-35700D01*
X64300Y-20800D02*
X64300Y-26250D01*
X64300Y-18950D02*
X64300Y-19450D01*
X64300Y-16100D02*
X64300Y-16500D01*
X64250Y-27600D02*
X64250Y-35700D01*
X64250Y-20800D02*
X64250Y-26250D01*
X64250Y-19000D02*
X64250Y-19450D01*
X64250Y-16050D02*
X64250Y-16550D01*
X64200Y-27600D02*
X64200Y-35700D01*
X64200Y-20800D02*
X64200Y-26250D01*
X64200Y-19050D02*
X64200Y-19450D01*
X64200Y-18000D02*
X64200Y-18050D01*
X64200Y-16000D02*
X64200Y-16600D01*
X64150Y-34850D02*
X64150Y-35700D01*
X64150Y-27600D02*
X64150Y-33400D01*
X64150Y-20800D02*
X64150Y-26250D01*
X64150Y-19100D02*
X64150Y-19450D01*
X64150Y-17950D02*
X64150Y-18100D01*
X64150Y-15950D02*
X64150Y-16650D01*
X64100Y-34850D02*
X64100Y-35700D01*
X64100Y-27600D02*
X64100Y-33400D01*
X64100Y-20800D02*
X64100Y-26250D01*
X64100Y-19150D02*
X64100Y-19450D01*
X64100Y-17850D02*
X64100Y-18150D01*
X64100Y-15850D02*
X64100Y-16700D01*
X64050Y-34850D02*
X64050Y-35700D01*
X64050Y-27600D02*
X64050Y-33400D01*
X64050Y-20800D02*
X64050Y-26250D01*
X64050Y-19200D02*
X64050Y-19450D01*
X64050Y-17850D02*
X64050Y-18200D01*
X64050Y-15700D02*
X64050Y-16750D01*
X64000Y-34850D02*
X64000Y-35700D01*
X64000Y-27600D02*
X64000Y-33400D01*
X64000Y-20800D02*
X64000Y-26250D01*
X64000Y-19250D02*
X64000Y-19450D01*
X64000Y-17900D02*
X64000Y-18250D01*
X64000Y-15700D02*
X64000Y-16800D01*
X63950Y-34850D02*
X63950Y-35700D01*
X63950Y-27600D02*
X63950Y-33400D01*
X63950Y-20800D02*
X63950Y-26250D01*
X63950Y-19300D02*
X63950Y-19450D01*
X63950Y-17950D02*
X63950Y-18300D01*
X63950Y-15700D02*
X63950Y-16850D01*
X63900Y-34850D02*
X63900Y-35700D01*
X63900Y-27600D02*
X63900Y-33400D01*
X63900Y-20800D02*
X63900Y-26250D01*
X63900Y-19350D02*
X63900Y-19450D01*
X63900Y-18000D02*
X63900Y-18350D01*
X63900Y-15700D02*
X63900Y-16900D01*
X63850Y-34850D02*
X63850Y-35700D01*
X63850Y-27600D02*
X63850Y-33400D01*
X63850Y-20800D02*
X63850Y-26250D01*
X63850Y-19400D02*
X63850Y-19450D01*
X63850Y-18050D02*
X63850Y-18400D01*
X63850Y-15700D02*
X63850Y-16950D01*
X63800Y-34850D02*
X63800Y-35700D01*
X63800Y-27600D02*
X63800Y-33400D01*
X63800Y-20800D02*
X63800Y-26250D01*
X63800Y-18100D02*
X63800Y-18450D01*
X63800Y-15700D02*
X63800Y-17000D01*
X63750Y-34850D02*
X63750Y-35700D01*
X63750Y-27600D02*
X63750Y-33400D01*
X63750Y-20800D02*
X63750Y-26250D01*
X63750Y-18200D02*
X63750Y-18500D01*
X63750Y-15700D02*
X63750Y-17050D01*
X63700Y-34850D02*
X63700Y-35700D01*
X63700Y-27600D02*
X63700Y-33400D01*
X63700Y-20800D02*
X63700Y-26250D01*
X63700Y-18300D02*
X63700Y-18550D01*
X63700Y-15700D02*
X63700Y-17150D01*
X63650Y-34850D02*
X63650Y-35700D01*
X63650Y-27600D02*
X63650Y-33400D01*
X63650Y-20800D02*
X63650Y-26250D01*
X63650Y-18350D02*
X63650Y-18600D01*
X63650Y-15700D02*
X63650Y-17250D01*
X63600Y-34850D02*
X63600Y-35700D01*
X63600Y-27600D02*
X63600Y-33400D01*
X63600Y-20800D02*
X63600Y-26250D01*
X63600Y-18350D02*
X63600Y-18650D01*
X63600Y-15700D02*
X63600Y-17300D01*
X63550Y-34850D02*
X63550Y-35700D01*
X63550Y-27600D02*
X63550Y-33400D01*
X63550Y-20800D02*
X63550Y-26250D01*
X63550Y-18400D02*
X63550Y-18700D01*
X63550Y-15700D02*
X63550Y-17350D01*
X63500Y-34850D02*
X63500Y-35700D01*
X63500Y-27600D02*
X63500Y-33400D01*
X63500Y-20800D02*
X63500Y-26250D01*
X63500Y-18400D02*
X63500Y-18750D01*
X63500Y-15700D02*
X63500Y-17400D01*
X63450Y-34850D02*
X63450Y-35700D01*
X63450Y-19750D02*
X63450Y-33400D01*
X63450Y-18400D02*
X63450Y-18800D01*
X63450Y-15700D02*
X63450Y-17450D01*
X63400Y-34850D02*
X63400Y-35700D01*
X63400Y-19750D02*
X63400Y-33400D01*
X63400Y-18400D02*
X63400Y-18850D01*
X63400Y-15700D02*
X63400Y-17500D01*
X63350Y-34850D02*
X63350Y-35700D01*
X63350Y-19750D02*
X63350Y-33400D01*
X63350Y-18400D02*
X63350Y-18900D01*
X63350Y-15700D02*
X63350Y-17550D01*
X63300Y-34850D02*
X63300Y-35700D01*
X63300Y-19750D02*
X63300Y-33400D01*
X63300Y-18400D02*
X63300Y-18950D01*
X63300Y-15700D02*
X63300Y-17600D01*
X63250Y-34850D02*
X63250Y-35700D01*
X63250Y-19750D02*
X63250Y-33400D01*
X63250Y-18400D02*
X63250Y-18950D01*
X63250Y-15700D02*
X63250Y-17600D01*
X63200Y-34850D02*
X63200Y-35700D01*
X63200Y-19700D02*
X63200Y-33400D01*
X63200Y-18350D02*
X63200Y-19000D01*
X63200Y-15700D02*
X63200Y-17650D01*
X63150Y-34850D02*
X63150Y-35700D01*
X63150Y-19700D02*
X63150Y-33400D01*
X63150Y-18350D02*
X63150Y-19000D01*
X63150Y-15700D02*
X63150Y-17650D01*
X63100Y-34850D02*
X63100Y-35700D01*
X63100Y-19650D02*
X63100Y-33400D01*
X63100Y-18300D02*
X63100Y-19050D01*
X63100Y-15700D02*
X63100Y-17700D01*
X63050Y-34850D02*
X63050Y-35700D01*
X63050Y-19550D02*
X63050Y-33400D01*
X63050Y-18200D02*
X63050Y-19150D01*
X63050Y-15700D02*
X63050Y-17800D01*
X63000Y-34850D02*
X63000Y-35700D01*
X63000Y-15700D02*
X63000Y-33400D01*
X62950Y-15700D02*
X62950Y-35700D01*
X62900Y-15700D02*
X62900Y-35700D01*
X62850Y-15700D02*
X62850Y-35700D01*
X62800Y-15700D02*
X62800Y-35700D01*
X62750Y-15700D02*
X62750Y-35700D01*
X62700Y-15700D02*
X62700Y-35700D01*
X62650Y-15700D02*
X62650Y-35700D01*
X62600Y-15700D02*
X62600Y-35700D01*
X62550Y-15700D02*
X62550Y-35700D01*
X62500Y-15700D02*
X62500Y-35700D01*
X62450Y-15700D02*
X62450Y-35700D01*
X62400Y-15700D02*
X62400Y-35700D01*
X62350Y-15700D02*
X62350Y-35700D01*
X62300Y-15700D02*
X62300Y-35700D01*
X62250Y-15700D02*
X62250Y-35700D01*
X62200Y-15700D02*
X62200Y-35700D01*
X62150Y-15700D02*
X62150Y-35700D01*
X62100Y-15700D02*
X62100Y-35700D01*
X62050Y-15700D02*
X62050Y-35700D01*
X62000Y-15700D02*
X62000Y-35700D01*
X61950Y-15700D02*
X61950Y-35700D01*
X61900Y-18550D02*
X61900Y-35700D01*
X61900Y-15700D02*
X61900Y-18000D01*
X61850Y-18650D02*
X61850Y-35700D01*
X61850Y-15700D02*
X61850Y-17200D01*
X61800Y-18700D02*
X61800Y-35700D01*
X61800Y-15700D02*
X61800Y-17100D01*
X61750Y-18750D02*
X61750Y-35700D01*
X61750Y-15700D02*
X61750Y-17050D01*
X61700Y-18800D02*
X61700Y-35700D01*
X61700Y-15700D02*
X61700Y-17050D01*
X61650Y-18850D02*
X61650Y-35700D01*
X61650Y-15700D02*
X61650Y-17000D01*
X61600Y-18900D02*
X61600Y-35700D01*
X61600Y-15700D02*
X61600Y-17000D01*
X61550Y-19000D02*
X61550Y-35700D01*
X61550Y-15700D02*
X61550Y-17000D01*
X61500Y-19100D02*
X61500Y-35700D01*
X61500Y-15700D02*
X61500Y-17000D01*
X61450Y-19150D02*
X61450Y-35700D01*
X61450Y-15700D02*
X61450Y-17000D01*
X61400Y-19150D02*
X61400Y-35700D01*
X61400Y-15700D02*
X61400Y-17000D01*
X61350Y-19200D02*
X61350Y-35700D01*
X61350Y-15700D02*
X61350Y-17000D01*
X61300Y-19200D02*
X61300Y-35700D01*
X61300Y-15700D02*
X61300Y-17050D01*
X61250Y-19200D02*
X61250Y-35700D01*
X61250Y-15700D02*
X61250Y-17050D01*
X61200Y-19200D02*
X61200Y-35700D01*
X61200Y-17750D02*
X61200Y-18300D01*
X61200Y-15700D02*
X61200Y-17100D01*
X61150Y-26200D02*
X61150Y-35700D01*
X61150Y-19200D02*
X61150Y-25800D01*
X61150Y-17600D02*
X61150Y-18350D01*
X61150Y-15700D02*
X61150Y-17200D01*
X61100Y-26300D02*
X61100Y-35700D01*
X61100Y-19200D02*
X61100Y-21950D01*
X61100Y-15700D02*
X61100Y-18400D01*
X61050Y-26350D02*
X61050Y-35700D01*
X61050Y-19200D02*
X61050Y-21850D01*
X61050Y-15700D02*
X61050Y-18400D01*
X61000Y-26350D02*
X61000Y-35700D01*
X61000Y-19150D02*
X61000Y-21800D01*
X61000Y-15700D02*
X61000Y-18450D01*
X60950Y-26400D02*
X60950Y-35700D01*
X60950Y-19150D02*
X60950Y-21750D01*
X60950Y-15700D02*
X60950Y-18450D01*
X60900Y-26400D02*
X60900Y-35700D01*
X60900Y-19100D02*
X60900Y-21700D01*
X60900Y-15700D02*
X60900Y-18500D01*
X60850Y-26400D02*
X60850Y-35700D01*
X60850Y-19000D02*
X60850Y-21650D01*
X60850Y-15700D02*
X60850Y-18600D01*
X60800Y-26400D02*
X60800Y-35700D01*
X60800Y-15700D02*
X60800Y-21600D01*
X60750Y-26400D02*
X60750Y-35700D01*
X60750Y-15700D02*
X60750Y-21550D01*
X60700Y-26400D02*
X60700Y-35700D01*
X60700Y-15700D02*
X60700Y-21500D01*
X60650Y-26400D02*
X60650Y-35700D01*
X60650Y-15700D02*
X60650Y-21450D01*
X60600Y-26350D02*
X60600Y-35700D01*
X60600Y-15700D02*
X60600Y-21400D01*
X60550Y-26350D02*
X60550Y-35700D01*
X60550Y-15700D02*
X60550Y-21350D01*
X60500Y-26300D02*
X60500Y-35700D01*
X60500Y-15700D02*
X60500Y-21300D01*
X60450Y-26200D02*
X60450Y-35700D01*
X60450Y-22250D02*
X60450Y-25800D01*
X60450Y-15700D02*
X60450Y-21250D01*
X60400Y-22200D02*
X60400Y-35700D01*
X60400Y-15700D02*
X60400Y-21200D01*
X60350Y-22150D02*
X60350Y-35700D01*
X60350Y-15700D02*
X60350Y-21150D01*
X60300Y-22100D02*
X60300Y-35700D01*
X60300Y-15700D02*
X60300Y-21100D01*
X60250Y-22050D02*
X60250Y-35700D01*
X60250Y-15700D02*
X60250Y-21050D01*
X60200Y-22000D02*
X60200Y-35700D01*
X60200Y-15700D02*
X60200Y-21000D01*
X60150Y-21950D02*
X60150Y-35700D01*
X60150Y-15700D02*
X60150Y-20900D01*
X60100Y-21900D02*
X60100Y-35700D01*
X60100Y-15700D02*
X60100Y-20800D01*
X60050Y-21850D02*
X60050Y-35700D01*
X60050Y-15700D02*
X60050Y-20750D01*
X60000Y-21800D02*
X60000Y-35700D01*
X60000Y-15700D02*
X60000Y-20750D01*
X59950Y-21750D02*
X59950Y-35700D01*
X59950Y-15700D02*
X59950Y-20700D01*
X59900Y-21700D02*
X59900Y-35700D01*
X59900Y-15700D02*
X59900Y-20700D01*
X59850Y-26900D02*
X59850Y-35700D01*
X59850Y-21650D02*
X59850Y-26500D01*
X59850Y-15700D02*
X59850Y-20700D01*
X59800Y-27000D02*
X59800Y-35700D01*
X59800Y-21600D02*
X59800Y-26400D01*
X59800Y-15700D02*
X59800Y-20700D01*
X59750Y-27050D02*
X59750Y-35700D01*
X59750Y-21550D02*
X59750Y-26350D01*
X59750Y-15700D02*
X59750Y-20700D01*
X59700Y-27050D02*
X59700Y-35700D01*
X59700Y-21500D02*
X59700Y-26350D01*
X59700Y-15700D02*
X59700Y-20700D01*
X59650Y-27100D02*
X59650Y-35700D01*
X59650Y-21500D02*
X59650Y-26300D01*
X59650Y-15700D02*
X59650Y-20700D01*
X59600Y-27100D02*
X59600Y-35700D01*
X59600Y-21450D02*
X59600Y-26300D01*
X59600Y-15700D02*
X59600Y-20750D01*
X59550Y-27100D02*
X59550Y-35700D01*
X59550Y-21450D02*
X59550Y-26250D01*
X59550Y-15700D02*
X59550Y-20750D01*
X59500Y-27100D02*
X59500Y-35700D01*
X59500Y-21400D02*
X59500Y-26200D01*
X59500Y-15700D02*
X59500Y-20800D01*
X59450Y-31100D02*
X59450Y-35700D01*
X59450Y-27100D02*
X59450Y-30700D01*
X59450Y-21300D02*
X59450Y-26150D01*
X59450Y-15700D02*
X59450Y-20900D01*
X59400Y-31200D02*
X59400Y-35700D01*
X59400Y-27100D02*
X59400Y-29350D01*
X59400Y-15700D02*
X59400Y-26100D01*
X59350Y-31250D02*
X59350Y-35700D01*
X59350Y-27100D02*
X59350Y-29250D01*
X59350Y-15700D02*
X59350Y-26050D01*
X59300Y-31250D02*
X59300Y-35700D01*
X59300Y-27050D02*
X59300Y-29200D01*
X59300Y-15700D02*
X59300Y-26000D01*
X59250Y-31300D02*
X59250Y-35700D01*
X59250Y-27050D02*
X59250Y-29150D01*
X59250Y-15700D02*
X59250Y-25950D01*
X59200Y-31300D02*
X59200Y-35700D01*
X59200Y-27000D02*
X59200Y-29100D01*
X59200Y-15700D02*
X59200Y-25900D01*
X59150Y-31300D02*
X59150Y-35700D01*
X59150Y-26900D02*
X59150Y-29050D01*
X59150Y-15700D02*
X59150Y-25850D01*
X59100Y-31300D02*
X59100Y-35700D01*
X59100Y-26800D02*
X59100Y-29000D01*
X59100Y-15700D02*
X59100Y-25800D01*
X59050Y-31300D02*
X59050Y-35700D01*
X59050Y-26750D02*
X59050Y-28950D01*
X59050Y-15700D02*
X59050Y-25750D01*
X59000Y-31300D02*
X59000Y-35700D01*
X59000Y-26700D02*
X59000Y-28900D01*
X59000Y-15700D02*
X59000Y-25700D01*
X58950Y-31300D02*
X58950Y-35700D01*
X58950Y-26650D02*
X58950Y-28850D01*
X58950Y-24850D02*
X58950Y-25650D01*
X58950Y-15700D02*
X58950Y-23600D01*
X58900Y-31250D02*
X58900Y-35700D01*
X58900Y-26600D02*
X58900Y-28800D01*
X58900Y-24850D02*
X58900Y-25600D01*
X58900Y-15700D02*
X58900Y-23600D01*
X58850Y-31250D02*
X58850Y-35700D01*
X58850Y-26550D02*
X58850Y-28750D01*
X58850Y-24850D02*
X58850Y-25550D01*
X58850Y-15700D02*
X58850Y-23600D01*
X58800Y-31200D02*
X58800Y-35700D01*
X58800Y-26500D02*
X58800Y-28700D01*
X58800Y-24850D02*
X58800Y-25500D01*
X58800Y-15700D02*
X58800Y-23600D01*
X58750Y-31100D02*
X58750Y-35700D01*
X58750Y-30550D02*
X58750Y-30700D01*
X58750Y-26450D02*
X58750Y-28700D01*
X58750Y-24850D02*
X58750Y-25450D01*
X58750Y-15700D02*
X58750Y-23600D01*
X58700Y-30550D02*
X58700Y-35700D01*
X58700Y-26400D02*
X58700Y-28650D01*
X58700Y-24850D02*
X58700Y-25400D01*
X58700Y-15700D02*
X58700Y-23600D01*
X58650Y-30550D02*
X58650Y-35700D01*
X58650Y-26350D02*
X58650Y-28650D01*
X58650Y-24850D02*
X58650Y-25350D01*
X58650Y-15700D02*
X58650Y-23600D01*
X58600Y-30550D02*
X58600Y-35700D01*
X58600Y-26300D02*
X58600Y-28650D01*
X58600Y-24850D02*
X58600Y-25300D01*
X58600Y-15700D02*
X58600Y-23600D01*
X58550Y-30550D02*
X58550Y-35700D01*
X58550Y-26250D02*
X58550Y-28650D01*
X58550Y-24850D02*
X58550Y-25250D01*
X58550Y-15700D02*
X58550Y-23600D01*
X58500Y-30550D02*
X58500Y-35700D01*
X58500Y-26200D02*
X58500Y-28650D01*
X58500Y-24850D02*
X58500Y-25200D01*
X58500Y-15700D02*
X58500Y-23600D01*
X58450Y-30550D02*
X58450Y-35700D01*
X58450Y-26150D02*
X58450Y-28650D01*
X58450Y-24850D02*
X58450Y-25150D01*
X58450Y-15700D02*
X58450Y-23600D01*
X58400Y-30550D02*
X58400Y-35700D01*
X58400Y-26100D02*
X58400Y-28650D01*
X58400Y-24850D02*
X58400Y-25100D01*
X58400Y-15700D02*
X58400Y-23600D01*
X58350Y-30550D02*
X58350Y-35700D01*
X58350Y-26050D02*
X58350Y-28650D01*
X58350Y-24850D02*
X58350Y-25050D01*
X58350Y-15700D02*
X58350Y-23600D01*
X58300Y-30550D02*
X58300Y-35700D01*
X58300Y-28300D02*
X58300Y-28650D01*
X58300Y-24850D02*
X58300Y-25000D01*
X58300Y-15700D02*
X58300Y-23600D01*
X58250Y-30550D02*
X58250Y-35700D01*
X58250Y-28300D02*
X58250Y-28650D01*
X58250Y-24850D02*
X58250Y-25000D01*
X58250Y-15700D02*
X58250Y-23600D01*
X58200Y-30550D02*
X58200Y-35700D01*
X58200Y-28300D02*
X58200Y-28650D01*
X58200Y-24850D02*
X58200Y-24950D01*
X58200Y-15700D02*
X58200Y-23600D01*
X58150Y-30550D02*
X58150Y-35700D01*
X58150Y-28300D02*
X58150Y-28650D01*
X58150Y-24850D02*
X58150Y-24950D01*
X58150Y-15700D02*
X58150Y-23600D01*
X58100Y-30550D02*
X58100Y-35700D01*
X58100Y-28300D02*
X58100Y-28650D01*
X58100Y-25800D02*
X58100Y-25850D01*
X58100Y-24850D02*
X58100Y-24950D01*
X58100Y-15700D02*
X58100Y-23600D01*
X58050Y-30550D02*
X58050Y-35700D01*
X58050Y-28300D02*
X58050Y-28650D01*
X58050Y-25750D02*
X58050Y-25850D01*
X58050Y-24850D02*
X58050Y-24950D01*
X58050Y-15700D02*
X58050Y-23600D01*
X58000Y-30550D02*
X58000Y-35700D01*
X58000Y-28300D02*
X58000Y-28650D01*
X58000Y-25700D02*
X58000Y-25850D01*
X58000Y-24850D02*
X58000Y-24950D01*
X58000Y-15700D02*
X58000Y-23600D01*
X57950Y-30550D02*
X57950Y-35700D01*
X57950Y-28300D02*
X57950Y-28650D01*
X57950Y-25650D02*
X57950Y-25850D01*
X57950Y-24850D02*
X57950Y-24950D01*
X57950Y-15700D02*
X57950Y-23600D01*
X57900Y-30550D02*
X57900Y-35700D01*
X57900Y-28300D02*
X57900Y-28650D01*
X57900Y-25650D02*
X57900Y-25850D01*
X57900Y-24850D02*
X57900Y-24950D01*
X57900Y-15700D02*
X57900Y-23600D01*
X57850Y-30550D02*
X57850Y-35700D01*
X57850Y-28300D02*
X57850Y-28650D01*
X57850Y-25650D02*
X57850Y-25850D01*
X57850Y-24850D02*
X57850Y-24950D01*
X57850Y-15700D02*
X57850Y-23600D01*
X57800Y-30550D02*
X57800Y-35700D01*
X57800Y-28300D02*
X57800Y-28600D01*
X57800Y-25650D02*
X57800Y-25850D01*
X57800Y-24850D02*
X57800Y-24950D01*
X57800Y-15700D02*
X57800Y-23600D01*
X57750Y-30550D02*
X57750Y-35700D01*
X57750Y-28300D02*
X57750Y-28550D01*
X57750Y-25650D02*
X57750Y-25850D01*
X57750Y-24850D02*
X57750Y-24950D01*
X57750Y-15700D02*
X57750Y-23600D01*
X57700Y-30550D02*
X57700Y-35700D01*
X57700Y-28300D02*
X57700Y-28500D01*
X57700Y-25650D02*
X57700Y-25850D01*
X57700Y-24850D02*
X57700Y-24950D01*
X57700Y-15700D02*
X57700Y-23600D01*
X57650Y-30550D02*
X57650Y-35700D01*
X57650Y-28300D02*
X57650Y-28450D01*
X57650Y-25650D02*
X57650Y-25850D01*
X57650Y-24850D02*
X57650Y-24950D01*
X57650Y-15700D02*
X57650Y-23600D01*
X57600Y-29350D02*
X57600Y-35700D01*
X57600Y-28300D02*
X57600Y-28400D01*
X57600Y-25650D02*
X57600Y-25850D01*
X57600Y-15700D02*
X57600Y-24950D01*
X57550Y-29300D02*
X57550Y-35700D01*
X57550Y-28300D02*
X57550Y-28350D01*
X57550Y-25650D02*
X57550Y-25850D01*
X57550Y-15700D02*
X57550Y-24950D01*
X57500Y-29300D02*
X57500Y-35700D01*
X57500Y-25650D02*
X57500Y-25850D01*
X57500Y-15700D02*
X57500Y-24950D01*
X57450Y-29250D02*
X57450Y-35700D01*
X57450Y-25650D02*
X57450Y-28250D01*
X57450Y-15700D02*
X57450Y-24950D01*
X57400Y-29200D02*
X57400Y-35700D01*
X57400Y-25650D02*
X57400Y-28200D01*
X57400Y-15700D02*
X57400Y-24950D01*
X57350Y-29150D02*
X57350Y-35700D01*
X57350Y-25650D02*
X57350Y-28150D01*
X57350Y-15700D02*
X57350Y-24950D01*
X57300Y-29100D02*
X57300Y-35700D01*
X57300Y-25650D02*
X57300Y-28100D01*
X57300Y-15700D02*
X57300Y-24950D01*
X57250Y-29050D02*
X57250Y-35700D01*
X57250Y-25650D02*
X57250Y-28000D01*
X57250Y-15700D02*
X57250Y-24950D01*
X57200Y-29000D02*
X57200Y-35700D01*
X57200Y-25650D02*
X57200Y-27900D01*
X57200Y-15700D02*
X57200Y-24950D01*
X57150Y-28950D02*
X57150Y-35700D01*
X57150Y-25650D02*
X57150Y-27850D01*
X57150Y-15700D02*
X57150Y-24950D01*
X57100Y-28900D02*
X57100Y-35700D01*
X57100Y-25650D02*
X57100Y-27850D01*
X57100Y-15700D02*
X57100Y-24950D01*
X57050Y-28850D02*
X57050Y-35700D01*
X57050Y-25650D02*
X57050Y-27800D01*
X57050Y-15700D02*
X57050Y-24950D01*
X57000Y-28800D02*
X57000Y-35700D01*
X57000Y-25650D02*
X57000Y-27800D01*
X57000Y-15700D02*
X57000Y-24950D01*
X56950Y-28750D02*
X56950Y-35700D01*
X56950Y-25650D02*
X56950Y-27800D01*
X56950Y-15700D02*
X56950Y-24950D01*
X56900Y-28700D02*
X56900Y-35700D01*
X56900Y-25650D02*
X56900Y-27800D01*
X56900Y-15700D02*
X56900Y-24950D01*
X56850Y-28650D02*
X56850Y-35700D01*
X56850Y-25650D02*
X56850Y-27800D01*
X56850Y-15700D02*
X56850Y-24950D01*
X56800Y-28600D02*
X56800Y-35700D01*
X56800Y-25650D02*
X56800Y-27800D01*
X56800Y-15700D02*
X56800Y-24950D01*
X56750Y-28600D02*
X56750Y-35700D01*
X56750Y-25650D02*
X56750Y-27800D01*
X56750Y-15700D02*
X56750Y-24950D01*
X56700Y-28550D02*
X56700Y-35700D01*
X56700Y-25650D02*
X56700Y-27850D01*
X56700Y-15700D02*
X56700Y-24950D01*
X56650Y-28550D02*
X56650Y-35700D01*
X56650Y-25650D02*
X56650Y-27850D01*
X56650Y-15700D02*
X56650Y-24950D01*
X56600Y-28500D02*
X56600Y-35700D01*
X56600Y-25650D02*
X56600Y-27900D01*
X56600Y-15700D02*
X56600Y-24950D01*
X56550Y-28400D02*
X56550Y-35700D01*
X56550Y-25650D02*
X56550Y-28000D01*
X56550Y-15700D02*
X56550Y-24950D01*
X56500Y-25650D02*
X56500Y-35700D01*
X56500Y-15700D02*
X56500Y-24950D01*
X56450Y-25650D02*
X56450Y-35700D01*
X56450Y-15700D02*
X56450Y-24950D01*
X56400Y-25650D02*
X56400Y-35700D01*
X56400Y-15700D02*
X56400Y-24950D01*
X56350Y-25650D02*
X56350Y-35700D01*
X56350Y-15700D02*
X56350Y-24950D01*
X56300Y-25650D02*
X56300Y-35700D01*
X56300Y-15700D02*
X56300Y-24950D01*
X56250Y-25650D02*
X56250Y-35700D01*
X56250Y-15700D02*
X56250Y-24950D01*
X56200Y-25650D02*
X56200Y-35700D01*
X56200Y-15700D02*
X56200Y-24950D01*
X56150Y-25650D02*
X56150Y-35700D01*
X56150Y-15700D02*
X56150Y-24950D01*
X56100Y-28850D02*
X56100Y-35700D01*
X56100Y-26850D02*
X56100Y-28350D01*
X56100Y-25650D02*
X56100Y-26350D01*
X56100Y-15700D02*
X56100Y-24950D01*
X56050Y-28950D02*
X56050Y-35700D01*
X56050Y-26950D02*
X56050Y-28250D01*
X56050Y-25650D02*
X56050Y-26250D01*
X56050Y-15700D02*
X56050Y-24950D01*
X56000Y-29000D02*
X56000Y-35700D01*
X56000Y-27000D02*
X56000Y-28200D01*
X56000Y-25650D02*
X56000Y-26200D01*
X56000Y-15700D02*
X56000Y-24950D01*
X55950Y-29050D02*
X55950Y-35700D01*
X55950Y-27050D02*
X55950Y-28150D01*
X55950Y-25650D02*
X55950Y-26150D01*
X55950Y-15700D02*
X55950Y-24950D01*
X55900Y-29100D02*
X55900Y-35700D01*
X55900Y-27100D02*
X55900Y-28100D01*
X55900Y-25650D02*
X55900Y-26100D01*
X55900Y-15700D02*
X55900Y-24950D01*
X55850Y-29100D02*
X55850Y-35700D01*
X55850Y-27100D02*
X55850Y-28100D01*
X55850Y-25650D02*
X55850Y-26100D01*
X55850Y-15700D02*
X55850Y-24950D01*
X55800Y-29150D02*
X55800Y-35700D01*
X55800Y-27150D02*
X55800Y-28050D01*
X55800Y-25650D02*
X55800Y-26050D01*
X55800Y-15700D02*
X55800Y-24950D01*
X55750Y-29150D02*
X55750Y-35700D01*
X55750Y-27150D02*
X55750Y-28050D01*
X55750Y-25650D02*
X55750Y-26050D01*
X55750Y-15700D02*
X55750Y-24950D01*
X55700Y-29150D02*
X55700Y-35700D01*
X55700Y-27150D02*
X55700Y-28050D01*
X55700Y-25650D02*
X55700Y-26050D01*
X55700Y-15700D02*
X55700Y-24950D01*
X55650Y-29150D02*
X55650Y-35700D01*
X55650Y-27150D02*
X55650Y-28050D01*
X55650Y-25650D02*
X55650Y-26050D01*
X55650Y-15700D02*
X55650Y-24950D01*
X55600Y-29150D02*
X55600Y-35700D01*
X55600Y-27150D02*
X55600Y-28050D01*
X55600Y-25650D02*
X55600Y-26050D01*
X55600Y-15700D02*
X55600Y-24950D01*
X55550Y-29150D02*
X55550Y-35700D01*
X55550Y-27150D02*
X55550Y-28050D01*
X55550Y-25650D02*
X55550Y-26050D01*
X55550Y-15700D02*
X55550Y-24950D01*
X55500Y-29150D02*
X55500Y-35700D01*
X55500Y-27150D02*
X55500Y-28050D01*
X55500Y-25650D02*
X55500Y-26050D01*
X55500Y-15700D02*
X55500Y-24950D01*
X55450Y-29150D02*
X55450Y-35700D01*
X55450Y-27150D02*
X55450Y-28050D01*
X55450Y-25650D02*
X55450Y-26050D01*
X55450Y-15700D02*
X55450Y-24950D01*
X55400Y-29150D02*
X55400Y-35700D01*
X55400Y-27150D02*
X55400Y-28050D01*
X55400Y-25650D02*
X55400Y-26050D01*
X55400Y-21350D02*
X55400Y-24950D01*
X55400Y-15700D02*
X55400Y-20950D01*
X55350Y-29100D02*
X55350Y-35700D01*
X55350Y-27100D02*
X55350Y-28100D01*
X55350Y-25650D02*
X55350Y-26100D01*
X55350Y-21450D02*
X55350Y-24950D01*
X55350Y-15700D02*
X55350Y-20850D01*
X55300Y-29100D02*
X55300Y-35700D01*
X55300Y-27100D02*
X55300Y-28100D01*
X55300Y-25650D02*
X55300Y-26100D01*
X55300Y-21500D02*
X55300Y-24950D01*
X55300Y-15700D02*
X55300Y-20800D01*
X55250Y-29050D02*
X55250Y-35700D01*
X55250Y-27050D02*
X55250Y-28150D01*
X55250Y-25650D02*
X55250Y-26150D01*
X55250Y-21500D02*
X55250Y-24950D01*
X55250Y-15700D02*
X55250Y-20800D01*
X55200Y-29000D02*
X55200Y-35700D01*
X55200Y-27000D02*
X55200Y-28200D01*
X55200Y-25650D02*
X55200Y-26200D01*
X55200Y-21550D02*
X55200Y-24950D01*
X55200Y-15700D02*
X55200Y-20750D01*
X55150Y-28950D02*
X55150Y-35700D01*
X55150Y-26950D02*
X55150Y-28250D01*
X55150Y-25650D02*
X55150Y-26250D01*
X55150Y-21550D02*
X55150Y-24950D01*
X55150Y-15700D02*
X55150Y-20750D01*
X55100Y-28850D02*
X55100Y-35700D01*
X55100Y-26850D02*
X55100Y-28350D01*
X55100Y-25650D02*
X55100Y-26350D01*
X55100Y-21600D02*
X55100Y-24950D01*
X55100Y-15700D02*
X55100Y-20750D01*
X55050Y-25650D02*
X55050Y-35700D01*
X55050Y-21650D02*
X55050Y-24950D01*
X55050Y-15700D02*
X55050Y-20750D01*
X55000Y-25650D02*
X55000Y-35700D01*
X55000Y-21700D02*
X55000Y-24950D01*
X55000Y-15700D02*
X55000Y-20750D01*
X54950Y-25650D02*
X54950Y-35700D01*
X54950Y-21750D02*
X54950Y-24950D01*
X54950Y-15700D02*
X54950Y-20750D01*
X54900Y-25650D02*
X54900Y-35700D01*
X54900Y-21800D02*
X54900Y-24950D01*
X54900Y-15700D02*
X54900Y-20750D01*
X54850Y-25650D02*
X54850Y-35700D01*
X54850Y-21850D02*
X54850Y-24950D01*
X54850Y-15700D02*
X54850Y-20800D01*
X54800Y-25650D02*
X54800Y-35700D01*
X54800Y-21900D02*
X54800Y-24950D01*
X54800Y-15700D02*
X54800Y-20800D01*
X54750Y-25650D02*
X54750Y-35700D01*
X54750Y-21950D02*
X54750Y-24950D01*
X54750Y-15700D02*
X54750Y-20850D01*
X54700Y-25650D02*
X54700Y-35700D01*
X54700Y-22000D02*
X54700Y-24950D01*
X54700Y-15700D02*
X54700Y-20950D01*
X54650Y-25650D02*
X54650Y-35700D01*
X54650Y-22050D02*
X54650Y-24950D01*
X54650Y-15700D02*
X54650Y-21050D01*
X54600Y-25650D02*
X54600Y-35700D01*
X54600Y-22100D02*
X54600Y-24950D01*
X54600Y-15700D02*
X54600Y-21100D01*
X54550Y-25650D02*
X54550Y-35700D01*
X54550Y-22150D02*
X54550Y-24950D01*
X54550Y-15700D02*
X54550Y-21150D01*
X54500Y-25650D02*
X54500Y-35700D01*
X54500Y-22200D02*
X54500Y-24950D01*
X54500Y-15700D02*
X54500Y-21200D01*
X54450Y-25650D02*
X54450Y-35700D01*
X54450Y-22250D02*
X54450Y-24950D01*
X54450Y-15700D02*
X54450Y-21250D01*
X54400Y-25650D02*
X54400Y-35700D01*
X54400Y-22300D02*
X54400Y-24950D01*
X54400Y-15700D02*
X54400Y-21300D01*
X54350Y-25650D02*
X54350Y-35700D01*
X54350Y-22350D02*
X54350Y-24950D01*
X54350Y-17800D02*
X54350Y-21350D01*
X54350Y-15700D02*
X54350Y-16600D01*
X54300Y-25650D02*
X54300Y-35700D01*
X54300Y-22400D02*
X54300Y-24950D01*
X54300Y-17800D02*
X54300Y-21400D01*
X54300Y-15700D02*
X54300Y-16600D01*
X54250Y-25650D02*
X54250Y-35700D01*
X54250Y-22450D02*
X54250Y-24950D01*
X54250Y-17800D02*
X54250Y-21450D01*
X54250Y-15700D02*
X54250Y-16600D01*
X54200Y-25650D02*
X54200Y-35700D01*
X54200Y-22500D02*
X54200Y-24950D01*
X54200Y-17800D02*
X54200Y-21500D01*
X54200Y-15700D02*
X54200Y-16600D01*
X54150Y-25650D02*
X54150Y-35700D01*
X54150Y-22550D02*
X54150Y-24950D01*
X54150Y-17800D02*
X54150Y-21550D01*
X54150Y-15700D02*
X54150Y-16600D01*
X54100Y-25650D02*
X54100Y-35700D01*
X54100Y-22550D02*
X54100Y-24950D01*
X54100Y-17800D02*
X54100Y-21600D01*
X54100Y-15700D02*
X54100Y-16600D01*
X54050Y-25650D02*
X54050Y-35700D01*
X54050Y-22600D02*
X54050Y-24950D01*
X54050Y-17800D02*
X54050Y-21650D01*
X54050Y-15700D02*
X54050Y-16600D01*
X54000Y-25650D02*
X54000Y-35700D01*
X54000Y-22600D02*
X54000Y-24950D01*
X54000Y-17800D02*
X54000Y-21700D01*
X54000Y-15700D02*
X54000Y-16600D01*
X53950Y-25650D02*
X53950Y-35700D01*
X53950Y-22600D02*
X53950Y-24950D01*
X53950Y-17800D02*
X53950Y-21750D01*
X53950Y-15700D02*
X53950Y-16600D01*
X53900Y-25650D02*
X53900Y-35700D01*
X53900Y-22600D02*
X53900Y-24950D01*
X53900Y-17800D02*
X53900Y-21800D01*
X53900Y-15700D02*
X53900Y-16600D01*
X53850Y-25650D02*
X53850Y-35700D01*
X53850Y-22600D02*
X53850Y-24950D01*
X53850Y-17800D02*
X53850Y-21850D01*
X53850Y-15700D02*
X53850Y-16600D01*
X53800Y-25650D02*
X53800Y-35700D01*
X53800Y-22600D02*
X53800Y-24950D01*
X53800Y-17800D02*
X53800Y-21900D01*
X53800Y-15700D02*
X53800Y-16600D01*
X53750Y-25650D02*
X53750Y-35700D01*
X53750Y-22600D02*
X53750Y-24950D01*
X53750Y-17800D02*
X53750Y-21900D01*
X53750Y-15700D02*
X53750Y-16600D01*
X53700Y-25650D02*
X53700Y-35700D01*
X53700Y-22600D02*
X53700Y-24950D01*
X53700Y-17800D02*
X53700Y-21900D01*
X53700Y-15700D02*
X53700Y-16600D01*
X53650Y-25650D02*
X53650Y-35700D01*
X53650Y-22600D02*
X53650Y-24950D01*
X53650Y-17800D02*
X53650Y-21900D01*
X53650Y-15700D02*
X53650Y-16600D01*
X53600Y-25650D02*
X53600Y-35700D01*
X53600Y-22600D02*
X53600Y-24950D01*
X53600Y-17800D02*
X53600Y-21900D01*
X53600Y-15700D02*
X53600Y-16600D01*
X53550Y-25650D02*
X53550Y-35700D01*
X53550Y-22600D02*
X53550Y-24950D01*
X53550Y-17800D02*
X53550Y-21900D01*
X53550Y-15700D02*
X53550Y-16600D01*
X53500Y-25650D02*
X53500Y-35700D01*
X53500Y-22600D02*
X53500Y-24950D01*
X53500Y-17800D02*
X53500Y-21900D01*
X53500Y-15700D02*
X53500Y-16600D01*
X53450Y-25650D02*
X53450Y-35700D01*
X53450Y-22600D02*
X53450Y-24950D01*
X53450Y-17800D02*
X53450Y-21900D01*
X53450Y-15700D02*
X53450Y-16600D01*
X53400Y-25650D02*
X53400Y-35700D01*
X53400Y-22600D02*
X53400Y-24950D01*
X53400Y-17800D02*
X53400Y-21900D01*
X53400Y-15700D02*
X53400Y-16600D01*
X53350Y-25650D02*
X53350Y-35700D01*
X53350Y-22600D02*
X53350Y-24950D01*
X53350Y-17800D02*
X53350Y-21900D01*
X53350Y-15700D02*
X53350Y-16600D01*
X53300Y-25650D02*
X53300Y-35700D01*
X53300Y-22600D02*
X53300Y-24950D01*
X53300Y-17800D02*
X53300Y-21900D01*
X53300Y-15700D02*
X53300Y-16600D01*
X53250Y-25700D02*
X53250Y-35700D01*
X53250Y-22600D02*
X53250Y-24900D01*
X53250Y-17800D02*
X53250Y-21900D01*
X53250Y-15700D02*
X53250Y-16600D01*
X53200Y-25700D02*
X53200Y-35700D01*
X53200Y-22600D02*
X53200Y-24900D01*
X53200Y-15700D02*
X53200Y-21900D01*
X53150Y-25700D02*
X53150Y-35700D01*
X53150Y-22650D02*
X53150Y-24900D01*
X53150Y-15700D02*
X53150Y-21850D01*
X53100Y-25700D02*
X53100Y-35700D01*
X53100Y-22650D02*
X53100Y-24900D01*
X53100Y-15700D02*
X53100Y-21850D01*
X53050Y-25700D02*
X53050Y-35700D01*
X53050Y-22650D02*
X53050Y-24900D01*
X53050Y-15700D02*
X53050Y-21850D01*
X53000Y-25700D02*
X53000Y-35700D01*
X53000Y-22650D02*
X53000Y-24900D01*
X53000Y-15700D02*
X53000Y-21850D01*
X52950Y-25700D02*
X52950Y-35700D01*
X52950Y-22650D02*
X52950Y-24900D01*
X52950Y-15700D02*
X52950Y-21850D01*
X52900Y-25650D02*
X52900Y-35700D01*
X52900Y-22650D02*
X52900Y-24950D01*
X52900Y-15700D02*
X52900Y-21850D01*
X52850Y-25650D02*
X52850Y-35700D01*
X52850Y-22650D02*
X52850Y-24950D01*
X52850Y-15700D02*
X52850Y-21850D01*
X52800Y-25600D02*
X52800Y-35700D01*
X52800Y-22600D02*
X52800Y-25000D01*
X52800Y-15700D02*
X52800Y-21900D01*
X52750Y-25500D02*
X52750Y-35700D01*
X52750Y-22600D02*
X52750Y-25100D01*
X52750Y-15700D02*
X52750Y-21900D01*
X52700Y-22550D02*
X52700Y-35700D01*
X52700Y-15700D02*
X52700Y-21950D01*
X52650Y-22450D02*
X52650Y-35700D01*
X52650Y-15700D02*
X52650Y-22050D01*
X52600Y-15700D02*
X52600Y-35700D01*
X52550Y-15700D02*
X52550Y-35700D01*
X52500Y-15700D02*
X52500Y-35700D01*
X52450Y-15700D02*
X52450Y-35700D01*
X52400Y-15700D02*
X52400Y-35700D01*
X52350Y-17350D02*
X52350Y-35700D01*
X52350Y-15700D02*
X52350Y-17050D01*
X52300Y-17500D02*
X52300Y-35700D01*
X52300Y-15700D02*
X52300Y-16900D01*
X52250Y-17550D02*
X52250Y-35700D01*
X52250Y-15700D02*
X52250Y-16850D01*
X52200Y-17650D02*
X52200Y-35700D01*
X52200Y-15700D02*
X52200Y-16750D01*
X52150Y-17650D02*
X52150Y-35700D01*
X52150Y-15700D02*
X52150Y-16750D01*
X52100Y-27850D02*
X52100Y-35700D01*
X52100Y-17700D02*
X52100Y-27350D01*
X52100Y-15700D02*
X52100Y-16700D01*
X52050Y-27950D02*
X52050Y-35700D01*
X52050Y-17750D02*
X52050Y-27250D01*
X52050Y-15700D02*
X52050Y-16650D01*
X52000Y-28000D02*
X52000Y-35700D01*
X52000Y-17750D02*
X52000Y-27200D01*
X52000Y-15700D02*
X52000Y-16650D01*
X51950Y-28050D02*
X51950Y-35700D01*
X51950Y-17750D02*
X51950Y-27150D01*
X51950Y-15700D02*
X51950Y-16650D01*
X51900Y-28100D02*
X51900Y-35700D01*
X51900Y-17800D02*
X51900Y-27100D01*
X51900Y-15700D02*
X51900Y-16600D01*
X51850Y-28100D02*
X51850Y-35700D01*
X51850Y-17800D02*
X51850Y-27100D01*
X51850Y-15700D02*
X51850Y-16600D01*
X51800Y-28150D02*
X51800Y-35700D01*
X51800Y-17800D02*
X51800Y-27050D01*
X51800Y-15700D02*
X51800Y-16600D01*
X51750Y-28150D02*
X51750Y-35700D01*
X51750Y-17800D02*
X51750Y-27050D01*
X51750Y-15700D02*
X51750Y-16600D01*
X51700Y-28150D02*
X51700Y-35700D01*
X51700Y-17800D02*
X51700Y-27050D01*
X51700Y-15700D02*
X51700Y-16600D01*
X51650Y-28150D02*
X51650Y-35700D01*
X51650Y-17750D02*
X51650Y-27050D01*
X51650Y-15700D02*
X51650Y-16650D01*
X51600Y-28150D02*
X51600Y-35700D01*
X51600Y-17750D02*
X51600Y-27050D01*
X51600Y-15700D02*
X51600Y-16650D01*
X51550Y-28150D02*
X51550Y-35700D01*
X51550Y-17750D02*
X51550Y-27050D01*
X51550Y-15700D02*
X51550Y-16650D01*
X51500Y-28150D02*
X51500Y-35700D01*
X51500Y-17700D02*
X51500Y-27050D01*
X51500Y-15700D02*
X51500Y-16700D01*
X51450Y-28150D02*
X51450Y-35700D01*
X51450Y-17650D02*
X51450Y-27050D01*
X51450Y-15700D02*
X51450Y-16750D01*
X51400Y-28150D02*
X51400Y-35700D01*
X51400Y-17650D02*
X51400Y-27050D01*
X51400Y-15700D02*
X51400Y-16750D01*
X51350Y-28100D02*
X51350Y-35700D01*
X51350Y-17550D02*
X51350Y-27100D01*
X51350Y-15700D02*
X51350Y-16850D01*
X51300Y-28100D02*
X51300Y-35700D01*
X51300Y-17500D02*
X51300Y-27100D01*
X51300Y-15700D02*
X51300Y-16900D01*
X51250Y-28050D02*
X51250Y-35700D01*
X51250Y-17350D02*
X51250Y-27150D01*
X51250Y-15700D02*
X51250Y-17050D01*
X51200Y-28000D02*
X51200Y-35700D01*
X51200Y-15700D02*
X51200Y-27200D01*
X51150Y-27950D02*
X51150Y-35700D01*
X51150Y-15700D02*
X51150Y-27250D01*
X51100Y-27850D02*
X51100Y-35700D01*
X51100Y-15700D02*
X51100Y-27350D01*
X51050Y-23250D02*
X51050Y-35700D01*
X51050Y-22600D02*
X51050Y-22950D01*
X51050Y-15700D02*
X51050Y-21600D01*
X51000Y-23350D02*
X51000Y-35700D01*
X51000Y-22600D02*
X51000Y-22850D01*
X51000Y-15700D02*
X51000Y-21600D01*
X50950Y-23450D02*
X50950Y-35700D01*
X50950Y-22600D02*
X50950Y-22750D01*
X50950Y-15700D02*
X50950Y-21600D01*
X50900Y-23500D02*
X50900Y-35700D01*
X50900Y-22600D02*
X50900Y-22700D01*
X50900Y-15700D02*
X50900Y-21600D01*
X50850Y-23500D02*
X50850Y-35700D01*
X50850Y-22600D02*
X50850Y-22700D01*
X50850Y-15700D02*
X50850Y-21600D01*
X50800Y-23550D02*
X50800Y-35700D01*
X50800Y-22600D02*
X50800Y-22650D01*
X50800Y-15700D02*
X50800Y-21600D01*
X50750Y-23550D02*
X50750Y-35700D01*
X50750Y-22600D02*
X50750Y-22650D01*
X50750Y-15700D02*
X50750Y-21600D01*
X50700Y-23600D02*
X50700Y-35700D01*
X50700Y-15700D02*
X50700Y-21600D01*
X50650Y-23600D02*
X50650Y-35700D01*
X50650Y-15700D02*
X50650Y-21600D01*
X50600Y-23600D02*
X50600Y-35700D01*
X50600Y-15700D02*
X50600Y-21600D01*
X50550Y-23600D02*
X50550Y-35700D01*
X50550Y-15700D02*
X50550Y-21600D01*
X50500Y-23600D02*
X50500Y-35700D01*
X50500Y-15700D02*
X50500Y-21600D01*
X50450Y-23550D02*
X50450Y-35700D01*
X50450Y-22600D02*
X50450Y-22650D01*
X50450Y-15700D02*
X50450Y-21600D01*
X50400Y-23550D02*
X50400Y-35700D01*
X50400Y-22600D02*
X50400Y-22650D01*
X50400Y-15700D02*
X50400Y-21600D01*
X50350Y-23500D02*
X50350Y-35700D01*
X50350Y-22600D02*
X50350Y-22700D01*
X50350Y-15700D02*
X50350Y-21600D01*
X50300Y-23500D02*
X50300Y-35700D01*
X50300Y-22600D02*
X50300Y-22700D01*
X50300Y-15700D02*
X50300Y-21600D01*
X50250Y-23450D02*
X50250Y-35700D01*
X50250Y-22600D02*
X50250Y-22750D01*
X50250Y-15700D02*
X50250Y-21600D01*
X50200Y-23350D02*
X50200Y-35700D01*
X50200Y-22600D02*
X50200Y-22850D01*
X50200Y-15700D02*
X50200Y-21600D01*
X50150Y-23250D02*
X50150Y-35700D01*
X50150Y-22600D02*
X50150Y-22950D01*
X50150Y-15700D02*
X50150Y-21600D01*
X50100Y-15700D02*
X50100Y-35700D01*
X50050Y-15700D02*
X50050Y-35700D01*
X50000Y-15700D02*
X50000Y-35700D01*
X49950Y-15700D02*
X49950Y-35700D01*
X49900Y-15700D02*
X49900Y-35700D01*
X49850Y-15700D02*
X49850Y-35700D01*
X49800Y-15700D02*
X49800Y-35700D01*
X49750Y-15700D02*
X49750Y-35700D01*
X49700Y-15700D02*
X49700Y-35700D01*
X49650Y-15700D02*
X49650Y-35700D01*
X49600Y-15700D02*
X49600Y-35700D01*
X49550Y-15700D02*
X49550Y-35700D01*
X49500Y-15700D02*
X49500Y-35700D01*
X49450Y-15700D02*
X49450Y-35700D01*
X49400Y-15700D02*
X49400Y-35700D01*
X49400Y-35700D02*
X69800Y-35700D01*
X49400Y-35650D02*
X69800Y-35650D01*
X49400Y-35600D02*
X69800Y-35600D01*
X49400Y-35550D02*
X69800Y-35550D01*
X49400Y-35500D02*
X69800Y-35500D01*
X49400Y-35450D02*
X69800Y-35450D01*
X49400Y-35400D02*
X69800Y-35400D01*
X49400Y-35350D02*
X69800Y-35350D01*
X49400Y-35300D02*
X69800Y-35300D01*
X49400Y-35250D02*
X69800Y-35250D01*
X49400Y-35200D02*
X69800Y-35200D01*
X49400Y-35150D02*
X69800Y-35150D01*
X49400Y-35100D02*
X69800Y-35100D01*
X49400Y-35050D02*
X69800Y-35050D01*
X49400Y-35000D02*
X69800Y-35000D01*
X49400Y-34950D02*
X69800Y-34950D01*
X49400Y-34900D02*
X69800Y-34900D01*
X49400Y-34850D02*
X69800Y-34850D01*
X64200Y-34800D02*
X68650Y-34800D01*
X49400Y-34800D02*
X62950Y-34800D01*
X64200Y-34750D02*
X68650Y-34750D01*
X49400Y-34750D02*
X62950Y-34750D01*
X64200Y-34700D02*
X68650Y-34700D01*
X49400Y-34700D02*
X62950Y-34700D01*
X64200Y-34650D02*
X68650Y-34650D01*
X49400Y-34650D02*
X62950Y-34650D01*
X64200Y-34600D02*
X68650Y-34600D01*
X49400Y-34600D02*
X62950Y-34600D01*
X64200Y-34550D02*
X68650Y-34550D01*
X49400Y-34550D02*
X62950Y-34550D01*
X64200Y-34500D02*
X68650Y-34500D01*
X49400Y-34500D02*
X62950Y-34500D01*
X64200Y-34450D02*
X68650Y-34450D01*
X49400Y-34450D02*
X62950Y-34450D01*
X64200Y-34400D02*
X68650Y-34400D01*
X49400Y-34400D02*
X62950Y-34400D01*
X64200Y-34350D02*
X68650Y-34350D01*
X49400Y-34350D02*
X62950Y-34350D01*
X64200Y-34300D02*
X68650Y-34300D01*
X49400Y-34300D02*
X62950Y-34300D01*
X64200Y-34250D02*
X68650Y-34250D01*
X49400Y-34250D02*
X62950Y-34250D01*
X64200Y-34200D02*
X68650Y-34200D01*
X49400Y-34200D02*
X62950Y-34200D01*
X67650Y-34150D02*
X68650Y-34150D01*
X64200Y-34150D02*
X65150Y-34150D01*
X49400Y-34150D02*
X62950Y-34150D01*
X67650Y-34100D02*
X68650Y-34100D01*
X64200Y-34100D02*
X65150Y-34100D01*
X49400Y-34100D02*
X62950Y-34100D01*
X67650Y-34050D02*
X68650Y-34050D01*
X64200Y-34050D02*
X65150Y-34050D01*
X49400Y-34050D02*
X62950Y-34050D01*
X67650Y-34000D02*
X68650Y-34000D01*
X64200Y-34000D02*
X65150Y-34000D01*
X49400Y-34000D02*
X62950Y-34000D01*
X67650Y-33950D02*
X68650Y-33950D01*
X64200Y-33950D02*
X65150Y-33950D01*
X49400Y-33950D02*
X62950Y-33950D01*
X67650Y-33900D02*
X68650Y-33900D01*
X64200Y-33900D02*
X65150Y-33900D01*
X49400Y-33900D02*
X62950Y-33900D01*
X67650Y-33850D02*
X68650Y-33850D01*
X64200Y-33850D02*
X65150Y-33850D01*
X49400Y-33850D02*
X62950Y-33850D01*
X67650Y-33800D02*
X68650Y-33800D01*
X64200Y-33800D02*
X65150Y-33800D01*
X49400Y-33800D02*
X62950Y-33800D01*
X67650Y-33750D02*
X68650Y-33750D01*
X64200Y-33750D02*
X65150Y-33750D01*
X49400Y-33750D02*
X62950Y-33750D01*
X67650Y-33700D02*
X68650Y-33700D01*
X64200Y-33700D02*
X65150Y-33700D01*
X49400Y-33700D02*
X62950Y-33700D01*
X67650Y-33650D02*
X68650Y-33650D01*
X64200Y-33650D02*
X65150Y-33650D01*
X49400Y-33650D02*
X62950Y-33650D01*
X67650Y-33600D02*
X68650Y-33600D01*
X64200Y-33600D02*
X65150Y-33600D01*
X49400Y-33600D02*
X62950Y-33600D01*
X67650Y-33550D02*
X68650Y-33550D01*
X64200Y-33550D02*
X65150Y-33550D01*
X49400Y-33550D02*
X62950Y-33550D01*
X67650Y-33500D02*
X68650Y-33500D01*
X64200Y-33500D02*
X65150Y-33500D01*
X49400Y-33500D02*
X62950Y-33500D01*
X67650Y-33450D02*
X68650Y-33450D01*
X64200Y-33450D02*
X65150Y-33450D01*
X49400Y-33450D02*
X62950Y-33450D01*
X67650Y-33400D02*
X69800Y-33400D01*
X49400Y-33400D02*
X65150Y-33400D01*
X67650Y-33350D02*
X69800Y-33350D01*
X49400Y-33350D02*
X65150Y-33350D01*
X67650Y-33300D02*
X69800Y-33300D01*
X49400Y-33300D02*
X65150Y-33300D01*
X49400Y-33250D02*
X69800Y-33250D01*
X49400Y-33200D02*
X69800Y-33200D01*
X49400Y-33150D02*
X69800Y-33150D01*
X49400Y-33100D02*
X69800Y-33100D01*
X49400Y-33050D02*
X69800Y-33050D01*
X49400Y-33000D02*
X69800Y-33000D01*
X49400Y-32950D02*
X69800Y-32950D01*
X49400Y-32900D02*
X69800Y-32900D01*
X49400Y-32850D02*
X69800Y-32850D01*
X49400Y-32800D02*
X69800Y-32800D01*
X49400Y-32750D02*
X69800Y-32750D01*
X49400Y-32700D02*
X69800Y-32700D01*
X49400Y-32650D02*
X69800Y-32650D01*
X49400Y-32600D02*
X69800Y-32600D01*
X49400Y-32550D02*
X69800Y-32550D01*
X49400Y-32500D02*
X69800Y-32500D01*
X49400Y-32450D02*
X69800Y-32450D01*
X49400Y-32400D02*
X69800Y-32400D01*
X49400Y-32350D02*
X69800Y-32350D01*
X49400Y-32300D02*
X69800Y-32300D01*
X49400Y-32250D02*
X69800Y-32250D01*
X49400Y-32200D02*
X69800Y-32200D01*
X49400Y-32150D02*
X69800Y-32150D01*
X49400Y-32100D02*
X69800Y-32100D01*
X49400Y-32050D02*
X69800Y-32050D01*
X49400Y-32000D02*
X69800Y-32000D01*
X49400Y-31950D02*
X69800Y-31950D01*
X49400Y-31900D02*
X69800Y-31900D01*
X49400Y-31850D02*
X69800Y-31850D01*
X49400Y-31800D02*
X69800Y-31800D01*
X49400Y-31750D02*
X69800Y-31750D01*
X49400Y-31700D02*
X69800Y-31700D01*
X49400Y-31650D02*
X69800Y-31650D01*
X49400Y-31600D02*
X69800Y-31600D01*
X49400Y-31550D02*
X69800Y-31550D01*
X49400Y-31500D02*
X69800Y-31500D01*
X49400Y-31450D02*
X69800Y-31450D01*
X49400Y-31400D02*
X69800Y-31400D01*
X49400Y-31350D02*
X69800Y-31350D01*
X49400Y-31300D02*
X69800Y-31300D01*
X59300Y-31250D02*
X69800Y-31250D01*
X49400Y-31250D02*
X58900Y-31250D01*
X59400Y-31200D02*
X69800Y-31200D01*
X49400Y-31200D02*
X58800Y-31200D01*
X59450Y-31150D02*
X69800Y-31150D01*
X49400Y-31150D02*
X58750Y-31150D01*
X59450Y-31100D02*
X69800Y-31100D01*
X49400Y-31100D02*
X58750Y-31100D01*
X66000Y-31050D02*
X69800Y-31050D01*
X59500Y-31050D02*
X64650Y-31050D01*
X49400Y-31050D02*
X58700Y-31050D01*
X66000Y-31000D02*
X69800Y-31000D01*
X59500Y-31000D02*
X64650Y-31000D01*
X49400Y-31000D02*
X58700Y-31000D01*
X66000Y-30950D02*
X69800Y-30950D01*
X59500Y-30950D02*
X64650Y-30950D01*
X49400Y-30950D02*
X58700Y-30950D01*
X66000Y-30900D02*
X69800Y-30900D01*
X59500Y-30900D02*
X64650Y-30900D01*
X49400Y-30900D02*
X58700Y-30900D01*
X66000Y-30850D02*
X69800Y-30850D01*
X59500Y-30850D02*
X64650Y-30850D01*
X49400Y-30850D02*
X58700Y-30850D01*
X66000Y-30800D02*
X69800Y-30800D01*
X59500Y-30800D02*
X64650Y-30800D01*
X49400Y-30800D02*
X58700Y-30800D01*
X66000Y-30750D02*
X69800Y-30750D01*
X59500Y-30750D02*
X64650Y-30750D01*
X49400Y-30750D02*
X58700Y-30750D01*
X66000Y-30700D02*
X69800Y-30700D01*
X59450Y-30700D02*
X64650Y-30700D01*
X49400Y-30700D02*
X58750Y-30700D01*
X66000Y-30650D02*
X69800Y-30650D01*
X59450Y-30650D02*
X64650Y-30650D01*
X49400Y-30650D02*
X58750Y-30650D01*
X66000Y-30600D02*
X69800Y-30600D01*
X59450Y-30600D02*
X64650Y-30600D01*
X49400Y-30600D02*
X58750Y-30600D01*
X66000Y-30550D02*
X69800Y-30550D01*
X59450Y-30550D02*
X64650Y-30550D01*
X49400Y-30550D02*
X58750Y-30550D01*
X66000Y-30500D02*
X69800Y-30500D01*
X59450Y-30500D02*
X64650Y-30500D01*
X49400Y-30500D02*
X57600Y-30500D01*
X66000Y-30450D02*
X69800Y-30450D01*
X59450Y-30450D02*
X64650Y-30450D01*
X49400Y-30450D02*
X57600Y-30450D01*
X66000Y-30400D02*
X69800Y-30400D01*
X59450Y-30400D02*
X64650Y-30400D01*
X49400Y-30400D02*
X57600Y-30400D01*
X66000Y-30350D02*
X69800Y-30350D01*
X59450Y-30350D02*
X64650Y-30350D01*
X49400Y-30350D02*
X57600Y-30350D01*
X66000Y-30300D02*
X69800Y-30300D01*
X59450Y-30300D02*
X64650Y-30300D01*
X49400Y-30300D02*
X57600Y-30300D01*
X66000Y-30250D02*
X69800Y-30250D01*
X59450Y-30250D02*
X64650Y-30250D01*
X49400Y-30250D02*
X57600Y-30250D01*
X66000Y-30200D02*
X69800Y-30200D01*
X59450Y-30200D02*
X64650Y-30200D01*
X49400Y-30200D02*
X57600Y-30200D01*
X66000Y-30150D02*
X69800Y-30150D01*
X59450Y-30150D02*
X64650Y-30150D01*
X49400Y-30150D02*
X57600Y-30150D01*
X66550Y-30100D02*
X69800Y-30100D01*
X59450Y-30100D02*
X64650Y-30100D01*
X49400Y-30100D02*
X57600Y-30100D01*
X66550Y-30050D02*
X69800Y-30050D01*
X59450Y-30050D02*
X64650Y-30050D01*
X49400Y-30050D02*
X57600Y-30050D01*
X66550Y-30000D02*
X69800Y-30000D01*
X59450Y-30000D02*
X64650Y-30000D01*
X49400Y-30000D02*
X57600Y-30000D01*
X66550Y-29950D02*
X69800Y-29950D01*
X59450Y-29950D02*
X64650Y-29950D01*
X49400Y-29950D02*
X57600Y-29950D01*
X66550Y-29900D02*
X69800Y-29900D01*
X59450Y-29900D02*
X64650Y-29900D01*
X49400Y-29900D02*
X57600Y-29900D01*
X66550Y-29850D02*
X69800Y-29850D01*
X59450Y-29850D02*
X65200Y-29850D01*
X49400Y-29850D02*
X57600Y-29850D01*
X66550Y-29800D02*
X69800Y-29800D01*
X59450Y-29800D02*
X65200Y-29800D01*
X49400Y-29800D02*
X57600Y-29800D01*
X66550Y-29750D02*
X69800Y-29750D01*
X59450Y-29750D02*
X65200Y-29750D01*
X49400Y-29750D02*
X57600Y-29750D01*
X66550Y-29700D02*
X69800Y-29700D01*
X59450Y-29700D02*
X65200Y-29700D01*
X49400Y-29700D02*
X57600Y-29700D01*
X66550Y-29650D02*
X69800Y-29650D01*
X59450Y-29650D02*
X65200Y-29650D01*
X49400Y-29650D02*
X57600Y-29650D01*
X66550Y-29600D02*
X69800Y-29600D01*
X59450Y-29600D02*
X65200Y-29600D01*
X49400Y-29600D02*
X57600Y-29600D01*
X66550Y-29550D02*
X69800Y-29550D01*
X59450Y-29550D02*
X65200Y-29550D01*
X49400Y-29550D02*
X57600Y-29550D01*
X66550Y-29500D02*
X69800Y-29500D01*
X59450Y-29500D02*
X65200Y-29500D01*
X49400Y-29500D02*
X57600Y-29500D01*
X66550Y-29450D02*
X69800Y-29450D01*
X59450Y-29450D02*
X65200Y-29450D01*
X49400Y-29450D02*
X57600Y-29450D01*
X66550Y-29400D02*
X69800Y-29400D01*
X59450Y-29400D02*
X65200Y-29400D01*
X49400Y-29400D02*
X57600Y-29400D01*
X66550Y-29350D02*
X69800Y-29350D01*
X59400Y-29350D02*
X65200Y-29350D01*
X49400Y-29350D02*
X57600Y-29350D01*
X66550Y-29300D02*
X69800Y-29300D01*
X59400Y-29300D02*
X65200Y-29300D01*
X49400Y-29300D02*
X57550Y-29300D01*
X66550Y-29250D02*
X69800Y-29250D01*
X59350Y-29250D02*
X65200Y-29250D01*
X49400Y-29250D02*
X57450Y-29250D01*
X66550Y-29200D02*
X69800Y-29200D01*
X59300Y-29200D02*
X65200Y-29200D01*
X49400Y-29200D02*
X57400Y-29200D01*
X66550Y-29150D02*
X69800Y-29150D01*
X59250Y-29150D02*
X65200Y-29150D01*
X49400Y-29150D02*
X57350Y-29150D01*
X69000Y-29100D02*
X69800Y-29100D01*
X66550Y-29100D02*
X67750Y-29100D01*
X59200Y-29100D02*
X65200Y-29100D01*
X55850Y-29100D02*
X57300Y-29100D01*
X49400Y-29100D02*
X55350Y-29100D01*
X69000Y-29050D02*
X69800Y-29050D01*
X66550Y-29050D02*
X67750Y-29050D01*
X59150Y-29050D02*
X65200Y-29050D01*
X55950Y-29050D02*
X57250Y-29050D01*
X49400Y-29050D02*
X55250Y-29050D01*
X69000Y-29000D02*
X69800Y-29000D01*
X66550Y-29000D02*
X67750Y-29000D01*
X59100Y-29000D02*
X65200Y-29000D01*
X56000Y-29000D02*
X57200Y-29000D01*
X49400Y-29000D02*
X55200Y-29000D01*
X69000Y-28950D02*
X69800Y-28950D01*
X59050Y-28950D02*
X67750Y-28950D01*
X56050Y-28950D02*
X57150Y-28950D01*
X49400Y-28950D02*
X55150Y-28950D01*
X69000Y-28900D02*
X69800Y-28900D01*
X59000Y-28900D02*
X67750Y-28900D01*
X56100Y-28900D02*
X57100Y-28900D01*
X49400Y-28900D02*
X55100Y-28900D01*
X69000Y-28850D02*
X69800Y-28850D01*
X58950Y-28850D02*
X67750Y-28850D01*
X56100Y-28850D02*
X57050Y-28850D01*
X49400Y-28850D02*
X55100Y-28850D01*
X69000Y-28800D02*
X69800Y-28800D01*
X58900Y-28800D02*
X67750Y-28800D01*
X56150Y-28800D02*
X57000Y-28800D01*
X49400Y-28800D02*
X55050Y-28800D01*
X69000Y-28750D02*
X69800Y-28750D01*
X58850Y-28750D02*
X67750Y-28750D01*
X56150Y-28750D02*
X56950Y-28750D01*
X49400Y-28750D02*
X55050Y-28750D01*
X69000Y-28700D02*
X69800Y-28700D01*
X58750Y-28700D02*
X67750Y-28700D01*
X56150Y-28700D02*
X56900Y-28700D01*
X49400Y-28700D02*
X55050Y-28700D01*
X69000Y-28650D02*
X69800Y-28650D01*
X57850Y-28650D02*
X67750Y-28650D01*
X56150Y-28650D02*
X56850Y-28650D01*
X49400Y-28650D02*
X55050Y-28650D01*
X69000Y-28600D02*
X69800Y-28600D01*
X57800Y-28600D02*
X67750Y-28600D01*
X56150Y-28600D02*
X56800Y-28600D01*
X49400Y-28600D02*
X55050Y-28600D01*
X69000Y-28550D02*
X69800Y-28550D01*
X57750Y-28550D02*
X67750Y-28550D01*
X56150Y-28550D02*
X56700Y-28550D01*
X49400Y-28550D02*
X55050Y-28550D01*
X69000Y-28500D02*
X69800Y-28500D01*
X57700Y-28500D02*
X67750Y-28500D01*
X56150Y-28500D02*
X56600Y-28500D01*
X49400Y-28500D02*
X55050Y-28500D01*
X69000Y-28450D02*
X69800Y-28450D01*
X57650Y-28450D02*
X67750Y-28450D01*
X56150Y-28450D02*
X56550Y-28450D01*
X49400Y-28450D02*
X55050Y-28450D01*
X69000Y-28400D02*
X69800Y-28400D01*
X57600Y-28400D02*
X67750Y-28400D01*
X56150Y-28400D02*
X56550Y-28400D01*
X49400Y-28400D02*
X55050Y-28400D01*
X69000Y-28350D02*
X69800Y-28350D01*
X57550Y-28350D02*
X67750Y-28350D01*
X56100Y-28350D02*
X56500Y-28350D01*
X49400Y-28350D02*
X55100Y-28350D01*
X69000Y-28300D02*
X69800Y-28300D01*
X57500Y-28300D02*
X67750Y-28300D01*
X56100Y-28300D02*
X56500Y-28300D01*
X49400Y-28300D02*
X55100Y-28300D01*
X69000Y-28250D02*
X69800Y-28250D01*
X58350Y-28250D02*
X67750Y-28250D01*
X56050Y-28250D02*
X56500Y-28250D01*
X49400Y-28250D02*
X55150Y-28250D01*
X69000Y-28200D02*
X69800Y-28200D01*
X58350Y-28200D02*
X67750Y-28200D01*
X57400Y-28200D02*
X57450Y-28200D01*
X56000Y-28200D02*
X56500Y-28200D01*
X49400Y-28200D02*
X55200Y-28200D01*
X69000Y-28150D02*
X69800Y-28150D01*
X58350Y-28150D02*
X67750Y-28150D01*
X57350Y-28150D02*
X57450Y-28150D01*
X55950Y-28150D02*
X56500Y-28150D01*
X49400Y-28150D02*
X55250Y-28150D01*
X69000Y-28100D02*
X69800Y-28100D01*
X58350Y-28100D02*
X67750Y-28100D01*
X57300Y-28100D02*
X57450Y-28100D01*
X55850Y-28100D02*
X56500Y-28100D01*
X51850Y-28100D02*
X55350Y-28100D01*
X49400Y-28100D02*
X51350Y-28100D01*
X69000Y-28050D02*
X69800Y-28050D01*
X58350Y-28050D02*
X67750Y-28050D01*
X57300Y-28050D02*
X57450Y-28050D01*
X51950Y-28050D02*
X56500Y-28050D01*
X49400Y-28050D02*
X51250Y-28050D01*
X69000Y-28000D02*
X69800Y-28000D01*
X58350Y-28000D02*
X67750Y-28000D01*
X57250Y-28000D02*
X57450Y-28000D01*
X52000Y-28000D02*
X56550Y-28000D01*
X49400Y-28000D02*
X51200Y-28000D01*
X69000Y-27950D02*
X69800Y-27950D01*
X58350Y-27950D02*
X67750Y-27950D01*
X57250Y-27950D02*
X57450Y-27950D01*
X52050Y-27950D02*
X56550Y-27950D01*
X49400Y-27950D02*
X51150Y-27950D01*
X69000Y-27900D02*
X69800Y-27900D01*
X58350Y-27900D02*
X67750Y-27900D01*
X57200Y-27900D02*
X57450Y-27900D01*
X52100Y-27900D02*
X56600Y-27900D01*
X49400Y-27900D02*
X51100Y-27900D01*
X58350Y-27850D02*
X69800Y-27850D01*
X57100Y-27850D02*
X57450Y-27850D01*
X52100Y-27850D02*
X56700Y-27850D01*
X49400Y-27850D02*
X51100Y-27850D01*
X58350Y-27800D02*
X69800Y-27800D01*
X52150Y-27800D02*
X57450Y-27800D01*
X49400Y-27800D02*
X51050Y-27800D01*
X58350Y-27750D02*
X69800Y-27750D01*
X52150Y-27750D02*
X57450Y-27750D01*
X49400Y-27750D02*
X51050Y-27750D01*
X58350Y-27700D02*
X69800Y-27700D01*
X52150Y-27700D02*
X57450Y-27700D01*
X49400Y-27700D02*
X51050Y-27700D01*
X58350Y-27650D02*
X69800Y-27650D01*
X52150Y-27650D02*
X57450Y-27650D01*
X49400Y-27650D02*
X51050Y-27650D01*
X58350Y-27600D02*
X69800Y-27600D01*
X52150Y-27600D02*
X57450Y-27600D01*
X49400Y-27600D02*
X51050Y-27600D01*
X64650Y-27550D02*
X69800Y-27550D01*
X58350Y-27550D02*
X63450Y-27550D01*
X52150Y-27550D02*
X57450Y-27550D01*
X49400Y-27550D02*
X51050Y-27550D01*
X64650Y-27500D02*
X69800Y-27500D01*
X58350Y-27500D02*
X63450Y-27500D01*
X52150Y-27500D02*
X57450Y-27500D01*
X49400Y-27500D02*
X51050Y-27500D01*
X64650Y-27450D02*
X69800Y-27450D01*
X58350Y-27450D02*
X63450Y-27450D01*
X52150Y-27450D02*
X57450Y-27450D01*
X49400Y-27450D02*
X51050Y-27450D01*
X64650Y-27400D02*
X69800Y-27400D01*
X58350Y-27400D02*
X63450Y-27400D01*
X52150Y-27400D02*
X57450Y-27400D01*
X49400Y-27400D02*
X51050Y-27400D01*
X64650Y-27350D02*
X69800Y-27350D01*
X58350Y-27350D02*
X63450Y-27350D01*
X52100Y-27350D02*
X57450Y-27350D01*
X49400Y-27350D02*
X51100Y-27350D01*
X64650Y-27300D02*
X69800Y-27300D01*
X58350Y-27300D02*
X63450Y-27300D01*
X52100Y-27300D02*
X57450Y-27300D01*
X49400Y-27300D02*
X51100Y-27300D01*
X67750Y-27250D02*
X69800Y-27250D01*
X64650Y-27250D02*
X66400Y-27250D01*
X58350Y-27250D02*
X63450Y-27250D01*
X52050Y-27250D02*
X57450Y-27250D01*
X49400Y-27250D02*
X51150Y-27250D01*
X67750Y-27200D02*
X69800Y-27200D01*
X64650Y-27200D02*
X66400Y-27200D01*
X58350Y-27200D02*
X63450Y-27200D01*
X52000Y-27200D02*
X57450Y-27200D01*
X49400Y-27200D02*
X51200Y-27200D01*
X67750Y-27150D02*
X69800Y-27150D01*
X64650Y-27150D02*
X66400Y-27150D01*
X58350Y-27150D02*
X63450Y-27150D01*
X51950Y-27150D02*
X57450Y-27150D01*
X49400Y-27150D02*
X51250Y-27150D01*
X67750Y-27100D02*
X69800Y-27100D01*
X64650Y-27100D02*
X66400Y-27100D01*
X58350Y-27100D02*
X63450Y-27100D01*
X55850Y-27100D02*
X57450Y-27100D01*
X51850Y-27100D02*
X55350Y-27100D01*
X49400Y-27100D02*
X51350Y-27100D01*
X67750Y-27050D02*
X69800Y-27050D01*
X64650Y-27050D02*
X66400Y-27050D01*
X59700Y-27050D02*
X63450Y-27050D01*
X58350Y-27050D02*
X59300Y-27050D01*
X55950Y-27050D02*
X57450Y-27050D01*
X49400Y-27050D02*
X55250Y-27050D01*
X67750Y-27000D02*
X69800Y-27000D01*
X64650Y-27000D02*
X66400Y-27000D01*
X59800Y-27000D02*
X63450Y-27000D01*
X58350Y-27000D02*
X59200Y-27000D01*
X56000Y-27000D02*
X57450Y-27000D01*
X49400Y-27000D02*
X55200Y-27000D01*
X67750Y-26950D02*
X69800Y-26950D01*
X64650Y-26950D02*
X66400Y-26950D01*
X59850Y-26950D02*
X63450Y-26950D01*
X58350Y-26950D02*
X59150Y-26950D01*
X56050Y-26950D02*
X57450Y-26950D01*
X49400Y-26950D02*
X55150Y-26950D01*
X67750Y-26900D02*
X69800Y-26900D01*
X64650Y-26900D02*
X66400Y-26900D01*
X59850Y-26900D02*
X63450Y-26900D01*
X58350Y-26900D02*
X59150Y-26900D01*
X56100Y-26900D02*
X57450Y-26900D01*
X49400Y-26900D02*
X55100Y-26900D01*
X67750Y-26850D02*
X69800Y-26850D01*
X64650Y-26850D02*
X66400Y-26850D01*
X59900Y-26850D02*
X63450Y-26850D01*
X58350Y-26850D02*
X59100Y-26850D01*
X56100Y-26850D02*
X57450Y-26850D01*
X49400Y-26850D02*
X55100Y-26850D01*
X67750Y-26800D02*
X69800Y-26800D01*
X64650Y-26800D02*
X66400Y-26800D01*
X59900Y-26800D02*
X63450Y-26800D01*
X58350Y-26800D02*
X59100Y-26800D01*
X56150Y-26800D02*
X57450Y-26800D01*
X49400Y-26800D02*
X55050Y-26800D01*
X67750Y-26750D02*
X69800Y-26750D01*
X64650Y-26750D02*
X66400Y-26750D01*
X59900Y-26750D02*
X63450Y-26750D01*
X58350Y-26750D02*
X59050Y-26750D01*
X56150Y-26750D02*
X57450Y-26750D01*
X49400Y-26750D02*
X55050Y-26750D01*
X67750Y-26700D02*
X69800Y-26700D01*
X64650Y-26700D02*
X66400Y-26700D01*
X59900Y-26700D02*
X63450Y-26700D01*
X58350Y-26700D02*
X59000Y-26700D01*
X56150Y-26700D02*
X57450Y-26700D01*
X49400Y-26700D02*
X55050Y-26700D01*
X67750Y-26650D02*
X69800Y-26650D01*
X64650Y-26650D02*
X66400Y-26650D01*
X59900Y-26650D02*
X63450Y-26650D01*
X58350Y-26650D02*
X58950Y-26650D01*
X56150Y-26650D02*
X57450Y-26650D01*
X49400Y-26650D02*
X55050Y-26650D01*
X67750Y-26600D02*
X69800Y-26600D01*
X64650Y-26600D02*
X66400Y-26600D01*
X59900Y-26600D02*
X63450Y-26600D01*
X58350Y-26600D02*
X58900Y-26600D01*
X56150Y-26600D02*
X57450Y-26600D01*
X49400Y-26600D02*
X55050Y-26600D01*
X67750Y-26550D02*
X69800Y-26550D01*
X64650Y-26550D02*
X66400Y-26550D01*
X59900Y-26550D02*
X63450Y-26550D01*
X58350Y-26550D02*
X58850Y-26550D01*
X56150Y-26550D02*
X57450Y-26550D01*
X49400Y-26550D02*
X55050Y-26550D01*
X67750Y-26500D02*
X69800Y-26500D01*
X64650Y-26500D02*
X66400Y-26500D01*
X59850Y-26500D02*
X63450Y-26500D01*
X58350Y-26500D02*
X58800Y-26500D01*
X56150Y-26500D02*
X57450Y-26500D01*
X49400Y-26500D02*
X55050Y-26500D01*
X67750Y-26450D02*
X69800Y-26450D01*
X64650Y-26450D02*
X66400Y-26450D01*
X59850Y-26450D02*
X63450Y-26450D01*
X58350Y-26450D02*
X58750Y-26450D01*
X56150Y-26450D02*
X57450Y-26450D01*
X49400Y-26450D02*
X55050Y-26450D01*
X67750Y-26400D02*
X69800Y-26400D01*
X64650Y-26400D02*
X66400Y-26400D01*
X59800Y-26400D02*
X63450Y-26400D01*
X58350Y-26400D02*
X58700Y-26400D01*
X56150Y-26400D02*
X57450Y-26400D01*
X49400Y-26400D02*
X55050Y-26400D01*
X67750Y-26350D02*
X69800Y-26350D01*
X64650Y-26350D02*
X66400Y-26350D01*
X61000Y-26350D02*
X63450Y-26350D01*
X59700Y-26350D02*
X60600Y-26350D01*
X58350Y-26350D02*
X58650Y-26350D01*
X56100Y-26350D02*
X57450Y-26350D01*
X49400Y-26350D02*
X55100Y-26350D01*
X67750Y-26300D02*
X69800Y-26300D01*
X64650Y-26300D02*
X66400Y-26300D01*
X61100Y-26300D02*
X63450Y-26300D01*
X59600Y-26300D02*
X60500Y-26300D01*
X58350Y-26300D02*
X58600Y-26300D01*
X56100Y-26300D02*
X57450Y-26300D01*
X49400Y-26300D02*
X55100Y-26300D01*
X67750Y-26250D02*
X69800Y-26250D01*
X61150Y-26250D02*
X66400Y-26250D01*
X59550Y-26250D02*
X60450Y-26250D01*
X58350Y-26250D02*
X58550Y-26250D01*
X56050Y-26250D02*
X57450Y-26250D01*
X49400Y-26250D02*
X55150Y-26250D01*
X67750Y-26200D02*
X69800Y-26200D01*
X61150Y-26200D02*
X66400Y-26200D01*
X59500Y-26200D02*
X60450Y-26200D01*
X58350Y-26200D02*
X58500Y-26200D01*
X56000Y-26200D02*
X57450Y-26200D01*
X49400Y-26200D02*
X55200Y-26200D01*
X67750Y-26150D02*
X69800Y-26150D01*
X61200Y-26150D02*
X66400Y-26150D01*
X59450Y-26150D02*
X60400Y-26150D01*
X58350Y-26150D02*
X58450Y-26150D01*
X55950Y-26150D02*
X57450Y-26150D01*
X49400Y-26150D02*
X55250Y-26150D01*
X61200Y-26100D02*
X69800Y-26100D01*
X59400Y-26100D02*
X60400Y-26100D01*
X58350Y-26100D02*
X58400Y-26100D01*
X55850Y-26100D02*
X57450Y-26100D01*
X49400Y-26100D02*
X55350Y-26100D01*
X61200Y-26050D02*
X69800Y-26050D01*
X59350Y-26050D02*
X60400Y-26050D01*
X49400Y-26050D02*
X57450Y-26050D01*
X61200Y-26000D02*
X69800Y-26000D01*
X59300Y-26000D02*
X60400Y-26000D01*
X49400Y-26000D02*
X57450Y-26000D01*
X61200Y-25950D02*
X69800Y-25950D01*
X59250Y-25950D02*
X60400Y-25950D01*
X49400Y-25950D02*
X57450Y-25950D01*
X61200Y-25900D02*
X69800Y-25900D01*
X59200Y-25900D02*
X60400Y-25900D01*
X49400Y-25900D02*
X57450Y-25900D01*
X61200Y-25850D02*
X69800Y-25850D01*
X59150Y-25850D02*
X60400Y-25850D01*
X49400Y-25850D02*
X58150Y-25850D01*
X61150Y-25800D02*
X69800Y-25800D01*
X59100Y-25800D02*
X60450Y-25800D01*
X49400Y-25800D02*
X58100Y-25800D01*
X61150Y-25750D02*
X69800Y-25750D01*
X59050Y-25750D02*
X60450Y-25750D01*
X49400Y-25750D02*
X58050Y-25750D01*
X61150Y-25700D02*
X69800Y-25700D01*
X59000Y-25700D02*
X60450Y-25700D01*
X49400Y-25700D02*
X58000Y-25700D01*
X61150Y-25650D02*
X69800Y-25650D01*
X58950Y-25650D02*
X60450Y-25650D01*
X53300Y-25650D02*
X57950Y-25650D01*
X49400Y-25650D02*
X52900Y-25650D01*
X61150Y-25600D02*
X69800Y-25600D01*
X58900Y-25600D02*
X60450Y-25600D01*
X49400Y-25600D02*
X52800Y-25600D01*
X61150Y-25550D02*
X69800Y-25550D01*
X58850Y-25550D02*
X60450Y-25550D01*
X49400Y-25550D02*
X52750Y-25550D01*
X61150Y-25500D02*
X69800Y-25500D01*
X58800Y-25500D02*
X60450Y-25500D01*
X49400Y-25500D02*
X52750Y-25500D01*
X61150Y-25450D02*
X69800Y-25450D01*
X58750Y-25450D02*
X60450Y-25450D01*
X49400Y-25450D02*
X52700Y-25450D01*
X61150Y-25400D02*
X69800Y-25400D01*
X58700Y-25400D02*
X60450Y-25400D01*
X49400Y-25400D02*
X52700Y-25400D01*
X61150Y-25350D02*
X69800Y-25350D01*
X58650Y-25350D02*
X60450Y-25350D01*
X49400Y-25350D02*
X52700Y-25350D01*
X61150Y-25300D02*
X69800Y-25300D01*
X58600Y-25300D02*
X60450Y-25300D01*
X49400Y-25300D02*
X52700Y-25300D01*
X61150Y-25250D02*
X69800Y-25250D01*
X58550Y-25250D02*
X60450Y-25250D01*
X49400Y-25250D02*
X52700Y-25250D01*
X61150Y-25200D02*
X69800Y-25200D01*
X58500Y-25200D02*
X60450Y-25200D01*
X49400Y-25200D02*
X52700Y-25200D01*
X61150Y-25150D02*
X69800Y-25150D01*
X58450Y-25150D02*
X60450Y-25150D01*
X49400Y-25150D02*
X52700Y-25150D01*
X61150Y-25100D02*
X69800Y-25100D01*
X58400Y-25100D02*
X60450Y-25100D01*
X49400Y-25100D02*
X52750Y-25100D01*
X61150Y-25050D02*
X69800Y-25050D01*
X58350Y-25050D02*
X60450Y-25050D01*
X49400Y-25050D02*
X52750Y-25050D01*
X61150Y-25000D02*
X69800Y-25000D01*
X58250Y-25000D02*
X60450Y-25000D01*
X49400Y-25000D02*
X52800Y-25000D01*
X61150Y-24950D02*
X69800Y-24950D01*
X53300Y-24950D02*
X60450Y-24950D01*
X49400Y-24950D02*
X52900Y-24950D01*
X61150Y-24900D02*
X69800Y-24900D01*
X49400Y-24900D02*
X60450Y-24900D01*
X61150Y-24850D02*
X69800Y-24850D01*
X49400Y-24850D02*
X60450Y-24850D01*
X61150Y-24800D02*
X69800Y-24800D01*
X59000Y-24800D02*
X60450Y-24800D01*
X49400Y-24800D02*
X57600Y-24800D01*
X61150Y-24750D02*
X69800Y-24750D01*
X59000Y-24750D02*
X60450Y-24750D01*
X49400Y-24750D02*
X57600Y-24750D01*
X61150Y-24700D02*
X69800Y-24700D01*
X59000Y-24700D02*
X60450Y-24700D01*
X49400Y-24700D02*
X57600Y-24700D01*
X61150Y-24650D02*
X69800Y-24650D01*
X59000Y-24650D02*
X60450Y-24650D01*
X49400Y-24650D02*
X57600Y-24650D01*
X61150Y-24600D02*
X69800Y-24600D01*
X59000Y-24600D02*
X60450Y-24600D01*
X49400Y-24600D02*
X57600Y-24600D01*
X61150Y-24550D02*
X69800Y-24550D01*
X59000Y-24550D02*
X60450Y-24550D01*
X49400Y-24550D02*
X57600Y-24550D01*
X61150Y-24500D02*
X69800Y-24500D01*
X59000Y-24500D02*
X60450Y-24500D01*
X49400Y-24500D02*
X57600Y-24500D01*
X61150Y-24450D02*
X69800Y-24450D01*
X59000Y-24450D02*
X60450Y-24450D01*
X49400Y-24450D02*
X57600Y-24450D01*
X61150Y-24400D02*
X69800Y-24400D01*
X59000Y-24400D02*
X60450Y-24400D01*
X49400Y-24400D02*
X57600Y-24400D01*
X61150Y-24350D02*
X69800Y-24350D01*
X59000Y-24350D02*
X60450Y-24350D01*
X49400Y-24350D02*
X57600Y-24350D01*
X61150Y-24300D02*
X69800Y-24300D01*
X59000Y-24300D02*
X60450Y-24300D01*
X49400Y-24300D02*
X57600Y-24300D01*
X66000Y-24250D02*
X69800Y-24250D01*
X61150Y-24250D02*
X64650Y-24250D01*
X59000Y-24250D02*
X60450Y-24250D01*
X49400Y-24250D02*
X57600Y-24250D01*
X66000Y-24200D02*
X69800Y-24200D01*
X61150Y-24200D02*
X64650Y-24200D01*
X59000Y-24200D02*
X60450Y-24200D01*
X49400Y-24200D02*
X57600Y-24200D01*
X66000Y-24150D02*
X69800Y-24150D01*
X61150Y-24150D02*
X64650Y-24150D01*
X59000Y-24150D02*
X60450Y-24150D01*
X49400Y-24150D02*
X57600Y-24150D01*
X66000Y-24100D02*
X69800Y-24100D01*
X61150Y-24100D02*
X64650Y-24100D01*
X59000Y-24100D02*
X60450Y-24100D01*
X49400Y-24100D02*
X57600Y-24100D01*
X66000Y-24050D02*
X69800Y-24050D01*
X61150Y-24050D02*
X64650Y-24050D01*
X59000Y-24050D02*
X60450Y-24050D01*
X49400Y-24050D02*
X57600Y-24050D01*
X66000Y-24000D02*
X69800Y-24000D01*
X61150Y-24000D02*
X64650Y-24000D01*
X59000Y-24000D02*
X60450Y-24000D01*
X49400Y-24000D02*
X57600Y-24000D01*
X66000Y-23950D02*
X69800Y-23950D01*
X61150Y-23950D02*
X64650Y-23950D01*
X59000Y-23950D02*
X60450Y-23950D01*
X49400Y-23950D02*
X57600Y-23950D01*
X66000Y-23900D02*
X69800Y-23900D01*
X61150Y-23900D02*
X64650Y-23900D01*
X59000Y-23900D02*
X60450Y-23900D01*
X49400Y-23900D02*
X57600Y-23900D01*
X66000Y-23850D02*
X69800Y-23850D01*
X61150Y-23850D02*
X64650Y-23850D01*
X59000Y-23850D02*
X60450Y-23850D01*
X49400Y-23850D02*
X57600Y-23850D01*
X66000Y-23800D02*
X69800Y-23800D01*
X61150Y-23800D02*
X64650Y-23800D01*
X59000Y-23800D02*
X60450Y-23800D01*
X49400Y-23800D02*
X57600Y-23800D01*
X66000Y-23750D02*
X69800Y-23750D01*
X61150Y-23750D02*
X64650Y-23750D01*
X59000Y-23750D02*
X60450Y-23750D01*
X49400Y-23750D02*
X57600Y-23750D01*
X66000Y-23700D02*
X69800Y-23700D01*
X61150Y-23700D02*
X64650Y-23700D01*
X59000Y-23700D02*
X60450Y-23700D01*
X49400Y-23700D02*
X57600Y-23700D01*
X66000Y-23650D02*
X69800Y-23650D01*
X61150Y-23650D02*
X64650Y-23650D01*
X59000Y-23650D02*
X60450Y-23650D01*
X49400Y-23650D02*
X57600Y-23650D01*
X66000Y-23600D02*
X69800Y-23600D01*
X61150Y-23600D02*
X64650Y-23600D01*
X49400Y-23600D02*
X60450Y-23600D01*
X66000Y-23550D02*
X69800Y-23550D01*
X61150Y-23550D02*
X64650Y-23550D01*
X50750Y-23550D02*
X60450Y-23550D01*
X49400Y-23550D02*
X50450Y-23550D01*
X66000Y-23500D02*
X69800Y-23500D01*
X61150Y-23500D02*
X64650Y-23500D01*
X50850Y-23500D02*
X60450Y-23500D01*
X49400Y-23500D02*
X50350Y-23500D01*
X66000Y-23450D02*
X69800Y-23450D01*
X61150Y-23450D02*
X64650Y-23450D01*
X50950Y-23450D02*
X60450Y-23450D01*
X49400Y-23450D02*
X50250Y-23450D01*
X66000Y-23400D02*
X69800Y-23400D01*
X61150Y-23400D02*
X64650Y-23400D01*
X51000Y-23400D02*
X60450Y-23400D01*
X49400Y-23400D02*
X50200Y-23400D01*
X66000Y-23350D02*
X69800Y-23350D01*
X61150Y-23350D02*
X64650Y-23350D01*
X51000Y-23350D02*
X60450Y-23350D01*
X49400Y-23350D02*
X50200Y-23350D01*
X66550Y-23300D02*
X69800Y-23300D01*
X61150Y-23300D02*
X64650Y-23300D01*
X51050Y-23300D02*
X60450Y-23300D01*
X49400Y-23300D02*
X50150Y-23300D01*
X66550Y-23250D02*
X69800Y-23250D01*
X61150Y-23250D02*
X64650Y-23250D01*
X51050Y-23250D02*
X60450Y-23250D01*
X49400Y-23250D02*
X50150Y-23250D01*
X66550Y-23200D02*
X69800Y-23200D01*
X61150Y-23200D02*
X64650Y-23200D01*
X51100Y-23200D02*
X60450Y-23200D01*
X49400Y-23200D02*
X50100Y-23200D01*
X66550Y-23150D02*
X69800Y-23150D01*
X61150Y-23150D02*
X64650Y-23150D01*
X51100Y-23150D02*
X60450Y-23150D01*
X49400Y-23150D02*
X50100Y-23150D01*
X66550Y-23100D02*
X69800Y-23100D01*
X61150Y-23100D02*
X64650Y-23100D01*
X51100Y-23100D02*
X60450Y-23100D01*
X49400Y-23100D02*
X50100Y-23100D01*
X66550Y-23050D02*
X69800Y-23050D01*
X61150Y-23050D02*
X65200Y-23050D01*
X51100Y-23050D02*
X60450Y-23050D01*
X49400Y-23050D02*
X50100Y-23050D01*
X66550Y-23000D02*
X69800Y-23000D01*
X61150Y-23000D02*
X65200Y-23000D01*
X51100Y-23000D02*
X60450Y-23000D01*
X49400Y-23000D02*
X50100Y-23000D01*
X66550Y-22950D02*
X69800Y-22950D01*
X61150Y-22950D02*
X65200Y-22950D01*
X51050Y-22950D02*
X60450Y-22950D01*
X49400Y-22950D02*
X50150Y-22950D01*
X66550Y-22900D02*
X69800Y-22900D01*
X61150Y-22900D02*
X65200Y-22900D01*
X51050Y-22900D02*
X60450Y-22900D01*
X49400Y-22900D02*
X50150Y-22900D01*
X66550Y-22850D02*
X69800Y-22850D01*
X61150Y-22850D02*
X65200Y-22850D01*
X51000Y-22850D02*
X60450Y-22850D01*
X49400Y-22850D02*
X50200Y-22850D01*
X66550Y-22800D02*
X69800Y-22800D01*
X61150Y-22800D02*
X65200Y-22800D01*
X51000Y-22800D02*
X60450Y-22800D01*
X49400Y-22800D02*
X50200Y-22800D01*
X66550Y-22750D02*
X69800Y-22750D01*
X61150Y-22750D02*
X65200Y-22750D01*
X50950Y-22750D02*
X60450Y-22750D01*
X49400Y-22750D02*
X50250Y-22750D01*
X66550Y-22700D02*
X69800Y-22700D01*
X61150Y-22700D02*
X65200Y-22700D01*
X50850Y-22700D02*
X60450Y-22700D01*
X49400Y-22700D02*
X50350Y-22700D01*
X66550Y-22650D02*
X69800Y-22650D01*
X61150Y-22650D02*
X65200Y-22650D01*
X50750Y-22650D02*
X60450Y-22650D01*
X49400Y-22650D02*
X50450Y-22650D01*
X66550Y-22600D02*
X69800Y-22600D01*
X61150Y-22600D02*
X65200Y-22600D01*
X53200Y-22600D02*
X60450Y-22600D01*
X49400Y-22600D02*
X52800Y-22600D01*
X66550Y-22550D02*
X69800Y-22550D01*
X61150Y-22550D02*
X65200Y-22550D01*
X54100Y-22550D02*
X60450Y-22550D01*
X51100Y-22550D02*
X52700Y-22550D01*
X49400Y-22550D02*
X50100Y-22550D01*
X66550Y-22500D02*
X69800Y-22500D01*
X61150Y-22500D02*
X65200Y-22500D01*
X54200Y-22500D02*
X60450Y-22500D01*
X51100Y-22500D02*
X52650Y-22500D01*
X49400Y-22500D02*
X50100Y-22500D01*
X66550Y-22450D02*
X69800Y-22450D01*
X61150Y-22450D02*
X65200Y-22450D01*
X54250Y-22450D02*
X60450Y-22450D01*
X51100Y-22450D02*
X52650Y-22450D01*
X49400Y-22450D02*
X50100Y-22450D01*
X66550Y-22400D02*
X69800Y-22400D01*
X61150Y-22400D02*
X65200Y-22400D01*
X54300Y-22400D02*
X60450Y-22400D01*
X51100Y-22400D02*
X52600Y-22400D01*
X49400Y-22400D02*
X50100Y-22400D01*
X66550Y-22350D02*
X69800Y-22350D01*
X61150Y-22350D02*
X65200Y-22350D01*
X54350Y-22350D02*
X60450Y-22350D01*
X51100Y-22350D02*
X52600Y-22350D01*
X49400Y-22350D02*
X50100Y-22350D01*
X69000Y-22300D02*
X69800Y-22300D01*
X66550Y-22300D02*
X67750Y-22300D01*
X61150Y-22300D02*
X65200Y-22300D01*
X54400Y-22300D02*
X60450Y-22300D01*
X51100Y-22300D02*
X52600Y-22300D01*
X49400Y-22300D02*
X50100Y-22300D01*
X69000Y-22250D02*
X69800Y-22250D01*
X66550Y-22250D02*
X67750Y-22250D01*
X61150Y-22250D02*
X65200Y-22250D01*
X54450Y-22250D02*
X60450Y-22250D01*
X51100Y-22250D02*
X52600Y-22250D01*
X49400Y-22250D02*
X50100Y-22250D01*
X69000Y-22200D02*
X69800Y-22200D01*
X66550Y-22200D02*
X67750Y-22200D01*
X61150Y-22200D02*
X65200Y-22200D01*
X54500Y-22200D02*
X60400Y-22200D01*
X51100Y-22200D02*
X52600Y-22200D01*
X49400Y-22200D02*
X50100Y-22200D01*
X69000Y-22150D02*
X69800Y-22150D01*
X61150Y-22150D02*
X67750Y-22150D01*
X54550Y-22150D02*
X60350Y-22150D01*
X51100Y-22150D02*
X52600Y-22150D01*
X49400Y-22150D02*
X50100Y-22150D01*
X69000Y-22100D02*
X69800Y-22100D01*
X61150Y-22100D02*
X67750Y-22100D01*
X54600Y-22100D02*
X60300Y-22100D01*
X51100Y-22100D02*
X52600Y-22100D01*
X49400Y-22100D02*
X50100Y-22100D01*
X69000Y-22050D02*
X69800Y-22050D01*
X61150Y-22050D02*
X67750Y-22050D01*
X54650Y-22050D02*
X60250Y-22050D01*
X51100Y-22050D02*
X52650Y-22050D01*
X49400Y-22050D02*
X50100Y-22050D01*
X69000Y-22000D02*
X69800Y-22000D01*
X61150Y-22000D02*
X67750Y-22000D01*
X54700Y-22000D02*
X60200Y-22000D01*
X51100Y-22000D02*
X52650Y-22000D01*
X49400Y-22000D02*
X50100Y-22000D01*
X69000Y-21950D02*
X69800Y-21950D01*
X61100Y-21950D02*
X67750Y-21950D01*
X54750Y-21950D02*
X60150Y-21950D01*
X51100Y-21950D02*
X52700Y-21950D01*
X49400Y-21950D02*
X50100Y-21950D01*
X69000Y-21900D02*
X69800Y-21900D01*
X61100Y-21900D02*
X67750Y-21900D01*
X54800Y-21900D02*
X60100Y-21900D01*
X53200Y-21900D02*
X53800Y-21900D01*
X51100Y-21900D02*
X52800Y-21900D01*
X49400Y-21900D02*
X50100Y-21900D01*
X69000Y-21850D02*
X69800Y-21850D01*
X61050Y-21850D02*
X67750Y-21850D01*
X54850Y-21850D02*
X60050Y-21850D01*
X51100Y-21850D02*
X53850Y-21850D01*
X49400Y-21850D02*
X50100Y-21850D01*
X69000Y-21800D02*
X69800Y-21800D01*
X61000Y-21800D02*
X67750Y-21800D01*
X54900Y-21800D02*
X60000Y-21800D01*
X51100Y-21800D02*
X53900Y-21800D01*
X49400Y-21800D02*
X50100Y-21800D01*
X69000Y-21750D02*
X69800Y-21750D01*
X60950Y-21750D02*
X67750Y-21750D01*
X54950Y-21750D02*
X59950Y-21750D01*
X51100Y-21750D02*
X53950Y-21750D01*
X49400Y-21750D02*
X50100Y-21750D01*
X69000Y-21700D02*
X69800Y-21700D01*
X60900Y-21700D02*
X67750Y-21700D01*
X55000Y-21700D02*
X59900Y-21700D01*
X51100Y-21700D02*
X54000Y-21700D01*
X49400Y-21700D02*
X50100Y-21700D01*
X69000Y-21650D02*
X69800Y-21650D01*
X60850Y-21650D02*
X67750Y-21650D01*
X55050Y-21650D02*
X59850Y-21650D01*
X51100Y-21650D02*
X54050Y-21650D01*
X49400Y-21650D02*
X50100Y-21650D01*
X69000Y-21600D02*
X69800Y-21600D01*
X60800Y-21600D02*
X67750Y-21600D01*
X55100Y-21600D02*
X59800Y-21600D01*
X49400Y-21600D02*
X54100Y-21600D01*
X69000Y-21550D02*
X69800Y-21550D01*
X60750Y-21550D02*
X67750Y-21550D01*
X55150Y-21550D02*
X59750Y-21550D01*
X49400Y-21550D02*
X54150Y-21550D01*
X69000Y-21500D02*
X69800Y-21500D01*
X60700Y-21500D02*
X67750Y-21500D01*
X55250Y-21500D02*
X59700Y-21500D01*
X49400Y-21500D02*
X54200Y-21500D01*
X69000Y-21450D02*
X69800Y-21450D01*
X60650Y-21450D02*
X67750Y-21450D01*
X55350Y-21450D02*
X59600Y-21450D01*
X49400Y-21450D02*
X54250Y-21450D01*
X69000Y-21400D02*
X69800Y-21400D01*
X60600Y-21400D02*
X67750Y-21400D01*
X55400Y-21400D02*
X59500Y-21400D01*
X49400Y-21400D02*
X54300Y-21400D01*
X69000Y-21350D02*
X69800Y-21350D01*
X60550Y-21350D02*
X67750Y-21350D01*
X55400Y-21350D02*
X59450Y-21350D01*
X49400Y-21350D02*
X54350Y-21350D01*
X69000Y-21300D02*
X69800Y-21300D01*
X60500Y-21300D02*
X67750Y-21300D01*
X55450Y-21300D02*
X59450Y-21300D01*
X49400Y-21300D02*
X54400Y-21300D01*
X69000Y-21250D02*
X69800Y-21250D01*
X60450Y-21250D02*
X67750Y-21250D01*
X55450Y-21250D02*
X59400Y-21250D01*
X49400Y-21250D02*
X54450Y-21250D01*
X69000Y-21200D02*
X69800Y-21200D01*
X60400Y-21200D02*
X67750Y-21200D01*
X55450Y-21200D02*
X59400Y-21200D01*
X49400Y-21200D02*
X54500Y-21200D01*
X69000Y-21150D02*
X69800Y-21150D01*
X60350Y-21150D02*
X67750Y-21150D01*
X55450Y-21150D02*
X59400Y-21150D01*
X49400Y-21150D02*
X54550Y-21150D01*
X69000Y-21100D02*
X69800Y-21100D01*
X60300Y-21100D02*
X67750Y-21100D01*
X55450Y-21100D02*
X59400Y-21100D01*
X49400Y-21100D02*
X54600Y-21100D01*
X60250Y-21050D02*
X69800Y-21050D01*
X55450Y-21050D02*
X59400Y-21050D01*
X49400Y-21050D02*
X54650Y-21050D01*
X60200Y-21000D02*
X69800Y-21000D01*
X55450Y-21000D02*
X59400Y-21000D01*
X49400Y-21000D02*
X54650Y-21000D01*
X60200Y-20950D02*
X69800Y-20950D01*
X55400Y-20950D02*
X59400Y-20950D01*
X49400Y-20950D02*
X54700Y-20950D01*
X60150Y-20900D02*
X69800Y-20900D01*
X55400Y-20900D02*
X59450Y-20900D01*
X49400Y-20900D02*
X54700Y-20900D01*
X60150Y-20850D02*
X69800Y-20850D01*
X55350Y-20850D02*
X59450Y-20850D01*
X49400Y-20850D02*
X54750Y-20850D01*
X60100Y-20800D02*
X69800Y-20800D01*
X55250Y-20800D02*
X59500Y-20800D01*
X49400Y-20800D02*
X54850Y-20800D01*
X64650Y-20750D02*
X69800Y-20750D01*
X60000Y-20750D02*
X63450Y-20750D01*
X49400Y-20750D02*
X59600Y-20750D01*
X64650Y-20700D02*
X69800Y-20700D01*
X49400Y-20700D02*
X63450Y-20700D01*
X64650Y-20650D02*
X69800Y-20650D01*
X49400Y-20650D02*
X63450Y-20650D01*
X64650Y-20600D02*
X69800Y-20600D01*
X49400Y-20600D02*
X63450Y-20600D01*
X64650Y-20550D02*
X69800Y-20550D01*
X49400Y-20550D02*
X63450Y-20550D01*
X64650Y-20500D02*
X69800Y-20500D01*
X49400Y-20500D02*
X63450Y-20500D01*
X67750Y-20450D02*
X69800Y-20450D01*
X64650Y-20450D02*
X66400Y-20450D01*
X49400Y-20450D02*
X63450Y-20450D01*
X67750Y-20400D02*
X69800Y-20400D01*
X64650Y-20400D02*
X66400Y-20400D01*
X49400Y-20400D02*
X63450Y-20400D01*
X67750Y-20350D02*
X69800Y-20350D01*
X64650Y-20350D02*
X66400Y-20350D01*
X49400Y-20350D02*
X63450Y-20350D01*
X67750Y-20300D02*
X69800Y-20300D01*
X64650Y-20300D02*
X66400Y-20300D01*
X49400Y-20300D02*
X63450Y-20300D01*
X67750Y-20250D02*
X69800Y-20250D01*
X64650Y-20250D02*
X66400Y-20250D01*
X49400Y-20250D02*
X63450Y-20250D01*
X67750Y-20200D02*
X69800Y-20200D01*
X64650Y-20200D02*
X66400Y-20200D01*
X49400Y-20200D02*
X63450Y-20200D01*
X67750Y-20150D02*
X69800Y-20150D01*
X64650Y-20150D02*
X66400Y-20150D01*
X49400Y-20150D02*
X63450Y-20150D01*
X67750Y-20100D02*
X69800Y-20100D01*
X64650Y-20100D02*
X66400Y-20100D01*
X49400Y-20100D02*
X63450Y-20100D01*
X67750Y-20050D02*
X69800Y-20050D01*
X64650Y-20050D02*
X66400Y-20050D01*
X49400Y-20050D02*
X63450Y-20050D01*
X67750Y-20000D02*
X69800Y-20000D01*
X64650Y-20000D02*
X66400Y-20000D01*
X49400Y-20000D02*
X63450Y-20000D01*
X67750Y-19950D02*
X69800Y-19950D01*
X64650Y-19950D02*
X66400Y-19950D01*
X49400Y-19950D02*
X63450Y-19950D01*
X67750Y-19900D02*
X69800Y-19900D01*
X64650Y-19900D02*
X66400Y-19900D01*
X49400Y-19900D02*
X63450Y-19900D01*
X67750Y-19850D02*
X69800Y-19850D01*
X64650Y-19850D02*
X66400Y-19850D01*
X49400Y-19850D02*
X63450Y-19850D01*
X67750Y-19800D02*
X69800Y-19800D01*
X64650Y-19800D02*
X66400Y-19800D01*
X49400Y-19800D02*
X63450Y-19800D01*
X67750Y-19750D02*
X69800Y-19750D01*
X64650Y-19750D02*
X66400Y-19750D01*
X49400Y-19750D02*
X63450Y-19750D01*
X67750Y-19700D02*
X69800Y-19700D01*
X64650Y-19700D02*
X66400Y-19700D01*
X49400Y-19700D02*
X63200Y-19700D01*
X67750Y-19650D02*
X69800Y-19650D01*
X64650Y-19650D02*
X66400Y-19650D01*
X49400Y-19650D02*
X63100Y-19650D01*
X67750Y-19600D02*
X69800Y-19600D01*
X64650Y-19600D02*
X66400Y-19600D01*
X49400Y-19600D02*
X63050Y-19600D01*
X67750Y-19550D02*
X69800Y-19550D01*
X64650Y-19550D02*
X66400Y-19550D01*
X49400Y-19550D02*
X63050Y-19550D01*
X67750Y-19500D02*
X69800Y-19500D01*
X64650Y-19500D02*
X66400Y-19500D01*
X49400Y-19500D02*
X63000Y-19500D01*
X67750Y-19450D02*
X69800Y-19450D01*
X63800Y-19450D02*
X66400Y-19450D01*
X49400Y-19450D02*
X63000Y-19450D01*
X67750Y-19400D02*
X69800Y-19400D01*
X63850Y-19400D02*
X66400Y-19400D01*
X49400Y-19400D02*
X63000Y-19400D01*
X67750Y-19350D02*
X69800Y-19350D01*
X63900Y-19350D02*
X66400Y-19350D01*
X49400Y-19350D02*
X63000Y-19350D01*
X63950Y-19300D02*
X69800Y-19300D01*
X49400Y-19300D02*
X63000Y-19300D01*
X64000Y-19250D02*
X69800Y-19250D01*
X49400Y-19250D02*
X63000Y-19250D01*
X64050Y-19200D02*
X69800Y-19200D01*
X49400Y-19200D02*
X63000Y-19200D01*
X64100Y-19150D02*
X69800Y-19150D01*
X61400Y-19150D02*
X63050Y-19150D01*
X49400Y-19150D02*
X61000Y-19150D01*
X64150Y-19100D02*
X69800Y-19100D01*
X61500Y-19100D02*
X63050Y-19100D01*
X49400Y-19100D02*
X60900Y-19100D01*
X64200Y-19050D02*
X69800Y-19050D01*
X61550Y-19050D02*
X63100Y-19050D01*
X49400Y-19050D02*
X60850Y-19050D01*
X64250Y-19000D02*
X69800Y-19000D01*
X61550Y-19000D02*
X63200Y-19000D01*
X49400Y-19000D02*
X60850Y-19000D01*
X64300Y-18950D02*
X69800Y-18950D01*
X61600Y-18950D02*
X63300Y-18950D01*
X49400Y-18950D02*
X60800Y-18950D01*
X64350Y-18900D02*
X69800Y-18900D01*
X61600Y-18900D02*
X63350Y-18900D01*
X49400Y-18900D02*
X60800Y-18900D01*
X64400Y-18850D02*
X69800Y-18850D01*
X61650Y-18850D02*
X63400Y-18850D01*
X49400Y-18850D02*
X60800Y-18850D01*
X64450Y-18800D02*
X69800Y-18800D01*
X61700Y-18800D02*
X63450Y-18800D01*
X49400Y-18800D02*
X60800Y-18800D01*
X64500Y-18750D02*
X69800Y-18750D01*
X61750Y-18750D02*
X63500Y-18750D01*
X49400Y-18750D02*
X60800Y-18750D01*
X64550Y-18700D02*
X69800Y-18700D01*
X61800Y-18700D02*
X63550Y-18700D01*
X49400Y-18700D02*
X60800Y-18700D01*
X64600Y-18650D02*
X69800Y-18650D01*
X61850Y-18650D02*
X63600Y-18650D01*
X49400Y-18650D02*
X60800Y-18650D01*
X64650Y-18600D02*
X69800Y-18600D01*
X61900Y-18600D02*
X63650Y-18600D01*
X49400Y-18600D02*
X60850Y-18600D01*
X64700Y-18550D02*
X69800Y-18550D01*
X61900Y-18550D02*
X63700Y-18550D01*
X49400Y-18550D02*
X60850Y-18550D01*
X64750Y-18500D02*
X69800Y-18500D01*
X61950Y-18500D02*
X63750Y-18500D01*
X49400Y-18500D02*
X60900Y-18500D01*
X64800Y-18450D02*
X69800Y-18450D01*
X61950Y-18450D02*
X63800Y-18450D01*
X49400Y-18450D02*
X61000Y-18450D01*
X64850Y-18400D02*
X69800Y-18400D01*
X61950Y-18400D02*
X63850Y-18400D01*
X49400Y-18400D02*
X61100Y-18400D01*
X64900Y-18350D02*
X69800Y-18350D01*
X63600Y-18350D02*
X63900Y-18350D01*
X61950Y-18350D02*
X63200Y-18350D01*
X49400Y-18350D02*
X61150Y-18350D01*
X64900Y-18300D02*
X69800Y-18300D01*
X63700Y-18300D02*
X63950Y-18300D01*
X61950Y-18300D02*
X63100Y-18300D01*
X49400Y-18300D02*
X61200Y-18300D01*
X64950Y-18250D02*
X69800Y-18250D01*
X63750Y-18250D02*
X64000Y-18250D01*
X61950Y-18250D02*
X63050Y-18250D01*
X49400Y-18250D02*
X61250Y-18250D01*
X64950Y-18200D02*
X69800Y-18200D01*
X63750Y-18200D02*
X64050Y-18200D01*
X61950Y-18200D02*
X63050Y-18200D01*
X49400Y-18200D02*
X61200Y-18200D01*
X64950Y-18150D02*
X69800Y-18150D01*
X63800Y-18150D02*
X64100Y-18150D01*
X61950Y-18150D02*
X63000Y-18150D01*
X49400Y-18150D02*
X61200Y-18150D01*
X64950Y-18100D02*
X69800Y-18100D01*
X63800Y-18100D02*
X64150Y-18100D01*
X61950Y-18100D02*
X63000Y-18100D01*
X49400Y-18100D02*
X61200Y-18100D01*
X64950Y-18050D02*
X69800Y-18050D01*
X63850Y-18050D02*
X64200Y-18050D01*
X61950Y-18050D02*
X63000Y-18050D01*
X49400Y-18050D02*
X61200Y-18050D01*
X65000Y-18000D02*
X69800Y-18000D01*
X63900Y-18000D02*
X64200Y-18000D01*
X61900Y-18000D02*
X63000Y-18000D01*
X49400Y-18000D02*
X61200Y-18000D01*
X65050Y-17950D02*
X69800Y-17950D01*
X63950Y-17950D02*
X64150Y-17950D01*
X61900Y-17950D02*
X63000Y-17950D01*
X49400Y-17950D02*
X61200Y-17950D01*
X65100Y-17900D02*
X69800Y-17900D01*
X64000Y-17900D02*
X64100Y-17900D01*
X61900Y-17900D02*
X63000Y-17900D01*
X49400Y-17900D02*
X61200Y-17900D01*
X65100Y-17850D02*
X69800Y-17850D01*
X64050Y-17850D02*
X64100Y-17850D01*
X61900Y-17850D02*
X63000Y-17850D01*
X49400Y-17850D02*
X61200Y-17850D01*
X65150Y-17800D02*
X69800Y-17800D01*
X61900Y-17800D02*
X63050Y-17800D01*
X49400Y-17800D02*
X61200Y-17800D01*
X65150Y-17750D02*
X69800Y-17750D01*
X61900Y-17750D02*
X63050Y-17750D01*
X54400Y-17750D02*
X61200Y-17750D01*
X51950Y-17750D02*
X53200Y-17750D01*
X49400Y-17750D02*
X51650Y-17750D01*
X65150Y-17700D02*
X69800Y-17700D01*
X61900Y-17700D02*
X63100Y-17700D01*
X54400Y-17700D02*
X61150Y-17700D01*
X52100Y-17700D02*
X53200Y-17700D01*
X49400Y-17700D02*
X51500Y-17700D01*
X65150Y-17650D02*
X69800Y-17650D01*
X61900Y-17650D02*
X63200Y-17650D01*
X54400Y-17650D02*
X61150Y-17650D01*
X52150Y-17650D02*
X53200Y-17650D01*
X49400Y-17650D02*
X51450Y-17650D01*
X65150Y-17600D02*
X69800Y-17600D01*
X61900Y-17600D02*
X63300Y-17600D01*
X54400Y-17600D02*
X61150Y-17600D01*
X52250Y-17600D02*
X53200Y-17600D01*
X49400Y-17600D02*
X51350Y-17600D01*
X65150Y-17550D02*
X69800Y-17550D01*
X61900Y-17550D02*
X63350Y-17550D01*
X54400Y-17550D02*
X61100Y-17550D01*
X52250Y-17550D02*
X53200Y-17550D01*
X49400Y-17550D02*
X51350Y-17550D01*
X65150Y-17500D02*
X69800Y-17500D01*
X61900Y-17500D02*
X63400Y-17500D01*
X54400Y-17500D02*
X61100Y-17500D01*
X52300Y-17500D02*
X53200Y-17500D01*
X49400Y-17500D02*
X51300Y-17500D01*
X65150Y-17450D02*
X69800Y-17450D01*
X61900Y-17450D02*
X63450Y-17450D01*
X54400Y-17450D02*
X61100Y-17450D01*
X52350Y-17450D02*
X53200Y-17450D01*
X49400Y-17450D02*
X51250Y-17450D01*
X65150Y-17400D02*
X69800Y-17400D01*
X61900Y-17400D02*
X63500Y-17400D01*
X54400Y-17400D02*
X61100Y-17400D01*
X52350Y-17400D02*
X53200Y-17400D01*
X49400Y-17400D02*
X51250Y-17400D01*
X65100Y-17350D02*
X69800Y-17350D01*
X61900Y-17350D02*
X63550Y-17350D01*
X54400Y-17350D02*
X61100Y-17350D01*
X52350Y-17350D02*
X53200Y-17350D01*
X49400Y-17350D02*
X51250Y-17350D01*
X65100Y-17300D02*
X69800Y-17300D01*
X61900Y-17300D02*
X63600Y-17300D01*
X54400Y-17300D02*
X61100Y-17300D01*
X52400Y-17300D02*
X53200Y-17300D01*
X49400Y-17300D02*
X51200Y-17300D01*
X65050Y-17250D02*
X69800Y-17250D01*
X61900Y-17250D02*
X63650Y-17250D01*
X54400Y-17250D02*
X61100Y-17250D01*
X52400Y-17250D02*
X53200Y-17250D01*
X49400Y-17250D02*
X51200Y-17250D01*
X65000Y-17200D02*
X69800Y-17200D01*
X61850Y-17200D02*
X63650Y-17200D01*
X54400Y-17200D02*
X61150Y-17200D01*
X52400Y-17200D02*
X53200Y-17200D01*
X49400Y-17200D02*
X51200Y-17200D01*
X64950Y-17150D02*
X69800Y-17150D01*
X61850Y-17150D02*
X63700Y-17150D01*
X54400Y-17150D02*
X61150Y-17150D01*
X52400Y-17150D02*
X53200Y-17150D01*
X49400Y-17150D02*
X51200Y-17150D01*
X68850Y-17100D02*
X69800Y-17100D01*
X64850Y-17100D02*
X68350Y-17100D01*
X61800Y-17100D02*
X63700Y-17100D01*
X54400Y-17100D02*
X61200Y-17100D01*
X52400Y-17100D02*
X53200Y-17100D01*
X49400Y-17100D02*
X51200Y-17100D01*
X68950Y-17050D02*
X69800Y-17050D01*
X64750Y-17050D02*
X68250Y-17050D01*
X61700Y-17050D02*
X63750Y-17050D01*
X54400Y-17050D02*
X61300Y-17050D01*
X52350Y-17050D02*
X53200Y-17050D01*
X49400Y-17050D02*
X51250Y-17050D01*
X69000Y-17000D02*
X69800Y-17000D01*
X64800Y-17000D02*
X68200Y-17000D01*
X54400Y-17000D02*
X63800Y-17000D01*
X52350Y-17000D02*
X53200Y-17000D01*
X49400Y-17000D02*
X51250Y-17000D01*
X69050Y-16950D02*
X69800Y-16950D01*
X64850Y-16950D02*
X68150Y-16950D01*
X54400Y-16950D02*
X63850Y-16950D01*
X52350Y-16950D02*
X53200Y-16950D01*
X49400Y-16950D02*
X51250Y-16950D01*
X69100Y-16900D02*
X69800Y-16900D01*
X54400Y-16900D02*
X63900Y-16900D01*
X52300Y-16900D02*
X53200Y-16900D01*
X49400Y-16900D02*
X51300Y-16900D01*
X69100Y-16850D02*
X69800Y-16850D01*
X54400Y-16850D02*
X63950Y-16850D01*
X52250Y-16850D02*
X53200Y-16850D01*
X49400Y-16850D02*
X51350Y-16850D01*
X69150Y-16800D02*
X69800Y-16800D01*
X54400Y-16800D02*
X64000Y-16800D01*
X52250Y-16800D02*
X53200Y-16800D01*
X49400Y-16800D02*
X51350Y-16800D01*
X69150Y-16750D02*
X69800Y-16750D01*
X54400Y-16750D02*
X64050Y-16750D01*
X52150Y-16750D02*
X53200Y-16750D01*
X49400Y-16750D02*
X51450Y-16750D01*
X69150Y-16700D02*
X69800Y-16700D01*
X54400Y-16700D02*
X64100Y-16700D01*
X52100Y-16700D02*
X53200Y-16700D01*
X49400Y-16700D02*
X51500Y-16700D01*
X69150Y-16650D02*
X69800Y-16650D01*
X54400Y-16650D02*
X64150Y-16650D01*
X51950Y-16650D02*
X53200Y-16650D01*
X49400Y-16650D02*
X51650Y-16650D01*
X69150Y-16600D02*
X69800Y-16600D01*
X49400Y-16600D02*
X64200Y-16600D01*
X69150Y-16550D02*
X69800Y-16550D01*
X49400Y-16550D02*
X64250Y-16550D01*
X69150Y-16500D02*
X69800Y-16500D01*
X49400Y-16500D02*
X64300Y-16500D01*
X69150Y-16450D02*
X69800Y-16450D01*
X49400Y-16450D02*
X64350Y-16450D01*
X69150Y-16400D02*
X69800Y-16400D01*
X49400Y-16400D02*
X64400Y-16400D01*
X69100Y-16350D02*
X69800Y-16350D01*
X49400Y-16350D02*
X64450Y-16350D01*
X69100Y-16300D02*
X69800Y-16300D01*
X49400Y-16300D02*
X64550Y-16300D01*
X69050Y-16250D02*
X69800Y-16250D01*
X49400Y-16250D02*
X68150Y-16250D01*
X69000Y-16200D02*
X69800Y-16200D01*
X49400Y-16200D02*
X68200Y-16200D01*
X68950Y-16150D02*
X69800Y-16150D01*
X49400Y-16150D02*
X68250Y-16150D01*
X68850Y-16100D02*
X69800Y-16100D01*
X64850Y-16100D02*
X68350Y-16100D01*
X49400Y-16100D02*
X64350Y-16100D01*
X64950Y-16050D02*
X69800Y-16050D01*
X49400Y-16050D02*
X64250Y-16050D01*
X65000Y-16000D02*
X69800Y-16000D01*
X49400Y-16000D02*
X64200Y-16000D01*
X65050Y-15950D02*
X69800Y-15950D01*
X49400Y-15950D02*
X64150Y-15950D01*
X65100Y-15900D02*
X69800Y-15900D01*
X49400Y-15900D02*
X64100Y-15900D01*
X65100Y-15850D02*
X69800Y-15850D01*
X49400Y-15850D02*
X64100Y-15850D01*
X65150Y-15800D02*
X69800Y-15800D01*
X49400Y-15800D02*
X64050Y-15800D01*
X65150Y-15750D02*
X69800Y-15750D01*
X49400Y-15750D02*
X64050Y-15750D01*
X65150Y-15700D02*
X69800Y-15700D01*
X49400Y-15700D02*
X64050Y-15700D01*
M02*
