G04 (Genere par PCBNEW (2007-11-29-a)) le 23/5/2012-13:51:02*
G01*
G70*
G90*
%MOIN*%
G04 Gerber Fmt 3.4, Leading zero omitted, Abs format*
%FSLAX34Y34*%
G04 APERTURE LIST*
%ADD10C,0.012000*%
%ADD11C,0.078700*%
%ADD12C,0.052000*%
%ADD13O,0.086200X0.102400*%
%ADD14O,0.102400X0.086200*%
%ADD15R,0.055000X0.059100*%
%ADD16C,0.059100*%
%ADD17C,0.082700*%
%ADD18O,0.094500X0.082700*%
%ADD19C,0.074800*%
%ADD20C,0.045000*%
%ADD21C,0.031500*%
%ADD22C,0.031000*%
%ADD23C,0.005000*%
%ADD24R,0.020000X0.045000*%
%ADD25R,0.060000X0.080000*%
%ADD26R,0.080000X0.060000*%
%ADD27R,0.055000X0.035000*%
%ADD28R,0.035000X0.055000*%
%ADD29R,0.050000X0.016000*%
%ADD30R,0.118100X0.118100*%
%ADD31C,0.118100*%
%ADD32C,0.020000*%
%ADD33C,0.017000*%
%ADD34C,0.022000*%
%ADD35C,0.015000*%
%ADD36C,0.000900*%
%ADD37C,0.000100*%
%ADD38C,0.008000*%
%ADD39C,0.006000*%
%ADD40C,0.003000*%
%ADD41C,0.001000*%
%ADD42C,0.098700*%
%ADD43C,0.072000*%
%ADD44O,0.106200X0.122400*%
%ADD45O,0.122400X0.106200*%
%ADD46R,0.075000X0.079100*%
%ADD47C,0.079100*%
%ADD48C,0.102700*%
%ADD49O,0.114500X0.102700*%
%ADD50C,0.094800*%
%ADD51R,0.040000X0.065000*%
%ADD52R,0.080000X0.100000*%
%ADD53R,0.100000X0.080000*%
%ADD54R,0.075000X0.055000*%
%ADD55R,0.055000X0.075000*%
%ADD56R,0.070000X0.036000*%
%ADD57R,0.138100X0.138100*%
%ADD58R,0.078700X0.078700*%
%ADD59R,0.098700X0.098700*%
G04 APERTURE END LIST*
G54D10*
X60783Y-34412D02*
X60858Y-34500D01*
X60858Y-34500D02*
X61233Y-34500D01*
X61233Y-34500D02*
X61308Y-34412D01*
X61308Y-34412D02*
X61308Y-34323D01*
X61308Y-34323D02*
X61233Y-34234D01*
X61233Y-34234D02*
X60858Y-34234D01*
X60858Y-34234D02*
X60783Y-34145D01*
X60783Y-34145D02*
X60783Y-34056D01*
X60783Y-34056D02*
X60858Y-33967D01*
X60858Y-33967D02*
X61233Y-33967D01*
X61233Y-33967D02*
X61308Y-34056D01*
X61569Y-34234D02*
X62094Y-34234D01*
X62094Y-34234D02*
X62094Y-34056D01*
X62094Y-34056D02*
X62019Y-33967D01*
X62019Y-33967D02*
X61644Y-33967D01*
X61644Y-33967D02*
X61569Y-34056D01*
X61569Y-34056D02*
X61569Y-34412D01*
X61569Y-34412D02*
X61644Y-34500D01*
X61644Y-34500D02*
X62019Y-34500D01*
X62019Y-34500D02*
X62094Y-34412D01*
X62505Y-33700D02*
X62580Y-33700D01*
X62580Y-33700D02*
X62580Y-34500D01*
X62505Y-34500D02*
X62655Y-34500D01*
X55058Y-24650D02*
X54983Y-24562D01*
X54983Y-24562D02*
X54983Y-24206D01*
X54983Y-24206D02*
X55058Y-24117D01*
X55058Y-24117D02*
X55433Y-24117D01*
X55433Y-24117D02*
X55508Y-24206D01*
X55508Y-24206D02*
X55508Y-24562D01*
X55508Y-24562D02*
X55433Y-24650D01*
X55433Y-24650D02*
X55058Y-24650D01*
X55844Y-24650D02*
X55844Y-23939D01*
X55844Y-23939D02*
X55919Y-23850D01*
X55919Y-23850D02*
X56219Y-23850D01*
X56219Y-23850D02*
X56294Y-23939D01*
X55769Y-24206D02*
X55994Y-24206D01*
X56630Y-24650D02*
X56630Y-23939D01*
X56630Y-23939D02*
X56705Y-23850D01*
X56705Y-23850D02*
X57005Y-23850D01*
X57005Y-23850D02*
X57080Y-23939D01*
X56555Y-24206D02*
X56780Y-24206D01*
X67483Y-32062D02*
X67558Y-32150D01*
X67558Y-32150D02*
X67933Y-32150D01*
X67933Y-32150D02*
X68008Y-32062D01*
X68008Y-32062D02*
X68008Y-31973D01*
X68008Y-31973D02*
X67933Y-31884D01*
X67933Y-31884D02*
X67558Y-31884D01*
X67558Y-31884D02*
X67483Y-31795D01*
X67483Y-31795D02*
X67483Y-31706D01*
X67483Y-31706D02*
X67558Y-31617D01*
X67558Y-31617D02*
X67933Y-31617D01*
X67933Y-31617D02*
X68008Y-31706D01*
X68494Y-31350D02*
X68494Y-31439D01*
X68494Y-31706D02*
X68494Y-32062D01*
X68494Y-32062D02*
X68569Y-32150D01*
X68569Y-32150D02*
X68644Y-32150D01*
X69055Y-32327D02*
X69130Y-32416D01*
X69130Y-32416D02*
X69505Y-32416D01*
X69505Y-32416D02*
X69580Y-32327D01*
X69580Y-32327D02*
X69580Y-31706D01*
X69580Y-31706D02*
X69505Y-31617D01*
X69505Y-31617D02*
X69130Y-31617D01*
X69130Y-31617D02*
X69055Y-31706D01*
X69055Y-31706D02*
X69055Y-32062D01*
X69055Y-32062D02*
X69130Y-32150D01*
X69130Y-32150D02*
X69505Y-32150D01*
X69505Y-32150D02*
X69580Y-32062D01*
X63404Y-25766D02*
X63404Y-24967D01*
X63404Y-25056D02*
X63479Y-24967D01*
X63479Y-24967D02*
X63854Y-24967D01*
X63854Y-24967D02*
X63929Y-25056D01*
X63929Y-25056D02*
X63929Y-25412D01*
X63929Y-25412D02*
X63854Y-25500D01*
X63854Y-25500D02*
X63479Y-25500D01*
X63479Y-25500D02*
X63404Y-25412D01*
X64190Y-25500D02*
X64190Y-24700D01*
X64190Y-25056D02*
X64265Y-24967D01*
X64265Y-24967D02*
X64640Y-24967D01*
X64640Y-24967D02*
X64715Y-25056D01*
X64715Y-25056D02*
X64715Y-25500D01*
X65051Y-25500D02*
X64976Y-25412D01*
X64976Y-25412D02*
X64976Y-25056D01*
X64976Y-25056D02*
X65051Y-24967D01*
X65051Y-24967D02*
X65426Y-24967D01*
X65426Y-24967D02*
X65501Y-25056D01*
X65501Y-25056D02*
X65501Y-25412D01*
X65501Y-25412D02*
X65426Y-25500D01*
X65426Y-25500D02*
X65051Y-25500D01*
X65762Y-25500D02*
X65762Y-24967D01*
X65762Y-25056D02*
X65837Y-24967D01*
X65837Y-24967D02*
X66137Y-24967D01*
X66137Y-24967D02*
X66212Y-25056D01*
X66212Y-25056D02*
X66212Y-25500D01*
X66548Y-25234D02*
X67073Y-25234D01*
X67073Y-25234D02*
X67073Y-25056D01*
X67073Y-25056D02*
X66998Y-24967D01*
X66998Y-24967D02*
X66623Y-24967D01*
X66623Y-24967D02*
X66548Y-25056D01*
X66548Y-25056D02*
X66548Y-25412D01*
X66548Y-25412D02*
X66623Y-25500D01*
X66623Y-25500D02*
X66998Y-25500D01*
X66998Y-25500D02*
X67073Y-25412D01*
X67334Y-25412D02*
X67409Y-25500D01*
X67409Y-25500D02*
X67784Y-25500D01*
X67784Y-25500D02*
X67859Y-25412D01*
X67859Y-25412D02*
X67859Y-25323D01*
X67859Y-25323D02*
X67784Y-25234D01*
X67784Y-25234D02*
X67409Y-25234D01*
X67409Y-25234D02*
X67334Y-25145D01*
X67334Y-25145D02*
X67334Y-25056D01*
X67334Y-25056D02*
X67409Y-24967D01*
X67409Y-24967D02*
X67784Y-24967D01*
X67784Y-24967D02*
X67859Y-25056D01*
X49833Y-31467D02*
X49833Y-31734D01*
X49833Y-31734D02*
X50058Y-32000D01*
X50058Y-32000D02*
X50283Y-31734D01*
X50283Y-31734D02*
X50283Y-31467D01*
X50694Y-32000D02*
X50619Y-31912D01*
X50619Y-31912D02*
X50619Y-31556D01*
X50619Y-31556D02*
X50694Y-31467D01*
X50694Y-31467D02*
X51069Y-31467D01*
X51069Y-31467D02*
X51144Y-31556D01*
X51144Y-31556D02*
X51144Y-31912D01*
X51144Y-31912D02*
X51069Y-32000D01*
X51069Y-32000D02*
X50694Y-32000D01*
X51555Y-31200D02*
X51630Y-31200D01*
X51630Y-31200D02*
X51630Y-32000D01*
X51555Y-32000D02*
X51705Y-32000D01*
X65690Y-13417D02*
X66140Y-13417D01*
X66140Y-13417D02*
X66215Y-13506D01*
X66215Y-13506D02*
X66215Y-13950D01*
X66215Y-13950D02*
X65765Y-13950D01*
X65765Y-13950D02*
X65690Y-13862D01*
X65690Y-13862D02*
X65690Y-13773D01*
X65690Y-13773D02*
X65765Y-13684D01*
X65765Y-13684D02*
X66215Y-13684D01*
X66926Y-13862D02*
X66851Y-13950D01*
X66851Y-13950D02*
X66626Y-13950D01*
X66626Y-13950D02*
X66551Y-13862D01*
X66551Y-13862D02*
X66551Y-13150D01*
X66551Y-13417D02*
X66776Y-13417D01*
X67712Y-13862D02*
X67637Y-13950D01*
X67637Y-13950D02*
X67412Y-13950D01*
X67412Y-13950D02*
X67337Y-13862D01*
X67337Y-13862D02*
X67337Y-13150D01*
X67337Y-13417D02*
X67562Y-13417D01*
X68048Y-13950D02*
X68048Y-13417D01*
X68048Y-13506D02*
X68123Y-13417D01*
X68123Y-13417D02*
X68423Y-13417D01*
X68423Y-13417D02*
X68498Y-13506D01*
X68498Y-13506D02*
X68498Y-13950D01*
X62250Y-10293D02*
X61450Y-10293D01*
X61450Y-10293D02*
X61450Y-09843D01*
X61450Y-09843D02*
X61538Y-09768D01*
X61538Y-09768D02*
X61894Y-09768D01*
X61894Y-09768D02*
X61983Y-09843D01*
X61983Y-09843D02*
X61983Y-10293D01*
X61716Y-10554D02*
X61716Y-11079D01*
X61716Y-11079D02*
X61894Y-11079D01*
X61894Y-11079D02*
X61983Y-11004D01*
X61983Y-11004D02*
X61983Y-10629D01*
X61983Y-10629D02*
X61894Y-10554D01*
X61894Y-10554D02*
X61538Y-10554D01*
X61538Y-10554D02*
X61450Y-10629D01*
X61450Y-10629D02*
X61450Y-11004D01*
X61450Y-11004D02*
X61538Y-11079D01*
X61538Y-11790D02*
X61450Y-11715D01*
X61450Y-11715D02*
X61450Y-11490D01*
X61450Y-11490D02*
X61538Y-11415D01*
X61538Y-11415D02*
X62250Y-11415D01*
X61983Y-11415D02*
X61983Y-11640D01*
X61716Y-12126D02*
X61716Y-12651D01*
X61716Y-12651D02*
X61894Y-12651D01*
X61894Y-12651D02*
X61983Y-12576D01*
X61983Y-12576D02*
X61983Y-12201D01*
X61983Y-12201D02*
X61894Y-12126D01*
X61894Y-12126D02*
X61538Y-12126D01*
X61538Y-12126D02*
X61450Y-12201D01*
X61450Y-12201D02*
X61450Y-12576D01*
X61450Y-12576D02*
X61538Y-12651D01*
X61450Y-12987D02*
X62250Y-12987D01*
X61716Y-12987D02*
X61716Y-13062D01*
X61716Y-13062D02*
X61983Y-13437D01*
X61716Y-13062D02*
X61450Y-13437D01*
X61538Y-14148D02*
X61450Y-14073D01*
X61450Y-14073D02*
X61450Y-13848D01*
X61450Y-13848D02*
X61538Y-13773D01*
X61538Y-13773D02*
X62250Y-13773D01*
X61983Y-13773D02*
X61983Y-13998D01*
X61450Y-14559D02*
X61538Y-14484D01*
X61538Y-14484D02*
X61894Y-14484D01*
X61894Y-14484D02*
X61983Y-14559D01*
X61983Y-14559D02*
X61983Y-14934D01*
X61983Y-14934D02*
X61894Y-15009D01*
X61894Y-15009D02*
X61538Y-15009D01*
X61538Y-15009D02*
X61450Y-14934D01*
X61450Y-14934D02*
X61450Y-14559D01*
X61450Y-15270D02*
X61983Y-15270D01*
X61805Y-15270D02*
X61983Y-15420D01*
X61983Y-15420D02*
X61983Y-15645D01*
X61983Y-15645D02*
X61805Y-15795D01*
G54D35*
X67499Y-33131D02*
X69271Y-33131D01*
X69271Y-33131D02*
X69271Y-35100D01*
X69271Y-35179D02*
X67302Y-35179D01*
X63562Y-33131D02*
X67499Y-33131D01*
X69271Y-33131D02*
X69271Y-35100D01*
X67499Y-35179D02*
X63562Y-35179D01*
X63562Y-35100D02*
X63562Y-33131D01*
X57319Y-25989D02*
X57319Y-24217D01*
X57319Y-24217D02*
X59288Y-24217D01*
X59367Y-24217D02*
X59367Y-26186D01*
X57319Y-29926D02*
X57319Y-25989D01*
X57319Y-24217D02*
X59288Y-24217D01*
X59367Y-25989D02*
X59367Y-29926D01*
X59288Y-29926D02*
X57319Y-29926D01*
G54D23*
X54408Y-23168D02*
X52408Y-23168D01*
X52408Y-23168D02*
X52408Y-21368D01*
X52408Y-21368D02*
X54408Y-21368D01*
X54408Y-21368D02*
X54408Y-23168D01*
X54408Y-22568D02*
X54208Y-22568D01*
X54208Y-22568D02*
X54208Y-22068D01*
X54208Y-22068D02*
X54408Y-22068D01*
X54318Y-30520D02*
X56318Y-30520D01*
X56318Y-30520D02*
X56318Y-32320D01*
X56318Y-32320D02*
X54318Y-32320D01*
X54318Y-32320D02*
X54318Y-30520D01*
X54318Y-31120D02*
X54518Y-31120D01*
X54518Y-31120D02*
X54518Y-31620D01*
X54518Y-31620D02*
X54318Y-31620D01*
X60000Y-22600D02*
X58000Y-22600D01*
X58000Y-22600D02*
X58000Y-20800D01*
X58000Y-20800D02*
X60000Y-20800D01*
X60000Y-20800D02*
X60000Y-22600D01*
X60000Y-22000D02*
X59800Y-22000D01*
X59800Y-22000D02*
X59800Y-21500D01*
X59800Y-21500D02*
X60000Y-21500D01*
X51300Y-19350D02*
X51200Y-19350D01*
X51200Y-19350D02*
X51200Y-20250D01*
X51200Y-20250D02*
X51300Y-20250D01*
X51300Y-19350D02*
X51300Y-20250D01*
X51300Y-20250D02*
X51950Y-20250D01*
X52650Y-19350D02*
X53300Y-19350D01*
X53300Y-19350D02*
X53300Y-20250D01*
X53300Y-20250D02*
X52650Y-20250D01*
X51950Y-19350D02*
X51300Y-19350D01*
X62250Y-23700D02*
X62250Y-23600D01*
X62250Y-23600D02*
X61350Y-23600D01*
X61350Y-23600D02*
X61350Y-23700D01*
X62250Y-23700D02*
X61350Y-23700D01*
X61350Y-23700D02*
X61350Y-24350D01*
X62250Y-25050D02*
X62250Y-25700D01*
X62250Y-25700D02*
X61350Y-25700D01*
X61350Y-25700D02*
X61350Y-25050D01*
X62250Y-24350D02*
X62250Y-23700D01*
X61350Y-28200D02*
X61350Y-28300D01*
X61350Y-28300D02*
X62250Y-28300D01*
X62250Y-28300D02*
X62250Y-28200D01*
X61350Y-28200D02*
X62250Y-28200D01*
X62250Y-28200D02*
X62250Y-27550D01*
X61350Y-26850D02*
X61350Y-26200D01*
X61350Y-26200D02*
X62250Y-26200D01*
X62250Y-26200D02*
X62250Y-26850D01*
X61350Y-27550D02*
X61350Y-28200D01*
X62200Y-29950D02*
X62300Y-29950D01*
X62300Y-29950D02*
X62300Y-29050D01*
X62300Y-29050D02*
X62200Y-29050D01*
X62200Y-29950D02*
X62200Y-29050D01*
X62200Y-29050D02*
X61550Y-29050D01*
X60850Y-29950D02*
X60200Y-29950D01*
X60200Y-29950D02*
X60200Y-29050D01*
X60200Y-29050D02*
X60850Y-29050D01*
X61550Y-29950D02*
X62200Y-29950D01*
X52982Y-32304D02*
X52982Y-32404D01*
X52982Y-32404D02*
X53882Y-32404D01*
X53882Y-32404D02*
X53882Y-32304D01*
X52982Y-32304D02*
X53882Y-32304D01*
X53882Y-32304D02*
X53882Y-31654D01*
X52982Y-30954D02*
X52982Y-30304D01*
X52982Y-30304D02*
X53882Y-30304D01*
X53882Y-30304D02*
X53882Y-30954D01*
X52982Y-31654D02*
X52982Y-32304D01*
X54850Y-21850D02*
X54825Y-21893D01*
X54825Y-21893D02*
X54775Y-21893D01*
X54775Y-21893D02*
X54750Y-21850D01*
X54750Y-21850D02*
X54775Y-21807D01*
X54775Y-21807D02*
X54825Y-21807D01*
X54825Y-21807D02*
X54850Y-21850D01*
X54800Y-22300D02*
X54800Y-21900D01*
X54800Y-21900D02*
X55400Y-21900D01*
X55400Y-21900D02*
X55400Y-22300D01*
X55400Y-22700D02*
X55400Y-23100D01*
X55400Y-23100D02*
X54800Y-23100D01*
X54800Y-23100D02*
X54800Y-22700D01*
X52250Y-23050D02*
X52225Y-23093D01*
X52225Y-23093D02*
X52175Y-23093D01*
X52175Y-23093D02*
X52150Y-23050D01*
X52150Y-23050D02*
X52175Y-23007D01*
X52175Y-23007D02*
X52225Y-23007D01*
X52225Y-23007D02*
X52250Y-23050D01*
X52200Y-22600D02*
X52200Y-23000D01*
X52200Y-23000D02*
X51600Y-23000D01*
X51600Y-23000D02*
X51600Y-22600D01*
X51600Y-22200D02*
X51600Y-21800D01*
X51600Y-21800D02*
X52200Y-21800D01*
X52200Y-21800D02*
X52200Y-22200D01*
X56850Y-30850D02*
X56825Y-30893D01*
X56825Y-30893D02*
X56775Y-30893D01*
X56775Y-30893D02*
X56750Y-30850D01*
X56750Y-30850D02*
X56775Y-30807D01*
X56775Y-30807D02*
X56825Y-30807D01*
X56825Y-30807D02*
X56850Y-30850D01*
X56800Y-31300D02*
X56800Y-30900D01*
X56800Y-30900D02*
X57400Y-30900D01*
X57400Y-30900D02*
X57400Y-31300D01*
X57400Y-31700D02*
X57400Y-32100D01*
X57400Y-32100D02*
X56800Y-32100D01*
X56800Y-32100D02*
X56800Y-31700D01*
X59950Y-17950D02*
X59925Y-17993D01*
X59925Y-17993D02*
X59875Y-17993D01*
X59875Y-17993D02*
X59850Y-17950D01*
X59850Y-17950D02*
X59875Y-17907D01*
X59875Y-17907D02*
X59925Y-17907D01*
X59925Y-17907D02*
X59950Y-17950D01*
X59900Y-17500D02*
X59900Y-17900D01*
X59900Y-17900D02*
X59300Y-17900D01*
X59300Y-17900D02*
X59300Y-17500D01*
X59300Y-17100D02*
X59300Y-16700D01*
X59300Y-16700D02*
X59900Y-16700D01*
X59900Y-16700D02*
X59900Y-17100D01*
X59000Y-18200D02*
X58975Y-18243D01*
X58975Y-18243D02*
X58925Y-18243D01*
X58925Y-18243D02*
X58900Y-18200D01*
X58900Y-18200D02*
X58925Y-18157D01*
X58925Y-18157D02*
X58975Y-18157D01*
X58975Y-18157D02*
X59000Y-18200D01*
X58500Y-18200D02*
X58900Y-18200D01*
X58900Y-18200D02*
X58900Y-18800D01*
X58900Y-18800D02*
X58500Y-18800D01*
X58100Y-18800D02*
X57700Y-18800D01*
X57700Y-18800D02*
X57700Y-18200D01*
X57700Y-18200D02*
X58100Y-18200D01*
X61700Y-19100D02*
X61675Y-19143D01*
X61675Y-19143D02*
X61625Y-19143D01*
X61625Y-19143D02*
X61600Y-19100D01*
X61600Y-19100D02*
X61625Y-19057D01*
X61625Y-19057D02*
X61675Y-19057D01*
X61675Y-19057D02*
X61700Y-19100D01*
X62100Y-19100D02*
X61700Y-19100D01*
X61700Y-19100D02*
X61700Y-18500D01*
X61700Y-18500D02*
X62100Y-18500D01*
X62500Y-18500D02*
X62900Y-18500D01*
X62900Y-18500D02*
X62900Y-19100D01*
X62900Y-19100D02*
X62500Y-19100D01*
X62500Y-16300D02*
X62475Y-16343D01*
X62475Y-16343D02*
X62425Y-16343D01*
X62425Y-16343D02*
X62400Y-16300D01*
X62400Y-16300D02*
X62425Y-16257D01*
X62425Y-16257D02*
X62475Y-16257D01*
X62475Y-16257D02*
X62500Y-16300D01*
X62000Y-16300D02*
X62400Y-16300D01*
X62400Y-16300D02*
X62400Y-16900D01*
X62400Y-16900D02*
X62000Y-16900D01*
X61600Y-16900D02*
X61200Y-16900D01*
X61200Y-16900D02*
X61200Y-16300D01*
X61200Y-16300D02*
X61600Y-16300D01*
X60350Y-21650D02*
X60325Y-21693D01*
X60325Y-21693D02*
X60275Y-21693D01*
X60275Y-21693D02*
X60250Y-21650D01*
X60250Y-21650D02*
X60275Y-21607D01*
X60275Y-21607D02*
X60325Y-21607D01*
X60325Y-21607D02*
X60350Y-21650D01*
X60300Y-22100D02*
X60300Y-21700D01*
X60300Y-21700D02*
X60900Y-21700D01*
X60900Y-21700D02*
X60900Y-22100D01*
X60900Y-22500D02*
X60900Y-22900D01*
X60900Y-22900D02*
X60300Y-22900D01*
X60300Y-22900D02*
X60300Y-22500D01*
X53500Y-20100D02*
X53475Y-20143D01*
X53475Y-20143D02*
X53425Y-20143D01*
X53425Y-20143D02*
X53400Y-20100D01*
X53400Y-20100D02*
X53425Y-20057D01*
X53425Y-20057D02*
X53475Y-20057D01*
X53475Y-20057D02*
X53500Y-20100D01*
X53900Y-20100D02*
X53500Y-20100D01*
X53500Y-20100D02*
X53500Y-19500D01*
X53500Y-19500D02*
X53900Y-19500D01*
X54300Y-19500D02*
X54700Y-19500D01*
X54700Y-19500D02*
X54700Y-20100D01*
X54700Y-20100D02*
X54300Y-20100D01*
X57950Y-31350D02*
X57925Y-31393D01*
X57925Y-31393D02*
X57875Y-31393D01*
X57875Y-31393D02*
X57850Y-31350D01*
X57850Y-31350D02*
X57875Y-31307D01*
X57875Y-31307D02*
X57925Y-31307D01*
X57925Y-31307D02*
X57950Y-31350D01*
X57900Y-31800D02*
X57900Y-31400D01*
X57900Y-31400D02*
X58500Y-31400D01*
X58500Y-31400D02*
X58500Y-31800D01*
X58500Y-32200D02*
X58500Y-32600D01*
X58500Y-32600D02*
X57900Y-32600D01*
X57900Y-32600D02*
X57900Y-32200D01*
X52500Y-18100D02*
X52475Y-18143D01*
X52475Y-18143D02*
X52425Y-18143D01*
X52425Y-18143D02*
X52400Y-18100D01*
X52400Y-18100D02*
X52425Y-18057D01*
X52425Y-18057D02*
X52475Y-18057D01*
X52475Y-18057D02*
X52500Y-18100D01*
X52000Y-18100D02*
X52400Y-18100D01*
X52400Y-18100D02*
X52400Y-18700D01*
X52400Y-18700D02*
X52000Y-18700D01*
X51600Y-18700D02*
X51200Y-18700D01*
X51200Y-18700D02*
X51200Y-18100D01*
X51200Y-18100D02*
X51600Y-18100D01*
X53400Y-18700D02*
X53375Y-18743D01*
X53375Y-18743D02*
X53325Y-18743D01*
X53325Y-18743D02*
X53300Y-18700D01*
X53300Y-18700D02*
X53325Y-18657D01*
X53325Y-18657D02*
X53375Y-18657D01*
X53375Y-18657D02*
X53400Y-18700D01*
X53800Y-18700D02*
X53400Y-18700D01*
X53400Y-18700D02*
X53400Y-18100D01*
X53400Y-18100D02*
X53800Y-18100D01*
X54200Y-18100D02*
X54600Y-18100D01*
X54600Y-18100D02*
X54600Y-18700D01*
X54600Y-18700D02*
X54200Y-18700D01*
X53500Y-24900D02*
X53475Y-24943D01*
X53475Y-24943D02*
X53425Y-24943D01*
X53425Y-24943D02*
X53400Y-24900D01*
X53400Y-24900D02*
X53425Y-24857D01*
X53425Y-24857D02*
X53475Y-24857D01*
X53475Y-24857D02*
X53500Y-24900D01*
X53900Y-24900D02*
X53500Y-24900D01*
X53500Y-24900D02*
X53500Y-24300D01*
X53500Y-24300D02*
X53900Y-24300D01*
X54300Y-24300D02*
X54700Y-24300D01*
X54700Y-24300D02*
X54700Y-24900D01*
X54700Y-24900D02*
X54300Y-24900D01*
X56350Y-23150D02*
X56325Y-23193D01*
X56325Y-23193D02*
X56275Y-23193D01*
X56275Y-23193D02*
X56250Y-23150D01*
X56250Y-23150D02*
X56275Y-23107D01*
X56275Y-23107D02*
X56325Y-23107D01*
X56325Y-23107D02*
X56350Y-23150D01*
X56300Y-22700D02*
X56300Y-23100D01*
X56300Y-23100D02*
X55700Y-23100D01*
X55700Y-23100D02*
X55700Y-22700D01*
X55700Y-22300D02*
X55700Y-21900D01*
X55700Y-21900D02*
X56300Y-21900D01*
X56300Y-21900D02*
X56300Y-22300D01*
X53400Y-24300D02*
X53375Y-24343D01*
X53375Y-24343D02*
X53325Y-24343D01*
X53325Y-24343D02*
X53300Y-24300D01*
X53300Y-24300D02*
X53325Y-24257D01*
X53325Y-24257D02*
X53375Y-24257D01*
X53375Y-24257D02*
X53400Y-24300D01*
X52900Y-24300D02*
X53300Y-24300D01*
X53300Y-24300D02*
X53300Y-24900D01*
X53300Y-24900D02*
X52900Y-24900D01*
X52500Y-24900D02*
X52100Y-24900D01*
X52100Y-24900D02*
X52100Y-24300D01*
X52100Y-24300D02*
X52500Y-24300D01*
X56850Y-32350D02*
X56825Y-32393D01*
X56825Y-32393D02*
X56775Y-32393D01*
X56775Y-32393D02*
X56750Y-32350D01*
X56750Y-32350D02*
X56775Y-32307D01*
X56775Y-32307D02*
X56825Y-32307D01*
X56825Y-32307D02*
X56850Y-32350D01*
X56800Y-32800D02*
X56800Y-32400D01*
X56800Y-32400D02*
X57400Y-32400D01*
X57400Y-32400D02*
X57400Y-32800D01*
X57400Y-33200D02*
X57400Y-33600D01*
X57400Y-33600D02*
X56800Y-33600D01*
X56800Y-33600D02*
X56800Y-33200D01*
X63200Y-19500D02*
X63175Y-19543D01*
X63175Y-19543D02*
X63125Y-19543D01*
X63125Y-19543D02*
X63100Y-19500D01*
X63100Y-19500D02*
X63125Y-19457D01*
X63125Y-19457D02*
X63175Y-19457D01*
X63175Y-19457D02*
X63200Y-19500D01*
X62700Y-19500D02*
X63100Y-19500D01*
X63100Y-19500D02*
X63100Y-20100D01*
X63100Y-20100D02*
X62700Y-20100D01*
X62300Y-20100D02*
X61900Y-20100D01*
X61900Y-20100D02*
X61900Y-19500D01*
X61900Y-19500D02*
X62300Y-19500D01*
X60400Y-18200D02*
X60375Y-18243D01*
X60375Y-18243D02*
X60325Y-18243D01*
X60325Y-18243D02*
X60300Y-18200D01*
X60300Y-18200D02*
X60325Y-18157D01*
X60325Y-18157D02*
X60375Y-18157D01*
X60375Y-18157D02*
X60400Y-18200D01*
X59900Y-18200D02*
X60300Y-18200D01*
X60300Y-18200D02*
X60300Y-18800D01*
X60300Y-18800D02*
X59900Y-18800D01*
X59500Y-18800D02*
X59100Y-18800D01*
X59100Y-18800D02*
X59100Y-18200D01*
X59100Y-18200D02*
X59500Y-18200D01*
X60600Y-20100D02*
X60575Y-20143D01*
X60575Y-20143D02*
X60525Y-20143D01*
X60525Y-20143D02*
X60500Y-20100D01*
X60500Y-20100D02*
X60525Y-20057D01*
X60525Y-20057D02*
X60575Y-20057D01*
X60575Y-20057D02*
X60600Y-20100D01*
X61000Y-20100D02*
X60600Y-20100D01*
X60600Y-20100D02*
X60600Y-19500D01*
X60600Y-19500D02*
X61000Y-19500D01*
X61400Y-19500D02*
X61800Y-19500D01*
X61800Y-19500D02*
X61800Y-20100D01*
X61800Y-20100D02*
X61400Y-20100D01*
X61900Y-20300D02*
X61875Y-20343D01*
X61875Y-20343D02*
X61825Y-20343D01*
X61825Y-20343D02*
X61800Y-20300D01*
X61800Y-20300D02*
X61825Y-20257D01*
X61825Y-20257D02*
X61875Y-20257D01*
X61875Y-20257D02*
X61900Y-20300D01*
X61400Y-20300D02*
X61800Y-20300D01*
X61800Y-20300D02*
X61800Y-20900D01*
X61800Y-20900D02*
X61400Y-20900D01*
X61000Y-20900D02*
X60600Y-20900D01*
X60600Y-20900D02*
X60600Y-20300D01*
X60600Y-20300D02*
X61000Y-20300D01*
X59000Y-19200D02*
X58975Y-19243D01*
X58975Y-19243D02*
X58925Y-19243D01*
X58925Y-19243D02*
X58900Y-19200D01*
X58900Y-19200D02*
X58925Y-19157D01*
X58925Y-19157D02*
X58975Y-19157D01*
X58975Y-19157D02*
X59000Y-19200D01*
X58500Y-19200D02*
X58900Y-19200D01*
X58900Y-19200D02*
X58900Y-19800D01*
X58900Y-19800D02*
X58500Y-19800D01*
X58100Y-19800D02*
X57700Y-19800D01*
X57700Y-19800D02*
X57700Y-19200D01*
X57700Y-19200D02*
X58100Y-19200D01*
X60400Y-19200D02*
X60375Y-19243D01*
X60375Y-19243D02*
X60325Y-19243D01*
X60325Y-19243D02*
X60300Y-19200D01*
X60300Y-19200D02*
X60325Y-19157D01*
X60325Y-19157D02*
X60375Y-19157D01*
X60375Y-19157D02*
X60400Y-19200D01*
X59900Y-19200D02*
X60300Y-19200D01*
X60300Y-19200D02*
X60300Y-19800D01*
X60300Y-19800D02*
X59900Y-19800D01*
X59500Y-19800D02*
X59100Y-19800D01*
X59100Y-19800D02*
X59100Y-19200D01*
X59100Y-19200D02*
X59500Y-19200D01*
X55200Y-35000D02*
X55175Y-35043D01*
X55175Y-35043D02*
X55125Y-35043D01*
X55125Y-35043D02*
X55100Y-35000D01*
X55100Y-35000D02*
X55125Y-34957D01*
X55125Y-34957D02*
X55175Y-34957D01*
X55175Y-34957D02*
X55200Y-35000D01*
X55600Y-35000D02*
X55200Y-35000D01*
X55200Y-35000D02*
X55200Y-34400D01*
X55200Y-34400D02*
X55600Y-34400D01*
X56000Y-34400D02*
X56400Y-34400D01*
X56400Y-34400D02*
X56400Y-35000D01*
X56400Y-35000D02*
X56000Y-35000D01*
X59450Y-32650D02*
X59425Y-32693D01*
X59425Y-32693D02*
X59375Y-32693D01*
X59375Y-32693D02*
X59350Y-32650D01*
X59350Y-32650D02*
X59375Y-32607D01*
X59375Y-32607D02*
X59425Y-32607D01*
X59425Y-32607D02*
X59450Y-32650D01*
X59400Y-32200D02*
X59400Y-32600D01*
X59400Y-32600D02*
X58800Y-32600D01*
X58800Y-32600D02*
X58800Y-32200D01*
X58800Y-31800D02*
X58800Y-31400D01*
X58800Y-31400D02*
X59400Y-31400D01*
X59400Y-31400D02*
X59400Y-31800D01*
G54D10*
X50100Y-21600D02*
X51100Y-21600D01*
X51100Y-21600D02*
X51100Y-23600D01*
X51100Y-23600D02*
X50100Y-23600D01*
X50100Y-23600D02*
X50100Y-21600D01*
G54D23*
X62425Y-17175D02*
X62425Y-18425D01*
X61175Y-17175D02*
X61175Y-18425D01*
X61175Y-17175D02*
X62425Y-17175D01*
X61175Y-18425D02*
X62425Y-18425D01*
G54D36*
X61512Y-17425D02*
X61505Y-17458D01*
X61505Y-17458D02*
X61486Y-17486D01*
X61486Y-17486D02*
X61458Y-17505D01*
X61458Y-17505D02*
X61425Y-17512D01*
X61425Y-17512D02*
X61392Y-17505D01*
X61392Y-17505D02*
X61364Y-17486D01*
X61364Y-17486D02*
X61345Y-17458D01*
X61345Y-17458D02*
X61338Y-17425D01*
X61338Y-17425D02*
X61345Y-17392D01*
X61345Y-17392D02*
X61364Y-17364D01*
X61364Y-17364D02*
X61392Y-17345D01*
X61392Y-17345D02*
X61425Y-17338D01*
X61425Y-17338D02*
X61458Y-17345D01*
X61458Y-17345D02*
X61486Y-17364D01*
X61486Y-17364D02*
X61505Y-17392D01*
X61505Y-17392D02*
X61512Y-17425D01*
G54D37*
X68531Y-28637D02*
X68531Y-28363D01*
X68216Y-28363D02*
X68216Y-28637D01*
X66937Y-26867D02*
X67212Y-26867D01*
X67212Y-26552D02*
X66937Y-26552D01*
X64200Y-27063D02*
X64200Y-26788D01*
X63886Y-26788D02*
X63886Y-27063D01*
X65716Y-29700D02*
X65992Y-29700D01*
X65992Y-29385D02*
X65716Y-29385D01*
X65165Y-30645D02*
X65441Y-30645D01*
X65441Y-30330D02*
X65165Y-30330D01*
G54D38*
X69161Y-26375D02*
X69161Y-30822D01*
X69161Y-30822D02*
X63689Y-30822D01*
X63689Y-30822D02*
X63689Y-26375D01*
X63689Y-26375D02*
X69161Y-26375D01*
X69200Y-27359D02*
X70538Y-27359D01*
X70538Y-27359D02*
X70538Y-29641D01*
X70538Y-29641D02*
X69200Y-29641D01*
G54D37*
X68374Y-28794D02*
X68407Y-28791D01*
X68407Y-28791D02*
X68438Y-28780D01*
X68438Y-28780D02*
X68466Y-28764D01*
X68466Y-28764D02*
X68491Y-28742D01*
X68491Y-28742D02*
X68510Y-28716D01*
X68510Y-28716D02*
X68523Y-28686D01*
X68523Y-28686D02*
X68530Y-28653D01*
X68530Y-28653D02*
X68530Y-28621D01*
X68530Y-28621D02*
X68523Y-28588D01*
X68523Y-28588D02*
X68510Y-28558D01*
X68510Y-28558D02*
X68491Y-28532D01*
X68491Y-28532D02*
X68466Y-28510D01*
X68466Y-28510D02*
X68438Y-28494D01*
X68438Y-28494D02*
X68407Y-28483D01*
X68407Y-28483D02*
X68374Y-28480D01*
X68374Y-28480D02*
X68341Y-28483D01*
X68341Y-28483D02*
X68310Y-28494D01*
X68310Y-28494D02*
X68282Y-28510D01*
X68282Y-28510D02*
X68257Y-28532D01*
X68257Y-28532D02*
X68238Y-28558D01*
X68238Y-28558D02*
X68225Y-28588D01*
X68225Y-28588D02*
X68218Y-28621D01*
X68218Y-28621D02*
X68218Y-28653D01*
X68218Y-28653D02*
X68225Y-28686D01*
X68225Y-28686D02*
X68238Y-28716D01*
X68238Y-28716D02*
X68257Y-28742D01*
X68257Y-28742D02*
X68282Y-28764D01*
X68282Y-28764D02*
X68310Y-28780D01*
X68310Y-28780D02*
X68341Y-28791D01*
X68341Y-28791D02*
X68374Y-28794D01*
X68374Y-28794D02*
X68407Y-28791D01*
X68407Y-28791D02*
X68438Y-28780D01*
X68438Y-28780D02*
X68466Y-28764D01*
X68466Y-28764D02*
X68491Y-28742D01*
X68491Y-28742D02*
X68510Y-28716D01*
X68510Y-28716D02*
X68523Y-28686D01*
X68523Y-28686D02*
X68530Y-28653D01*
X68530Y-28653D02*
X68531Y-28637D01*
X68532Y-28363D02*
X68529Y-28330D01*
X68529Y-28330D02*
X68518Y-28299D01*
X68518Y-28299D02*
X68502Y-28270D01*
X68502Y-28270D02*
X68480Y-28246D01*
X68480Y-28246D02*
X68453Y-28226D01*
X68453Y-28226D02*
X68423Y-28213D01*
X68423Y-28213D02*
X68391Y-28206D01*
X68391Y-28206D02*
X68357Y-28206D01*
X68357Y-28206D02*
X68325Y-28213D01*
X68325Y-28213D02*
X68295Y-28226D01*
X68295Y-28226D02*
X68268Y-28246D01*
X68268Y-28246D02*
X68246Y-28270D01*
X68246Y-28270D02*
X68230Y-28299D01*
X68230Y-28299D02*
X68219Y-28330D01*
X68219Y-28330D02*
X68216Y-28363D01*
X68216Y-28363D02*
X68219Y-28396D01*
X68219Y-28396D02*
X68230Y-28427D01*
X68230Y-28427D02*
X68246Y-28456D01*
X68246Y-28456D02*
X68268Y-28480D01*
X68268Y-28480D02*
X68295Y-28500D01*
X68295Y-28500D02*
X68325Y-28513D01*
X68325Y-28513D02*
X68357Y-28520D01*
X68357Y-28520D02*
X68391Y-28520D01*
X68391Y-28520D02*
X68423Y-28513D01*
X68423Y-28513D02*
X68453Y-28500D01*
X68453Y-28500D02*
X68480Y-28480D01*
X68480Y-28480D02*
X68502Y-28456D01*
X68502Y-28456D02*
X68518Y-28427D01*
X68518Y-28427D02*
X68529Y-28396D01*
X68529Y-28396D02*
X68532Y-28363D01*
X68532Y-28363D02*
X68529Y-28330D01*
X68529Y-28330D02*
X68518Y-28299D01*
X68518Y-28299D02*
X68502Y-28270D01*
X68502Y-28270D02*
X68480Y-28246D01*
X68480Y-28246D02*
X68453Y-28226D01*
X68453Y-28226D02*
X68423Y-28213D01*
X68423Y-28213D02*
X68391Y-28206D01*
X68391Y-28206D02*
X68374Y-28205D01*
X68374Y-28205D02*
X68341Y-28208D01*
X68341Y-28208D02*
X68310Y-28219D01*
X68310Y-28219D02*
X68281Y-28235D01*
X68281Y-28235D02*
X68257Y-28257D01*
X68257Y-28257D02*
X68237Y-28284D01*
X68237Y-28284D02*
X68224Y-28314D01*
X68224Y-28314D02*
X68217Y-28346D01*
X68217Y-28346D02*
X68217Y-28380D01*
X68217Y-28380D02*
X68224Y-28412D01*
X68224Y-28412D02*
X68237Y-28442D01*
X68237Y-28442D02*
X68257Y-28469D01*
X68257Y-28469D02*
X68281Y-28491D01*
X68281Y-28491D02*
X68310Y-28507D01*
X68310Y-28507D02*
X68341Y-28518D01*
X68341Y-28518D02*
X68374Y-28521D01*
X68374Y-28521D02*
X68407Y-28518D01*
X68407Y-28518D02*
X68438Y-28507D01*
X68438Y-28507D02*
X68467Y-28491D01*
X68467Y-28491D02*
X68491Y-28469D01*
X68491Y-28469D02*
X68511Y-28442D01*
X68511Y-28442D02*
X68524Y-28412D01*
X68524Y-28412D02*
X68531Y-28380D01*
X68531Y-28380D02*
X68531Y-28346D01*
X68531Y-28346D02*
X68524Y-28314D01*
X68524Y-28314D02*
X68511Y-28284D01*
X68511Y-28284D02*
X68491Y-28257D01*
X68491Y-28257D02*
X68467Y-28235D01*
X68467Y-28235D02*
X68438Y-28219D01*
X68438Y-28219D02*
X68407Y-28208D01*
X68407Y-28208D02*
X68374Y-28205D01*
X68374Y-28205D02*
X68341Y-28208D01*
X68341Y-28208D02*
X68310Y-28219D01*
X68310Y-28219D02*
X68281Y-28235D01*
X68281Y-28235D02*
X68257Y-28257D01*
X68257Y-28257D02*
X68237Y-28284D01*
X68237Y-28284D02*
X68224Y-28314D01*
X68224Y-28314D02*
X68217Y-28346D01*
X68217Y-28346D02*
X68216Y-28363D01*
X68216Y-28637D02*
X68219Y-28670D01*
X68219Y-28670D02*
X68230Y-28701D01*
X68230Y-28701D02*
X68246Y-28730D01*
X68246Y-28730D02*
X68268Y-28754D01*
X68268Y-28754D02*
X68295Y-28774D01*
X68295Y-28774D02*
X68325Y-28787D01*
X68325Y-28787D02*
X68357Y-28794D01*
X68357Y-28794D02*
X68391Y-28794D01*
X68391Y-28794D02*
X68423Y-28787D01*
X68423Y-28787D02*
X68453Y-28774D01*
X68453Y-28774D02*
X68480Y-28754D01*
X68480Y-28754D02*
X68502Y-28730D01*
X68502Y-28730D02*
X68518Y-28701D01*
X68518Y-28701D02*
X68529Y-28670D01*
X68529Y-28670D02*
X68532Y-28637D01*
X68532Y-28637D02*
X68529Y-28604D01*
X68529Y-28604D02*
X68518Y-28573D01*
X68518Y-28573D02*
X68502Y-28544D01*
X68502Y-28544D02*
X68480Y-28520D01*
X68480Y-28520D02*
X68453Y-28500D01*
X68453Y-28500D02*
X68423Y-28487D01*
X68423Y-28487D02*
X68391Y-28480D01*
X68391Y-28480D02*
X68357Y-28480D01*
X68357Y-28480D02*
X68325Y-28487D01*
X68325Y-28487D02*
X68295Y-28500D01*
X68295Y-28500D02*
X68268Y-28520D01*
X68268Y-28520D02*
X68246Y-28544D01*
X68246Y-28544D02*
X68230Y-28573D01*
X68230Y-28573D02*
X68219Y-28604D01*
X68219Y-28604D02*
X68216Y-28637D01*
X68216Y-28637D02*
X68219Y-28670D01*
X68219Y-28670D02*
X68230Y-28701D01*
X68230Y-28701D02*
X68246Y-28730D01*
X68246Y-28730D02*
X68268Y-28754D01*
X68268Y-28754D02*
X68295Y-28774D01*
X68295Y-28774D02*
X68325Y-28787D01*
X68325Y-28787D02*
X68357Y-28794D01*
X68357Y-28794D02*
X68374Y-28795D01*
X66779Y-26709D02*
X66782Y-26742D01*
X66782Y-26742D02*
X66793Y-26773D01*
X66793Y-26773D02*
X66809Y-26802D01*
X66809Y-26802D02*
X66831Y-26826D01*
X66831Y-26826D02*
X66858Y-26846D01*
X66858Y-26846D02*
X66888Y-26859D01*
X66888Y-26859D02*
X66920Y-26866D01*
X66920Y-26866D02*
X66954Y-26866D01*
X66954Y-26866D02*
X66986Y-26859D01*
X66986Y-26859D02*
X67016Y-26846D01*
X67016Y-26846D02*
X67043Y-26826D01*
X67043Y-26826D02*
X67065Y-26802D01*
X67065Y-26802D02*
X67081Y-26773D01*
X67081Y-26773D02*
X67092Y-26742D01*
X67092Y-26742D02*
X67095Y-26709D01*
X67095Y-26709D02*
X67092Y-26676D01*
X67092Y-26676D02*
X67081Y-26645D01*
X67081Y-26645D02*
X67065Y-26616D01*
X67065Y-26616D02*
X67043Y-26592D01*
X67043Y-26592D02*
X67016Y-26572D01*
X67016Y-26572D02*
X66986Y-26559D01*
X66986Y-26559D02*
X66954Y-26552D01*
X66954Y-26552D02*
X66920Y-26552D01*
X66920Y-26552D02*
X66888Y-26559D01*
X66888Y-26559D02*
X66858Y-26572D01*
X66858Y-26572D02*
X66831Y-26592D01*
X66831Y-26592D02*
X66809Y-26616D01*
X66809Y-26616D02*
X66793Y-26645D01*
X66793Y-26645D02*
X66782Y-26676D01*
X66782Y-26676D02*
X66779Y-26709D01*
X66779Y-26709D02*
X66782Y-26742D01*
X66782Y-26742D02*
X66793Y-26773D01*
X66793Y-26773D02*
X66809Y-26802D01*
X66809Y-26802D02*
X66831Y-26826D01*
X66831Y-26826D02*
X66858Y-26846D01*
X66858Y-26846D02*
X66888Y-26859D01*
X66888Y-26859D02*
X66920Y-26866D01*
X66920Y-26866D02*
X66937Y-26867D01*
X67212Y-26867D02*
X67245Y-26864D01*
X67245Y-26864D02*
X67276Y-26853D01*
X67276Y-26853D02*
X67305Y-26837D01*
X67305Y-26837D02*
X67329Y-26815D01*
X67329Y-26815D02*
X67349Y-26788D01*
X67349Y-26788D02*
X67362Y-26758D01*
X67362Y-26758D02*
X67369Y-26726D01*
X67369Y-26726D02*
X67369Y-26692D01*
X67369Y-26692D02*
X67362Y-26660D01*
X67362Y-26660D02*
X67349Y-26630D01*
X67349Y-26630D02*
X67329Y-26603D01*
X67329Y-26603D02*
X67305Y-26581D01*
X67305Y-26581D02*
X67276Y-26565D01*
X67276Y-26565D02*
X67245Y-26554D01*
X67245Y-26554D02*
X67212Y-26551D01*
X67212Y-26551D02*
X67179Y-26554D01*
X67179Y-26554D02*
X67148Y-26565D01*
X67148Y-26565D02*
X67119Y-26581D01*
X67119Y-26581D02*
X67095Y-26603D01*
X67095Y-26603D02*
X67075Y-26630D01*
X67075Y-26630D02*
X67062Y-26660D01*
X67062Y-26660D02*
X67055Y-26692D01*
X67055Y-26692D02*
X67055Y-26726D01*
X67055Y-26726D02*
X67062Y-26758D01*
X67062Y-26758D02*
X67075Y-26788D01*
X67075Y-26788D02*
X67095Y-26815D01*
X67095Y-26815D02*
X67119Y-26837D01*
X67119Y-26837D02*
X67148Y-26853D01*
X67148Y-26853D02*
X67179Y-26864D01*
X67179Y-26864D02*
X67212Y-26867D01*
X67212Y-26867D02*
X67245Y-26864D01*
X67245Y-26864D02*
X67276Y-26853D01*
X67276Y-26853D02*
X67305Y-26837D01*
X67305Y-26837D02*
X67329Y-26815D01*
X67329Y-26815D02*
X67349Y-26788D01*
X67349Y-26788D02*
X67362Y-26758D01*
X67362Y-26758D02*
X67369Y-26726D01*
X67369Y-26726D02*
X67370Y-26709D01*
X67369Y-26709D02*
X67366Y-26676D01*
X67366Y-26676D02*
X67355Y-26645D01*
X67355Y-26645D02*
X67339Y-26617D01*
X67339Y-26617D02*
X67317Y-26592D01*
X67317Y-26592D02*
X67291Y-26573D01*
X67291Y-26573D02*
X67261Y-26560D01*
X67261Y-26560D02*
X67228Y-26553D01*
X67228Y-26553D02*
X67196Y-26553D01*
X67196Y-26553D02*
X67163Y-26560D01*
X67163Y-26560D02*
X67133Y-26573D01*
X67133Y-26573D02*
X67107Y-26592D01*
X67107Y-26592D02*
X67085Y-26617D01*
X67085Y-26617D02*
X67069Y-26645D01*
X67069Y-26645D02*
X67058Y-26676D01*
X67058Y-26676D02*
X67055Y-26709D01*
X67055Y-26709D02*
X67058Y-26742D01*
X67058Y-26742D02*
X67069Y-26773D01*
X67069Y-26773D02*
X67085Y-26801D01*
X67085Y-26801D02*
X67107Y-26826D01*
X67107Y-26826D02*
X67133Y-26845D01*
X67133Y-26845D02*
X67163Y-26858D01*
X67163Y-26858D02*
X67196Y-26865D01*
X67196Y-26865D02*
X67228Y-26865D01*
X67228Y-26865D02*
X67261Y-26858D01*
X67261Y-26858D02*
X67291Y-26845D01*
X67291Y-26845D02*
X67317Y-26826D01*
X67317Y-26826D02*
X67339Y-26801D01*
X67339Y-26801D02*
X67355Y-26773D01*
X67355Y-26773D02*
X67366Y-26742D01*
X67366Y-26742D02*
X67369Y-26709D01*
X67369Y-26709D02*
X67366Y-26676D01*
X67366Y-26676D02*
X67355Y-26645D01*
X67355Y-26645D02*
X67339Y-26617D01*
X67339Y-26617D02*
X67317Y-26592D01*
X67317Y-26592D02*
X67291Y-26573D01*
X67291Y-26573D02*
X67261Y-26560D01*
X67261Y-26560D02*
X67228Y-26553D01*
X67228Y-26553D02*
X67212Y-26552D01*
X66937Y-26551D02*
X66904Y-26554D01*
X66904Y-26554D02*
X66873Y-26565D01*
X66873Y-26565D02*
X66844Y-26581D01*
X66844Y-26581D02*
X66820Y-26603D01*
X66820Y-26603D02*
X66800Y-26630D01*
X66800Y-26630D02*
X66787Y-26660D01*
X66787Y-26660D02*
X66780Y-26692D01*
X66780Y-26692D02*
X66780Y-26726D01*
X66780Y-26726D02*
X66787Y-26758D01*
X66787Y-26758D02*
X66800Y-26788D01*
X66800Y-26788D02*
X66820Y-26815D01*
X66820Y-26815D02*
X66844Y-26837D01*
X66844Y-26837D02*
X66873Y-26853D01*
X66873Y-26853D02*
X66904Y-26864D01*
X66904Y-26864D02*
X66937Y-26867D01*
X66937Y-26867D02*
X66970Y-26864D01*
X66970Y-26864D02*
X67001Y-26853D01*
X67001Y-26853D02*
X67030Y-26837D01*
X67030Y-26837D02*
X67054Y-26815D01*
X67054Y-26815D02*
X67074Y-26788D01*
X67074Y-26788D02*
X67087Y-26758D01*
X67087Y-26758D02*
X67094Y-26726D01*
X67094Y-26726D02*
X67094Y-26692D01*
X67094Y-26692D02*
X67087Y-26660D01*
X67087Y-26660D02*
X67074Y-26630D01*
X67074Y-26630D02*
X67054Y-26603D01*
X67054Y-26603D02*
X67030Y-26581D01*
X67030Y-26581D02*
X67001Y-26565D01*
X67001Y-26565D02*
X66970Y-26554D01*
X66970Y-26554D02*
X66937Y-26551D01*
X66937Y-26551D02*
X66904Y-26554D01*
X66904Y-26554D02*
X66873Y-26565D01*
X66873Y-26565D02*
X66844Y-26581D01*
X66844Y-26581D02*
X66820Y-26603D01*
X66820Y-26603D02*
X66800Y-26630D01*
X66800Y-26630D02*
X66787Y-26660D01*
X66787Y-26660D02*
X66780Y-26692D01*
X66780Y-26692D02*
X66779Y-26709D01*
X64043Y-27220D02*
X64076Y-27217D01*
X64076Y-27217D02*
X64107Y-27206D01*
X64107Y-27206D02*
X64135Y-27190D01*
X64135Y-27190D02*
X64160Y-27168D01*
X64160Y-27168D02*
X64179Y-27142D01*
X64179Y-27142D02*
X64192Y-27112D01*
X64192Y-27112D02*
X64199Y-27079D01*
X64199Y-27079D02*
X64199Y-27047D01*
X64199Y-27047D02*
X64192Y-27014D01*
X64192Y-27014D02*
X64179Y-26984D01*
X64179Y-26984D02*
X64160Y-26958D01*
X64160Y-26958D02*
X64135Y-26936D01*
X64135Y-26936D02*
X64107Y-26920D01*
X64107Y-26920D02*
X64076Y-26909D01*
X64076Y-26909D02*
X64043Y-26906D01*
X64043Y-26906D02*
X64010Y-26909D01*
X64010Y-26909D02*
X63979Y-26920D01*
X63979Y-26920D02*
X63951Y-26936D01*
X63951Y-26936D02*
X63926Y-26958D01*
X63926Y-26958D02*
X63907Y-26984D01*
X63907Y-26984D02*
X63894Y-27014D01*
X63894Y-27014D02*
X63887Y-27047D01*
X63887Y-27047D02*
X63887Y-27079D01*
X63887Y-27079D02*
X63894Y-27112D01*
X63894Y-27112D02*
X63907Y-27142D01*
X63907Y-27142D02*
X63926Y-27168D01*
X63926Y-27168D02*
X63951Y-27190D01*
X63951Y-27190D02*
X63979Y-27206D01*
X63979Y-27206D02*
X64010Y-27217D01*
X64010Y-27217D02*
X64043Y-27220D01*
X64043Y-27220D02*
X64076Y-27217D01*
X64076Y-27217D02*
X64107Y-27206D01*
X64107Y-27206D02*
X64135Y-27190D01*
X64135Y-27190D02*
X64160Y-27168D01*
X64160Y-27168D02*
X64179Y-27142D01*
X64179Y-27142D02*
X64192Y-27112D01*
X64192Y-27112D02*
X64199Y-27079D01*
X64199Y-27079D02*
X64200Y-27063D01*
X64201Y-26788D02*
X64198Y-26755D01*
X64198Y-26755D02*
X64187Y-26724D01*
X64187Y-26724D02*
X64171Y-26695D01*
X64171Y-26695D02*
X64149Y-26671D01*
X64149Y-26671D02*
X64122Y-26651D01*
X64122Y-26651D02*
X64092Y-26638D01*
X64092Y-26638D02*
X64060Y-26631D01*
X64060Y-26631D02*
X64026Y-26631D01*
X64026Y-26631D02*
X63994Y-26638D01*
X63994Y-26638D02*
X63964Y-26651D01*
X63964Y-26651D02*
X63937Y-26671D01*
X63937Y-26671D02*
X63915Y-26695D01*
X63915Y-26695D02*
X63899Y-26724D01*
X63899Y-26724D02*
X63888Y-26755D01*
X63888Y-26755D02*
X63885Y-26788D01*
X63885Y-26788D02*
X63888Y-26821D01*
X63888Y-26821D02*
X63899Y-26852D01*
X63899Y-26852D02*
X63915Y-26881D01*
X63915Y-26881D02*
X63937Y-26905D01*
X63937Y-26905D02*
X63964Y-26925D01*
X63964Y-26925D02*
X63994Y-26938D01*
X63994Y-26938D02*
X64026Y-26945D01*
X64026Y-26945D02*
X64060Y-26945D01*
X64060Y-26945D02*
X64092Y-26938D01*
X64092Y-26938D02*
X64122Y-26925D01*
X64122Y-26925D02*
X64149Y-26905D01*
X64149Y-26905D02*
X64171Y-26881D01*
X64171Y-26881D02*
X64187Y-26852D01*
X64187Y-26852D02*
X64198Y-26821D01*
X64198Y-26821D02*
X64201Y-26788D01*
X64201Y-26788D02*
X64198Y-26755D01*
X64198Y-26755D02*
X64187Y-26724D01*
X64187Y-26724D02*
X64171Y-26695D01*
X64171Y-26695D02*
X64149Y-26671D01*
X64149Y-26671D02*
X64122Y-26651D01*
X64122Y-26651D02*
X64092Y-26638D01*
X64092Y-26638D02*
X64060Y-26631D01*
X64060Y-26631D02*
X64043Y-26630D01*
X64043Y-26631D02*
X64010Y-26634D01*
X64010Y-26634D02*
X63979Y-26645D01*
X63979Y-26645D02*
X63951Y-26661D01*
X63951Y-26661D02*
X63926Y-26683D01*
X63926Y-26683D02*
X63907Y-26709D01*
X63907Y-26709D02*
X63894Y-26739D01*
X63894Y-26739D02*
X63887Y-26772D01*
X63887Y-26772D02*
X63887Y-26804D01*
X63887Y-26804D02*
X63894Y-26837D01*
X63894Y-26837D02*
X63907Y-26867D01*
X63907Y-26867D02*
X63926Y-26893D01*
X63926Y-26893D02*
X63951Y-26915D01*
X63951Y-26915D02*
X63979Y-26931D01*
X63979Y-26931D02*
X64010Y-26942D01*
X64010Y-26942D02*
X64043Y-26945D01*
X64043Y-26945D02*
X64076Y-26942D01*
X64076Y-26942D02*
X64107Y-26931D01*
X64107Y-26931D02*
X64135Y-26915D01*
X64135Y-26915D02*
X64160Y-26893D01*
X64160Y-26893D02*
X64179Y-26867D01*
X64179Y-26867D02*
X64192Y-26837D01*
X64192Y-26837D02*
X64199Y-26804D01*
X64199Y-26804D02*
X64199Y-26772D01*
X64199Y-26772D02*
X64192Y-26739D01*
X64192Y-26739D02*
X64179Y-26709D01*
X64179Y-26709D02*
X64160Y-26683D01*
X64160Y-26683D02*
X64135Y-26661D01*
X64135Y-26661D02*
X64107Y-26645D01*
X64107Y-26645D02*
X64076Y-26634D01*
X64076Y-26634D02*
X64043Y-26631D01*
X64043Y-26631D02*
X64010Y-26634D01*
X64010Y-26634D02*
X63979Y-26645D01*
X63979Y-26645D02*
X63951Y-26661D01*
X63951Y-26661D02*
X63926Y-26683D01*
X63926Y-26683D02*
X63907Y-26709D01*
X63907Y-26709D02*
X63894Y-26739D01*
X63894Y-26739D02*
X63887Y-26772D01*
X63887Y-26772D02*
X63886Y-26788D01*
X63885Y-27063D02*
X63888Y-27096D01*
X63888Y-27096D02*
X63899Y-27127D01*
X63899Y-27127D02*
X63915Y-27156D01*
X63915Y-27156D02*
X63937Y-27180D01*
X63937Y-27180D02*
X63964Y-27200D01*
X63964Y-27200D02*
X63994Y-27213D01*
X63994Y-27213D02*
X64026Y-27220D01*
X64026Y-27220D02*
X64060Y-27220D01*
X64060Y-27220D02*
X64092Y-27213D01*
X64092Y-27213D02*
X64122Y-27200D01*
X64122Y-27200D02*
X64149Y-27180D01*
X64149Y-27180D02*
X64171Y-27156D01*
X64171Y-27156D02*
X64187Y-27127D01*
X64187Y-27127D02*
X64198Y-27096D01*
X64198Y-27096D02*
X64201Y-27063D01*
X64201Y-27063D02*
X64198Y-27030D01*
X64198Y-27030D02*
X64187Y-26999D01*
X64187Y-26999D02*
X64171Y-26970D01*
X64171Y-26970D02*
X64149Y-26946D01*
X64149Y-26946D02*
X64122Y-26926D01*
X64122Y-26926D02*
X64092Y-26913D01*
X64092Y-26913D02*
X64060Y-26906D01*
X64060Y-26906D02*
X64026Y-26906D01*
X64026Y-26906D02*
X63994Y-26913D01*
X63994Y-26913D02*
X63964Y-26926D01*
X63964Y-26926D02*
X63937Y-26946D01*
X63937Y-26946D02*
X63915Y-26970D01*
X63915Y-26970D02*
X63899Y-26999D01*
X63899Y-26999D02*
X63888Y-27030D01*
X63888Y-27030D02*
X63885Y-27063D01*
X63885Y-27063D02*
X63888Y-27096D01*
X63888Y-27096D02*
X63899Y-27127D01*
X63899Y-27127D02*
X63915Y-27156D01*
X63915Y-27156D02*
X63937Y-27180D01*
X63937Y-27180D02*
X63964Y-27200D01*
X63964Y-27200D02*
X63994Y-27213D01*
X63994Y-27213D02*
X64026Y-27220D01*
X64026Y-27220D02*
X64043Y-27221D01*
X65559Y-29543D02*
X65562Y-29576D01*
X65562Y-29576D02*
X65573Y-29607D01*
X65573Y-29607D02*
X65589Y-29635D01*
X65589Y-29635D02*
X65611Y-29660D01*
X65611Y-29660D02*
X65637Y-29679D01*
X65637Y-29679D02*
X65667Y-29692D01*
X65667Y-29692D02*
X65700Y-29699D01*
X65700Y-29699D02*
X65732Y-29699D01*
X65732Y-29699D02*
X65765Y-29692D01*
X65765Y-29692D02*
X65795Y-29679D01*
X65795Y-29679D02*
X65821Y-29660D01*
X65821Y-29660D02*
X65843Y-29635D01*
X65843Y-29635D02*
X65859Y-29607D01*
X65859Y-29607D02*
X65870Y-29576D01*
X65870Y-29576D02*
X65873Y-29543D01*
X65873Y-29543D02*
X65870Y-29510D01*
X65870Y-29510D02*
X65859Y-29479D01*
X65859Y-29479D02*
X65843Y-29451D01*
X65843Y-29451D02*
X65821Y-29426D01*
X65821Y-29426D02*
X65795Y-29407D01*
X65795Y-29407D02*
X65765Y-29394D01*
X65765Y-29394D02*
X65732Y-29387D01*
X65732Y-29387D02*
X65700Y-29387D01*
X65700Y-29387D02*
X65667Y-29394D01*
X65667Y-29394D02*
X65637Y-29407D01*
X65637Y-29407D02*
X65611Y-29426D01*
X65611Y-29426D02*
X65589Y-29451D01*
X65589Y-29451D02*
X65573Y-29479D01*
X65573Y-29479D02*
X65562Y-29510D01*
X65562Y-29510D02*
X65559Y-29543D01*
X65559Y-29543D02*
X65562Y-29576D01*
X65562Y-29576D02*
X65573Y-29607D01*
X65573Y-29607D02*
X65589Y-29635D01*
X65589Y-29635D02*
X65611Y-29660D01*
X65611Y-29660D02*
X65637Y-29679D01*
X65637Y-29679D02*
X65667Y-29692D01*
X65667Y-29692D02*
X65700Y-29699D01*
X65700Y-29699D02*
X65716Y-29700D01*
X65992Y-29700D02*
X66025Y-29697D01*
X66025Y-29697D02*
X66056Y-29686D01*
X66056Y-29686D02*
X66084Y-29670D01*
X66084Y-29670D02*
X66109Y-29648D01*
X66109Y-29648D02*
X66128Y-29622D01*
X66128Y-29622D02*
X66141Y-29592D01*
X66141Y-29592D02*
X66148Y-29559D01*
X66148Y-29559D02*
X66148Y-29527D01*
X66148Y-29527D02*
X66141Y-29494D01*
X66141Y-29494D02*
X66128Y-29464D01*
X66128Y-29464D02*
X66109Y-29438D01*
X66109Y-29438D02*
X66084Y-29416D01*
X66084Y-29416D02*
X66056Y-29400D01*
X66056Y-29400D02*
X66025Y-29389D01*
X66025Y-29389D02*
X65992Y-29386D01*
X65992Y-29386D02*
X65959Y-29389D01*
X65959Y-29389D02*
X65928Y-29400D01*
X65928Y-29400D02*
X65900Y-29416D01*
X65900Y-29416D02*
X65875Y-29438D01*
X65875Y-29438D02*
X65856Y-29464D01*
X65856Y-29464D02*
X65843Y-29494D01*
X65843Y-29494D02*
X65836Y-29527D01*
X65836Y-29527D02*
X65836Y-29559D01*
X65836Y-29559D02*
X65843Y-29592D01*
X65843Y-29592D02*
X65856Y-29622D01*
X65856Y-29622D02*
X65875Y-29648D01*
X65875Y-29648D02*
X65900Y-29670D01*
X65900Y-29670D02*
X65928Y-29686D01*
X65928Y-29686D02*
X65959Y-29697D01*
X65959Y-29697D02*
X65992Y-29700D01*
X65992Y-29700D02*
X66025Y-29697D01*
X66025Y-29697D02*
X66056Y-29686D01*
X66056Y-29686D02*
X66084Y-29670D01*
X66084Y-29670D02*
X66109Y-29648D01*
X66109Y-29648D02*
X66128Y-29622D01*
X66128Y-29622D02*
X66141Y-29592D01*
X66141Y-29592D02*
X66148Y-29559D01*
X66148Y-29559D02*
X66149Y-29543D01*
X66150Y-29543D02*
X66147Y-29510D01*
X66147Y-29510D02*
X66136Y-29479D01*
X66136Y-29479D02*
X66120Y-29450D01*
X66120Y-29450D02*
X66098Y-29426D01*
X66098Y-29426D02*
X66071Y-29406D01*
X66071Y-29406D02*
X66041Y-29393D01*
X66041Y-29393D02*
X66009Y-29386D01*
X66009Y-29386D02*
X65975Y-29386D01*
X65975Y-29386D02*
X65943Y-29393D01*
X65943Y-29393D02*
X65913Y-29406D01*
X65913Y-29406D02*
X65886Y-29426D01*
X65886Y-29426D02*
X65864Y-29450D01*
X65864Y-29450D02*
X65848Y-29479D01*
X65848Y-29479D02*
X65837Y-29510D01*
X65837Y-29510D02*
X65834Y-29543D01*
X65834Y-29543D02*
X65837Y-29576D01*
X65837Y-29576D02*
X65848Y-29607D01*
X65848Y-29607D02*
X65864Y-29636D01*
X65864Y-29636D02*
X65886Y-29660D01*
X65886Y-29660D02*
X65913Y-29680D01*
X65913Y-29680D02*
X65943Y-29693D01*
X65943Y-29693D02*
X65975Y-29700D01*
X65975Y-29700D02*
X66009Y-29700D01*
X66009Y-29700D02*
X66041Y-29693D01*
X66041Y-29693D02*
X66071Y-29680D01*
X66071Y-29680D02*
X66098Y-29660D01*
X66098Y-29660D02*
X66120Y-29636D01*
X66120Y-29636D02*
X66136Y-29607D01*
X66136Y-29607D02*
X66147Y-29576D01*
X66147Y-29576D02*
X66150Y-29543D01*
X66150Y-29543D02*
X66147Y-29510D01*
X66147Y-29510D02*
X66136Y-29479D01*
X66136Y-29479D02*
X66120Y-29450D01*
X66120Y-29450D02*
X66098Y-29426D01*
X66098Y-29426D02*
X66071Y-29406D01*
X66071Y-29406D02*
X66041Y-29393D01*
X66041Y-29393D02*
X66009Y-29386D01*
X66009Y-29386D02*
X65992Y-29385D01*
X65716Y-29386D02*
X65683Y-29389D01*
X65683Y-29389D02*
X65652Y-29400D01*
X65652Y-29400D02*
X65624Y-29416D01*
X65624Y-29416D02*
X65599Y-29438D01*
X65599Y-29438D02*
X65580Y-29464D01*
X65580Y-29464D02*
X65567Y-29494D01*
X65567Y-29494D02*
X65560Y-29527D01*
X65560Y-29527D02*
X65560Y-29559D01*
X65560Y-29559D02*
X65567Y-29592D01*
X65567Y-29592D02*
X65580Y-29622D01*
X65580Y-29622D02*
X65599Y-29648D01*
X65599Y-29648D02*
X65624Y-29670D01*
X65624Y-29670D02*
X65652Y-29686D01*
X65652Y-29686D02*
X65683Y-29697D01*
X65683Y-29697D02*
X65716Y-29700D01*
X65716Y-29700D02*
X65749Y-29697D01*
X65749Y-29697D02*
X65780Y-29686D01*
X65780Y-29686D02*
X65808Y-29670D01*
X65808Y-29670D02*
X65833Y-29648D01*
X65833Y-29648D02*
X65852Y-29622D01*
X65852Y-29622D02*
X65865Y-29592D01*
X65865Y-29592D02*
X65872Y-29559D01*
X65872Y-29559D02*
X65872Y-29527D01*
X65872Y-29527D02*
X65865Y-29494D01*
X65865Y-29494D02*
X65852Y-29464D01*
X65852Y-29464D02*
X65833Y-29438D01*
X65833Y-29438D02*
X65808Y-29416D01*
X65808Y-29416D02*
X65780Y-29400D01*
X65780Y-29400D02*
X65749Y-29389D01*
X65749Y-29389D02*
X65716Y-29386D01*
X65716Y-29386D02*
X65683Y-29389D01*
X65683Y-29389D02*
X65652Y-29400D01*
X65652Y-29400D02*
X65624Y-29416D01*
X65624Y-29416D02*
X65599Y-29438D01*
X65599Y-29438D02*
X65580Y-29464D01*
X65580Y-29464D02*
X65567Y-29494D01*
X65567Y-29494D02*
X65560Y-29527D01*
X65560Y-29527D02*
X65559Y-29543D01*
X65008Y-30488D02*
X65011Y-30521D01*
X65011Y-30521D02*
X65022Y-30552D01*
X65022Y-30552D02*
X65038Y-30580D01*
X65038Y-30580D02*
X65060Y-30605D01*
X65060Y-30605D02*
X65086Y-30624D01*
X65086Y-30624D02*
X65116Y-30637D01*
X65116Y-30637D02*
X65149Y-30644D01*
X65149Y-30644D02*
X65181Y-30644D01*
X65181Y-30644D02*
X65214Y-30637D01*
X65214Y-30637D02*
X65244Y-30624D01*
X65244Y-30624D02*
X65270Y-30605D01*
X65270Y-30605D02*
X65292Y-30580D01*
X65292Y-30580D02*
X65308Y-30552D01*
X65308Y-30552D02*
X65319Y-30521D01*
X65319Y-30521D02*
X65322Y-30488D01*
X65322Y-30488D02*
X65319Y-30455D01*
X65319Y-30455D02*
X65308Y-30424D01*
X65308Y-30424D02*
X65292Y-30396D01*
X65292Y-30396D02*
X65270Y-30371D01*
X65270Y-30371D02*
X65244Y-30352D01*
X65244Y-30352D02*
X65214Y-30339D01*
X65214Y-30339D02*
X65181Y-30332D01*
X65181Y-30332D02*
X65149Y-30332D01*
X65149Y-30332D02*
X65116Y-30339D01*
X65116Y-30339D02*
X65086Y-30352D01*
X65086Y-30352D02*
X65060Y-30371D01*
X65060Y-30371D02*
X65038Y-30396D01*
X65038Y-30396D02*
X65022Y-30424D01*
X65022Y-30424D02*
X65011Y-30455D01*
X65011Y-30455D02*
X65008Y-30488D01*
X65008Y-30488D02*
X65011Y-30521D01*
X65011Y-30521D02*
X65022Y-30552D01*
X65022Y-30552D02*
X65038Y-30580D01*
X65038Y-30580D02*
X65060Y-30605D01*
X65060Y-30605D02*
X65086Y-30624D01*
X65086Y-30624D02*
X65116Y-30637D01*
X65116Y-30637D02*
X65149Y-30644D01*
X65149Y-30644D02*
X65165Y-30645D01*
X65441Y-30645D02*
X65474Y-30642D01*
X65474Y-30642D02*
X65505Y-30631D01*
X65505Y-30631D02*
X65533Y-30615D01*
X65533Y-30615D02*
X65558Y-30593D01*
X65558Y-30593D02*
X65577Y-30567D01*
X65577Y-30567D02*
X65590Y-30537D01*
X65590Y-30537D02*
X65597Y-30504D01*
X65597Y-30504D02*
X65597Y-30472D01*
X65597Y-30472D02*
X65590Y-30439D01*
X65590Y-30439D02*
X65577Y-30409D01*
X65577Y-30409D02*
X65558Y-30383D01*
X65558Y-30383D02*
X65533Y-30361D01*
X65533Y-30361D02*
X65505Y-30345D01*
X65505Y-30345D02*
X65474Y-30334D01*
X65474Y-30334D02*
X65441Y-30331D01*
X65441Y-30331D02*
X65408Y-30334D01*
X65408Y-30334D02*
X65377Y-30345D01*
X65377Y-30345D02*
X65349Y-30361D01*
X65349Y-30361D02*
X65324Y-30383D01*
X65324Y-30383D02*
X65305Y-30409D01*
X65305Y-30409D02*
X65292Y-30439D01*
X65292Y-30439D02*
X65285Y-30472D01*
X65285Y-30472D02*
X65285Y-30504D01*
X65285Y-30504D02*
X65292Y-30537D01*
X65292Y-30537D02*
X65305Y-30567D01*
X65305Y-30567D02*
X65324Y-30593D01*
X65324Y-30593D02*
X65349Y-30615D01*
X65349Y-30615D02*
X65377Y-30631D01*
X65377Y-30631D02*
X65408Y-30642D01*
X65408Y-30642D02*
X65441Y-30645D01*
X65441Y-30645D02*
X65474Y-30642D01*
X65474Y-30642D02*
X65505Y-30631D01*
X65505Y-30631D02*
X65533Y-30615D01*
X65533Y-30615D02*
X65558Y-30593D01*
X65558Y-30593D02*
X65577Y-30567D01*
X65577Y-30567D02*
X65590Y-30537D01*
X65590Y-30537D02*
X65597Y-30504D01*
X65597Y-30504D02*
X65598Y-30488D01*
X65599Y-30488D02*
X65596Y-30455D01*
X65596Y-30455D02*
X65585Y-30424D01*
X65585Y-30424D02*
X65569Y-30395D01*
X65569Y-30395D02*
X65547Y-30371D01*
X65547Y-30371D02*
X65520Y-30351D01*
X65520Y-30351D02*
X65490Y-30338D01*
X65490Y-30338D02*
X65458Y-30331D01*
X65458Y-30331D02*
X65424Y-30331D01*
X65424Y-30331D02*
X65392Y-30338D01*
X65392Y-30338D02*
X65362Y-30351D01*
X65362Y-30351D02*
X65335Y-30371D01*
X65335Y-30371D02*
X65313Y-30395D01*
X65313Y-30395D02*
X65297Y-30424D01*
X65297Y-30424D02*
X65286Y-30455D01*
X65286Y-30455D02*
X65283Y-30488D01*
X65283Y-30488D02*
X65286Y-30521D01*
X65286Y-30521D02*
X65297Y-30552D01*
X65297Y-30552D02*
X65313Y-30581D01*
X65313Y-30581D02*
X65335Y-30605D01*
X65335Y-30605D02*
X65362Y-30625D01*
X65362Y-30625D02*
X65392Y-30638D01*
X65392Y-30638D02*
X65424Y-30645D01*
X65424Y-30645D02*
X65458Y-30645D01*
X65458Y-30645D02*
X65490Y-30638D01*
X65490Y-30638D02*
X65520Y-30625D01*
X65520Y-30625D02*
X65547Y-30605D01*
X65547Y-30605D02*
X65569Y-30581D01*
X65569Y-30581D02*
X65585Y-30552D01*
X65585Y-30552D02*
X65596Y-30521D01*
X65596Y-30521D02*
X65599Y-30488D01*
X65599Y-30488D02*
X65596Y-30455D01*
X65596Y-30455D02*
X65585Y-30424D01*
X65585Y-30424D02*
X65569Y-30395D01*
X65569Y-30395D02*
X65547Y-30371D01*
X65547Y-30371D02*
X65520Y-30351D01*
X65520Y-30351D02*
X65490Y-30338D01*
X65490Y-30338D02*
X65458Y-30331D01*
X65458Y-30331D02*
X65441Y-30330D01*
X65165Y-30331D02*
X65132Y-30334D01*
X65132Y-30334D02*
X65101Y-30345D01*
X65101Y-30345D02*
X65073Y-30361D01*
X65073Y-30361D02*
X65048Y-30383D01*
X65048Y-30383D02*
X65029Y-30409D01*
X65029Y-30409D02*
X65016Y-30439D01*
X65016Y-30439D02*
X65009Y-30472D01*
X65009Y-30472D02*
X65009Y-30504D01*
X65009Y-30504D02*
X65016Y-30537D01*
X65016Y-30537D02*
X65029Y-30567D01*
X65029Y-30567D02*
X65048Y-30593D01*
X65048Y-30593D02*
X65073Y-30615D01*
X65073Y-30615D02*
X65101Y-30631D01*
X65101Y-30631D02*
X65132Y-30642D01*
X65132Y-30642D02*
X65165Y-30645D01*
X65165Y-30645D02*
X65198Y-30642D01*
X65198Y-30642D02*
X65229Y-30631D01*
X65229Y-30631D02*
X65257Y-30615D01*
X65257Y-30615D02*
X65282Y-30593D01*
X65282Y-30593D02*
X65301Y-30567D01*
X65301Y-30567D02*
X65314Y-30537D01*
X65314Y-30537D02*
X65321Y-30504D01*
X65321Y-30504D02*
X65321Y-30472D01*
X65321Y-30472D02*
X65314Y-30439D01*
X65314Y-30439D02*
X65301Y-30409D01*
X65301Y-30409D02*
X65282Y-30383D01*
X65282Y-30383D02*
X65257Y-30361D01*
X65257Y-30361D02*
X65229Y-30345D01*
X65229Y-30345D02*
X65198Y-30334D01*
X65198Y-30334D02*
X65165Y-30331D01*
X65165Y-30331D02*
X65132Y-30334D01*
X65132Y-30334D02*
X65101Y-30345D01*
X65101Y-30345D02*
X65073Y-30361D01*
X65073Y-30361D02*
X65048Y-30383D01*
X65048Y-30383D02*
X65029Y-30409D01*
X65029Y-30409D02*
X65016Y-30439D01*
X65016Y-30439D02*
X65009Y-30472D01*
X65009Y-30472D02*
X65008Y-30488D01*
X68531Y-21837D02*
X68531Y-21563D01*
X68216Y-21563D02*
X68216Y-21837D01*
X66937Y-20067D02*
X67212Y-20067D01*
X67212Y-19752D02*
X66937Y-19752D01*
X64200Y-20263D02*
X64200Y-19988D01*
X63886Y-19988D02*
X63886Y-20263D01*
X65716Y-22900D02*
X65992Y-22900D01*
X65992Y-22585D02*
X65716Y-22585D01*
X65165Y-23845D02*
X65441Y-23845D01*
X65441Y-23530D02*
X65165Y-23530D01*
G54D38*
X69161Y-19575D02*
X69161Y-24022D01*
X69161Y-24022D02*
X63689Y-24022D01*
X63689Y-24022D02*
X63689Y-19575D01*
X63689Y-19575D02*
X69161Y-19575D01*
X69200Y-20559D02*
X70538Y-20559D01*
X70538Y-20559D02*
X70538Y-22841D01*
X70538Y-22841D02*
X69200Y-22841D01*
G54D37*
X68374Y-21994D02*
X68407Y-21991D01*
X68407Y-21991D02*
X68438Y-21980D01*
X68438Y-21980D02*
X68466Y-21964D01*
X68466Y-21964D02*
X68491Y-21942D01*
X68491Y-21942D02*
X68510Y-21916D01*
X68510Y-21916D02*
X68523Y-21886D01*
X68523Y-21886D02*
X68530Y-21853D01*
X68530Y-21853D02*
X68530Y-21821D01*
X68530Y-21821D02*
X68523Y-21788D01*
X68523Y-21788D02*
X68510Y-21758D01*
X68510Y-21758D02*
X68491Y-21732D01*
X68491Y-21732D02*
X68466Y-21710D01*
X68466Y-21710D02*
X68438Y-21694D01*
X68438Y-21694D02*
X68407Y-21683D01*
X68407Y-21683D02*
X68374Y-21680D01*
X68374Y-21680D02*
X68341Y-21683D01*
X68341Y-21683D02*
X68310Y-21694D01*
X68310Y-21694D02*
X68282Y-21710D01*
X68282Y-21710D02*
X68257Y-21732D01*
X68257Y-21732D02*
X68238Y-21758D01*
X68238Y-21758D02*
X68225Y-21788D01*
X68225Y-21788D02*
X68218Y-21821D01*
X68218Y-21821D02*
X68218Y-21853D01*
X68218Y-21853D02*
X68225Y-21886D01*
X68225Y-21886D02*
X68238Y-21916D01*
X68238Y-21916D02*
X68257Y-21942D01*
X68257Y-21942D02*
X68282Y-21964D01*
X68282Y-21964D02*
X68310Y-21980D01*
X68310Y-21980D02*
X68341Y-21991D01*
X68341Y-21991D02*
X68374Y-21994D01*
X68374Y-21994D02*
X68407Y-21991D01*
X68407Y-21991D02*
X68438Y-21980D01*
X68438Y-21980D02*
X68466Y-21964D01*
X68466Y-21964D02*
X68491Y-21942D01*
X68491Y-21942D02*
X68510Y-21916D01*
X68510Y-21916D02*
X68523Y-21886D01*
X68523Y-21886D02*
X68530Y-21853D01*
X68530Y-21853D02*
X68531Y-21837D01*
X68532Y-21563D02*
X68529Y-21530D01*
X68529Y-21530D02*
X68518Y-21499D01*
X68518Y-21499D02*
X68502Y-21470D01*
X68502Y-21470D02*
X68480Y-21446D01*
X68480Y-21446D02*
X68453Y-21426D01*
X68453Y-21426D02*
X68423Y-21413D01*
X68423Y-21413D02*
X68391Y-21406D01*
X68391Y-21406D02*
X68357Y-21406D01*
X68357Y-21406D02*
X68325Y-21413D01*
X68325Y-21413D02*
X68295Y-21426D01*
X68295Y-21426D02*
X68268Y-21446D01*
X68268Y-21446D02*
X68246Y-21470D01*
X68246Y-21470D02*
X68230Y-21499D01*
X68230Y-21499D02*
X68219Y-21530D01*
X68219Y-21530D02*
X68216Y-21563D01*
X68216Y-21563D02*
X68219Y-21596D01*
X68219Y-21596D02*
X68230Y-21627D01*
X68230Y-21627D02*
X68246Y-21656D01*
X68246Y-21656D02*
X68268Y-21680D01*
X68268Y-21680D02*
X68295Y-21700D01*
X68295Y-21700D02*
X68325Y-21713D01*
X68325Y-21713D02*
X68357Y-21720D01*
X68357Y-21720D02*
X68391Y-21720D01*
X68391Y-21720D02*
X68423Y-21713D01*
X68423Y-21713D02*
X68453Y-21700D01*
X68453Y-21700D02*
X68480Y-21680D01*
X68480Y-21680D02*
X68502Y-21656D01*
X68502Y-21656D02*
X68518Y-21627D01*
X68518Y-21627D02*
X68529Y-21596D01*
X68529Y-21596D02*
X68532Y-21563D01*
X68532Y-21563D02*
X68529Y-21530D01*
X68529Y-21530D02*
X68518Y-21499D01*
X68518Y-21499D02*
X68502Y-21470D01*
X68502Y-21470D02*
X68480Y-21446D01*
X68480Y-21446D02*
X68453Y-21426D01*
X68453Y-21426D02*
X68423Y-21413D01*
X68423Y-21413D02*
X68391Y-21406D01*
X68391Y-21406D02*
X68374Y-21405D01*
X68374Y-21405D02*
X68341Y-21408D01*
X68341Y-21408D02*
X68310Y-21419D01*
X68310Y-21419D02*
X68281Y-21435D01*
X68281Y-21435D02*
X68257Y-21457D01*
X68257Y-21457D02*
X68237Y-21484D01*
X68237Y-21484D02*
X68224Y-21514D01*
X68224Y-21514D02*
X68217Y-21546D01*
X68217Y-21546D02*
X68217Y-21580D01*
X68217Y-21580D02*
X68224Y-21612D01*
X68224Y-21612D02*
X68237Y-21642D01*
X68237Y-21642D02*
X68257Y-21669D01*
X68257Y-21669D02*
X68281Y-21691D01*
X68281Y-21691D02*
X68310Y-21707D01*
X68310Y-21707D02*
X68341Y-21718D01*
X68341Y-21718D02*
X68374Y-21721D01*
X68374Y-21721D02*
X68407Y-21718D01*
X68407Y-21718D02*
X68438Y-21707D01*
X68438Y-21707D02*
X68467Y-21691D01*
X68467Y-21691D02*
X68491Y-21669D01*
X68491Y-21669D02*
X68511Y-21642D01*
X68511Y-21642D02*
X68524Y-21612D01*
X68524Y-21612D02*
X68531Y-21580D01*
X68531Y-21580D02*
X68531Y-21546D01*
X68531Y-21546D02*
X68524Y-21514D01*
X68524Y-21514D02*
X68511Y-21484D01*
X68511Y-21484D02*
X68491Y-21457D01*
X68491Y-21457D02*
X68467Y-21435D01*
X68467Y-21435D02*
X68438Y-21419D01*
X68438Y-21419D02*
X68407Y-21408D01*
X68407Y-21408D02*
X68374Y-21405D01*
X68374Y-21405D02*
X68341Y-21408D01*
X68341Y-21408D02*
X68310Y-21419D01*
X68310Y-21419D02*
X68281Y-21435D01*
X68281Y-21435D02*
X68257Y-21457D01*
X68257Y-21457D02*
X68237Y-21484D01*
X68237Y-21484D02*
X68224Y-21514D01*
X68224Y-21514D02*
X68217Y-21546D01*
X68217Y-21546D02*
X68216Y-21563D01*
X68216Y-21837D02*
X68219Y-21870D01*
X68219Y-21870D02*
X68230Y-21901D01*
X68230Y-21901D02*
X68246Y-21930D01*
X68246Y-21930D02*
X68268Y-21954D01*
X68268Y-21954D02*
X68295Y-21974D01*
X68295Y-21974D02*
X68325Y-21987D01*
X68325Y-21987D02*
X68357Y-21994D01*
X68357Y-21994D02*
X68391Y-21994D01*
X68391Y-21994D02*
X68423Y-21987D01*
X68423Y-21987D02*
X68453Y-21974D01*
X68453Y-21974D02*
X68480Y-21954D01*
X68480Y-21954D02*
X68502Y-21930D01*
X68502Y-21930D02*
X68518Y-21901D01*
X68518Y-21901D02*
X68529Y-21870D01*
X68529Y-21870D02*
X68532Y-21837D01*
X68532Y-21837D02*
X68529Y-21804D01*
X68529Y-21804D02*
X68518Y-21773D01*
X68518Y-21773D02*
X68502Y-21744D01*
X68502Y-21744D02*
X68480Y-21720D01*
X68480Y-21720D02*
X68453Y-21700D01*
X68453Y-21700D02*
X68423Y-21687D01*
X68423Y-21687D02*
X68391Y-21680D01*
X68391Y-21680D02*
X68357Y-21680D01*
X68357Y-21680D02*
X68325Y-21687D01*
X68325Y-21687D02*
X68295Y-21700D01*
X68295Y-21700D02*
X68268Y-21720D01*
X68268Y-21720D02*
X68246Y-21744D01*
X68246Y-21744D02*
X68230Y-21773D01*
X68230Y-21773D02*
X68219Y-21804D01*
X68219Y-21804D02*
X68216Y-21837D01*
X68216Y-21837D02*
X68219Y-21870D01*
X68219Y-21870D02*
X68230Y-21901D01*
X68230Y-21901D02*
X68246Y-21930D01*
X68246Y-21930D02*
X68268Y-21954D01*
X68268Y-21954D02*
X68295Y-21974D01*
X68295Y-21974D02*
X68325Y-21987D01*
X68325Y-21987D02*
X68357Y-21994D01*
X68357Y-21994D02*
X68374Y-21995D01*
X66779Y-19909D02*
X66782Y-19942D01*
X66782Y-19942D02*
X66793Y-19973D01*
X66793Y-19973D02*
X66809Y-20002D01*
X66809Y-20002D02*
X66831Y-20026D01*
X66831Y-20026D02*
X66858Y-20046D01*
X66858Y-20046D02*
X66888Y-20059D01*
X66888Y-20059D02*
X66920Y-20066D01*
X66920Y-20066D02*
X66954Y-20066D01*
X66954Y-20066D02*
X66986Y-20059D01*
X66986Y-20059D02*
X67016Y-20046D01*
X67016Y-20046D02*
X67043Y-20026D01*
X67043Y-20026D02*
X67065Y-20002D01*
X67065Y-20002D02*
X67081Y-19973D01*
X67081Y-19973D02*
X67092Y-19942D01*
X67092Y-19942D02*
X67095Y-19909D01*
X67095Y-19909D02*
X67092Y-19876D01*
X67092Y-19876D02*
X67081Y-19845D01*
X67081Y-19845D02*
X67065Y-19816D01*
X67065Y-19816D02*
X67043Y-19792D01*
X67043Y-19792D02*
X67016Y-19772D01*
X67016Y-19772D02*
X66986Y-19759D01*
X66986Y-19759D02*
X66954Y-19752D01*
X66954Y-19752D02*
X66920Y-19752D01*
X66920Y-19752D02*
X66888Y-19759D01*
X66888Y-19759D02*
X66858Y-19772D01*
X66858Y-19772D02*
X66831Y-19792D01*
X66831Y-19792D02*
X66809Y-19816D01*
X66809Y-19816D02*
X66793Y-19845D01*
X66793Y-19845D02*
X66782Y-19876D01*
X66782Y-19876D02*
X66779Y-19909D01*
X66779Y-19909D02*
X66782Y-19942D01*
X66782Y-19942D02*
X66793Y-19973D01*
X66793Y-19973D02*
X66809Y-20002D01*
X66809Y-20002D02*
X66831Y-20026D01*
X66831Y-20026D02*
X66858Y-20046D01*
X66858Y-20046D02*
X66888Y-20059D01*
X66888Y-20059D02*
X66920Y-20066D01*
X66920Y-20066D02*
X66937Y-20067D01*
X67212Y-20067D02*
X67245Y-20064D01*
X67245Y-20064D02*
X67276Y-20053D01*
X67276Y-20053D02*
X67305Y-20037D01*
X67305Y-20037D02*
X67329Y-20015D01*
X67329Y-20015D02*
X67349Y-19988D01*
X67349Y-19988D02*
X67362Y-19958D01*
X67362Y-19958D02*
X67369Y-19926D01*
X67369Y-19926D02*
X67369Y-19892D01*
X67369Y-19892D02*
X67362Y-19860D01*
X67362Y-19860D02*
X67349Y-19830D01*
X67349Y-19830D02*
X67329Y-19803D01*
X67329Y-19803D02*
X67305Y-19781D01*
X67305Y-19781D02*
X67276Y-19765D01*
X67276Y-19765D02*
X67245Y-19754D01*
X67245Y-19754D02*
X67212Y-19751D01*
X67212Y-19751D02*
X67179Y-19754D01*
X67179Y-19754D02*
X67148Y-19765D01*
X67148Y-19765D02*
X67119Y-19781D01*
X67119Y-19781D02*
X67095Y-19803D01*
X67095Y-19803D02*
X67075Y-19830D01*
X67075Y-19830D02*
X67062Y-19860D01*
X67062Y-19860D02*
X67055Y-19892D01*
X67055Y-19892D02*
X67055Y-19926D01*
X67055Y-19926D02*
X67062Y-19958D01*
X67062Y-19958D02*
X67075Y-19988D01*
X67075Y-19988D02*
X67095Y-20015D01*
X67095Y-20015D02*
X67119Y-20037D01*
X67119Y-20037D02*
X67148Y-20053D01*
X67148Y-20053D02*
X67179Y-20064D01*
X67179Y-20064D02*
X67212Y-20067D01*
X67212Y-20067D02*
X67245Y-20064D01*
X67245Y-20064D02*
X67276Y-20053D01*
X67276Y-20053D02*
X67305Y-20037D01*
X67305Y-20037D02*
X67329Y-20015D01*
X67329Y-20015D02*
X67349Y-19988D01*
X67349Y-19988D02*
X67362Y-19958D01*
X67362Y-19958D02*
X67369Y-19926D01*
X67369Y-19926D02*
X67370Y-19909D01*
X67369Y-19909D02*
X67366Y-19876D01*
X67366Y-19876D02*
X67355Y-19845D01*
X67355Y-19845D02*
X67339Y-19817D01*
X67339Y-19817D02*
X67317Y-19792D01*
X67317Y-19792D02*
X67291Y-19773D01*
X67291Y-19773D02*
X67261Y-19760D01*
X67261Y-19760D02*
X67228Y-19753D01*
X67228Y-19753D02*
X67196Y-19753D01*
X67196Y-19753D02*
X67163Y-19760D01*
X67163Y-19760D02*
X67133Y-19773D01*
X67133Y-19773D02*
X67107Y-19792D01*
X67107Y-19792D02*
X67085Y-19817D01*
X67085Y-19817D02*
X67069Y-19845D01*
X67069Y-19845D02*
X67058Y-19876D01*
X67058Y-19876D02*
X67055Y-19909D01*
X67055Y-19909D02*
X67058Y-19942D01*
X67058Y-19942D02*
X67069Y-19973D01*
X67069Y-19973D02*
X67085Y-20001D01*
X67085Y-20001D02*
X67107Y-20026D01*
X67107Y-20026D02*
X67133Y-20045D01*
X67133Y-20045D02*
X67163Y-20058D01*
X67163Y-20058D02*
X67196Y-20065D01*
X67196Y-20065D02*
X67228Y-20065D01*
X67228Y-20065D02*
X67261Y-20058D01*
X67261Y-20058D02*
X67291Y-20045D01*
X67291Y-20045D02*
X67317Y-20026D01*
X67317Y-20026D02*
X67339Y-20001D01*
X67339Y-20001D02*
X67355Y-19973D01*
X67355Y-19973D02*
X67366Y-19942D01*
X67366Y-19942D02*
X67369Y-19909D01*
X67369Y-19909D02*
X67366Y-19876D01*
X67366Y-19876D02*
X67355Y-19845D01*
X67355Y-19845D02*
X67339Y-19817D01*
X67339Y-19817D02*
X67317Y-19792D01*
X67317Y-19792D02*
X67291Y-19773D01*
X67291Y-19773D02*
X67261Y-19760D01*
X67261Y-19760D02*
X67228Y-19753D01*
X67228Y-19753D02*
X67212Y-19752D01*
X66937Y-19751D02*
X66904Y-19754D01*
X66904Y-19754D02*
X66873Y-19765D01*
X66873Y-19765D02*
X66844Y-19781D01*
X66844Y-19781D02*
X66820Y-19803D01*
X66820Y-19803D02*
X66800Y-19830D01*
X66800Y-19830D02*
X66787Y-19860D01*
X66787Y-19860D02*
X66780Y-19892D01*
X66780Y-19892D02*
X66780Y-19926D01*
X66780Y-19926D02*
X66787Y-19958D01*
X66787Y-19958D02*
X66800Y-19988D01*
X66800Y-19988D02*
X66820Y-20015D01*
X66820Y-20015D02*
X66844Y-20037D01*
X66844Y-20037D02*
X66873Y-20053D01*
X66873Y-20053D02*
X66904Y-20064D01*
X66904Y-20064D02*
X66937Y-20067D01*
X66937Y-20067D02*
X66970Y-20064D01*
X66970Y-20064D02*
X67001Y-20053D01*
X67001Y-20053D02*
X67030Y-20037D01*
X67030Y-20037D02*
X67054Y-20015D01*
X67054Y-20015D02*
X67074Y-19988D01*
X67074Y-19988D02*
X67087Y-19958D01*
X67087Y-19958D02*
X67094Y-19926D01*
X67094Y-19926D02*
X67094Y-19892D01*
X67094Y-19892D02*
X67087Y-19860D01*
X67087Y-19860D02*
X67074Y-19830D01*
X67074Y-19830D02*
X67054Y-19803D01*
X67054Y-19803D02*
X67030Y-19781D01*
X67030Y-19781D02*
X67001Y-19765D01*
X67001Y-19765D02*
X66970Y-19754D01*
X66970Y-19754D02*
X66937Y-19751D01*
X66937Y-19751D02*
X66904Y-19754D01*
X66904Y-19754D02*
X66873Y-19765D01*
X66873Y-19765D02*
X66844Y-19781D01*
X66844Y-19781D02*
X66820Y-19803D01*
X66820Y-19803D02*
X66800Y-19830D01*
X66800Y-19830D02*
X66787Y-19860D01*
X66787Y-19860D02*
X66780Y-19892D01*
X66780Y-19892D02*
X66779Y-19909D01*
X64043Y-20420D02*
X64076Y-20417D01*
X64076Y-20417D02*
X64107Y-20406D01*
X64107Y-20406D02*
X64135Y-20390D01*
X64135Y-20390D02*
X64160Y-20368D01*
X64160Y-20368D02*
X64179Y-20342D01*
X64179Y-20342D02*
X64192Y-20312D01*
X64192Y-20312D02*
X64199Y-20279D01*
X64199Y-20279D02*
X64199Y-20247D01*
X64199Y-20247D02*
X64192Y-20214D01*
X64192Y-20214D02*
X64179Y-20184D01*
X64179Y-20184D02*
X64160Y-20158D01*
X64160Y-20158D02*
X64135Y-20136D01*
X64135Y-20136D02*
X64107Y-20120D01*
X64107Y-20120D02*
X64076Y-20109D01*
X64076Y-20109D02*
X64043Y-20106D01*
X64043Y-20106D02*
X64010Y-20109D01*
X64010Y-20109D02*
X63979Y-20120D01*
X63979Y-20120D02*
X63951Y-20136D01*
X63951Y-20136D02*
X63926Y-20158D01*
X63926Y-20158D02*
X63907Y-20184D01*
X63907Y-20184D02*
X63894Y-20214D01*
X63894Y-20214D02*
X63887Y-20247D01*
X63887Y-20247D02*
X63887Y-20279D01*
X63887Y-20279D02*
X63894Y-20312D01*
X63894Y-20312D02*
X63907Y-20342D01*
X63907Y-20342D02*
X63926Y-20368D01*
X63926Y-20368D02*
X63951Y-20390D01*
X63951Y-20390D02*
X63979Y-20406D01*
X63979Y-20406D02*
X64010Y-20417D01*
X64010Y-20417D02*
X64043Y-20420D01*
X64043Y-20420D02*
X64076Y-20417D01*
X64076Y-20417D02*
X64107Y-20406D01*
X64107Y-20406D02*
X64135Y-20390D01*
X64135Y-20390D02*
X64160Y-20368D01*
X64160Y-20368D02*
X64179Y-20342D01*
X64179Y-20342D02*
X64192Y-20312D01*
X64192Y-20312D02*
X64199Y-20279D01*
X64199Y-20279D02*
X64200Y-20263D01*
X64201Y-19988D02*
X64198Y-19955D01*
X64198Y-19955D02*
X64187Y-19924D01*
X64187Y-19924D02*
X64171Y-19895D01*
X64171Y-19895D02*
X64149Y-19871D01*
X64149Y-19871D02*
X64122Y-19851D01*
X64122Y-19851D02*
X64092Y-19838D01*
X64092Y-19838D02*
X64060Y-19831D01*
X64060Y-19831D02*
X64026Y-19831D01*
X64026Y-19831D02*
X63994Y-19838D01*
X63994Y-19838D02*
X63964Y-19851D01*
X63964Y-19851D02*
X63937Y-19871D01*
X63937Y-19871D02*
X63915Y-19895D01*
X63915Y-19895D02*
X63899Y-19924D01*
X63899Y-19924D02*
X63888Y-19955D01*
X63888Y-19955D02*
X63885Y-19988D01*
X63885Y-19988D02*
X63888Y-20021D01*
X63888Y-20021D02*
X63899Y-20052D01*
X63899Y-20052D02*
X63915Y-20081D01*
X63915Y-20081D02*
X63937Y-20105D01*
X63937Y-20105D02*
X63964Y-20125D01*
X63964Y-20125D02*
X63994Y-20138D01*
X63994Y-20138D02*
X64026Y-20145D01*
X64026Y-20145D02*
X64060Y-20145D01*
X64060Y-20145D02*
X64092Y-20138D01*
X64092Y-20138D02*
X64122Y-20125D01*
X64122Y-20125D02*
X64149Y-20105D01*
X64149Y-20105D02*
X64171Y-20081D01*
X64171Y-20081D02*
X64187Y-20052D01*
X64187Y-20052D02*
X64198Y-20021D01*
X64198Y-20021D02*
X64201Y-19988D01*
X64201Y-19988D02*
X64198Y-19955D01*
X64198Y-19955D02*
X64187Y-19924D01*
X64187Y-19924D02*
X64171Y-19895D01*
X64171Y-19895D02*
X64149Y-19871D01*
X64149Y-19871D02*
X64122Y-19851D01*
X64122Y-19851D02*
X64092Y-19838D01*
X64092Y-19838D02*
X64060Y-19831D01*
X64060Y-19831D02*
X64043Y-19830D01*
X64043Y-19831D02*
X64010Y-19834D01*
X64010Y-19834D02*
X63979Y-19845D01*
X63979Y-19845D02*
X63951Y-19861D01*
X63951Y-19861D02*
X63926Y-19883D01*
X63926Y-19883D02*
X63907Y-19909D01*
X63907Y-19909D02*
X63894Y-19939D01*
X63894Y-19939D02*
X63887Y-19972D01*
X63887Y-19972D02*
X63887Y-20004D01*
X63887Y-20004D02*
X63894Y-20037D01*
X63894Y-20037D02*
X63907Y-20067D01*
X63907Y-20067D02*
X63926Y-20093D01*
X63926Y-20093D02*
X63951Y-20115D01*
X63951Y-20115D02*
X63979Y-20131D01*
X63979Y-20131D02*
X64010Y-20142D01*
X64010Y-20142D02*
X64043Y-20145D01*
X64043Y-20145D02*
X64076Y-20142D01*
X64076Y-20142D02*
X64107Y-20131D01*
X64107Y-20131D02*
X64135Y-20115D01*
X64135Y-20115D02*
X64160Y-20093D01*
X64160Y-20093D02*
X64179Y-20067D01*
X64179Y-20067D02*
X64192Y-20037D01*
X64192Y-20037D02*
X64199Y-20004D01*
X64199Y-20004D02*
X64199Y-19972D01*
X64199Y-19972D02*
X64192Y-19939D01*
X64192Y-19939D02*
X64179Y-19909D01*
X64179Y-19909D02*
X64160Y-19883D01*
X64160Y-19883D02*
X64135Y-19861D01*
X64135Y-19861D02*
X64107Y-19845D01*
X64107Y-19845D02*
X64076Y-19834D01*
X64076Y-19834D02*
X64043Y-19831D01*
X64043Y-19831D02*
X64010Y-19834D01*
X64010Y-19834D02*
X63979Y-19845D01*
X63979Y-19845D02*
X63951Y-19861D01*
X63951Y-19861D02*
X63926Y-19883D01*
X63926Y-19883D02*
X63907Y-19909D01*
X63907Y-19909D02*
X63894Y-19939D01*
X63894Y-19939D02*
X63887Y-19972D01*
X63887Y-19972D02*
X63886Y-19988D01*
X63885Y-20263D02*
X63888Y-20296D01*
X63888Y-20296D02*
X63899Y-20327D01*
X63899Y-20327D02*
X63915Y-20356D01*
X63915Y-20356D02*
X63937Y-20380D01*
X63937Y-20380D02*
X63964Y-20400D01*
X63964Y-20400D02*
X63994Y-20413D01*
X63994Y-20413D02*
X64026Y-20420D01*
X64026Y-20420D02*
X64060Y-20420D01*
X64060Y-20420D02*
X64092Y-20413D01*
X64092Y-20413D02*
X64122Y-20400D01*
X64122Y-20400D02*
X64149Y-20380D01*
X64149Y-20380D02*
X64171Y-20356D01*
X64171Y-20356D02*
X64187Y-20327D01*
X64187Y-20327D02*
X64198Y-20296D01*
X64198Y-20296D02*
X64201Y-20263D01*
X64201Y-20263D02*
X64198Y-20230D01*
X64198Y-20230D02*
X64187Y-20199D01*
X64187Y-20199D02*
X64171Y-20170D01*
X64171Y-20170D02*
X64149Y-20146D01*
X64149Y-20146D02*
X64122Y-20126D01*
X64122Y-20126D02*
X64092Y-20113D01*
X64092Y-20113D02*
X64060Y-20106D01*
X64060Y-20106D02*
X64026Y-20106D01*
X64026Y-20106D02*
X63994Y-20113D01*
X63994Y-20113D02*
X63964Y-20126D01*
X63964Y-20126D02*
X63937Y-20146D01*
X63937Y-20146D02*
X63915Y-20170D01*
X63915Y-20170D02*
X63899Y-20199D01*
X63899Y-20199D02*
X63888Y-20230D01*
X63888Y-20230D02*
X63885Y-20263D01*
X63885Y-20263D02*
X63888Y-20296D01*
X63888Y-20296D02*
X63899Y-20327D01*
X63899Y-20327D02*
X63915Y-20356D01*
X63915Y-20356D02*
X63937Y-20380D01*
X63937Y-20380D02*
X63964Y-20400D01*
X63964Y-20400D02*
X63994Y-20413D01*
X63994Y-20413D02*
X64026Y-20420D01*
X64026Y-20420D02*
X64043Y-20421D01*
X65559Y-22743D02*
X65562Y-22776D01*
X65562Y-22776D02*
X65573Y-22807D01*
X65573Y-22807D02*
X65589Y-22835D01*
X65589Y-22835D02*
X65611Y-22860D01*
X65611Y-22860D02*
X65637Y-22879D01*
X65637Y-22879D02*
X65667Y-22892D01*
X65667Y-22892D02*
X65700Y-22899D01*
X65700Y-22899D02*
X65732Y-22899D01*
X65732Y-22899D02*
X65765Y-22892D01*
X65765Y-22892D02*
X65795Y-22879D01*
X65795Y-22879D02*
X65821Y-22860D01*
X65821Y-22860D02*
X65843Y-22835D01*
X65843Y-22835D02*
X65859Y-22807D01*
X65859Y-22807D02*
X65870Y-22776D01*
X65870Y-22776D02*
X65873Y-22743D01*
X65873Y-22743D02*
X65870Y-22710D01*
X65870Y-22710D02*
X65859Y-22679D01*
X65859Y-22679D02*
X65843Y-22651D01*
X65843Y-22651D02*
X65821Y-22626D01*
X65821Y-22626D02*
X65795Y-22607D01*
X65795Y-22607D02*
X65765Y-22594D01*
X65765Y-22594D02*
X65732Y-22587D01*
X65732Y-22587D02*
X65700Y-22587D01*
X65700Y-22587D02*
X65667Y-22594D01*
X65667Y-22594D02*
X65637Y-22607D01*
X65637Y-22607D02*
X65611Y-22626D01*
X65611Y-22626D02*
X65589Y-22651D01*
X65589Y-22651D02*
X65573Y-22679D01*
X65573Y-22679D02*
X65562Y-22710D01*
X65562Y-22710D02*
X65559Y-22743D01*
X65559Y-22743D02*
X65562Y-22776D01*
X65562Y-22776D02*
X65573Y-22807D01*
X65573Y-22807D02*
X65589Y-22835D01*
X65589Y-22835D02*
X65611Y-22860D01*
X65611Y-22860D02*
X65637Y-22879D01*
X65637Y-22879D02*
X65667Y-22892D01*
X65667Y-22892D02*
X65700Y-22899D01*
X65700Y-22899D02*
X65716Y-22900D01*
X65992Y-22900D02*
X66025Y-22897D01*
X66025Y-22897D02*
X66056Y-22886D01*
X66056Y-22886D02*
X66084Y-22870D01*
X66084Y-22870D02*
X66109Y-22848D01*
X66109Y-22848D02*
X66128Y-22822D01*
X66128Y-22822D02*
X66141Y-22792D01*
X66141Y-22792D02*
X66148Y-22759D01*
X66148Y-22759D02*
X66148Y-22727D01*
X66148Y-22727D02*
X66141Y-22694D01*
X66141Y-22694D02*
X66128Y-22664D01*
X66128Y-22664D02*
X66109Y-22638D01*
X66109Y-22638D02*
X66084Y-22616D01*
X66084Y-22616D02*
X66056Y-22600D01*
X66056Y-22600D02*
X66025Y-22589D01*
X66025Y-22589D02*
X65992Y-22586D01*
X65992Y-22586D02*
X65959Y-22589D01*
X65959Y-22589D02*
X65928Y-22600D01*
X65928Y-22600D02*
X65900Y-22616D01*
X65900Y-22616D02*
X65875Y-22638D01*
X65875Y-22638D02*
X65856Y-22664D01*
X65856Y-22664D02*
X65843Y-22694D01*
X65843Y-22694D02*
X65836Y-22727D01*
X65836Y-22727D02*
X65836Y-22759D01*
X65836Y-22759D02*
X65843Y-22792D01*
X65843Y-22792D02*
X65856Y-22822D01*
X65856Y-22822D02*
X65875Y-22848D01*
X65875Y-22848D02*
X65900Y-22870D01*
X65900Y-22870D02*
X65928Y-22886D01*
X65928Y-22886D02*
X65959Y-22897D01*
X65959Y-22897D02*
X65992Y-22900D01*
X65992Y-22900D02*
X66025Y-22897D01*
X66025Y-22897D02*
X66056Y-22886D01*
X66056Y-22886D02*
X66084Y-22870D01*
X66084Y-22870D02*
X66109Y-22848D01*
X66109Y-22848D02*
X66128Y-22822D01*
X66128Y-22822D02*
X66141Y-22792D01*
X66141Y-22792D02*
X66148Y-22759D01*
X66148Y-22759D02*
X66149Y-22743D01*
X66150Y-22743D02*
X66147Y-22710D01*
X66147Y-22710D02*
X66136Y-22679D01*
X66136Y-22679D02*
X66120Y-22650D01*
X66120Y-22650D02*
X66098Y-22626D01*
X66098Y-22626D02*
X66071Y-22606D01*
X66071Y-22606D02*
X66041Y-22593D01*
X66041Y-22593D02*
X66009Y-22586D01*
X66009Y-22586D02*
X65975Y-22586D01*
X65975Y-22586D02*
X65943Y-22593D01*
X65943Y-22593D02*
X65913Y-22606D01*
X65913Y-22606D02*
X65886Y-22626D01*
X65886Y-22626D02*
X65864Y-22650D01*
X65864Y-22650D02*
X65848Y-22679D01*
X65848Y-22679D02*
X65837Y-22710D01*
X65837Y-22710D02*
X65834Y-22743D01*
X65834Y-22743D02*
X65837Y-22776D01*
X65837Y-22776D02*
X65848Y-22807D01*
X65848Y-22807D02*
X65864Y-22836D01*
X65864Y-22836D02*
X65886Y-22860D01*
X65886Y-22860D02*
X65913Y-22880D01*
X65913Y-22880D02*
X65943Y-22893D01*
X65943Y-22893D02*
X65975Y-22900D01*
X65975Y-22900D02*
X66009Y-22900D01*
X66009Y-22900D02*
X66041Y-22893D01*
X66041Y-22893D02*
X66071Y-22880D01*
X66071Y-22880D02*
X66098Y-22860D01*
X66098Y-22860D02*
X66120Y-22836D01*
X66120Y-22836D02*
X66136Y-22807D01*
X66136Y-22807D02*
X66147Y-22776D01*
X66147Y-22776D02*
X66150Y-22743D01*
X66150Y-22743D02*
X66147Y-22710D01*
X66147Y-22710D02*
X66136Y-22679D01*
X66136Y-22679D02*
X66120Y-22650D01*
X66120Y-22650D02*
X66098Y-22626D01*
X66098Y-22626D02*
X66071Y-22606D01*
X66071Y-22606D02*
X66041Y-22593D01*
X66041Y-22593D02*
X66009Y-22586D01*
X66009Y-22586D02*
X65992Y-22585D01*
X65716Y-22586D02*
X65683Y-22589D01*
X65683Y-22589D02*
X65652Y-22600D01*
X65652Y-22600D02*
X65624Y-22616D01*
X65624Y-22616D02*
X65599Y-22638D01*
X65599Y-22638D02*
X65580Y-22664D01*
X65580Y-22664D02*
X65567Y-22694D01*
X65567Y-22694D02*
X65560Y-22727D01*
X65560Y-22727D02*
X65560Y-22759D01*
X65560Y-22759D02*
X65567Y-22792D01*
X65567Y-22792D02*
X65580Y-22822D01*
X65580Y-22822D02*
X65599Y-22848D01*
X65599Y-22848D02*
X65624Y-22870D01*
X65624Y-22870D02*
X65652Y-22886D01*
X65652Y-22886D02*
X65683Y-22897D01*
X65683Y-22897D02*
X65716Y-22900D01*
X65716Y-22900D02*
X65749Y-22897D01*
X65749Y-22897D02*
X65780Y-22886D01*
X65780Y-22886D02*
X65808Y-22870D01*
X65808Y-22870D02*
X65833Y-22848D01*
X65833Y-22848D02*
X65852Y-22822D01*
X65852Y-22822D02*
X65865Y-22792D01*
X65865Y-22792D02*
X65872Y-22759D01*
X65872Y-22759D02*
X65872Y-22727D01*
X65872Y-22727D02*
X65865Y-22694D01*
X65865Y-22694D02*
X65852Y-22664D01*
X65852Y-22664D02*
X65833Y-22638D01*
X65833Y-22638D02*
X65808Y-22616D01*
X65808Y-22616D02*
X65780Y-22600D01*
X65780Y-22600D02*
X65749Y-22589D01*
X65749Y-22589D02*
X65716Y-22586D01*
X65716Y-22586D02*
X65683Y-22589D01*
X65683Y-22589D02*
X65652Y-22600D01*
X65652Y-22600D02*
X65624Y-22616D01*
X65624Y-22616D02*
X65599Y-22638D01*
X65599Y-22638D02*
X65580Y-22664D01*
X65580Y-22664D02*
X65567Y-22694D01*
X65567Y-22694D02*
X65560Y-22727D01*
X65560Y-22727D02*
X65559Y-22743D01*
X65008Y-23688D02*
X65011Y-23721D01*
X65011Y-23721D02*
X65022Y-23752D01*
X65022Y-23752D02*
X65038Y-23780D01*
X65038Y-23780D02*
X65060Y-23805D01*
X65060Y-23805D02*
X65086Y-23824D01*
X65086Y-23824D02*
X65116Y-23837D01*
X65116Y-23837D02*
X65149Y-23844D01*
X65149Y-23844D02*
X65181Y-23844D01*
X65181Y-23844D02*
X65214Y-23837D01*
X65214Y-23837D02*
X65244Y-23824D01*
X65244Y-23824D02*
X65270Y-23805D01*
X65270Y-23805D02*
X65292Y-23780D01*
X65292Y-23780D02*
X65308Y-23752D01*
X65308Y-23752D02*
X65319Y-23721D01*
X65319Y-23721D02*
X65322Y-23688D01*
X65322Y-23688D02*
X65319Y-23655D01*
X65319Y-23655D02*
X65308Y-23624D01*
X65308Y-23624D02*
X65292Y-23596D01*
X65292Y-23596D02*
X65270Y-23571D01*
X65270Y-23571D02*
X65244Y-23552D01*
X65244Y-23552D02*
X65214Y-23539D01*
X65214Y-23539D02*
X65181Y-23532D01*
X65181Y-23532D02*
X65149Y-23532D01*
X65149Y-23532D02*
X65116Y-23539D01*
X65116Y-23539D02*
X65086Y-23552D01*
X65086Y-23552D02*
X65060Y-23571D01*
X65060Y-23571D02*
X65038Y-23596D01*
X65038Y-23596D02*
X65022Y-23624D01*
X65022Y-23624D02*
X65011Y-23655D01*
X65011Y-23655D02*
X65008Y-23688D01*
X65008Y-23688D02*
X65011Y-23721D01*
X65011Y-23721D02*
X65022Y-23752D01*
X65022Y-23752D02*
X65038Y-23780D01*
X65038Y-23780D02*
X65060Y-23805D01*
X65060Y-23805D02*
X65086Y-23824D01*
X65086Y-23824D02*
X65116Y-23837D01*
X65116Y-23837D02*
X65149Y-23844D01*
X65149Y-23844D02*
X65165Y-23845D01*
X65441Y-23845D02*
X65474Y-23842D01*
X65474Y-23842D02*
X65505Y-23831D01*
X65505Y-23831D02*
X65533Y-23815D01*
X65533Y-23815D02*
X65558Y-23793D01*
X65558Y-23793D02*
X65577Y-23767D01*
X65577Y-23767D02*
X65590Y-23737D01*
X65590Y-23737D02*
X65597Y-23704D01*
X65597Y-23704D02*
X65597Y-23672D01*
X65597Y-23672D02*
X65590Y-23639D01*
X65590Y-23639D02*
X65577Y-23609D01*
X65577Y-23609D02*
X65558Y-23583D01*
X65558Y-23583D02*
X65533Y-23561D01*
X65533Y-23561D02*
X65505Y-23545D01*
X65505Y-23545D02*
X65474Y-23534D01*
X65474Y-23534D02*
X65441Y-23531D01*
X65441Y-23531D02*
X65408Y-23534D01*
X65408Y-23534D02*
X65377Y-23545D01*
X65377Y-23545D02*
X65349Y-23561D01*
X65349Y-23561D02*
X65324Y-23583D01*
X65324Y-23583D02*
X65305Y-23609D01*
X65305Y-23609D02*
X65292Y-23639D01*
X65292Y-23639D02*
X65285Y-23672D01*
X65285Y-23672D02*
X65285Y-23704D01*
X65285Y-23704D02*
X65292Y-23737D01*
X65292Y-23737D02*
X65305Y-23767D01*
X65305Y-23767D02*
X65324Y-23793D01*
X65324Y-23793D02*
X65349Y-23815D01*
X65349Y-23815D02*
X65377Y-23831D01*
X65377Y-23831D02*
X65408Y-23842D01*
X65408Y-23842D02*
X65441Y-23845D01*
X65441Y-23845D02*
X65474Y-23842D01*
X65474Y-23842D02*
X65505Y-23831D01*
X65505Y-23831D02*
X65533Y-23815D01*
X65533Y-23815D02*
X65558Y-23793D01*
X65558Y-23793D02*
X65577Y-23767D01*
X65577Y-23767D02*
X65590Y-23737D01*
X65590Y-23737D02*
X65597Y-23704D01*
X65597Y-23704D02*
X65598Y-23688D01*
X65599Y-23688D02*
X65596Y-23655D01*
X65596Y-23655D02*
X65585Y-23624D01*
X65585Y-23624D02*
X65569Y-23595D01*
X65569Y-23595D02*
X65547Y-23571D01*
X65547Y-23571D02*
X65520Y-23551D01*
X65520Y-23551D02*
X65490Y-23538D01*
X65490Y-23538D02*
X65458Y-23531D01*
X65458Y-23531D02*
X65424Y-23531D01*
X65424Y-23531D02*
X65392Y-23538D01*
X65392Y-23538D02*
X65362Y-23551D01*
X65362Y-23551D02*
X65335Y-23571D01*
X65335Y-23571D02*
X65313Y-23595D01*
X65313Y-23595D02*
X65297Y-23624D01*
X65297Y-23624D02*
X65286Y-23655D01*
X65286Y-23655D02*
X65283Y-23688D01*
X65283Y-23688D02*
X65286Y-23721D01*
X65286Y-23721D02*
X65297Y-23752D01*
X65297Y-23752D02*
X65313Y-23781D01*
X65313Y-23781D02*
X65335Y-23805D01*
X65335Y-23805D02*
X65362Y-23825D01*
X65362Y-23825D02*
X65392Y-23838D01*
X65392Y-23838D02*
X65424Y-23845D01*
X65424Y-23845D02*
X65458Y-23845D01*
X65458Y-23845D02*
X65490Y-23838D01*
X65490Y-23838D02*
X65520Y-23825D01*
X65520Y-23825D02*
X65547Y-23805D01*
X65547Y-23805D02*
X65569Y-23781D01*
X65569Y-23781D02*
X65585Y-23752D01*
X65585Y-23752D02*
X65596Y-23721D01*
X65596Y-23721D02*
X65599Y-23688D01*
X65599Y-23688D02*
X65596Y-23655D01*
X65596Y-23655D02*
X65585Y-23624D01*
X65585Y-23624D02*
X65569Y-23595D01*
X65569Y-23595D02*
X65547Y-23571D01*
X65547Y-23571D02*
X65520Y-23551D01*
X65520Y-23551D02*
X65490Y-23538D01*
X65490Y-23538D02*
X65458Y-23531D01*
X65458Y-23531D02*
X65441Y-23530D01*
X65165Y-23531D02*
X65132Y-23534D01*
X65132Y-23534D02*
X65101Y-23545D01*
X65101Y-23545D02*
X65073Y-23561D01*
X65073Y-23561D02*
X65048Y-23583D01*
X65048Y-23583D02*
X65029Y-23609D01*
X65029Y-23609D02*
X65016Y-23639D01*
X65016Y-23639D02*
X65009Y-23672D01*
X65009Y-23672D02*
X65009Y-23704D01*
X65009Y-23704D02*
X65016Y-23737D01*
X65016Y-23737D02*
X65029Y-23767D01*
X65029Y-23767D02*
X65048Y-23793D01*
X65048Y-23793D02*
X65073Y-23815D01*
X65073Y-23815D02*
X65101Y-23831D01*
X65101Y-23831D02*
X65132Y-23842D01*
X65132Y-23842D02*
X65165Y-23845D01*
X65165Y-23845D02*
X65198Y-23842D01*
X65198Y-23842D02*
X65229Y-23831D01*
X65229Y-23831D02*
X65257Y-23815D01*
X65257Y-23815D02*
X65282Y-23793D01*
X65282Y-23793D02*
X65301Y-23767D01*
X65301Y-23767D02*
X65314Y-23737D01*
X65314Y-23737D02*
X65321Y-23704D01*
X65321Y-23704D02*
X65321Y-23672D01*
X65321Y-23672D02*
X65314Y-23639D01*
X65314Y-23639D02*
X65301Y-23609D01*
X65301Y-23609D02*
X65282Y-23583D01*
X65282Y-23583D02*
X65257Y-23561D01*
X65257Y-23561D02*
X65229Y-23545D01*
X65229Y-23545D02*
X65198Y-23534D01*
X65198Y-23534D02*
X65165Y-23531D01*
X65165Y-23531D02*
X65132Y-23534D01*
X65132Y-23534D02*
X65101Y-23545D01*
X65101Y-23545D02*
X65073Y-23561D01*
X65073Y-23561D02*
X65048Y-23583D01*
X65048Y-23583D02*
X65029Y-23609D01*
X65029Y-23609D02*
X65016Y-23639D01*
X65016Y-23639D02*
X65009Y-23672D01*
X65009Y-23672D02*
X65008Y-23688D01*
G54D39*
X55200Y-26350D02*
X55850Y-26350D01*
X55850Y-28850D02*
X55200Y-28850D01*
X55850Y-28700D02*
X54850Y-28700D01*
X54850Y-28700D02*
X54600Y-28350D01*
X54600Y-28350D02*
X54850Y-27850D01*
X54850Y-27850D02*
X55350Y-27850D01*
X55350Y-27850D02*
X55350Y-28100D01*
X55350Y-28100D02*
X55850Y-28100D01*
X55850Y-27100D02*
X55350Y-27100D01*
X55350Y-27100D02*
X55350Y-27350D01*
X55350Y-27350D02*
X54850Y-27350D01*
X54850Y-27350D02*
X54600Y-26850D01*
X54600Y-26850D02*
X54850Y-26500D01*
X54850Y-26500D02*
X55850Y-26500D01*
X55850Y-28850D02*
X55850Y-26350D01*
X53050Y-27250D02*
X53450Y-27650D01*
X53450Y-27650D02*
X53300Y-27800D01*
X53300Y-27800D02*
X53600Y-27800D01*
X53600Y-27800D02*
X53950Y-28150D01*
X53250Y-27050D02*
X53650Y-27450D01*
X53650Y-27450D02*
X53800Y-27300D01*
X53800Y-27300D02*
X53800Y-27600D01*
X53800Y-27600D02*
X54150Y-27950D01*
G54D40*
X54100Y-27600D02*
X54089Y-27703D01*
X54089Y-27703D02*
X54056Y-27803D01*
X54056Y-27803D02*
X54004Y-27893D01*
X54004Y-27893D02*
X53934Y-27971D01*
X53934Y-27971D02*
X53850Y-28033D01*
X53850Y-28033D02*
X53754Y-28075D01*
X53754Y-28075D02*
X53652Y-28097D01*
X53652Y-28097D02*
X53548Y-28097D01*
X53548Y-28097D02*
X53446Y-28075D01*
X53446Y-28075D02*
X53350Y-28033D01*
X53350Y-28033D02*
X53266Y-27971D01*
X53266Y-27971D02*
X53196Y-27893D01*
X53196Y-27893D02*
X53144Y-27803D01*
X53144Y-27803D02*
X53111Y-27703D01*
X53111Y-27703D02*
X53100Y-27600D01*
X53100Y-27600D02*
X53111Y-27497D01*
X53111Y-27497D02*
X53144Y-27397D01*
X53144Y-27397D02*
X53196Y-27307D01*
X53196Y-27307D02*
X53266Y-27229D01*
X53266Y-27229D02*
X53350Y-27167D01*
X53350Y-27167D02*
X53446Y-27125D01*
X53446Y-27125D02*
X53548Y-27103D01*
X53548Y-27103D02*
X53652Y-27103D01*
X53652Y-27103D02*
X53754Y-27125D01*
X53754Y-27125D02*
X53850Y-27167D01*
X53850Y-27167D02*
X53934Y-27229D01*
X53934Y-27229D02*
X54004Y-27307D01*
X54004Y-27307D02*
X54056Y-27397D01*
X54056Y-27397D02*
X54089Y-27497D01*
X54089Y-27497D02*
X54100Y-27600D01*
G54D41*
X54377Y-27600D02*
X54360Y-27761D01*
X54360Y-27761D02*
X54309Y-27916D01*
X54309Y-27916D02*
X54228Y-28056D01*
X54228Y-28056D02*
X54119Y-28177D01*
X54119Y-28177D02*
X53988Y-28272D01*
X53988Y-28272D02*
X53840Y-28338D01*
X53840Y-28338D02*
X53681Y-28372D01*
X53681Y-28372D02*
X53519Y-28372D01*
X53519Y-28372D02*
X53360Y-28338D01*
X53360Y-28338D02*
X53212Y-28272D01*
X53212Y-28272D02*
X53081Y-28177D01*
X53081Y-28177D02*
X52972Y-28056D01*
X52972Y-28056D02*
X52891Y-27916D01*
X52891Y-27916D02*
X52840Y-27761D01*
X52840Y-27761D02*
X52823Y-27600D01*
X52823Y-27600D02*
X52840Y-27439D01*
X52840Y-27439D02*
X52891Y-27284D01*
X52891Y-27284D02*
X52972Y-27144D01*
X52972Y-27144D02*
X53081Y-27023D01*
X53081Y-27023D02*
X53212Y-26928D01*
X53212Y-26928D02*
X53360Y-26862D01*
X53360Y-26862D02*
X53519Y-26828D01*
X53519Y-26828D02*
X53681Y-26828D01*
X53681Y-26828D02*
X53840Y-26862D01*
X53840Y-26862D02*
X53988Y-26928D01*
X53988Y-26928D02*
X54119Y-27023D01*
X54119Y-27023D02*
X54228Y-27144D01*
X54228Y-27144D02*
X54309Y-27284D01*
X54309Y-27284D02*
X54360Y-27439D01*
X54360Y-27439D02*
X54377Y-27600D01*
G54D39*
X55198Y-26348D02*
X54900Y-26012D01*
X54900Y-26012D02*
X54538Y-25746D01*
X54538Y-25746D02*
X54129Y-25560D01*
X54129Y-25560D02*
X53690Y-25463D01*
X53690Y-25463D02*
X53240Y-25460D01*
X53240Y-25460D02*
X52800Y-25551D01*
X52800Y-25551D02*
X52388Y-25731D01*
X52388Y-25731D02*
X52023Y-25992D01*
X52023Y-25992D02*
X51719Y-26324D01*
X51719Y-26324D02*
X51492Y-26712D01*
X51492Y-26712D02*
X51350Y-27138D01*
X51350Y-27138D02*
X51300Y-27585D01*
X51300Y-27585D02*
X51344Y-28032D01*
X51344Y-28032D02*
X51480Y-28461D01*
X51480Y-28461D02*
X51702Y-28852D01*
X51702Y-28852D02*
X52000Y-29188D01*
X52000Y-29188D02*
X52362Y-29454D01*
X52362Y-29454D02*
X52771Y-29640D01*
X52771Y-29640D02*
X53210Y-29737D01*
X53210Y-29737D02*
X53660Y-29740D01*
X53660Y-29740D02*
X54100Y-29649D01*
X54100Y-29649D02*
X54512Y-29469D01*
X54512Y-29469D02*
X54877Y-29208D01*
X54877Y-29208D02*
X55181Y-28876D01*
X55181Y-28876D02*
X55408Y-28488D01*
X55408Y-28488D02*
X55550Y-28062D01*
X55550Y-28062D02*
X55600Y-27615D01*
X55600Y-27615D02*
X55556Y-27168D01*
X55556Y-27168D02*
X55420Y-26739D01*
X55420Y-26739D02*
X55198Y-26348D01*
X55198Y-26348D02*
X54900Y-26012D01*
X54900Y-26012D02*
X54538Y-25746D01*
X54538Y-25746D02*
X54129Y-25560D01*
X54129Y-25560D02*
X53690Y-25463D01*
X53690Y-25463D02*
X53240Y-25460D01*
X53240Y-25460D02*
X52800Y-25551D01*
X52800Y-25551D02*
X52388Y-25731D01*
X52388Y-25731D02*
X52023Y-25992D01*
X52023Y-25992D02*
X51719Y-26324D01*
X51719Y-26324D02*
X51492Y-26712D01*
X51492Y-26712D02*
X51350Y-27138D01*
X51350Y-27138D02*
X51300Y-27585D01*
X51300Y-27585D02*
X51344Y-28032D01*
X51344Y-28032D02*
X51480Y-28461D01*
X51480Y-28461D02*
X51702Y-28852D01*
X51702Y-28852D02*
X52000Y-29188D01*
X52000Y-29188D02*
X52362Y-29454D01*
X52362Y-29454D02*
X52771Y-29640D01*
X52771Y-29640D02*
X53210Y-29737D01*
X53210Y-29737D02*
X53660Y-29740D01*
X53660Y-29740D02*
X54100Y-29649D01*
X54100Y-29649D02*
X54512Y-29469D01*
X54512Y-29469D02*
X54877Y-29208D01*
X54877Y-29208D02*
X55181Y-28876D01*
X55181Y-28876D02*
X55200Y-28849D01*
X65000Y-17850D02*
X64350Y-17850D01*
X64350Y-15350D02*
X65000Y-15350D01*
X64350Y-15500D02*
X65350Y-15500D01*
X65350Y-15500D02*
X65600Y-15850D01*
X65600Y-15850D02*
X65350Y-16350D01*
X65350Y-16350D02*
X64850Y-16350D01*
X64850Y-16350D02*
X64850Y-16100D01*
X64850Y-16100D02*
X64350Y-16100D01*
X64350Y-17100D02*
X64850Y-17100D01*
X64850Y-17100D02*
X64850Y-16850D01*
X64850Y-16850D02*
X65350Y-16850D01*
X65350Y-16850D02*
X65600Y-17350D01*
X65600Y-17350D02*
X65350Y-17700D01*
X65350Y-17700D02*
X64350Y-17700D01*
X64350Y-15350D02*
X64350Y-17850D01*
X67150Y-16950D02*
X66750Y-16550D01*
X66750Y-16550D02*
X66900Y-16400D01*
X66900Y-16400D02*
X66600Y-16400D01*
X66600Y-16400D02*
X66250Y-16050D01*
X66950Y-17150D02*
X66550Y-16750D01*
X66550Y-16750D02*
X66400Y-16900D01*
X66400Y-16900D02*
X66400Y-16600D01*
X66400Y-16600D02*
X66050Y-16250D01*
G54D40*
X67100Y-16600D02*
X67089Y-16703D01*
X67089Y-16703D02*
X67056Y-16803D01*
X67056Y-16803D02*
X67004Y-16893D01*
X67004Y-16893D02*
X66934Y-16971D01*
X66934Y-16971D02*
X66850Y-17033D01*
X66850Y-17033D02*
X66754Y-17075D01*
X66754Y-17075D02*
X66652Y-17097D01*
X66652Y-17097D02*
X66548Y-17097D01*
X66548Y-17097D02*
X66446Y-17075D01*
X66446Y-17075D02*
X66350Y-17033D01*
X66350Y-17033D02*
X66266Y-16971D01*
X66266Y-16971D02*
X66196Y-16893D01*
X66196Y-16893D02*
X66144Y-16803D01*
X66144Y-16803D02*
X66111Y-16703D01*
X66111Y-16703D02*
X66100Y-16600D01*
X66100Y-16600D02*
X66111Y-16497D01*
X66111Y-16497D02*
X66144Y-16397D01*
X66144Y-16397D02*
X66196Y-16307D01*
X66196Y-16307D02*
X66266Y-16229D01*
X66266Y-16229D02*
X66350Y-16167D01*
X66350Y-16167D02*
X66446Y-16125D01*
X66446Y-16125D02*
X66548Y-16103D01*
X66548Y-16103D02*
X66652Y-16103D01*
X66652Y-16103D02*
X66754Y-16125D01*
X66754Y-16125D02*
X66850Y-16167D01*
X66850Y-16167D02*
X66934Y-16229D01*
X66934Y-16229D02*
X67004Y-16307D01*
X67004Y-16307D02*
X67056Y-16397D01*
X67056Y-16397D02*
X67089Y-16497D01*
X67089Y-16497D02*
X67100Y-16600D01*
G54D41*
X67377Y-16600D02*
X67360Y-16761D01*
X67360Y-16761D02*
X67309Y-16916D01*
X67309Y-16916D02*
X67228Y-17056D01*
X67228Y-17056D02*
X67119Y-17177D01*
X67119Y-17177D02*
X66988Y-17272D01*
X66988Y-17272D02*
X66840Y-17338D01*
X66840Y-17338D02*
X66681Y-17372D01*
X66681Y-17372D02*
X66519Y-17372D01*
X66519Y-17372D02*
X66360Y-17338D01*
X66360Y-17338D02*
X66212Y-17272D01*
X66212Y-17272D02*
X66081Y-17177D01*
X66081Y-17177D02*
X65972Y-17056D01*
X65972Y-17056D02*
X65891Y-16916D01*
X65891Y-16916D02*
X65840Y-16761D01*
X65840Y-16761D02*
X65823Y-16600D01*
X65823Y-16600D02*
X65840Y-16439D01*
X65840Y-16439D02*
X65891Y-16284D01*
X65891Y-16284D02*
X65972Y-16144D01*
X65972Y-16144D02*
X66081Y-16023D01*
X66081Y-16023D02*
X66212Y-15928D01*
X66212Y-15928D02*
X66360Y-15862D01*
X66360Y-15862D02*
X66519Y-15828D01*
X66519Y-15828D02*
X66681Y-15828D01*
X66681Y-15828D02*
X66840Y-15862D01*
X66840Y-15862D02*
X66988Y-15928D01*
X66988Y-15928D02*
X67119Y-16023D01*
X67119Y-16023D02*
X67228Y-16144D01*
X67228Y-16144D02*
X67309Y-16284D01*
X67309Y-16284D02*
X67360Y-16439D01*
X67360Y-16439D02*
X67377Y-16600D01*
G54D39*
X65002Y-17852D02*
X65300Y-18188D01*
X65300Y-18188D02*
X65662Y-18454D01*
X65662Y-18454D02*
X66071Y-18640D01*
X66071Y-18640D02*
X66510Y-18737D01*
X66510Y-18737D02*
X66960Y-18740D01*
X66960Y-18740D02*
X67400Y-18649D01*
X67400Y-18649D02*
X67812Y-18469D01*
X67812Y-18469D02*
X68177Y-18208D01*
X68177Y-18208D02*
X68481Y-17876D01*
X68481Y-17876D02*
X68708Y-17488D01*
X68708Y-17488D02*
X68850Y-17062D01*
X68850Y-17062D02*
X68900Y-16615D01*
X68900Y-16615D02*
X68856Y-16168D01*
X68856Y-16168D02*
X68720Y-15739D01*
X68720Y-15739D02*
X68498Y-15348D01*
X68498Y-15348D02*
X68200Y-15012D01*
X68200Y-15012D02*
X67838Y-14746D01*
X67838Y-14746D02*
X67429Y-14560D01*
X67429Y-14560D02*
X66990Y-14463D01*
X66990Y-14463D02*
X66540Y-14460D01*
X66540Y-14460D02*
X66100Y-14551D01*
X66100Y-14551D02*
X65688Y-14731D01*
X65688Y-14731D02*
X65323Y-14992D01*
X65323Y-14992D02*
X65019Y-15324D01*
X65019Y-15324D02*
X64792Y-15712D01*
X64792Y-15712D02*
X64650Y-16138D01*
X64650Y-16138D02*
X64600Y-16585D01*
X64600Y-16585D02*
X64644Y-17032D01*
X64644Y-17032D02*
X64780Y-17461D01*
X64780Y-17461D02*
X65002Y-17852D01*
X65002Y-17852D02*
X65300Y-18188D01*
X65300Y-18188D02*
X65662Y-18454D01*
X65662Y-18454D02*
X66071Y-18640D01*
X66071Y-18640D02*
X66510Y-18737D01*
X66510Y-18737D02*
X66960Y-18740D01*
X66960Y-18740D02*
X67400Y-18649D01*
X67400Y-18649D02*
X67812Y-18469D01*
X67812Y-18469D02*
X68177Y-18208D01*
X68177Y-18208D02*
X68481Y-17876D01*
X68481Y-17876D02*
X68708Y-17488D01*
X68708Y-17488D02*
X68850Y-17062D01*
X68850Y-17062D02*
X68900Y-16615D01*
X68900Y-16615D02*
X68856Y-16168D01*
X68856Y-16168D02*
X68720Y-15739D01*
X68720Y-15739D02*
X68498Y-15348D01*
X68498Y-15348D02*
X68200Y-15012D01*
X68200Y-15012D02*
X67838Y-14746D01*
X67838Y-14746D02*
X67429Y-14560D01*
X67429Y-14560D02*
X66990Y-14463D01*
X66990Y-14463D02*
X66540Y-14460D01*
X66540Y-14460D02*
X66100Y-14551D01*
X66100Y-14551D02*
X65688Y-14731D01*
X65688Y-14731D02*
X65323Y-14992D01*
X65323Y-14992D02*
X65019Y-15324D01*
X65019Y-15324D02*
X65000Y-15351D01*
G54D23*
X56500Y-33500D02*
X56475Y-33543D01*
X56475Y-33543D02*
X56425Y-33543D01*
X56425Y-33543D02*
X56400Y-33500D01*
X56400Y-33500D02*
X56425Y-33457D01*
X56425Y-33457D02*
X56475Y-33457D01*
X56475Y-33457D02*
X56500Y-33500D01*
X56000Y-33500D02*
X56400Y-33500D01*
X56400Y-33500D02*
X56400Y-34100D01*
X56400Y-34100D02*
X56000Y-34100D01*
X55600Y-34100D02*
X55200Y-34100D01*
X55200Y-34100D02*
X55200Y-33500D01*
X55200Y-33500D02*
X55600Y-33500D01*
X56350Y-16850D02*
X56325Y-16893D01*
X56325Y-16893D02*
X56275Y-16893D01*
X56275Y-16893D02*
X56250Y-16850D01*
X56250Y-16850D02*
X56275Y-16807D01*
X56275Y-16807D02*
X56325Y-16807D01*
X56325Y-16807D02*
X56350Y-16850D01*
X55850Y-16850D02*
X56250Y-16850D01*
X56250Y-16850D02*
X56250Y-17450D01*
X56250Y-17450D02*
X55850Y-17450D01*
X55450Y-17450D02*
X55050Y-17450D01*
X55050Y-17450D02*
X55050Y-16850D01*
X55050Y-16850D02*
X55450Y-16850D01*
M02*
