G04 (Genere par PCBNEW (2007-11-29-a)) le 23/5/2012-13:51:02*
G01*
G70*
G90*
%MOIN*%
G04 Gerber Fmt 3.4, Leading zero omitted, Abs format*
%FSLAX34Y34*%
G04 APERTURE LIST*
%ADD10R,0.138100X0.138100*%
%ADD11C,0.078700*%
%ADD12C,0.052000*%
%ADD13O,0.086200X0.102400*%
%ADD14O,0.102400X0.086200*%
%ADD15R,0.055000X0.059100*%
%ADD16C,0.059100*%
%ADD17C,0.082700*%
%ADD18O,0.094500X0.082700*%
%ADD19C,0.074800*%
%ADD20C,0.045000*%
%ADD21C,0.031500*%
%ADD22C,0.031000*%
%ADD23C,0.005000*%
%ADD24R,0.020000X0.045000*%
%ADD25R,0.060000X0.080000*%
%ADD26R,0.080000X0.060000*%
%ADD27R,0.055000X0.035000*%
%ADD28R,0.035000X0.055000*%
%ADD29R,0.050000X0.016000*%
%ADD30R,0.118100X0.118100*%
%ADD31C,0.118100*%
%ADD32C,0.020000*%
%ADD33C,0.017000*%
%ADD34C,0.022000*%
%ADD35C,0.015000*%
%ADD36C,0.000900*%
%ADD37C,0.000100*%
%ADD38C,0.008000*%
%ADD39C,0.006000*%
%ADD40C,0.003000*%
%ADD41C,0.001000*%
%ADD42C,0.098700*%
%ADD43C,0.072000*%
%ADD44O,0.106200X0.122400*%
%ADD45O,0.122400X0.106200*%
%ADD46R,0.075000X0.079100*%
%ADD47C,0.079100*%
%ADD48C,0.102700*%
%ADD49O,0.114500X0.102700*%
%ADD50C,0.094800*%
%ADD51R,0.040000X0.065000*%
%ADD52R,0.080000X0.100000*%
%ADD53R,0.100000X0.080000*%
%ADD54R,0.075000X0.055000*%
%ADD55R,0.055000X0.075000*%
%ADD56R,0.070000X0.036000*%
%ADD57R,0.138100X0.138100*%
%ADD58R,0.078700X0.078700*%
%ADD59R,0.098700X0.098700*%
G04 APERTURE END LIST*
G54D10*
X59600Y-16500D03*
G54D59*
X53800Y-17200D03*
G54D42*
X51800Y-17200D03*
G54D43*
X65625Y-33722D03*
X66413Y-33722D03*
X67184Y-33722D03*
G54D44*
X63562Y-34116D03*
X69271Y-34116D03*
G54D43*
X57910Y-27863D03*
X57910Y-27075D03*
X57910Y-26304D03*
G54D45*
X58304Y-29926D03*
X58304Y-24217D03*
G54D51*
X54158Y-23518D03*
X53658Y-23518D03*
X53158Y-23518D03*
X52658Y-23518D03*
X52658Y-21018D03*
X53158Y-21018D03*
X53658Y-21018D03*
X54158Y-21018D03*
X54568Y-30170D03*
X55068Y-30170D03*
X55568Y-30170D03*
X56068Y-30170D03*
X56068Y-32670D03*
X55568Y-32670D03*
X55068Y-32670D03*
X54568Y-32670D03*
X59750Y-22950D03*
X59250Y-22950D03*
X58750Y-22950D03*
X58250Y-22950D03*
X58250Y-20450D03*
X58750Y-20450D03*
X59250Y-20450D03*
X59750Y-20450D03*
G54D52*
X51650Y-19800D03*
X52950Y-19800D03*
G54D53*
X61800Y-24050D03*
X61800Y-25350D03*
X61800Y-27850D03*
X61800Y-26550D03*
G54D52*
X61850Y-29500D03*
X60550Y-29500D03*
G54D53*
X53432Y-31954D03*
X53432Y-30654D03*
G54D54*
X55100Y-22125D03*
X55100Y-22875D03*
X51900Y-22775D03*
X51900Y-22025D03*
X57100Y-31125D03*
X57100Y-31875D03*
X59600Y-17675D03*
X59600Y-16925D03*
G54D55*
X58675Y-18500D03*
X57925Y-18500D03*
X61925Y-18800D03*
X62675Y-18800D03*
X62175Y-16600D03*
X61425Y-16600D03*
G54D54*
X60600Y-21925D03*
X60600Y-22675D03*
G54D55*
X53725Y-19800D03*
X54475Y-19800D03*
G54D54*
X58200Y-31625D03*
X58200Y-32375D03*
G54D55*
X52175Y-18400D03*
X51425Y-18400D03*
X53625Y-18400D03*
X54375Y-18400D03*
X53725Y-24600D03*
X54475Y-24600D03*
G54D54*
X56000Y-22875D03*
X56000Y-22125D03*
G54D55*
X53075Y-24600D03*
X52325Y-24600D03*
G54D54*
X57100Y-32625D03*
X57100Y-33375D03*
G54D55*
X62875Y-19800D03*
X62125Y-19800D03*
X60075Y-18500D03*
X59325Y-18500D03*
X60825Y-19800D03*
X61575Y-19800D03*
X61575Y-20600D03*
X60825Y-20600D03*
X58675Y-19500D03*
X57925Y-19500D03*
X60075Y-19500D03*
X59325Y-19500D03*
X55425Y-34700D03*
X56175Y-34700D03*
G54D54*
X59100Y-32375D03*
X59100Y-31625D03*
G54D46*
X50600Y-22100D03*
G54D47*
X50600Y-23100D03*
G54D56*
X62675Y-17925D03*
X60925Y-17925D03*
X60925Y-17675D03*
X62675Y-17425D03*
X62675Y-18175D03*
X60925Y-17425D03*
X60925Y-18175D03*
X62675Y-17675D03*
G54D48*
X68374Y-28559D02*
X68374Y-28441D01*
G54D49*
X67075Y-26709D03*
X65303Y-30488D03*
G54D48*
X64043Y-26985D02*
X64043Y-26867D01*
G54D49*
X65854Y-29543D03*
G54D48*
X68374Y-21759D02*
X68374Y-21641D01*
G54D49*
X67075Y-19909D03*
X65303Y-23688D03*
G54D48*
X64043Y-20185D02*
X64043Y-20067D01*
G54D49*
X65854Y-22743D03*
G54D50*
X55600Y-28600D03*
X55600Y-26600D03*
X51600Y-27600D03*
X64600Y-15600D03*
X64600Y-17600D03*
X68600Y-16600D03*
G54D55*
X56175Y-33800D03*
X55425Y-33800D03*
X56025Y-17150D03*
X55275Y-17150D03*
M02*
