G04 (Genere par PCBNEW (2007-11-29-a)) le 23/5/2012-13:51:02*
G01*
G70*
G90*
%MOIN*%
G04 Gerber Fmt 3.4, Leading zero omitted, Abs format*
%FSLAX34Y34*%
G04 APERTURE LIST*
%ADD10R,0.118100X0.118100*%
%ADD11C,0.078700*%
%ADD12C,0.052000*%
%ADD13O,0.086200X0.102400*%
%ADD14O,0.102400X0.086200*%
%ADD15R,0.055000X0.059100*%
%ADD16C,0.059100*%
%ADD17C,0.082700*%
%ADD18O,0.094500X0.082700*%
%ADD19C,0.074800*%
%ADD20C,0.045000*%
%ADD21C,0.031500*%
%ADD22C,0.031000*%
%ADD23C,0.005000*%
%ADD24R,0.020000X0.045000*%
%ADD25R,0.060000X0.080000*%
%ADD26R,0.080000X0.060000*%
%ADD27R,0.055000X0.035000*%
%ADD28R,0.035000X0.055000*%
%ADD29R,0.050000X0.016000*%
%ADD30R,0.118100X0.118100*%
%ADD31C,0.118100*%
%ADD32C,0.020000*%
%ADD33C,0.017000*%
%ADD34C,0.022000*%
%ADD35C,0.015000*%
%ADD36C,0.000900*%
%ADD37C,0.000100*%
%ADD38C,0.008000*%
%ADD39C,0.006000*%
%ADD40C,0.003000*%
%ADD41C,0.001000*%
%ADD42C,0.098700*%
%ADD43C,0.072000*%
%ADD44O,0.106200X0.122400*%
%ADD45O,0.122400X0.106200*%
%ADD46R,0.075000X0.079100*%
%ADD47C,0.079100*%
%ADD48C,0.102700*%
%ADD49O,0.114500X0.102700*%
%ADD50C,0.094800*%
%ADD51R,0.040000X0.065000*%
%ADD52R,0.080000X0.100000*%
%ADD53R,0.100000X0.080000*%
%ADD54R,0.075000X0.055000*%
%ADD55R,0.055000X0.075000*%
%ADD56R,0.070000X0.036000*%
%ADD57R,0.138100X0.138100*%
%ADD58R,0.078700X0.078700*%
%ADD59R,0.098700X0.098700*%
G04 APERTURE END LIST*
G54D10*
X59600Y-16500D03*
X59600Y-09400D03*
G54D58*
X53800Y-17200D03*
G54D11*
X51800Y-17200D03*
G54D12*
X65625Y-33722D03*
X66413Y-33722D03*
X67184Y-33722D03*
G54D13*
X63562Y-34116D03*
X69271Y-34116D03*
G54D12*
X57910Y-27863D03*
X57910Y-27075D03*
X57910Y-26304D03*
G54D14*
X58304Y-29926D03*
X58304Y-24217D03*
G54D24*
X54158Y-23518D03*
X53658Y-23518D03*
X53158Y-23518D03*
X52658Y-23518D03*
X52658Y-21018D03*
X53158Y-21018D03*
X53658Y-21018D03*
X54158Y-21018D03*
X54568Y-30170D03*
X55068Y-30170D03*
X55568Y-30170D03*
X56068Y-30170D03*
X56068Y-32670D03*
X55568Y-32670D03*
X55068Y-32670D03*
X54568Y-32670D03*
X59750Y-22950D03*
X59250Y-22950D03*
X58750Y-22950D03*
X58250Y-22950D03*
X58250Y-20450D03*
X58750Y-20450D03*
X59250Y-20450D03*
X59750Y-20450D03*
G54D25*
X51650Y-19800D03*
X52950Y-19800D03*
G54D26*
X61800Y-24050D03*
X61800Y-25350D03*
X61800Y-27850D03*
X61800Y-26550D03*
G54D25*
X61850Y-29500D03*
X60550Y-29500D03*
G54D26*
X53432Y-31954D03*
X53432Y-30654D03*
G54D27*
X55100Y-22125D03*
X55100Y-22875D03*
X51900Y-22775D03*
X51900Y-22025D03*
X57100Y-31125D03*
X57100Y-31875D03*
X59600Y-17675D03*
X59600Y-16925D03*
G54D28*
X58675Y-18500D03*
X57925Y-18500D03*
X61925Y-18800D03*
X62675Y-18800D03*
X62175Y-16600D03*
X61425Y-16600D03*
G54D27*
X60600Y-21925D03*
X60600Y-22675D03*
G54D28*
X53725Y-19800D03*
X54475Y-19800D03*
G54D27*
X58200Y-31625D03*
X58200Y-32375D03*
G54D28*
X52175Y-18400D03*
X51425Y-18400D03*
X53625Y-18400D03*
X54375Y-18400D03*
X53725Y-24600D03*
X54475Y-24600D03*
G54D27*
X56000Y-22875D03*
X56000Y-22125D03*
G54D28*
X53075Y-24600D03*
X52325Y-24600D03*
G54D27*
X57100Y-32625D03*
X57100Y-33375D03*
G54D28*
X62875Y-19800D03*
X62125Y-19800D03*
X60075Y-18500D03*
X59325Y-18500D03*
X60825Y-19800D03*
X61575Y-19800D03*
X61575Y-20600D03*
X60825Y-20600D03*
X58675Y-19500D03*
X57925Y-19500D03*
X60075Y-19500D03*
X59325Y-19500D03*
X55425Y-34700D03*
X56175Y-34700D03*
G54D27*
X59100Y-32375D03*
X59100Y-31625D03*
G54D15*
X50600Y-22100D03*
G54D16*
X50600Y-23100D03*
G54D29*
X62675Y-17925D03*
X60925Y-17925D03*
X60925Y-17675D03*
X62675Y-17425D03*
X62675Y-18175D03*
X60925Y-17425D03*
X60925Y-18175D03*
X62675Y-17675D03*
G54D17*
X68374Y-28559D02*
X68374Y-28441D01*
G54D18*
X67075Y-26709D03*
X65303Y-30488D03*
G54D17*
X64043Y-26985D02*
X64043Y-26867D01*
G54D18*
X65854Y-29543D03*
G54D17*
X68374Y-21759D02*
X68374Y-21641D01*
G54D18*
X67075Y-19909D03*
X65303Y-23688D03*
G54D17*
X64043Y-20185D02*
X64043Y-20067D01*
G54D18*
X65854Y-22743D03*
G54D19*
X55600Y-28600D03*
X55600Y-26600D03*
X51600Y-27600D03*
X64600Y-15600D03*
X64600Y-17600D03*
X68600Y-16600D03*
G54D28*
X56175Y-33800D03*
X55425Y-33800D03*
X56025Y-17150D03*
X55275Y-17150D03*
G54D20*
X57050Y-20550D03*
X57000Y-19500D03*
X57000Y-21500D03*
X62750Y-22000D03*
X65000Y-19250D03*
X50250Y-19500D03*
X53000Y-22250D03*
X55050Y-21150D03*
X54600Y-19350D03*
X60800Y-26000D03*
X59800Y-21100D03*
X53100Y-25300D03*
X59500Y-26700D03*
X61500Y-17400D03*
X61200Y-18800D03*
X63400Y-19350D03*
X59100Y-30900D03*
X56900Y-28200D03*
X63400Y-18000D03*
G54D31*
X59600Y-16500D02*
X59600Y-09400D01*
G54D21*
X53800Y-17200D02*
X55225Y-17200D01*
X55225Y-17200D02*
X55275Y-17150D01*
G54D22*
X52175Y-18400D02*
X52175Y-17575D01*
X52175Y-17575D02*
X51800Y-17200D01*
G54D21*
X53158Y-21018D02*
X53158Y-20758D01*
X52175Y-18975D02*
X52175Y-19000D01*
X52175Y-19000D02*
X52175Y-18400D01*
X52300Y-19100D02*
X52175Y-18975D01*
X52300Y-20350D02*
X52300Y-19100D01*
X52400Y-20450D02*
X52300Y-20350D01*
X52850Y-20450D02*
X52400Y-20450D01*
X53158Y-20758D02*
X52850Y-20450D01*
X52175Y-19000D02*
X54100Y-19000D01*
X54375Y-18725D02*
X54375Y-18400D01*
X54100Y-19000D02*
X54375Y-18725D01*
X65303Y-30488D02*
X63988Y-30488D01*
X63000Y-29500D02*
X61850Y-29500D01*
X63988Y-30488D02*
X63000Y-29500D01*
X65625Y-33722D02*
X65625Y-30810D01*
X65625Y-30810D02*
X65303Y-30488D01*
X66413Y-33722D02*
X66413Y-34187D01*
X63275Y-32375D02*
X59100Y-32375D01*
X65200Y-34400D02*
X63275Y-32375D01*
X66400Y-34200D02*
X65200Y-34400D01*
X66413Y-34187D02*
X66400Y-34200D01*
X61800Y-27850D02*
X65250Y-27850D01*
X66391Y-26709D02*
X67075Y-26709D01*
X65250Y-27850D02*
X66391Y-26709D01*
X67184Y-33722D02*
X67184Y-26818D01*
X67184Y-26818D02*
X67075Y-26709D01*
X50600Y-23100D02*
X50700Y-24400D01*
X57347Y-27300D02*
X57910Y-27863D01*
X57300Y-27300D02*
X57347Y-27300D01*
X55900Y-25900D02*
X57300Y-27300D01*
X55400Y-25900D02*
X55900Y-25900D01*
X54850Y-26050D02*
X55400Y-25900D01*
X52400Y-26350D02*
X54850Y-26050D01*
X50700Y-24400D02*
X52400Y-26350D01*
X51900Y-22775D02*
X51900Y-24100D01*
X51900Y-24100D02*
X51700Y-24300D01*
X51700Y-24300D02*
X51700Y-24900D01*
X51700Y-24900D02*
X52600Y-25800D01*
X52600Y-25800D02*
X53400Y-25800D01*
X53400Y-25800D02*
X53725Y-25475D01*
X53725Y-25475D02*
X53725Y-25200D01*
X53725Y-25200D02*
X53725Y-24600D01*
X57910Y-27075D02*
X58225Y-27075D01*
X58225Y-27075D02*
X58700Y-26600D01*
X58700Y-26600D02*
X58800Y-26500D01*
X53725Y-25200D02*
X58900Y-25200D01*
X58900Y-25200D02*
X59000Y-25200D01*
X58800Y-25400D02*
X59000Y-25200D01*
X58800Y-26600D02*
X58800Y-25400D01*
X53432Y-30654D02*
X53432Y-30268D01*
X55568Y-29868D02*
X55568Y-30170D01*
X55300Y-29600D02*
X55568Y-29868D01*
X54100Y-29600D02*
X55300Y-29600D01*
X53432Y-30268D02*
X54100Y-29600D01*
X58200Y-31625D02*
X58200Y-31100D01*
X56700Y-29600D02*
X56400Y-29600D01*
X56400Y-29600D02*
X55300Y-29600D01*
X58200Y-31100D02*
X56700Y-29600D01*
X56400Y-29600D02*
X56400Y-29500D01*
X58800Y-27700D02*
X58800Y-26800D01*
X58800Y-26800D02*
X58800Y-26700D01*
X58000Y-28500D02*
X58800Y-27700D01*
X57400Y-28500D02*
X58000Y-28500D01*
X56400Y-29500D02*
X57400Y-28500D01*
X58800Y-26800D02*
X58800Y-26600D01*
X58800Y-26600D02*
X58800Y-26500D01*
X53725Y-19800D02*
X52950Y-19800D01*
X61575Y-19800D02*
X62125Y-19800D01*
X61300Y-19800D02*
X61575Y-19800D01*
G54D32*
X61200Y-19900D02*
X61300Y-19800D01*
X61200Y-21400D02*
X61200Y-19900D01*
G54D21*
X59750Y-22250D02*
X59750Y-22950D01*
X59750Y-22950D02*
X59750Y-24450D01*
X58900Y-25300D02*
X58900Y-25200D01*
X59750Y-24450D02*
X58900Y-25300D01*
X60500Y-21975D02*
X60625Y-21975D01*
X60625Y-21975D02*
X61200Y-21400D01*
X60500Y-21975D02*
X60025Y-21975D01*
X60025Y-21975D02*
X59750Y-22250D01*
X53625Y-18400D02*
X53625Y-18175D01*
X54000Y-20075D02*
X53725Y-19800D01*
X54000Y-20150D02*
X54000Y-20075D01*
X54200Y-20350D02*
X54000Y-20150D01*
X54300Y-20350D02*
X54200Y-20350D01*
X54350Y-20400D02*
X54300Y-20350D01*
X54800Y-20400D02*
X54350Y-20400D01*
X55050Y-20150D02*
X54800Y-20400D01*
X55050Y-18250D02*
X55050Y-20150D01*
X54650Y-17850D02*
X55050Y-18250D01*
X53950Y-17850D02*
X54650Y-17850D01*
X53625Y-18175D02*
X53950Y-17850D01*
X54800Y-20400D02*
X54800Y-20900D01*
X52525Y-22775D02*
X51900Y-22775D01*
X52600Y-22700D02*
X52525Y-22775D01*
X52600Y-22650D02*
X52600Y-22700D01*
X53000Y-22250D02*
X52600Y-22650D01*
X54800Y-20900D02*
X55050Y-21150D01*
G54D22*
X54475Y-24600D02*
X54475Y-24275D01*
X53658Y-23958D02*
X53658Y-23518D01*
X53800Y-24100D02*
X53658Y-23958D01*
X54300Y-24100D02*
X53800Y-24100D01*
X54475Y-24275D02*
X54300Y-24100D01*
X56000Y-22875D02*
X55100Y-22875D01*
X55100Y-22875D02*
X53425Y-22875D01*
X53158Y-23142D02*
X53158Y-23518D01*
X53425Y-22875D02*
X53158Y-23142D01*
X52325Y-24600D02*
X52325Y-24275D01*
X53158Y-23842D02*
X53158Y-23518D01*
X53000Y-24000D02*
X53158Y-23842D01*
X52600Y-24000D02*
X53000Y-24000D01*
X52325Y-24275D02*
X52600Y-24000D01*
G54D21*
X55425Y-34700D02*
X55425Y-34575D01*
X56175Y-33825D02*
X56175Y-33800D01*
X55425Y-34575D02*
X56175Y-33825D01*
X56175Y-33800D02*
X56175Y-33400D01*
X56175Y-33400D02*
X56175Y-33275D01*
X56068Y-33168D02*
X56068Y-32670D01*
X56175Y-33275D02*
X56068Y-33168D01*
X56175Y-33400D02*
X57075Y-33400D01*
X57075Y-33400D02*
X57100Y-33375D01*
X52658Y-21018D02*
X52318Y-21018D01*
X52318Y-21018D02*
X52150Y-20850D01*
X51650Y-20350D02*
X51650Y-19800D01*
X52150Y-20850D02*
X51650Y-20350D01*
X62675Y-18800D02*
X62675Y-18075D01*
X62675Y-18075D02*
X62600Y-18000D01*
X62175Y-16600D02*
X62175Y-17225D01*
X62375Y-18175D02*
X62675Y-18175D01*
X62200Y-18000D02*
X62350Y-18150D01*
X62350Y-18150D02*
X62375Y-18175D01*
X62200Y-17250D02*
X62200Y-18000D01*
X62175Y-17225D02*
X62200Y-17250D01*
G54D33*
X62400Y-17925D02*
X62275Y-17925D01*
G54D21*
X62275Y-17925D02*
X62200Y-18000D01*
G54D33*
X62675Y-17925D02*
X62475Y-17925D01*
X62400Y-18000D02*
X62400Y-17925D01*
X62475Y-17925D02*
X62400Y-18000D01*
G54D21*
X62350Y-18150D02*
X62450Y-18150D01*
X62450Y-18150D02*
X62600Y-18000D01*
G54D33*
X62600Y-18000D02*
X62675Y-17925D01*
G54D21*
X62675Y-18800D02*
X67350Y-18800D01*
X68374Y-19824D02*
X68374Y-21700D01*
X67350Y-18800D02*
X68374Y-19824D01*
G54D22*
X68374Y-28500D02*
X68374Y-21700D01*
X55068Y-32670D02*
X55068Y-33132D01*
X55000Y-34700D02*
X55425Y-34700D01*
X54650Y-34350D02*
X55000Y-34700D01*
X54650Y-33550D02*
X54650Y-33950D01*
X54650Y-33950D02*
X54650Y-34350D01*
X55068Y-33132D02*
X54650Y-33550D01*
X54650Y-33950D02*
X54200Y-33950D01*
X53432Y-33182D02*
X53432Y-31954D01*
X54200Y-33950D02*
X53432Y-33182D01*
X58250Y-20450D02*
X58250Y-20250D01*
X57925Y-19925D02*
X57925Y-18500D01*
X58250Y-20250D02*
X57925Y-19925D01*
X54475Y-19800D02*
X54475Y-19475D01*
X54475Y-19475D02*
X54600Y-19350D01*
X50600Y-22100D02*
X51825Y-22100D01*
X51825Y-22100D02*
X51900Y-22025D01*
X51900Y-22025D02*
X51900Y-21250D01*
X52150Y-21000D02*
X52150Y-20850D01*
X51900Y-21250D02*
X52150Y-21000D01*
G54D21*
X51425Y-18400D02*
X51425Y-19125D01*
X51650Y-19350D02*
X51650Y-19800D01*
X51425Y-19125D02*
X51650Y-19350D01*
X56000Y-22125D02*
X55100Y-22125D01*
X53658Y-21018D02*
X53658Y-21758D01*
X54025Y-22125D02*
X55100Y-22125D01*
X53658Y-21758D02*
X54025Y-22125D01*
X56025Y-17150D02*
X56025Y-22100D01*
X56025Y-22100D02*
X56000Y-22125D01*
X56068Y-30170D02*
X56068Y-30668D01*
X56525Y-31125D02*
X57100Y-31125D01*
X56068Y-30668D02*
X56525Y-31125D01*
X61800Y-25350D02*
X62150Y-25350D01*
X57525Y-31125D02*
X57100Y-31125D01*
X57600Y-31200D02*
X57525Y-31125D01*
X57600Y-31800D02*
X57600Y-31200D01*
X57800Y-32000D02*
X57600Y-31800D01*
G54D34*
X60100Y-32000D02*
X57800Y-32000D01*
G54D21*
X61100Y-30900D02*
X60100Y-32000D01*
X61250Y-29000D02*
X61100Y-30900D01*
X61150Y-28700D02*
X61250Y-29000D01*
X61000Y-27500D02*
X61150Y-28700D01*
X61400Y-27100D02*
X61000Y-27500D01*
X62400Y-27100D02*
X61400Y-27100D01*
X62600Y-26900D02*
X62400Y-27100D01*
X62600Y-25800D02*
X62600Y-26900D01*
X62150Y-25350D02*
X62600Y-25800D01*
X55568Y-32670D02*
X55568Y-33332D01*
X55425Y-33475D02*
X55425Y-33800D01*
X55568Y-33332D02*
X55425Y-33475D01*
X55568Y-32670D02*
X55568Y-32068D01*
X51600Y-30300D02*
X51600Y-27600D01*
X52600Y-31300D02*
X51600Y-30300D01*
X54800Y-31300D02*
X52600Y-31300D01*
X55568Y-32068D02*
X54800Y-31300D01*
X58750Y-20450D02*
X58750Y-21450D01*
X60825Y-20875D02*
X60825Y-20600D01*
X60100Y-21600D02*
X60825Y-20875D01*
X58900Y-21600D02*
X60100Y-21600D01*
X58750Y-21450D02*
X58900Y-21600D01*
X58675Y-19500D02*
X59325Y-19500D01*
X59325Y-19500D02*
X59250Y-19575D01*
X59250Y-19575D02*
X59250Y-20450D01*
X59750Y-20450D02*
X59750Y-20250D01*
X60075Y-19925D02*
X60075Y-19500D01*
X59750Y-20250D02*
X60075Y-19925D01*
X59750Y-20450D02*
X59750Y-21050D01*
X61350Y-26550D02*
X61800Y-26550D01*
X60800Y-26000D02*
X61350Y-26550D01*
X59750Y-21050D02*
X59800Y-21100D01*
X67075Y-19909D02*
X67075Y-23025D01*
X62450Y-24050D02*
X61800Y-24050D01*
X62812Y-23688D02*
X62450Y-24050D01*
X66412Y-23688D02*
X62812Y-23688D01*
X67075Y-23025D02*
X66412Y-23688D01*
X60550Y-29500D02*
X60550Y-27750D01*
X53075Y-25275D02*
X53075Y-24600D01*
X53100Y-25300D02*
X53075Y-25275D01*
X60550Y-27750D02*
X59500Y-26700D01*
X57100Y-31875D02*
X57100Y-32625D01*
X60075Y-18500D02*
X60075Y-18150D01*
X60075Y-18150D02*
X59600Y-17675D01*
G54D33*
X59600Y-17675D02*
X60925Y-17675D01*
G54D21*
X58675Y-18500D02*
X59325Y-18500D01*
G54D33*
X60925Y-17925D02*
X60575Y-17925D01*
G54D21*
X59325Y-18825D02*
X59325Y-18500D01*
X59500Y-19000D02*
X59325Y-18825D01*
X60300Y-19000D02*
X59500Y-19000D01*
G54D33*
X60500Y-18800D02*
X60300Y-19000D01*
X60500Y-18000D02*
X60500Y-18800D01*
X60575Y-17925D02*
X60500Y-18000D01*
G54D21*
X61925Y-18800D02*
X61925Y-18525D01*
G54D33*
X61575Y-18175D02*
X60925Y-18175D01*
G54D21*
X61925Y-18525D02*
X61575Y-18175D01*
X62875Y-19800D02*
X62875Y-19775D01*
X61925Y-19025D02*
X61925Y-18800D01*
X62000Y-19100D02*
X61925Y-19025D01*
X62000Y-19300D02*
X62000Y-19100D01*
X62400Y-19300D02*
X62000Y-19300D01*
X62875Y-19775D02*
X62400Y-19300D01*
G54D33*
X60925Y-17425D02*
X60625Y-17425D01*
G54D21*
X60900Y-16600D02*
X61425Y-16600D01*
X60500Y-17000D02*
X60900Y-16600D01*
X60500Y-17300D02*
X60500Y-17000D01*
G54D33*
X60625Y-17425D02*
X60500Y-17300D01*
G54D21*
X60825Y-19800D02*
X60825Y-19175D01*
G54D33*
X61525Y-17425D02*
X60925Y-17425D01*
G54D21*
X61500Y-17400D02*
X61525Y-17425D01*
X60825Y-19175D02*
X61200Y-18800D01*
X56175Y-34700D02*
X57300Y-34700D01*
X58200Y-33800D02*
X58200Y-32375D01*
X57300Y-34700D02*
X58200Y-33800D01*
G54D22*
X61575Y-20600D02*
X63000Y-20600D01*
X63400Y-20200D02*
X63400Y-19350D01*
X63000Y-20600D02*
X63400Y-20200D01*
G54D33*
X62675Y-17425D02*
X62975Y-17425D01*
X62975Y-17425D02*
X63100Y-17300D01*
G54D22*
X63100Y-17300D02*
X64300Y-17300D01*
X64300Y-17300D02*
X64600Y-17600D01*
G54D21*
X55600Y-26600D02*
X55600Y-26900D01*
X59100Y-30900D02*
X59100Y-31625D01*
X55600Y-26900D02*
X56900Y-28200D01*
G54D32*
X62675Y-17675D02*
X63175Y-17675D01*
G54D21*
X63400Y-17900D02*
X63400Y-18000D01*
G54D32*
X63175Y-17675D02*
X63400Y-17900D01*
G54D21*
X56175Y-33800D02*
X56175Y-33325D01*
X56175Y-33800D02*
X56550Y-33800D01*
X55600Y-28600D02*
X55600Y-28026D01*
X55600Y-28600D02*
X56174Y-28600D01*
X55600Y-28600D02*
X55026Y-28600D01*
X68374Y-21700D02*
X67761Y-21700D01*
X68374Y-21700D02*
X68374Y-21028D01*
X68374Y-21700D02*
X68987Y-21700D01*
X68374Y-21700D02*
X68374Y-22372D01*
X68374Y-28500D02*
X67761Y-28500D01*
X68374Y-28500D02*
X68374Y-27828D01*
X68374Y-28500D02*
X68987Y-28500D01*
X68374Y-28500D02*
X68374Y-29172D01*
X50600Y-22100D02*
X50125Y-22100D01*
X50600Y-22100D02*
X50600Y-21605D01*
X50600Y-22100D02*
X51075Y-22100D01*
X55425Y-34700D02*
X55425Y-35175D01*
X55425Y-34700D02*
X55050Y-34700D01*
X57925Y-19500D02*
X57550Y-19500D01*
X57925Y-19500D02*
X57925Y-19025D01*
X57925Y-19500D02*
X57925Y-19975D01*
X57100Y-33375D02*
X57100Y-33750D01*
X57100Y-33375D02*
X56625Y-33375D01*
X57100Y-33375D02*
X57575Y-33375D01*
X51425Y-18400D02*
X51050Y-18400D01*
X51425Y-18400D02*
X51425Y-18875D01*
X54475Y-19800D02*
X54475Y-19325D01*
X60600Y-22675D02*
X60600Y-23050D01*
X60600Y-22675D02*
X61075Y-22675D01*
X62675Y-18800D02*
X63050Y-18800D01*
X57925Y-18500D02*
X57550Y-18500D01*
X57925Y-18500D02*
X57925Y-18975D01*
X51900Y-22025D02*
X51900Y-21650D01*
X51900Y-22025D02*
X52375Y-22025D01*
X51900Y-22025D02*
X51425Y-22025D01*
X53432Y-31954D02*
X54032Y-31954D01*
X53432Y-31954D02*
X53432Y-32454D01*
X53432Y-31954D02*
X52832Y-31954D01*
X51650Y-19800D02*
X51650Y-20400D01*
X51650Y-19800D02*
X51150Y-19800D01*
X51650Y-19800D02*
X51650Y-19200D01*
X58250Y-20450D02*
X57950Y-20450D01*
X58250Y-20450D02*
X58250Y-20025D01*
X58250Y-20450D02*
X58250Y-20875D01*
X55068Y-32670D02*
X55068Y-33095D01*
X55068Y-32670D02*
X55068Y-32245D01*
X56068Y-32670D02*
X56368Y-32670D01*
X56068Y-32670D02*
X56068Y-33095D01*
X56068Y-32670D02*
X56068Y-32245D01*
X52658Y-21018D02*
X52358Y-21018D01*
X52658Y-21018D02*
X52658Y-21443D01*
G54D23*
X69750Y-34850D02*
X69750Y-35650D01*
X69750Y-18400D02*
X69750Y-33400D01*
X69700Y-34850D02*
X69700Y-35650D01*
X69700Y-18400D02*
X69700Y-33400D01*
X69650Y-34850D02*
X69650Y-35650D01*
X69650Y-18400D02*
X69650Y-33400D01*
X69600Y-34850D02*
X69600Y-35650D01*
X69600Y-18400D02*
X69600Y-33400D01*
X69550Y-34850D02*
X69550Y-35650D01*
X69550Y-18400D02*
X69550Y-33400D01*
X69500Y-34850D02*
X69500Y-35650D01*
X69500Y-18400D02*
X69500Y-33400D01*
X69450Y-34850D02*
X69450Y-35650D01*
X69450Y-18400D02*
X69450Y-33400D01*
X69400Y-34850D02*
X69400Y-35650D01*
X69400Y-18400D02*
X69400Y-33400D01*
X69350Y-34850D02*
X69350Y-35650D01*
X69350Y-18400D02*
X69350Y-33400D01*
X69300Y-34850D02*
X69300Y-35650D01*
X69300Y-18400D02*
X69300Y-33400D01*
X69250Y-34850D02*
X69250Y-35650D01*
X69250Y-18400D02*
X69250Y-33400D01*
X69200Y-34850D02*
X69200Y-35650D01*
X69200Y-18400D02*
X69200Y-33400D01*
X69150Y-34850D02*
X69150Y-35650D01*
X69150Y-18400D02*
X69150Y-33400D01*
X69100Y-34850D02*
X69100Y-35650D01*
X69100Y-18400D02*
X69100Y-33400D01*
X69050Y-34850D02*
X69050Y-35650D01*
X69050Y-18400D02*
X69050Y-33400D01*
X69000Y-34850D02*
X69000Y-35650D01*
X69000Y-18400D02*
X69000Y-33400D01*
X68950Y-34850D02*
X68950Y-35650D01*
X68950Y-29150D02*
X68950Y-33400D01*
X68950Y-22350D02*
X68950Y-27850D01*
X68950Y-18400D02*
X68950Y-21050D01*
X68900Y-34850D02*
X68900Y-35650D01*
X68900Y-29150D02*
X68900Y-33400D01*
X68900Y-22350D02*
X68900Y-27850D01*
X68900Y-18400D02*
X68900Y-21050D01*
X68850Y-34850D02*
X68850Y-35650D01*
X68850Y-29150D02*
X68850Y-33400D01*
X68850Y-22350D02*
X68850Y-27850D01*
X68850Y-18400D02*
X68850Y-21050D01*
X68800Y-34850D02*
X68800Y-35650D01*
X68800Y-29150D02*
X68800Y-33400D01*
X68800Y-22350D02*
X68800Y-27850D01*
X68800Y-18400D02*
X68800Y-21050D01*
X68750Y-34850D02*
X68750Y-35650D01*
X68750Y-29150D02*
X68750Y-33400D01*
X68750Y-22350D02*
X68750Y-27850D01*
X68750Y-18400D02*
X68750Y-21050D01*
X68700Y-34850D02*
X68700Y-35650D01*
X68700Y-29150D02*
X68700Y-33400D01*
X68700Y-22350D02*
X68700Y-27850D01*
X68700Y-18400D02*
X68700Y-21050D01*
X68650Y-29150D02*
X68650Y-35650D01*
X68650Y-22350D02*
X68650Y-27850D01*
X68650Y-18400D02*
X68650Y-21050D01*
X68600Y-29150D02*
X68600Y-35650D01*
X68600Y-22350D02*
X68600Y-27850D01*
X68600Y-18400D02*
X68600Y-21050D01*
X68550Y-29150D02*
X68550Y-35650D01*
X68550Y-22350D02*
X68550Y-27850D01*
X68550Y-18400D02*
X68550Y-21050D01*
X68500Y-29150D02*
X68500Y-35650D01*
X68500Y-22350D02*
X68500Y-27850D01*
X68500Y-18400D02*
X68500Y-21050D01*
X68450Y-29150D02*
X68450Y-35650D01*
X68450Y-22350D02*
X68450Y-27850D01*
X68450Y-18400D02*
X68450Y-21050D01*
X68400Y-29150D02*
X68400Y-35650D01*
X68400Y-22350D02*
X68400Y-27850D01*
X68400Y-18400D02*
X68400Y-21050D01*
X68350Y-29150D02*
X68350Y-35650D01*
X68350Y-22350D02*
X68350Y-27850D01*
X68350Y-18400D02*
X68350Y-21050D01*
X68300Y-29150D02*
X68300Y-35650D01*
X68300Y-22350D02*
X68300Y-27850D01*
X68300Y-18400D02*
X68300Y-21050D01*
X68250Y-29150D02*
X68250Y-35650D01*
X68250Y-22350D02*
X68250Y-27850D01*
X68250Y-18400D02*
X68250Y-21050D01*
X68200Y-29150D02*
X68200Y-35650D01*
X68200Y-22350D02*
X68200Y-27850D01*
X68200Y-18400D02*
X68200Y-21050D01*
X68150Y-29150D02*
X68150Y-35650D01*
X68150Y-22350D02*
X68150Y-27850D01*
X68150Y-18400D02*
X68150Y-21050D01*
X68100Y-29150D02*
X68100Y-35650D01*
X68100Y-22350D02*
X68100Y-27850D01*
X68100Y-18400D02*
X68100Y-21050D01*
X68050Y-29150D02*
X68050Y-35650D01*
X68050Y-22350D02*
X68050Y-27850D01*
X68050Y-18400D02*
X68050Y-21050D01*
X68000Y-29150D02*
X68000Y-35650D01*
X68000Y-22350D02*
X68000Y-27850D01*
X68000Y-18400D02*
X68000Y-21050D01*
X67950Y-29150D02*
X67950Y-35650D01*
X67950Y-22350D02*
X67950Y-27850D01*
X67950Y-18400D02*
X67950Y-21050D01*
X67900Y-29150D02*
X67900Y-35650D01*
X67900Y-22350D02*
X67900Y-27850D01*
X67900Y-18400D02*
X67900Y-21050D01*
X67850Y-29150D02*
X67850Y-35650D01*
X67850Y-22350D02*
X67850Y-27850D01*
X67850Y-18400D02*
X67850Y-21050D01*
X67800Y-29150D02*
X67800Y-35650D01*
X67800Y-22350D02*
X67800Y-27850D01*
X67800Y-18400D02*
X67800Y-21050D01*
X67750Y-18400D02*
X67750Y-35650D01*
X67700Y-27300D02*
X67700Y-35650D01*
X67700Y-20500D02*
X67700Y-26100D01*
X67700Y-18400D02*
X67700Y-19300D01*
X67650Y-27300D02*
X67650Y-35650D01*
X67650Y-20500D02*
X67650Y-26100D01*
X67650Y-18400D02*
X67650Y-19300D01*
X67600Y-34200D02*
X67600Y-35650D01*
X67600Y-27300D02*
X67600Y-33250D01*
X67600Y-20500D02*
X67600Y-26100D01*
X67600Y-18400D02*
X67600Y-19300D01*
X67550Y-34200D02*
X67550Y-35650D01*
X67550Y-27300D02*
X67550Y-33250D01*
X67550Y-20500D02*
X67550Y-26100D01*
X67550Y-18400D02*
X67550Y-19300D01*
X67500Y-34200D02*
X67500Y-35650D01*
X67500Y-20500D02*
X67500Y-26100D01*
X67500Y-18400D02*
X67500Y-19300D01*
X67450Y-34200D02*
X67450Y-35650D01*
X67450Y-20500D02*
X67450Y-26100D01*
X67450Y-18400D02*
X67450Y-19300D01*
X67400Y-34200D02*
X67400Y-35650D01*
X67400Y-23100D02*
X67400Y-26100D01*
X67400Y-18400D02*
X67400Y-19300D01*
X67350Y-34200D02*
X67350Y-35650D01*
X67350Y-23250D02*
X67350Y-26100D01*
X67350Y-18400D02*
X67350Y-19300D01*
X67300Y-34200D02*
X67300Y-35650D01*
X67300Y-23300D02*
X67300Y-26100D01*
X67300Y-18400D02*
X67300Y-19300D01*
X67250Y-34200D02*
X67250Y-35650D01*
X67250Y-23350D02*
X67250Y-26100D01*
X67250Y-18400D02*
X67250Y-19300D01*
X67200Y-34200D02*
X67200Y-35650D01*
X67200Y-23400D02*
X67200Y-26100D01*
X67200Y-18400D02*
X67200Y-19300D01*
X67150Y-34200D02*
X67150Y-35650D01*
X67150Y-23450D02*
X67150Y-26100D01*
X67150Y-18400D02*
X67150Y-19300D01*
X67100Y-34200D02*
X67100Y-35650D01*
X67100Y-23500D02*
X67100Y-26100D01*
X67100Y-18400D02*
X67100Y-19300D01*
X67050Y-34200D02*
X67050Y-35650D01*
X67050Y-23550D02*
X67050Y-26100D01*
X67050Y-18400D02*
X67050Y-19300D01*
X67000Y-34200D02*
X67000Y-35650D01*
X67000Y-23600D02*
X67000Y-26100D01*
X67000Y-18400D02*
X67000Y-19300D01*
X66950Y-34200D02*
X66950Y-35650D01*
X66950Y-23650D02*
X66950Y-26100D01*
X66950Y-18400D02*
X66950Y-19300D01*
X66900Y-34200D02*
X66900Y-35650D01*
X66900Y-23700D02*
X66900Y-26100D01*
X66900Y-18400D02*
X66900Y-19300D01*
X66850Y-34200D02*
X66850Y-35650D01*
X66850Y-23750D02*
X66850Y-26100D01*
X66850Y-18400D02*
X66850Y-19300D01*
X66800Y-34200D02*
X66800Y-35650D01*
X66800Y-23800D02*
X66800Y-26100D01*
X66800Y-18400D02*
X66800Y-19300D01*
X66750Y-34200D02*
X66750Y-35650D01*
X66750Y-23850D02*
X66750Y-26100D01*
X66750Y-18400D02*
X66750Y-19300D01*
X66700Y-34400D02*
X66700Y-35650D01*
X66700Y-23900D02*
X66700Y-26100D01*
X66700Y-20500D02*
X66700Y-22900D01*
X66700Y-18400D02*
X66700Y-19300D01*
X66650Y-34450D02*
X66650Y-35650D01*
X66650Y-23950D02*
X66650Y-26100D01*
X66650Y-20500D02*
X66650Y-22950D01*
X66650Y-18400D02*
X66650Y-19300D01*
X66600Y-34500D02*
X66600Y-35650D01*
X66600Y-24000D02*
X66600Y-26100D01*
X66600Y-20500D02*
X66600Y-23000D01*
X66600Y-18400D02*
X66600Y-19300D01*
X66550Y-34500D02*
X66550Y-35650D01*
X66550Y-24000D02*
X66550Y-26100D01*
X66550Y-20500D02*
X66550Y-23050D01*
X66550Y-18400D02*
X66550Y-19300D01*
X66500Y-34550D02*
X66500Y-35650D01*
X66500Y-24050D02*
X66500Y-26100D01*
X66500Y-20500D02*
X66500Y-22150D01*
X66500Y-18400D02*
X66500Y-19300D01*
X66450Y-34550D02*
X66450Y-35650D01*
X66450Y-24050D02*
X66450Y-26100D01*
X66450Y-20500D02*
X66450Y-22150D01*
X66450Y-18400D02*
X66450Y-19300D01*
X66400Y-34550D02*
X66400Y-35650D01*
X66400Y-24050D02*
X66400Y-26350D01*
X66400Y-18400D02*
X66400Y-22150D01*
X66350Y-34550D02*
X66350Y-35650D01*
X66350Y-24050D02*
X66350Y-26350D01*
X66350Y-18400D02*
X66350Y-22150D01*
X66300Y-34600D02*
X66300Y-35650D01*
X66300Y-24050D02*
X66300Y-26350D01*
X66300Y-18400D02*
X66300Y-22150D01*
X66250Y-34600D02*
X66250Y-35650D01*
X66250Y-24050D02*
X66250Y-26400D01*
X66250Y-18400D02*
X66250Y-22150D01*
X66200Y-34600D02*
X66200Y-35650D01*
X66200Y-24050D02*
X66200Y-26400D01*
X66200Y-18400D02*
X66200Y-22150D01*
X66150Y-34600D02*
X66150Y-35650D01*
X66150Y-24050D02*
X66150Y-26450D01*
X66150Y-18400D02*
X66150Y-22150D01*
X66100Y-34600D02*
X66100Y-35650D01*
X66100Y-24050D02*
X66100Y-26500D01*
X66100Y-18400D02*
X66100Y-22150D01*
X66050Y-34600D02*
X66050Y-35650D01*
X66050Y-24050D02*
X66050Y-26550D01*
X66050Y-18400D02*
X66050Y-22150D01*
X66000Y-34650D02*
X66000Y-35650D01*
X66000Y-24050D02*
X66000Y-26600D01*
X66000Y-18400D02*
X66000Y-22150D01*
X65950Y-34650D02*
X65950Y-35650D01*
X65950Y-24300D02*
X65950Y-26650D01*
X65950Y-18400D02*
X65950Y-22150D01*
X65900Y-34650D02*
X65900Y-35650D01*
X65900Y-24300D02*
X65900Y-26700D01*
X65900Y-18400D02*
X65900Y-22150D01*
X65850Y-34650D02*
X65850Y-35650D01*
X65850Y-24300D02*
X65850Y-26750D01*
X65850Y-18400D02*
X65850Y-22150D01*
X65800Y-34650D02*
X65800Y-35650D01*
X65800Y-24300D02*
X65800Y-26800D01*
X65800Y-18400D02*
X65800Y-22150D01*
X65750Y-34650D02*
X65750Y-35650D01*
X65750Y-24300D02*
X65750Y-26850D01*
X65750Y-18400D02*
X65750Y-22150D01*
X65700Y-34700D02*
X65700Y-35650D01*
X65700Y-24300D02*
X65700Y-26900D01*
X65700Y-18400D02*
X65700Y-22150D01*
X65650Y-34700D02*
X65650Y-35650D01*
X65650Y-24300D02*
X65650Y-26950D01*
X65650Y-18400D02*
X65650Y-22150D01*
X65600Y-34700D02*
X65600Y-35650D01*
X65600Y-24300D02*
X65600Y-27000D01*
X65600Y-18400D02*
X65600Y-22150D01*
X65550Y-34700D02*
X65550Y-35650D01*
X65550Y-24300D02*
X65550Y-27050D01*
X65550Y-18400D02*
X65550Y-22150D01*
X65500Y-34700D02*
X65500Y-35650D01*
X65500Y-24300D02*
X65500Y-27100D01*
X65500Y-18400D02*
X65500Y-22150D01*
X65450Y-34700D02*
X65450Y-35650D01*
X65450Y-24300D02*
X65450Y-27150D01*
X65450Y-18400D02*
X65450Y-22150D01*
X65400Y-34750D02*
X65400Y-35650D01*
X65400Y-24300D02*
X65400Y-27200D01*
X65400Y-18400D02*
X65400Y-22150D01*
X65350Y-34750D02*
X65350Y-35650D01*
X65350Y-24300D02*
X65350Y-27250D01*
X65350Y-18400D02*
X65350Y-22150D01*
X65300Y-34750D02*
X65300Y-35650D01*
X65300Y-24300D02*
X65300Y-27300D01*
X65300Y-18400D02*
X65300Y-22150D01*
X65250Y-34750D02*
X65250Y-35650D01*
X65250Y-24300D02*
X65250Y-27350D01*
X65250Y-18400D02*
X65250Y-22150D01*
X65200Y-34750D02*
X65200Y-35650D01*
X65200Y-24300D02*
X65200Y-27400D01*
X65200Y-18400D02*
X65200Y-23050D01*
X65150Y-34750D02*
X65150Y-35650D01*
X65150Y-24300D02*
X65150Y-27450D01*
X65150Y-18400D02*
X65150Y-23050D01*
X65100Y-34750D02*
X65100Y-35650D01*
X65100Y-24300D02*
X65100Y-27500D01*
X65100Y-18400D02*
X65100Y-23050D01*
X65050Y-34700D02*
X65050Y-35650D01*
X65050Y-24300D02*
X65050Y-27500D01*
X65050Y-18400D02*
X65050Y-23050D01*
X65000Y-34700D02*
X65000Y-35650D01*
X65000Y-24300D02*
X65000Y-27500D01*
X65000Y-18400D02*
X65000Y-23050D01*
X64950Y-34650D02*
X64950Y-35650D01*
X64950Y-24300D02*
X64950Y-27500D01*
X64950Y-18400D02*
X64950Y-23050D01*
X64900Y-34600D02*
X64900Y-35650D01*
X64900Y-24300D02*
X64900Y-27500D01*
X64900Y-18400D02*
X64900Y-23050D01*
X64850Y-34550D02*
X64850Y-35650D01*
X64850Y-24300D02*
X64850Y-27500D01*
X64850Y-18400D02*
X64850Y-23050D01*
X64800Y-34500D02*
X64800Y-35650D01*
X64800Y-24300D02*
X64800Y-27500D01*
X64800Y-18400D02*
X64800Y-23050D01*
X64750Y-34450D02*
X64750Y-35650D01*
X64750Y-24300D02*
X64750Y-27500D01*
X64750Y-18400D02*
X64750Y-23050D01*
X64700Y-34400D02*
X64700Y-35650D01*
X64700Y-24300D02*
X64700Y-27500D01*
X64700Y-18400D02*
X64700Y-23050D01*
X64650Y-34350D02*
X64650Y-35650D01*
X64650Y-24050D02*
X64650Y-27500D01*
X64650Y-18400D02*
X64650Y-23350D01*
X64600Y-34250D02*
X64600Y-35650D01*
X64600Y-24050D02*
X64600Y-26250D01*
X64600Y-20800D02*
X64600Y-23350D01*
X64600Y-18400D02*
X64600Y-19450D01*
X64550Y-34200D02*
X64550Y-35650D01*
X64550Y-24050D02*
X64550Y-26250D01*
X64550Y-20800D02*
X64550Y-23350D01*
X64550Y-18400D02*
X64550Y-19450D01*
X64500Y-34150D02*
X64500Y-35650D01*
X64500Y-24050D02*
X64500Y-26250D01*
X64500Y-20800D02*
X64500Y-23350D01*
X64500Y-18400D02*
X64500Y-19450D01*
X64450Y-34100D02*
X64450Y-35650D01*
X64450Y-24050D02*
X64450Y-26250D01*
X64450Y-20800D02*
X64450Y-23350D01*
X64450Y-18400D02*
X64450Y-19450D01*
X64400Y-34050D02*
X64400Y-35650D01*
X64400Y-24050D02*
X64400Y-26250D01*
X64400Y-20800D02*
X64400Y-23350D01*
X64400Y-18400D02*
X64400Y-19450D01*
X64350Y-34000D02*
X64350Y-35650D01*
X64350Y-24050D02*
X64350Y-26250D01*
X64350Y-20800D02*
X64350Y-23350D01*
X64350Y-18400D02*
X64350Y-19450D01*
X64300Y-33950D02*
X64300Y-35650D01*
X64300Y-24050D02*
X64300Y-26250D01*
X64300Y-20800D02*
X64300Y-23350D01*
X64300Y-18400D02*
X64300Y-19450D01*
X64250Y-33900D02*
X64250Y-35650D01*
X64250Y-24050D02*
X64250Y-26250D01*
X64250Y-20800D02*
X64250Y-23350D01*
X64250Y-18400D02*
X64250Y-19450D01*
X64200Y-33850D02*
X64200Y-35650D01*
X64200Y-24050D02*
X64200Y-26250D01*
X64200Y-20800D02*
X64200Y-23350D01*
X64200Y-18400D02*
X64200Y-19450D01*
X64150Y-34850D02*
X64150Y-35650D01*
X64150Y-24050D02*
X64150Y-26250D01*
X64150Y-20800D02*
X64150Y-23350D01*
X64150Y-18400D02*
X64150Y-19450D01*
X64100Y-34850D02*
X64100Y-35650D01*
X64100Y-24050D02*
X64100Y-26250D01*
X64100Y-20800D02*
X64100Y-23350D01*
X64100Y-18400D02*
X64100Y-19450D01*
X64050Y-34850D02*
X64050Y-35650D01*
X64050Y-24050D02*
X64050Y-26250D01*
X64050Y-20800D02*
X64050Y-23350D01*
X64050Y-18400D02*
X64050Y-19450D01*
X64000Y-34850D02*
X64000Y-35650D01*
X64000Y-24050D02*
X64000Y-26250D01*
X64000Y-20800D02*
X64000Y-23350D01*
X64000Y-18400D02*
X64000Y-19450D01*
X63950Y-34850D02*
X63950Y-35650D01*
X63950Y-24050D02*
X63950Y-26250D01*
X63950Y-20800D02*
X63950Y-23350D01*
X63950Y-18400D02*
X63950Y-19450D01*
X63900Y-34850D02*
X63900Y-35650D01*
X63900Y-24050D02*
X63900Y-26250D01*
X63900Y-20800D02*
X63900Y-23350D01*
X63900Y-18400D02*
X63900Y-19450D01*
X63850Y-34850D02*
X63850Y-35650D01*
X63850Y-24050D02*
X63850Y-26250D01*
X63850Y-20800D02*
X63850Y-23350D01*
X63850Y-18400D02*
X63850Y-19450D01*
X63800Y-34850D02*
X63800Y-35650D01*
X63800Y-24050D02*
X63800Y-26250D01*
X63800Y-20800D02*
X63800Y-23350D01*
X63800Y-18400D02*
X63800Y-19450D01*
X63750Y-34850D02*
X63750Y-35650D01*
X63750Y-24050D02*
X63750Y-26250D01*
X63750Y-20800D02*
X63750Y-23350D01*
X63750Y-18400D02*
X63750Y-19150D01*
X63700Y-34850D02*
X63700Y-35650D01*
X63700Y-33350D02*
X63700Y-33400D01*
X63700Y-24050D02*
X63700Y-26250D01*
X63700Y-20800D02*
X63700Y-23350D01*
X63700Y-18400D02*
X63700Y-19050D01*
X63650Y-34850D02*
X63650Y-35650D01*
X63650Y-33300D02*
X63650Y-33400D01*
X63650Y-24050D02*
X63650Y-26250D01*
X63650Y-20800D02*
X63650Y-23350D01*
X63650Y-18400D02*
X63650Y-19000D01*
X63600Y-34850D02*
X63600Y-35650D01*
X63600Y-33200D02*
X63600Y-33400D01*
X63600Y-24050D02*
X63600Y-26250D01*
X63600Y-20800D02*
X63600Y-23350D01*
X63600Y-18400D02*
X63600Y-19000D01*
X63550Y-34850D02*
X63550Y-35650D01*
X63550Y-33150D02*
X63550Y-33400D01*
X63550Y-24050D02*
X63550Y-26250D01*
X63550Y-20800D02*
X63550Y-23350D01*
X63550Y-18400D02*
X63550Y-18950D01*
X63500Y-34850D02*
X63500Y-35650D01*
X63500Y-33100D02*
X63500Y-33400D01*
X63500Y-24050D02*
X63500Y-26250D01*
X63500Y-20800D02*
X63500Y-23350D01*
X63500Y-18400D02*
X63500Y-18950D01*
X63450Y-34850D02*
X63450Y-35650D01*
X63450Y-33050D02*
X63450Y-33400D01*
X63450Y-24050D02*
X63450Y-27500D01*
X63450Y-20650D02*
X63450Y-23350D01*
X63450Y-18400D02*
X63450Y-18950D01*
X63400Y-34850D02*
X63400Y-35650D01*
X63400Y-33000D02*
X63400Y-33400D01*
X63400Y-24050D02*
X63400Y-27500D01*
X63400Y-20700D02*
X63400Y-23350D01*
X63400Y-18400D02*
X63400Y-18950D01*
X63350Y-34850D02*
X63350Y-35650D01*
X63350Y-32950D02*
X63350Y-33400D01*
X63350Y-24050D02*
X63350Y-27500D01*
X63350Y-20750D02*
X63350Y-23350D01*
X63350Y-18400D02*
X63350Y-18950D01*
X63300Y-34850D02*
X63300Y-35650D01*
X63300Y-32900D02*
X63300Y-33400D01*
X63300Y-24050D02*
X63300Y-27500D01*
X63300Y-20800D02*
X63300Y-23350D01*
X63300Y-18400D02*
X63300Y-18950D01*
X63250Y-34850D02*
X63250Y-35650D01*
X63250Y-32850D02*
X63250Y-33400D01*
X63250Y-24050D02*
X63250Y-27500D01*
X63250Y-20850D02*
X63250Y-23350D01*
X63250Y-18400D02*
X63250Y-18950D01*
X63200Y-34850D02*
X63200Y-35650D01*
X63200Y-32800D02*
X63200Y-33400D01*
X63200Y-24050D02*
X63200Y-27500D01*
X63200Y-20900D02*
X63200Y-23350D01*
X63200Y-18400D02*
X63200Y-19000D01*
X63150Y-34850D02*
X63150Y-35650D01*
X63150Y-32750D02*
X63150Y-33400D01*
X63150Y-24050D02*
X63150Y-27500D01*
X63150Y-20900D02*
X63150Y-23350D01*
X63150Y-18400D02*
X63150Y-19000D01*
X63100Y-34850D02*
X63100Y-35650D01*
X63100Y-32750D02*
X63100Y-33400D01*
X63100Y-24050D02*
X63100Y-27500D01*
X63100Y-20950D02*
X63100Y-23350D01*
X63100Y-18450D02*
X63100Y-19050D01*
X63050Y-34850D02*
X63050Y-35650D01*
X63050Y-32750D02*
X63050Y-33400D01*
X63050Y-24050D02*
X63050Y-27500D01*
X63050Y-20950D02*
X63050Y-23350D01*
X63050Y-18450D02*
X63050Y-19150D01*
X63000Y-34850D02*
X63000Y-35650D01*
X63000Y-32750D02*
X63000Y-33400D01*
X63000Y-24050D02*
X63000Y-27500D01*
X63000Y-20950D02*
X63000Y-23350D01*
X62950Y-32750D02*
X62950Y-35650D01*
X62950Y-24050D02*
X62950Y-27500D01*
X62950Y-20950D02*
X62950Y-23350D01*
X62900Y-32750D02*
X62900Y-35650D01*
X62900Y-27050D02*
X62900Y-27500D01*
X62900Y-24100D02*
X62900Y-25650D01*
X62900Y-20950D02*
X62900Y-23350D01*
X62850Y-32750D02*
X62850Y-35650D01*
X62850Y-27150D02*
X62850Y-27500D01*
X62850Y-24150D02*
X62850Y-25550D01*
X62850Y-20950D02*
X62850Y-23350D01*
X62800Y-32750D02*
X62800Y-35650D01*
X62800Y-27200D02*
X62800Y-27500D01*
X62800Y-24200D02*
X62800Y-25500D01*
X62800Y-20950D02*
X62800Y-23350D01*
X62750Y-32750D02*
X62750Y-35650D01*
X62750Y-27250D02*
X62750Y-27500D01*
X62750Y-24250D02*
X62750Y-25450D01*
X62750Y-20950D02*
X62750Y-23350D01*
X62700Y-32750D02*
X62700Y-35650D01*
X62700Y-27300D02*
X62700Y-27500D01*
X62700Y-24300D02*
X62700Y-25400D01*
X62700Y-20950D02*
X62700Y-23350D01*
X62650Y-32750D02*
X62650Y-35650D01*
X62650Y-27350D02*
X62650Y-27500D01*
X62650Y-24350D02*
X62650Y-25350D01*
X62650Y-20950D02*
X62650Y-23350D01*
X62600Y-32750D02*
X62600Y-35650D01*
X62600Y-27400D02*
X62600Y-27500D01*
X62600Y-24350D02*
X62600Y-25300D01*
X62600Y-20950D02*
X62600Y-23400D01*
X62550Y-32750D02*
X62550Y-35650D01*
X62550Y-27400D02*
X62550Y-27500D01*
X62550Y-24400D02*
X62550Y-25250D01*
X62550Y-20950D02*
X62550Y-23450D01*
X62500Y-32750D02*
X62500Y-35650D01*
X62500Y-27450D02*
X62500Y-27500D01*
X62500Y-24400D02*
X62500Y-25200D01*
X62500Y-20950D02*
X62500Y-23500D01*
X62450Y-32750D02*
X62450Y-35650D01*
X62450Y-27450D02*
X62450Y-27500D01*
X62450Y-24400D02*
X62450Y-25150D01*
X62450Y-20950D02*
X62450Y-23550D01*
X62400Y-32750D02*
X62400Y-35650D01*
X62400Y-27450D02*
X62400Y-27500D01*
X62400Y-24400D02*
X62400Y-25100D01*
X62400Y-20950D02*
X62400Y-23600D01*
X62350Y-32750D02*
X62350Y-35650D01*
X62350Y-24550D02*
X62350Y-24850D01*
X62350Y-20950D02*
X62350Y-23550D01*
X62300Y-32750D02*
X62300Y-35650D01*
X62300Y-24550D02*
X62300Y-24850D01*
X62300Y-20950D02*
X62300Y-23550D01*
X62250Y-32750D02*
X62250Y-35650D01*
X62250Y-25950D02*
X62250Y-26050D01*
X62250Y-24550D02*
X62250Y-24850D01*
X62250Y-20950D02*
X62250Y-23550D01*
X62200Y-32750D02*
X62200Y-35650D01*
X62200Y-25900D02*
X62200Y-26050D01*
X62200Y-24550D02*
X62200Y-24850D01*
X62200Y-20950D02*
X62200Y-23550D01*
X62150Y-32750D02*
X62150Y-35650D01*
X62150Y-25850D02*
X62150Y-26050D01*
X62150Y-24550D02*
X62150Y-24850D01*
X62150Y-20950D02*
X62150Y-23550D01*
X62100Y-32750D02*
X62100Y-35650D01*
X62100Y-25850D02*
X62100Y-26050D01*
X62100Y-24550D02*
X62100Y-24850D01*
X62100Y-20950D02*
X62100Y-23550D01*
X62050Y-32750D02*
X62050Y-35650D01*
X62050Y-25850D02*
X62050Y-26050D01*
X62050Y-24550D02*
X62050Y-24850D01*
X62050Y-20950D02*
X62050Y-23550D01*
X62000Y-32750D02*
X62000Y-35650D01*
X62000Y-25850D02*
X62000Y-26050D01*
X62000Y-24550D02*
X62000Y-24850D01*
X62000Y-20950D02*
X62000Y-23550D01*
X61950Y-32750D02*
X61950Y-35650D01*
X61950Y-25850D02*
X61950Y-26050D01*
X61950Y-24550D02*
X61950Y-24850D01*
X61950Y-20950D02*
X61950Y-23550D01*
X61900Y-32750D02*
X61900Y-35650D01*
X61900Y-25850D02*
X61900Y-26050D01*
X61900Y-24550D02*
X61900Y-24850D01*
X61900Y-21100D02*
X61900Y-23550D01*
X61850Y-32750D02*
X61850Y-35650D01*
X61850Y-25850D02*
X61850Y-26050D01*
X61850Y-24550D02*
X61850Y-24850D01*
X61850Y-21100D02*
X61850Y-23550D01*
X61800Y-32750D02*
X61800Y-35650D01*
X61800Y-25850D02*
X61800Y-26050D01*
X61800Y-24550D02*
X61800Y-24850D01*
X61800Y-21100D02*
X61800Y-23550D01*
X61750Y-32750D02*
X61750Y-35650D01*
X61750Y-25850D02*
X61750Y-26050D01*
X61750Y-24550D02*
X61750Y-24850D01*
X61750Y-21100D02*
X61750Y-23550D01*
X61700Y-32750D02*
X61700Y-35650D01*
X61700Y-25850D02*
X61700Y-26050D01*
X61700Y-24550D02*
X61700Y-24850D01*
X61700Y-21100D02*
X61700Y-23550D01*
X61650Y-32750D02*
X61650Y-35650D01*
X61650Y-25850D02*
X61650Y-26050D01*
X61650Y-24550D02*
X61650Y-24850D01*
X61650Y-21100D02*
X61650Y-23550D01*
X61600Y-32750D02*
X61600Y-35650D01*
X61600Y-25850D02*
X61600Y-26050D01*
X61600Y-24550D02*
X61600Y-24850D01*
X61600Y-21100D02*
X61600Y-23550D01*
X61550Y-32750D02*
X61550Y-35650D01*
X61550Y-25850D02*
X61550Y-26050D01*
X61550Y-24550D02*
X61550Y-24850D01*
X61550Y-21100D02*
X61550Y-23550D01*
X61500Y-32750D02*
X61500Y-35650D01*
X61500Y-25850D02*
X61500Y-26050D01*
X61500Y-24550D02*
X61500Y-24850D01*
X61500Y-21550D02*
X61500Y-23550D01*
X61500Y-21100D02*
X61500Y-21250D01*
X61450Y-32750D02*
X61450Y-35650D01*
X61450Y-25850D02*
X61450Y-26050D01*
X61450Y-24550D02*
X61450Y-24850D01*
X61450Y-21650D02*
X61450Y-23550D01*
X61400Y-32750D02*
X61400Y-35650D01*
X61400Y-25850D02*
X61400Y-26050D01*
X61400Y-24550D02*
X61400Y-24850D01*
X61400Y-21700D02*
X61400Y-23550D01*
X61350Y-32750D02*
X61350Y-35650D01*
X61350Y-25850D02*
X61350Y-26050D01*
X61350Y-24550D02*
X61350Y-24850D01*
X61350Y-21750D02*
X61350Y-23550D01*
X61300Y-32750D02*
X61300Y-35650D01*
X61300Y-25850D02*
X61300Y-26000D01*
X61300Y-24550D02*
X61300Y-24850D01*
X61300Y-21800D02*
X61300Y-23550D01*
X61250Y-32750D02*
X61250Y-35650D01*
X61250Y-25850D02*
X61250Y-25950D01*
X61250Y-24550D02*
X61250Y-24850D01*
X61250Y-21850D02*
X61250Y-23550D01*
X61200Y-32750D02*
X61200Y-35650D01*
X61200Y-21900D02*
X61200Y-25900D01*
X61150Y-32750D02*
X61150Y-35650D01*
X61150Y-21950D02*
X61150Y-25800D01*
X61100Y-32750D02*
X61100Y-35650D01*
X61100Y-26800D02*
X61100Y-26900D01*
X61100Y-22000D02*
X61100Y-25700D01*
X61050Y-32750D02*
X61050Y-35650D01*
X61050Y-26750D02*
X61050Y-26950D01*
X61050Y-23050D02*
X61050Y-25650D01*
X61000Y-32750D02*
X61000Y-35650D01*
X61000Y-26700D02*
X61000Y-27000D01*
X61000Y-23050D02*
X61000Y-25650D01*
X60950Y-32750D02*
X60950Y-35650D01*
X60950Y-26650D02*
X60950Y-27050D01*
X60950Y-23050D02*
X60950Y-25600D01*
X60900Y-32750D02*
X60900Y-35650D01*
X60900Y-26600D02*
X60900Y-27100D01*
X60900Y-23050D02*
X60900Y-25600D01*
X60850Y-32750D02*
X60850Y-35650D01*
X60850Y-26550D02*
X60850Y-27150D01*
X60850Y-23050D02*
X60850Y-25600D01*
X60800Y-32750D02*
X60800Y-35650D01*
X60800Y-26500D02*
X60800Y-27200D01*
X60800Y-23050D02*
X60800Y-25600D01*
X60750Y-32750D02*
X60750Y-35650D01*
X60750Y-26450D02*
X60750Y-27250D01*
X60750Y-23050D02*
X60750Y-25600D01*
X60700Y-32750D02*
X60700Y-35650D01*
X60700Y-26400D02*
X60700Y-27350D01*
X60700Y-23050D02*
X60700Y-25600D01*
X60650Y-32750D02*
X60650Y-35650D01*
X60650Y-26400D02*
X60650Y-27350D01*
X60650Y-23050D02*
X60650Y-25600D01*
X60600Y-32750D02*
X60600Y-35650D01*
X60600Y-26350D02*
X60600Y-27300D01*
X60600Y-23050D02*
X60600Y-25650D01*
X60550Y-32750D02*
X60550Y-35650D01*
X60550Y-26350D02*
X60550Y-27250D01*
X60550Y-23050D02*
X60550Y-25650D01*
X60500Y-32750D02*
X60500Y-35650D01*
X60500Y-26300D02*
X60500Y-27200D01*
X60500Y-23050D02*
X60500Y-25700D01*
X60450Y-32750D02*
X60450Y-35650D01*
X60450Y-26200D02*
X60450Y-27150D01*
X60450Y-23050D02*
X60450Y-25800D01*
X60400Y-32750D02*
X60400Y-35650D01*
X60400Y-23050D02*
X60400Y-27100D01*
X60350Y-32750D02*
X60350Y-35650D01*
X60350Y-23050D02*
X60350Y-27050D01*
X60300Y-32750D02*
X60300Y-35650D01*
X60300Y-23050D02*
X60300Y-27000D01*
X60250Y-32750D02*
X60250Y-35650D01*
X60250Y-23050D02*
X60250Y-26950D01*
X60200Y-32750D02*
X60200Y-35650D01*
X60200Y-23050D02*
X60200Y-26900D01*
X60150Y-32750D02*
X60150Y-35650D01*
X60150Y-23050D02*
X60150Y-26850D01*
X60100Y-32750D02*
X60100Y-35650D01*
X60100Y-22400D02*
X60100Y-26800D01*
X60050Y-32750D02*
X60050Y-35650D01*
X60050Y-24600D02*
X60050Y-26750D01*
X60000Y-32750D02*
X60000Y-35650D01*
X60000Y-24700D02*
X60000Y-26700D01*
X59950Y-32750D02*
X59950Y-35650D01*
X59950Y-24750D02*
X59950Y-26650D01*
X59900Y-32750D02*
X59900Y-35650D01*
X59900Y-24800D02*
X59900Y-26600D01*
X59850Y-32750D02*
X59850Y-35650D01*
X59850Y-24850D02*
X59850Y-26500D01*
X59800Y-32750D02*
X59800Y-35650D01*
X59800Y-24900D02*
X59800Y-26400D01*
X59750Y-32750D02*
X59750Y-35650D01*
X59750Y-24950D02*
X59750Y-26350D01*
X59700Y-32750D02*
X59700Y-35650D01*
X59700Y-25000D02*
X59700Y-26350D01*
X59650Y-32750D02*
X59650Y-35650D01*
X59650Y-25050D02*
X59650Y-26300D01*
X59600Y-32750D02*
X59600Y-35650D01*
X59600Y-25100D02*
X59600Y-26300D01*
X59550Y-32750D02*
X59550Y-35650D01*
X59550Y-25150D02*
X59550Y-26300D01*
X59500Y-32750D02*
X59500Y-35650D01*
X59500Y-25200D02*
X59500Y-26300D01*
X59500Y-21950D02*
X59500Y-22000D01*
X59450Y-32750D02*
X59450Y-35650D01*
X59450Y-25250D02*
X59450Y-26300D01*
X59450Y-21950D02*
X59450Y-22100D01*
X59400Y-32750D02*
X59400Y-35650D01*
X59400Y-25300D02*
X59400Y-26300D01*
X59400Y-23400D02*
X59400Y-24300D01*
X59400Y-21950D02*
X59400Y-22500D01*
X59350Y-32750D02*
X59350Y-35650D01*
X59350Y-25350D02*
X59350Y-26300D01*
X59350Y-23400D02*
X59350Y-24350D01*
X59350Y-21950D02*
X59350Y-22500D01*
X59300Y-32750D02*
X59300Y-35650D01*
X59300Y-25400D02*
X59300Y-26350D01*
X59300Y-23400D02*
X59300Y-24400D01*
X59300Y-21950D02*
X59300Y-22500D01*
X59250Y-32750D02*
X59250Y-35650D01*
X59250Y-25450D02*
X59250Y-26350D01*
X59250Y-23400D02*
X59250Y-24450D01*
X59250Y-21950D02*
X59250Y-22500D01*
X59200Y-32750D02*
X59200Y-35650D01*
X59200Y-25500D02*
X59200Y-26400D01*
X59200Y-23400D02*
X59200Y-24500D01*
X59200Y-21950D02*
X59200Y-22500D01*
X59150Y-32750D02*
X59150Y-35650D01*
X59150Y-25550D02*
X59150Y-26500D01*
X59150Y-23400D02*
X59150Y-24550D01*
X59150Y-21950D02*
X59150Y-22500D01*
X59100Y-32750D02*
X59100Y-35650D01*
X59100Y-23400D02*
X59100Y-24600D01*
X59100Y-21950D02*
X59100Y-22500D01*
X59050Y-32750D02*
X59050Y-35650D01*
X59050Y-23400D02*
X59050Y-24650D01*
X59050Y-21950D02*
X59050Y-22500D01*
X59000Y-32750D02*
X59000Y-35650D01*
X59000Y-23400D02*
X59000Y-24700D01*
X59000Y-21950D02*
X59000Y-22500D01*
X58950Y-32750D02*
X58950Y-35650D01*
X58950Y-23400D02*
X58950Y-23600D01*
X58950Y-21950D02*
X58950Y-22500D01*
X58900Y-32750D02*
X58900Y-35650D01*
X58900Y-23400D02*
X58900Y-23600D01*
X58900Y-21950D02*
X58900Y-22500D01*
X58850Y-32750D02*
X58850Y-35650D01*
X58850Y-23400D02*
X58850Y-23600D01*
X58850Y-21950D02*
X58850Y-22500D01*
X58800Y-32750D02*
X58800Y-35650D01*
X58800Y-23400D02*
X58800Y-23600D01*
X58800Y-21950D02*
X58800Y-22500D01*
X58750Y-32750D02*
X58750Y-35650D01*
X58750Y-23400D02*
X58750Y-23600D01*
X58750Y-21900D02*
X58750Y-22500D01*
X58700Y-32750D02*
X58700Y-35650D01*
X58700Y-23400D02*
X58700Y-23600D01*
X58700Y-21900D02*
X58700Y-22500D01*
X58650Y-32750D02*
X58650Y-35650D01*
X58650Y-23400D02*
X58650Y-23600D01*
X58650Y-21850D02*
X58650Y-22500D01*
X58600Y-32750D02*
X58600Y-35650D01*
X58600Y-23400D02*
X58600Y-23600D01*
X58600Y-21800D02*
X58600Y-22500D01*
X58550Y-32750D02*
X58550Y-35650D01*
X58550Y-23400D02*
X58550Y-23600D01*
X58550Y-21750D02*
X58550Y-22500D01*
X58500Y-33950D02*
X58500Y-35650D01*
X58500Y-23400D02*
X58500Y-23600D01*
X58500Y-21700D02*
X58500Y-22500D01*
X58450Y-34050D02*
X58450Y-35650D01*
X58450Y-23400D02*
X58450Y-23600D01*
X58450Y-21600D02*
X58450Y-22500D01*
X58400Y-34100D02*
X58400Y-35650D01*
X58400Y-23400D02*
X58400Y-23600D01*
X58400Y-20900D02*
X58400Y-22500D01*
X58350Y-34150D02*
X58350Y-35650D01*
X58350Y-23400D02*
X58350Y-23600D01*
X58350Y-20900D02*
X58350Y-22500D01*
X58300Y-34200D02*
X58300Y-35650D01*
X58300Y-23400D02*
X58300Y-23600D01*
X58300Y-20900D02*
X58300Y-22500D01*
X58300Y-18400D02*
X58300Y-20000D01*
X58250Y-34250D02*
X58250Y-35650D01*
X58250Y-23400D02*
X58250Y-23600D01*
X58250Y-20900D02*
X58250Y-22500D01*
X58200Y-34300D02*
X58200Y-35650D01*
X58200Y-23400D02*
X58200Y-23600D01*
X58200Y-20900D02*
X58200Y-22500D01*
X58150Y-34350D02*
X58150Y-35650D01*
X58150Y-23400D02*
X58150Y-23600D01*
X58150Y-20900D02*
X58150Y-22500D01*
X58100Y-34400D02*
X58100Y-35650D01*
X58100Y-23400D02*
X58100Y-23600D01*
X58100Y-20900D02*
X58100Y-22500D01*
X58050Y-34450D02*
X58050Y-35650D01*
X58050Y-23400D02*
X58050Y-23600D01*
X58050Y-20900D02*
X58050Y-22500D01*
X58000Y-34500D02*
X58000Y-35650D01*
X58000Y-23400D02*
X58000Y-23600D01*
X58000Y-20900D02*
X58000Y-22500D01*
X57950Y-34550D02*
X57950Y-35650D01*
X57950Y-20000D02*
X57950Y-23600D01*
X57900Y-34600D02*
X57900Y-35650D01*
X57900Y-20000D02*
X57900Y-23600D01*
X57850Y-34650D02*
X57850Y-35650D01*
X57850Y-32750D02*
X57850Y-33650D01*
X57850Y-20000D02*
X57850Y-23600D01*
X57800Y-34700D02*
X57800Y-35650D01*
X57800Y-32750D02*
X57800Y-33700D01*
X57800Y-20000D02*
X57800Y-23600D01*
X57750Y-34750D02*
X57750Y-35650D01*
X57750Y-32750D02*
X57750Y-33750D01*
X57750Y-20000D02*
X57750Y-23600D01*
X57700Y-34800D02*
X57700Y-35650D01*
X57700Y-32350D02*
X57700Y-33800D01*
X57700Y-20000D02*
X57700Y-23600D01*
X57650Y-34850D02*
X57650Y-35650D01*
X57650Y-32300D02*
X57650Y-33850D01*
X57650Y-20000D02*
X57650Y-23600D01*
X57600Y-34900D02*
X57600Y-35650D01*
X57600Y-32300D02*
X57600Y-33900D01*
X57600Y-20000D02*
X57600Y-24850D01*
X57550Y-34950D02*
X57550Y-35650D01*
X57550Y-33750D02*
X57550Y-33950D01*
X57550Y-18400D02*
X57550Y-24850D01*
X57500Y-35000D02*
X57500Y-35650D01*
X57500Y-33750D02*
X57500Y-34000D01*
X57500Y-18400D02*
X57500Y-24850D01*
X57450Y-35000D02*
X57450Y-35650D01*
X57450Y-33750D02*
X57450Y-34050D01*
X57450Y-18400D02*
X57450Y-24850D01*
X57400Y-35050D02*
X57400Y-35650D01*
X57400Y-33750D02*
X57400Y-34100D01*
X57400Y-18400D02*
X57400Y-24850D01*
X57350Y-35050D02*
X57350Y-35650D01*
X57350Y-33750D02*
X57350Y-34150D01*
X57350Y-18400D02*
X57350Y-24850D01*
X57300Y-35050D02*
X57300Y-35650D01*
X57300Y-33750D02*
X57300Y-34200D01*
X57300Y-18400D02*
X57300Y-24850D01*
X57250Y-35050D02*
X57250Y-35650D01*
X57250Y-33750D02*
X57250Y-34250D01*
X57250Y-18400D02*
X57250Y-24850D01*
X57200Y-35050D02*
X57200Y-35650D01*
X57200Y-33750D02*
X57200Y-34300D01*
X57200Y-18400D02*
X57200Y-24850D01*
X57150Y-35050D02*
X57150Y-35650D01*
X57150Y-33750D02*
X57150Y-34350D01*
X57150Y-18400D02*
X57150Y-24850D01*
X57100Y-35050D02*
X57100Y-35650D01*
X57100Y-33750D02*
X57100Y-34350D01*
X57100Y-18400D02*
X57100Y-24850D01*
X57050Y-35050D02*
X57050Y-35650D01*
X57050Y-33750D02*
X57050Y-34350D01*
X57050Y-18400D02*
X57050Y-24850D01*
X57000Y-35050D02*
X57000Y-35650D01*
X57000Y-33750D02*
X57000Y-34350D01*
X57000Y-18400D02*
X57000Y-24850D01*
X56950Y-35050D02*
X56950Y-35650D01*
X56950Y-33750D02*
X56950Y-34350D01*
X56950Y-18400D02*
X56950Y-24850D01*
X56900Y-35050D02*
X56900Y-35650D01*
X56900Y-33750D02*
X56900Y-34350D01*
X56900Y-18400D02*
X56900Y-24850D01*
X56850Y-35050D02*
X56850Y-35650D01*
X56850Y-33750D02*
X56850Y-34350D01*
X56850Y-18400D02*
X56850Y-24850D01*
X56800Y-35050D02*
X56800Y-35650D01*
X56800Y-33750D02*
X56800Y-34350D01*
X56800Y-18400D02*
X56800Y-24850D01*
X56750Y-35050D02*
X56750Y-35650D01*
X56750Y-33750D02*
X56750Y-34350D01*
X56750Y-28600D02*
X56750Y-28650D01*
X56750Y-18400D02*
X56750Y-24850D01*
X56700Y-35050D02*
X56700Y-35650D01*
X56700Y-33750D02*
X56700Y-34350D01*
X56700Y-28550D02*
X56700Y-28700D01*
X56700Y-18400D02*
X56700Y-24850D01*
X56650Y-35050D02*
X56650Y-35650D01*
X56650Y-33750D02*
X56650Y-34350D01*
X56650Y-28550D02*
X56650Y-28750D01*
X56650Y-18400D02*
X56650Y-24850D01*
X56600Y-35050D02*
X56600Y-35650D01*
X56600Y-31500D02*
X56600Y-34350D01*
X56600Y-28500D02*
X56600Y-28800D01*
X56600Y-18400D02*
X56600Y-24850D01*
X56550Y-35050D02*
X56550Y-35650D01*
X56550Y-31500D02*
X56550Y-34350D01*
X56550Y-28400D02*
X56550Y-28850D01*
X56550Y-18400D02*
X56550Y-24850D01*
X56500Y-35200D02*
X56500Y-35650D01*
X56500Y-31500D02*
X56500Y-33300D01*
X56500Y-28300D02*
X56500Y-28900D01*
X56500Y-18400D02*
X56500Y-24850D01*
X56450Y-35200D02*
X56450Y-35650D01*
X56450Y-31450D02*
X56450Y-33300D01*
X56450Y-28250D02*
X56450Y-28950D01*
X56450Y-23250D02*
X56450Y-24850D01*
X56450Y-18400D02*
X56450Y-21750D01*
X56400Y-35200D02*
X56400Y-35650D01*
X56400Y-31450D02*
X56400Y-33300D01*
X56400Y-28200D02*
X56400Y-29000D01*
X56400Y-23250D02*
X56400Y-24850D01*
X56400Y-18400D02*
X56400Y-21750D01*
X56350Y-35200D02*
X56350Y-35650D01*
X56350Y-31450D02*
X56350Y-33300D01*
X56350Y-28150D02*
X56350Y-29050D01*
X56350Y-23250D02*
X56350Y-24850D01*
X56300Y-35200D02*
X56300Y-35650D01*
X56300Y-33100D02*
X56300Y-33300D01*
X56300Y-31400D02*
X56300Y-32250D01*
X56300Y-28100D02*
X56300Y-29100D01*
X56300Y-23250D02*
X56300Y-24850D01*
X56250Y-35200D02*
X56250Y-35650D01*
X56250Y-33100D02*
X56250Y-33300D01*
X56250Y-31350D02*
X56250Y-32250D01*
X56250Y-28050D02*
X56250Y-29150D01*
X56250Y-23250D02*
X56250Y-24850D01*
X56200Y-35200D02*
X56200Y-35650D01*
X56200Y-33100D02*
X56200Y-33300D01*
X56200Y-31300D02*
X56200Y-32250D01*
X56200Y-28000D02*
X56200Y-29200D01*
X56200Y-23250D02*
X56200Y-24850D01*
X56150Y-35200D02*
X56150Y-35650D01*
X56150Y-33100D02*
X56150Y-33300D01*
X56150Y-31250D02*
X56150Y-32250D01*
X56150Y-27950D02*
X56150Y-29250D01*
X56150Y-23250D02*
X56150Y-24850D01*
X56100Y-35200D02*
X56100Y-35650D01*
X56100Y-33100D02*
X56100Y-33300D01*
X56100Y-31200D02*
X56100Y-32250D01*
X56100Y-28850D02*
X56100Y-29250D01*
X56100Y-27900D02*
X56100Y-28350D01*
X56100Y-23250D02*
X56100Y-24850D01*
X56050Y-35200D02*
X56050Y-35650D01*
X56050Y-33100D02*
X56050Y-33300D01*
X56050Y-31150D02*
X56050Y-32250D01*
X56050Y-28950D02*
X56050Y-29250D01*
X56050Y-27850D02*
X56050Y-28250D01*
X56050Y-23250D02*
X56050Y-24850D01*
X56000Y-35200D02*
X56000Y-35650D01*
X56000Y-33100D02*
X56000Y-33300D01*
X56000Y-31100D02*
X56000Y-32250D01*
X56000Y-29000D02*
X56000Y-29250D01*
X56000Y-27800D02*
X56000Y-28200D01*
X56000Y-23250D02*
X56000Y-24850D01*
X55950Y-35200D02*
X55950Y-35650D01*
X55950Y-33100D02*
X55950Y-33300D01*
X55950Y-31050D02*
X55950Y-32250D01*
X55950Y-29050D02*
X55950Y-29250D01*
X55950Y-27750D02*
X55950Y-28150D01*
X55950Y-23250D02*
X55950Y-24850D01*
X55900Y-35200D02*
X55900Y-35650D01*
X55900Y-31000D02*
X55900Y-32050D01*
X55900Y-29100D02*
X55900Y-29250D01*
X55900Y-27700D02*
X55900Y-28100D01*
X55900Y-23250D02*
X55900Y-24850D01*
X55850Y-35200D02*
X55850Y-35650D01*
X55850Y-30950D02*
X55850Y-31850D01*
X55850Y-29100D02*
X55850Y-29250D01*
X55850Y-27650D02*
X55850Y-28100D01*
X55850Y-23250D02*
X55850Y-24850D01*
X55800Y-33600D02*
X55800Y-35650D01*
X55800Y-30900D02*
X55800Y-31800D01*
X55800Y-29150D02*
X55800Y-29250D01*
X55800Y-27600D02*
X55800Y-28050D01*
X55800Y-23250D02*
X55800Y-24850D01*
X55750Y-35200D02*
X55750Y-35650D01*
X55750Y-30800D02*
X55750Y-31750D01*
X55750Y-29150D02*
X55750Y-29250D01*
X55750Y-27550D02*
X55750Y-28050D01*
X55750Y-23250D02*
X55750Y-24850D01*
X55700Y-35200D02*
X55700Y-35650D01*
X55700Y-30600D02*
X55700Y-31700D01*
X55700Y-29150D02*
X55700Y-29250D01*
X55700Y-27500D02*
X55700Y-28050D01*
X55700Y-23250D02*
X55700Y-24850D01*
X55650Y-35200D02*
X55650Y-35650D01*
X55650Y-30600D02*
X55650Y-31650D01*
X55650Y-29150D02*
X55650Y-29250D01*
X55650Y-27450D02*
X55650Y-28050D01*
X55650Y-23250D02*
X55650Y-24850D01*
X55600Y-35200D02*
X55600Y-35650D01*
X55600Y-30600D02*
X55600Y-31600D01*
X55600Y-29150D02*
X55600Y-29250D01*
X55600Y-27400D02*
X55600Y-28050D01*
X55600Y-23250D02*
X55600Y-24850D01*
X55550Y-35200D02*
X55550Y-35650D01*
X55550Y-30600D02*
X55550Y-31550D01*
X55550Y-29150D02*
X55550Y-29250D01*
X55550Y-27350D02*
X55550Y-28050D01*
X55550Y-23250D02*
X55550Y-24850D01*
X55500Y-35200D02*
X55500Y-35650D01*
X55500Y-30600D02*
X55500Y-31500D01*
X55500Y-29150D02*
X55500Y-29250D01*
X55500Y-27300D02*
X55500Y-28050D01*
X55500Y-23250D02*
X55500Y-24850D01*
X55450Y-35200D02*
X55450Y-35650D01*
X55450Y-30600D02*
X55450Y-31450D01*
X55450Y-29150D02*
X55450Y-29250D01*
X55450Y-27250D02*
X55450Y-28050D01*
X55450Y-23250D02*
X55450Y-24850D01*
X55400Y-35200D02*
X55400Y-35650D01*
X55400Y-30600D02*
X55400Y-31400D01*
X55400Y-29150D02*
X55400Y-29250D01*
X55400Y-27200D02*
X55400Y-28050D01*
X55400Y-23250D02*
X55400Y-24850D01*
X55350Y-35200D02*
X55350Y-35650D01*
X55350Y-30600D02*
X55350Y-31350D01*
X55350Y-29100D02*
X55350Y-29250D01*
X55350Y-27150D02*
X55350Y-28100D01*
X55350Y-23250D02*
X55350Y-24850D01*
X55300Y-35200D02*
X55300Y-35650D01*
X55300Y-30600D02*
X55300Y-31300D01*
X55300Y-29100D02*
X55300Y-29250D01*
X55300Y-27100D02*
X55300Y-28100D01*
X55300Y-23250D02*
X55300Y-24850D01*
X55250Y-35200D02*
X55250Y-35650D01*
X55250Y-30600D02*
X55250Y-31250D01*
X55250Y-29050D02*
X55250Y-29250D01*
X55250Y-27050D02*
X55250Y-28150D01*
X55250Y-23250D02*
X55250Y-24850D01*
X55200Y-35200D02*
X55200Y-35650D01*
X55200Y-33100D02*
X55200Y-33200D01*
X55200Y-32200D02*
X55200Y-32250D01*
X55200Y-30600D02*
X55200Y-31200D01*
X55200Y-29000D02*
X55200Y-29250D01*
X55200Y-27000D02*
X55200Y-28200D01*
X55200Y-23250D02*
X55200Y-24850D01*
X55150Y-35200D02*
X55150Y-35650D01*
X55150Y-33100D02*
X55150Y-33250D01*
X55150Y-32150D02*
X55150Y-32250D01*
X55150Y-30600D02*
X55150Y-31150D01*
X55150Y-28950D02*
X55150Y-29250D01*
X55150Y-26950D02*
X55150Y-28250D01*
X55150Y-23250D02*
X55150Y-24850D01*
X55100Y-35200D02*
X55100Y-35650D01*
X55100Y-33100D02*
X55100Y-33300D01*
X55100Y-32100D02*
X55100Y-32250D01*
X55100Y-30600D02*
X55100Y-31100D01*
X55100Y-28850D02*
X55100Y-29250D01*
X55100Y-26850D02*
X55100Y-28350D01*
X55100Y-23250D02*
X55100Y-24850D01*
X55050Y-33100D02*
X55050Y-35650D01*
X55050Y-32050D02*
X55050Y-32250D01*
X55050Y-30600D02*
X55050Y-31050D01*
X55050Y-26350D02*
X55050Y-29250D01*
X55050Y-23250D02*
X55050Y-24850D01*
X55000Y-33100D02*
X55000Y-35650D01*
X55000Y-32000D02*
X55000Y-32250D01*
X55000Y-30600D02*
X55000Y-31000D01*
X55000Y-26400D02*
X55000Y-29250D01*
X55000Y-23250D02*
X55000Y-24850D01*
X54950Y-33100D02*
X54950Y-35650D01*
X54950Y-31950D02*
X54950Y-32250D01*
X54950Y-30600D02*
X54950Y-31000D01*
X54950Y-26400D02*
X54950Y-29250D01*
X54950Y-23250D02*
X54950Y-24850D01*
X54900Y-33100D02*
X54900Y-35650D01*
X54900Y-31900D02*
X54900Y-32250D01*
X54900Y-30600D02*
X54900Y-30950D01*
X54900Y-26400D02*
X54900Y-29250D01*
X54900Y-23250D02*
X54900Y-24850D01*
X54850Y-33100D02*
X54850Y-35650D01*
X54850Y-31850D02*
X54850Y-32250D01*
X54850Y-30600D02*
X54850Y-30950D01*
X54850Y-26400D02*
X54850Y-29250D01*
X54850Y-23250D02*
X54850Y-24850D01*
X54800Y-33100D02*
X54800Y-35650D01*
X54800Y-31800D02*
X54800Y-32250D01*
X54800Y-30600D02*
X54800Y-30950D01*
X54800Y-26400D02*
X54800Y-29250D01*
X54800Y-23250D02*
X54800Y-24100D01*
X54750Y-33100D02*
X54750Y-35650D01*
X54750Y-31750D02*
X54750Y-32250D01*
X54750Y-30600D02*
X54750Y-30950D01*
X54750Y-26450D02*
X54750Y-29250D01*
X54750Y-23250D02*
X54750Y-24050D01*
X54700Y-33100D02*
X54700Y-35650D01*
X54700Y-31700D02*
X54700Y-32250D01*
X54700Y-30600D02*
X54700Y-30950D01*
X54700Y-26450D02*
X54700Y-29250D01*
X54700Y-23250D02*
X54700Y-24000D01*
X54700Y-18900D02*
X54700Y-19300D01*
X54650Y-33100D02*
X54650Y-35650D01*
X54650Y-31650D02*
X54650Y-32250D01*
X54650Y-30600D02*
X54650Y-30950D01*
X54650Y-26450D02*
X54650Y-29250D01*
X54650Y-23250D02*
X54650Y-23950D01*
X54650Y-18950D02*
X54650Y-19300D01*
X54600Y-33100D02*
X54600Y-35650D01*
X54600Y-31650D02*
X54600Y-32250D01*
X54600Y-30600D02*
X54600Y-30950D01*
X54600Y-26450D02*
X54600Y-29250D01*
X54600Y-23250D02*
X54600Y-23900D01*
X54600Y-19000D02*
X54600Y-19300D01*
X54550Y-33100D02*
X54550Y-35650D01*
X54550Y-31650D02*
X54550Y-32250D01*
X54550Y-30600D02*
X54550Y-30950D01*
X54550Y-26450D02*
X54550Y-29250D01*
X54550Y-23250D02*
X54550Y-23850D01*
X54550Y-19050D02*
X54550Y-19300D01*
X54500Y-33100D02*
X54500Y-35650D01*
X54500Y-31650D02*
X54500Y-32250D01*
X54500Y-30600D02*
X54500Y-30950D01*
X54500Y-26450D02*
X54500Y-29250D01*
X54500Y-23250D02*
X54500Y-23800D01*
X54500Y-19100D02*
X54500Y-19300D01*
X54450Y-33100D02*
X54450Y-35650D01*
X54450Y-31650D02*
X54450Y-32250D01*
X54450Y-30600D02*
X54450Y-30950D01*
X54450Y-26450D02*
X54450Y-29250D01*
X54450Y-23250D02*
X54450Y-23800D01*
X54450Y-19150D02*
X54450Y-19300D01*
X54400Y-33100D02*
X54400Y-35650D01*
X54400Y-31650D02*
X54400Y-32250D01*
X54400Y-30600D02*
X54400Y-30950D01*
X54400Y-26450D02*
X54400Y-29250D01*
X54400Y-19200D02*
X54400Y-19300D01*
X54350Y-33100D02*
X54350Y-35650D01*
X54350Y-31650D02*
X54350Y-32250D01*
X54350Y-30600D02*
X54350Y-30950D01*
X54350Y-26450D02*
X54350Y-29250D01*
X54350Y-19250D02*
X54350Y-19300D01*
X54300Y-33100D02*
X54300Y-35650D01*
X54300Y-31650D02*
X54300Y-32250D01*
X54300Y-30600D02*
X54300Y-30950D01*
X54300Y-26500D02*
X54300Y-29250D01*
X54250Y-31650D02*
X54250Y-35650D01*
X54250Y-29950D02*
X54250Y-30950D01*
X54250Y-26500D02*
X54250Y-29250D01*
X54200Y-31650D02*
X54200Y-35650D01*
X54200Y-30000D02*
X54200Y-30950D01*
X54200Y-26500D02*
X54200Y-29250D01*
X54150Y-31650D02*
X54150Y-35650D01*
X54150Y-30050D02*
X54150Y-30950D01*
X54150Y-26500D02*
X54150Y-29250D01*
X54100Y-31650D02*
X54100Y-35650D01*
X54100Y-30100D02*
X54100Y-30950D01*
X54100Y-26500D02*
X54100Y-29250D01*
X54050Y-31650D02*
X54050Y-35650D01*
X54050Y-30150D02*
X54050Y-30950D01*
X54050Y-26500D02*
X54050Y-29250D01*
X54000Y-32450D02*
X54000Y-35650D01*
X54000Y-26500D02*
X54000Y-29250D01*
X53950Y-32450D02*
X53950Y-35650D01*
X53950Y-26500D02*
X53950Y-29300D01*
X53950Y-22450D02*
X53950Y-22500D01*
X53900Y-32450D02*
X53900Y-35650D01*
X53900Y-26550D02*
X53900Y-29300D01*
X53900Y-22450D02*
X53900Y-22500D01*
X53850Y-32450D02*
X53850Y-35650D01*
X53850Y-26550D02*
X53850Y-29350D01*
X53850Y-22450D02*
X53850Y-22500D01*
X53800Y-32450D02*
X53800Y-35650D01*
X53800Y-26550D02*
X53800Y-29400D01*
X53800Y-22400D02*
X53800Y-22500D01*
X53750Y-32450D02*
X53750Y-35650D01*
X53750Y-26550D02*
X53750Y-29450D01*
X53750Y-22350D02*
X53750Y-22500D01*
X53700Y-32450D02*
X53700Y-35650D01*
X53700Y-26550D02*
X53700Y-29500D01*
X53700Y-22300D02*
X53700Y-22500D01*
X53650Y-32450D02*
X53650Y-35650D01*
X53650Y-26550D02*
X53650Y-29550D01*
X53650Y-22250D02*
X53650Y-22500D01*
X53600Y-32450D02*
X53600Y-35650D01*
X53600Y-26550D02*
X53600Y-29600D01*
X53600Y-22200D02*
X53600Y-22500D01*
X53550Y-32450D02*
X53550Y-35650D01*
X53550Y-26550D02*
X53550Y-29650D01*
X53550Y-22150D02*
X53550Y-22500D01*
X53500Y-32450D02*
X53500Y-35650D01*
X53500Y-26600D02*
X53500Y-29700D01*
X53500Y-22100D02*
X53500Y-22500D01*
X53450Y-32450D02*
X53450Y-35650D01*
X53450Y-26600D02*
X53450Y-29750D01*
X53450Y-22050D02*
X53450Y-22500D01*
X53400Y-32450D02*
X53400Y-35650D01*
X53400Y-26600D02*
X53400Y-29800D01*
X53400Y-22000D02*
X53400Y-22500D01*
X53350Y-32450D02*
X53350Y-35650D01*
X53350Y-26600D02*
X53350Y-29850D01*
X53350Y-22450D02*
X53350Y-22550D01*
X53350Y-21900D02*
X53350Y-22050D01*
X53300Y-32450D02*
X53300Y-35650D01*
X53300Y-26600D02*
X53300Y-29900D01*
X53300Y-21450D02*
X53300Y-21950D01*
X53250Y-32450D02*
X53250Y-35650D01*
X53250Y-26600D02*
X53250Y-29950D01*
X53250Y-21450D02*
X53250Y-21900D01*
X53200Y-32450D02*
X53200Y-35650D01*
X53200Y-26600D02*
X53200Y-30000D01*
X53200Y-21450D02*
X53200Y-21900D01*
X53150Y-32450D02*
X53150Y-35650D01*
X53150Y-26600D02*
X53150Y-30050D01*
X53150Y-21450D02*
X53150Y-21850D01*
X53100Y-32450D02*
X53100Y-35650D01*
X53100Y-26650D02*
X53100Y-30150D01*
X53100Y-21450D02*
X53100Y-21850D01*
X53050Y-32450D02*
X53050Y-35650D01*
X53050Y-26650D02*
X53050Y-30150D01*
X53050Y-21450D02*
X53050Y-21850D01*
X53000Y-32450D02*
X53000Y-35650D01*
X53000Y-26650D02*
X53000Y-30150D01*
X53000Y-21450D02*
X53000Y-21850D01*
X52950Y-32450D02*
X52950Y-35650D01*
X52950Y-26650D02*
X52950Y-30150D01*
X52950Y-21450D02*
X52950Y-21850D01*
X52900Y-32450D02*
X52900Y-35650D01*
X52900Y-26650D02*
X52900Y-30150D01*
X52900Y-21450D02*
X52900Y-21850D01*
X52850Y-31650D02*
X52850Y-35650D01*
X52850Y-26650D02*
X52850Y-30950D01*
X52850Y-21450D02*
X52850Y-21850D01*
X52800Y-31650D02*
X52800Y-35650D01*
X52800Y-26650D02*
X52800Y-30950D01*
X52800Y-21450D02*
X52800Y-21900D01*
X52750Y-31650D02*
X52750Y-35650D01*
X52750Y-26650D02*
X52750Y-30950D01*
X52750Y-21450D02*
X52750Y-21900D01*
X52700Y-31650D02*
X52700Y-35650D01*
X52700Y-26650D02*
X52700Y-30900D01*
X52700Y-21450D02*
X52700Y-21950D01*
X52650Y-31650D02*
X52650Y-35650D01*
X52650Y-26700D02*
X52650Y-30850D01*
X52650Y-21450D02*
X52650Y-22050D01*
X52600Y-31650D02*
X52600Y-35650D01*
X52600Y-26700D02*
X52600Y-30800D01*
X52600Y-21450D02*
X52600Y-22150D01*
X52550Y-31650D02*
X52550Y-35650D01*
X52550Y-26700D02*
X52550Y-30750D01*
X52550Y-21450D02*
X52550Y-22200D01*
X52500Y-31650D02*
X52500Y-35650D01*
X52500Y-26700D02*
X52500Y-30700D01*
X52500Y-21450D02*
X52500Y-22250D01*
X52450Y-31600D02*
X52450Y-35650D01*
X52450Y-26700D02*
X52450Y-30650D01*
X52450Y-21450D02*
X52450Y-22300D01*
X52400Y-31600D02*
X52400Y-35650D01*
X52400Y-26700D02*
X52400Y-30600D01*
X52400Y-21450D02*
X52400Y-22350D01*
X52350Y-31550D02*
X52350Y-35650D01*
X52350Y-26700D02*
X52350Y-30550D01*
X52350Y-20800D02*
X52350Y-21650D01*
X52300Y-31500D02*
X52300Y-35650D01*
X52300Y-26700D02*
X52300Y-30500D01*
X52300Y-20800D02*
X52300Y-21650D01*
X52250Y-31450D02*
X52250Y-35650D01*
X52250Y-26650D02*
X52250Y-30450D01*
X52250Y-20750D02*
X52250Y-21650D01*
X52200Y-31400D02*
X52200Y-35650D01*
X52200Y-26650D02*
X52200Y-30400D01*
X52200Y-20750D02*
X52200Y-21650D01*
X52150Y-31350D02*
X52150Y-35650D01*
X52150Y-26600D02*
X52150Y-30350D01*
X52150Y-20700D02*
X52150Y-21650D01*
X52100Y-31300D02*
X52100Y-35650D01*
X52100Y-27850D02*
X52100Y-30300D01*
X52100Y-26550D02*
X52100Y-27350D01*
X52100Y-20650D02*
X52100Y-21650D01*
X52050Y-31250D02*
X52050Y-35650D01*
X52050Y-27950D02*
X52050Y-30250D01*
X52050Y-26500D02*
X52050Y-27250D01*
X52050Y-20600D02*
X52050Y-21650D01*
X52000Y-31200D02*
X52000Y-35650D01*
X52000Y-28000D02*
X52000Y-30200D01*
X52000Y-26400D02*
X52000Y-27200D01*
X52000Y-20500D02*
X52000Y-21650D01*
X51950Y-31150D02*
X51950Y-35650D01*
X51950Y-28050D02*
X51950Y-30150D01*
X51950Y-26350D02*
X51950Y-27150D01*
X51950Y-20400D02*
X51950Y-21650D01*
X51900Y-31100D02*
X51900Y-35650D01*
X51900Y-26300D02*
X51900Y-27100D01*
X51900Y-20400D02*
X51900Y-21650D01*
X51850Y-31050D02*
X51850Y-35650D01*
X51850Y-26250D02*
X51850Y-27100D01*
X51850Y-20400D02*
X51850Y-21650D01*
X51850Y-19100D02*
X51850Y-19200D01*
X51800Y-31000D02*
X51800Y-35650D01*
X51800Y-26200D02*
X51800Y-27050D01*
X51800Y-20400D02*
X51800Y-21650D01*
X51800Y-18400D02*
X51800Y-19200D01*
X51750Y-30950D02*
X51750Y-35650D01*
X51750Y-26150D02*
X51750Y-27050D01*
X51750Y-20400D02*
X51750Y-21650D01*
X51750Y-18900D02*
X51750Y-19200D01*
X51700Y-30900D02*
X51700Y-35650D01*
X51700Y-26100D02*
X51700Y-27050D01*
X51700Y-20400D02*
X51700Y-21650D01*
X51700Y-18900D02*
X51700Y-19200D01*
X51650Y-30850D02*
X51650Y-35650D01*
X51650Y-26000D02*
X51650Y-27050D01*
X51650Y-20400D02*
X51650Y-21650D01*
X51650Y-18900D02*
X51650Y-19200D01*
X51600Y-30800D02*
X51600Y-35650D01*
X51600Y-25950D02*
X51600Y-27050D01*
X51600Y-20400D02*
X51600Y-21650D01*
X51600Y-18900D02*
X51600Y-19200D01*
X51550Y-30750D02*
X51550Y-35650D01*
X51550Y-25900D02*
X51550Y-27050D01*
X51550Y-23150D02*
X51550Y-23950D01*
X51550Y-20400D02*
X51550Y-21650D01*
X51550Y-18900D02*
X51550Y-19200D01*
X51500Y-30700D02*
X51500Y-35650D01*
X51500Y-25850D02*
X51500Y-27050D01*
X51500Y-23150D02*
X51500Y-24000D01*
X51500Y-20400D02*
X51500Y-21650D01*
X51500Y-18900D02*
X51500Y-19200D01*
X51450Y-30650D02*
X51450Y-35650D01*
X51450Y-25800D02*
X51450Y-27050D01*
X51450Y-23150D02*
X51450Y-24050D01*
X51450Y-20400D02*
X51450Y-21650D01*
X51450Y-18900D02*
X51450Y-19200D01*
X51400Y-30600D02*
X51400Y-35650D01*
X51400Y-25750D02*
X51400Y-27050D01*
X51400Y-20400D02*
X51400Y-24150D01*
X51400Y-18900D02*
X51400Y-19200D01*
X51350Y-30550D02*
X51350Y-35650D01*
X51350Y-25700D02*
X51350Y-27100D01*
X51350Y-20400D02*
X51350Y-24600D01*
X51350Y-18900D02*
X51350Y-19200D01*
X51300Y-30450D02*
X51300Y-35650D01*
X51300Y-25600D02*
X51300Y-27100D01*
X51300Y-20400D02*
X51300Y-24550D01*
X51300Y-18900D02*
X51300Y-19200D01*
X51250Y-28050D02*
X51250Y-35650D01*
X51250Y-25550D02*
X51250Y-27150D01*
X51250Y-20400D02*
X51250Y-24500D01*
X51250Y-18900D02*
X51250Y-19200D01*
X51200Y-28000D02*
X51200Y-35650D01*
X51200Y-25500D02*
X51200Y-27200D01*
X51200Y-20400D02*
X51200Y-24450D01*
X51200Y-18900D02*
X51200Y-19200D01*
X51150Y-27950D02*
X51150Y-35650D01*
X51150Y-25450D02*
X51150Y-27250D01*
X51150Y-18900D02*
X51150Y-24400D01*
X51100Y-27850D02*
X51100Y-35650D01*
X51100Y-25400D02*
X51100Y-27350D01*
X51100Y-18900D02*
X51100Y-24350D01*
X51050Y-25350D02*
X51050Y-35650D01*
X51050Y-23250D02*
X51050Y-24250D01*
X51050Y-22600D02*
X51050Y-22950D01*
X51050Y-18400D02*
X51050Y-21600D01*
X51000Y-25250D02*
X51000Y-35650D01*
X51000Y-23350D02*
X51000Y-23950D01*
X51000Y-22600D02*
X51000Y-22850D01*
X51000Y-18400D02*
X51000Y-21600D01*
X50950Y-25200D02*
X50950Y-35650D01*
X50950Y-22600D02*
X50950Y-22750D01*
X50950Y-18400D02*
X50950Y-21600D01*
X50900Y-25150D02*
X50900Y-35650D01*
X50900Y-22600D02*
X50900Y-22700D01*
X50900Y-18400D02*
X50900Y-21600D01*
X50850Y-25100D02*
X50850Y-35650D01*
X50850Y-22600D02*
X50850Y-22700D01*
X50850Y-18400D02*
X50850Y-21600D01*
X50800Y-25050D02*
X50800Y-35650D01*
X50800Y-22600D02*
X50800Y-22650D01*
X50800Y-18400D02*
X50800Y-21600D01*
X50750Y-25000D02*
X50750Y-35650D01*
X50750Y-22600D02*
X50750Y-22650D01*
X50750Y-18400D02*
X50750Y-21600D01*
X50700Y-24950D02*
X50700Y-35650D01*
X50700Y-18400D02*
X50700Y-21600D01*
X50650Y-24850D02*
X50650Y-35650D01*
X50650Y-18400D02*
X50650Y-21600D01*
X50600Y-24800D02*
X50600Y-35650D01*
X50600Y-18400D02*
X50600Y-21600D01*
X50550Y-24750D02*
X50550Y-35650D01*
X50550Y-18400D02*
X50550Y-21600D01*
X50500Y-24700D02*
X50500Y-35650D01*
X50500Y-18400D02*
X50500Y-21600D01*
X50450Y-24650D02*
X50450Y-35650D01*
X50450Y-22600D02*
X50450Y-22650D01*
X50450Y-18400D02*
X50450Y-21600D01*
X50400Y-24550D02*
X50400Y-35650D01*
X50400Y-22600D02*
X50400Y-22650D01*
X50400Y-18400D02*
X50400Y-21600D01*
X50350Y-24200D02*
X50350Y-35650D01*
X50350Y-22600D02*
X50350Y-22700D01*
X50350Y-18400D02*
X50350Y-21600D01*
X50300Y-23550D02*
X50300Y-35650D01*
X50300Y-22600D02*
X50300Y-22700D01*
X50300Y-18400D02*
X50300Y-21600D01*
X50250Y-23450D02*
X50250Y-35650D01*
X50250Y-22600D02*
X50250Y-22750D01*
X50250Y-18400D02*
X50250Y-21600D01*
X50200Y-23350D02*
X50200Y-35650D01*
X50200Y-22600D02*
X50200Y-22850D01*
X50200Y-18400D02*
X50200Y-21600D01*
X50150Y-23250D02*
X50150Y-35650D01*
X50150Y-22600D02*
X50150Y-22950D01*
X50150Y-18400D02*
X50150Y-21600D01*
X50100Y-18400D02*
X50100Y-35650D01*
X50050Y-18400D02*
X50050Y-35650D01*
X50000Y-18400D02*
X50000Y-35650D01*
X49950Y-18400D02*
X49950Y-35650D01*
X49900Y-18400D02*
X49900Y-35650D01*
X49850Y-18400D02*
X49850Y-35650D01*
X49800Y-18400D02*
X49800Y-35650D01*
X49750Y-18400D02*
X49750Y-35650D01*
X49700Y-18400D02*
X49700Y-35650D01*
X49650Y-18400D02*
X49650Y-35650D01*
X49600Y-18400D02*
X49600Y-35650D01*
X49550Y-18400D02*
X49550Y-35650D01*
X49500Y-18400D02*
X49500Y-35650D01*
X49450Y-18400D02*
X49450Y-35650D01*
X49450Y-35650D02*
X69750Y-35650D01*
X49450Y-35600D02*
X69750Y-35600D01*
X49450Y-35550D02*
X69750Y-35550D01*
X49450Y-35500D02*
X69750Y-35500D01*
X49450Y-35450D02*
X69750Y-35450D01*
X49450Y-35400D02*
X69750Y-35400D01*
X49450Y-35350D02*
X69750Y-35350D01*
X49450Y-35300D02*
X69750Y-35300D01*
X49450Y-35250D02*
X69750Y-35250D01*
X49450Y-35200D02*
X69750Y-35200D01*
X56550Y-35150D02*
X69750Y-35150D01*
X49450Y-35150D02*
X55050Y-35150D01*
X56550Y-35100D02*
X69750Y-35100D01*
X49450Y-35100D02*
X55050Y-35100D01*
X56550Y-35050D02*
X69750Y-35050D01*
X49450Y-35050D02*
X55050Y-35050D01*
X57450Y-35000D02*
X69750Y-35000D01*
X49450Y-35000D02*
X55050Y-35000D01*
X57550Y-34950D02*
X69750Y-34950D01*
X49450Y-34950D02*
X55050Y-34950D01*
X57600Y-34900D02*
X69750Y-34900D01*
X49450Y-34900D02*
X55050Y-34900D01*
X57650Y-34850D02*
X69750Y-34850D01*
X49450Y-34850D02*
X55050Y-34850D01*
X64200Y-34800D02*
X68650Y-34800D01*
X57700Y-34800D02*
X62950Y-34800D01*
X49450Y-34800D02*
X55050Y-34800D01*
X64200Y-34750D02*
X68650Y-34750D01*
X57750Y-34750D02*
X62950Y-34750D01*
X49450Y-34750D02*
X55050Y-34750D01*
X65450Y-34700D02*
X68650Y-34700D01*
X64200Y-34700D02*
X65050Y-34700D01*
X57800Y-34700D02*
X62950Y-34700D01*
X49450Y-34700D02*
X55050Y-34700D01*
X65750Y-34650D02*
X68650Y-34650D01*
X64200Y-34650D02*
X64950Y-34650D01*
X57850Y-34650D02*
X62950Y-34650D01*
X49450Y-34650D02*
X55050Y-34650D01*
X66050Y-34600D02*
X68650Y-34600D01*
X64200Y-34600D02*
X64900Y-34600D01*
X57900Y-34600D02*
X62950Y-34600D01*
X49450Y-34600D02*
X55050Y-34600D01*
X66350Y-34550D02*
X68650Y-34550D01*
X64200Y-34550D02*
X64850Y-34550D01*
X57950Y-34550D02*
X62950Y-34550D01*
X49450Y-34550D02*
X55050Y-34550D01*
X66550Y-34500D02*
X68650Y-34500D01*
X64200Y-34500D02*
X64800Y-34500D01*
X58000Y-34500D02*
X62950Y-34500D01*
X49450Y-34500D02*
X55050Y-34500D01*
X66650Y-34450D02*
X68650Y-34450D01*
X64200Y-34450D02*
X64750Y-34450D01*
X58050Y-34450D02*
X62950Y-34450D01*
X49450Y-34450D02*
X55050Y-34450D01*
X66700Y-34400D02*
X68650Y-34400D01*
X64200Y-34400D02*
X64700Y-34400D01*
X58100Y-34400D02*
X62950Y-34400D01*
X49450Y-34400D02*
X55050Y-34400D01*
X66750Y-34350D02*
X68650Y-34350D01*
X64200Y-34350D02*
X64650Y-34350D01*
X58150Y-34350D02*
X62950Y-34350D01*
X56550Y-34350D02*
X57150Y-34350D01*
X49450Y-34350D02*
X55050Y-34350D01*
X66750Y-34300D02*
X68650Y-34300D01*
X64200Y-34300D02*
X64600Y-34300D01*
X58200Y-34300D02*
X62950Y-34300D01*
X56550Y-34300D02*
X57200Y-34300D01*
X49450Y-34300D02*
X55050Y-34300D01*
X66750Y-34250D02*
X68650Y-34250D01*
X64200Y-34250D02*
X64600Y-34250D01*
X58250Y-34250D02*
X62950Y-34250D01*
X56550Y-34250D02*
X57250Y-34250D01*
X49450Y-34250D02*
X55050Y-34250D01*
X66750Y-34200D02*
X68650Y-34200D01*
X64200Y-34200D02*
X64550Y-34200D01*
X58300Y-34200D02*
X62950Y-34200D01*
X56550Y-34200D02*
X57300Y-34200D01*
X49450Y-34200D02*
X55050Y-34200D01*
X67650Y-34150D02*
X68650Y-34150D01*
X64200Y-34150D02*
X64500Y-34150D01*
X58350Y-34150D02*
X62950Y-34150D01*
X56550Y-34150D02*
X57350Y-34150D01*
X49450Y-34150D02*
X55050Y-34150D01*
X67650Y-34100D02*
X68650Y-34100D01*
X64200Y-34100D02*
X64450Y-34100D01*
X58400Y-34100D02*
X62950Y-34100D01*
X56550Y-34100D02*
X57400Y-34100D01*
X49450Y-34100D02*
X55050Y-34100D01*
X67650Y-34050D02*
X68650Y-34050D01*
X64200Y-34050D02*
X64400Y-34050D01*
X58450Y-34050D02*
X62950Y-34050D01*
X56550Y-34050D02*
X57450Y-34050D01*
X49450Y-34050D02*
X55050Y-34050D01*
X67650Y-34000D02*
X68650Y-34000D01*
X64200Y-34000D02*
X64350Y-34000D01*
X58500Y-34000D02*
X62950Y-34000D01*
X56550Y-34000D02*
X57500Y-34000D01*
X49450Y-34000D02*
X55050Y-34000D01*
X67650Y-33950D02*
X68650Y-33950D01*
X64200Y-33950D02*
X64300Y-33950D01*
X58500Y-33950D02*
X62950Y-33950D01*
X56550Y-33950D02*
X57550Y-33950D01*
X49450Y-33950D02*
X55050Y-33950D01*
X67650Y-33900D02*
X68650Y-33900D01*
X64200Y-33900D02*
X64250Y-33900D01*
X58550Y-33900D02*
X62950Y-33900D01*
X56550Y-33900D02*
X57600Y-33900D01*
X49450Y-33900D02*
X55050Y-33900D01*
X67650Y-33850D02*
X68650Y-33850D01*
X58550Y-33850D02*
X62950Y-33850D01*
X56550Y-33850D02*
X57650Y-33850D01*
X49450Y-33850D02*
X55050Y-33850D01*
X67650Y-33800D02*
X68650Y-33800D01*
X58550Y-33800D02*
X62950Y-33800D01*
X56550Y-33800D02*
X57700Y-33800D01*
X49450Y-33800D02*
X55050Y-33800D01*
X67650Y-33750D02*
X68650Y-33750D01*
X58550Y-33750D02*
X62950Y-33750D01*
X56550Y-33750D02*
X57750Y-33750D01*
X49450Y-33750D02*
X55050Y-33750D01*
X67650Y-33700D02*
X68650Y-33700D01*
X58550Y-33700D02*
X62950Y-33700D01*
X57600Y-33700D02*
X57800Y-33700D01*
X56550Y-33700D02*
X56600Y-33700D01*
X49450Y-33700D02*
X55050Y-33700D01*
X67650Y-33650D02*
X68650Y-33650D01*
X58550Y-33650D02*
X62950Y-33650D01*
X57600Y-33650D02*
X57850Y-33650D01*
X56550Y-33650D02*
X56600Y-33650D01*
X49450Y-33650D02*
X55050Y-33650D01*
X67650Y-33600D02*
X68650Y-33600D01*
X58550Y-33600D02*
X62950Y-33600D01*
X57600Y-33600D02*
X57850Y-33600D01*
X56550Y-33600D02*
X56600Y-33600D01*
X49450Y-33600D02*
X55050Y-33600D01*
X67650Y-33550D02*
X68650Y-33550D01*
X58550Y-33550D02*
X62950Y-33550D01*
X57600Y-33550D02*
X57850Y-33550D01*
X56550Y-33550D02*
X56600Y-33550D01*
X49450Y-33550D02*
X55050Y-33550D01*
X67650Y-33500D02*
X68650Y-33500D01*
X58550Y-33500D02*
X62950Y-33500D01*
X57600Y-33500D02*
X57850Y-33500D01*
X56550Y-33500D02*
X56600Y-33500D01*
X49450Y-33500D02*
X55050Y-33500D01*
X67650Y-33450D02*
X68650Y-33450D01*
X58550Y-33450D02*
X62950Y-33450D01*
X57600Y-33450D02*
X57850Y-33450D01*
X56550Y-33450D02*
X56600Y-33450D01*
X49450Y-33450D02*
X55050Y-33450D01*
X67650Y-33400D02*
X69750Y-33400D01*
X58550Y-33400D02*
X63750Y-33400D01*
X57600Y-33400D02*
X57850Y-33400D01*
X56550Y-33400D02*
X56600Y-33400D01*
X49450Y-33400D02*
X55050Y-33400D01*
X67650Y-33350D02*
X69750Y-33350D01*
X58550Y-33350D02*
X63700Y-33350D01*
X57600Y-33350D02*
X57850Y-33350D01*
X56550Y-33350D02*
X56600Y-33350D01*
X49450Y-33350D02*
X55050Y-33350D01*
X67650Y-33300D02*
X69750Y-33300D01*
X58550Y-33300D02*
X63650Y-33300D01*
X57600Y-33300D02*
X57850Y-33300D01*
X55950Y-33300D02*
X56600Y-33300D01*
X49450Y-33300D02*
X55100Y-33300D01*
X67550Y-33250D02*
X69750Y-33250D01*
X58550Y-33250D02*
X63600Y-33250D01*
X57600Y-33250D02*
X57850Y-33250D01*
X55950Y-33250D02*
X56600Y-33250D01*
X49450Y-33250D02*
X55150Y-33250D01*
X67550Y-33200D02*
X69750Y-33200D01*
X58550Y-33200D02*
X63600Y-33200D01*
X57600Y-33200D02*
X57850Y-33200D01*
X55950Y-33200D02*
X56600Y-33200D01*
X49450Y-33200D02*
X55200Y-33200D01*
X67550Y-33150D02*
X69750Y-33150D01*
X58550Y-33150D02*
X63550Y-33150D01*
X57600Y-33150D02*
X57850Y-33150D01*
X55950Y-33150D02*
X56600Y-33150D01*
X49450Y-33150D02*
X55200Y-33150D01*
X67550Y-33100D02*
X69750Y-33100D01*
X58550Y-33100D02*
X63500Y-33100D01*
X57600Y-33100D02*
X57850Y-33100D01*
X55950Y-33100D02*
X56600Y-33100D01*
X49450Y-33100D02*
X55200Y-33100D01*
X67550Y-33050D02*
X69750Y-33050D01*
X58550Y-33050D02*
X63450Y-33050D01*
X57600Y-33050D02*
X57850Y-33050D01*
X56350Y-33050D02*
X56600Y-33050D01*
X49450Y-33050D02*
X54250Y-33050D01*
X67550Y-33000D02*
X69750Y-33000D01*
X58550Y-33000D02*
X63400Y-33000D01*
X56350Y-33000D02*
X57850Y-33000D01*
X49450Y-33000D02*
X54250Y-33000D01*
X67550Y-32950D02*
X69750Y-32950D01*
X58550Y-32950D02*
X63350Y-32950D01*
X57600Y-32950D02*
X57850Y-32950D01*
X56350Y-32950D02*
X56600Y-32950D01*
X49450Y-32950D02*
X54250Y-32950D01*
X67550Y-32900D02*
X69750Y-32900D01*
X58550Y-32900D02*
X63300Y-32900D01*
X57600Y-32900D02*
X57850Y-32900D01*
X56350Y-32900D02*
X56600Y-32900D01*
X49450Y-32900D02*
X54250Y-32900D01*
X67550Y-32850D02*
X69750Y-32850D01*
X58550Y-32850D02*
X63250Y-32850D01*
X57600Y-32850D02*
X57850Y-32850D01*
X56350Y-32850D02*
X56600Y-32850D01*
X49450Y-32850D02*
X54250Y-32850D01*
X67550Y-32800D02*
X69750Y-32800D01*
X58550Y-32800D02*
X63200Y-32800D01*
X57600Y-32800D02*
X57850Y-32800D01*
X56350Y-32800D02*
X56600Y-32800D01*
X49450Y-32800D02*
X54250Y-32800D01*
X67550Y-32750D02*
X69750Y-32750D01*
X58550Y-32750D02*
X63150Y-32750D01*
X57600Y-32750D02*
X57850Y-32750D01*
X56350Y-32750D02*
X56600Y-32750D01*
X49450Y-32750D02*
X54250Y-32750D01*
X67550Y-32700D02*
X69750Y-32700D01*
X57600Y-32700D02*
X57700Y-32700D01*
X56350Y-32700D02*
X56600Y-32700D01*
X49450Y-32700D02*
X54250Y-32700D01*
X67550Y-32650D02*
X69750Y-32650D01*
X57600Y-32650D02*
X57700Y-32650D01*
X56350Y-32650D02*
X56600Y-32650D01*
X49450Y-32650D02*
X54250Y-32650D01*
X67550Y-32600D02*
X69750Y-32600D01*
X57600Y-32600D02*
X57700Y-32600D01*
X56350Y-32600D02*
X56600Y-32600D01*
X49450Y-32600D02*
X54250Y-32600D01*
X67550Y-32550D02*
X69750Y-32550D01*
X57600Y-32550D02*
X57700Y-32550D01*
X56350Y-32550D02*
X56600Y-32550D01*
X49450Y-32550D02*
X54250Y-32550D01*
X67550Y-32500D02*
X69750Y-32500D01*
X57600Y-32500D02*
X57700Y-32500D01*
X56350Y-32500D02*
X56600Y-32500D01*
X49450Y-32500D02*
X54250Y-32500D01*
X67550Y-32450D02*
X69750Y-32450D01*
X57600Y-32450D02*
X57700Y-32450D01*
X56350Y-32450D02*
X56600Y-32450D01*
X49450Y-32450D02*
X54250Y-32450D01*
X67550Y-32400D02*
X69750Y-32400D01*
X57600Y-32400D02*
X57700Y-32400D01*
X56350Y-32400D02*
X56600Y-32400D01*
X54050Y-32400D02*
X54250Y-32400D01*
X49450Y-32400D02*
X52850Y-32400D01*
X67550Y-32350D02*
X69750Y-32350D01*
X57600Y-32350D02*
X57700Y-32350D01*
X56350Y-32350D02*
X56600Y-32350D01*
X54050Y-32350D02*
X54250Y-32350D01*
X49450Y-32350D02*
X52850Y-32350D01*
X67550Y-32300D02*
X69750Y-32300D01*
X57600Y-32300D02*
X57650Y-32300D01*
X56350Y-32300D02*
X56600Y-32300D01*
X54050Y-32300D02*
X54250Y-32300D01*
X49450Y-32300D02*
X52850Y-32300D01*
X67550Y-32250D02*
X69750Y-32250D01*
X55950Y-32250D02*
X56750Y-32250D01*
X54050Y-32250D02*
X55200Y-32250D01*
X49450Y-32250D02*
X52850Y-32250D01*
X67550Y-32200D02*
X69750Y-32200D01*
X55950Y-32200D02*
X56600Y-32200D01*
X54050Y-32200D02*
X55200Y-32200D01*
X49450Y-32200D02*
X52850Y-32200D01*
X67550Y-32150D02*
X69750Y-32150D01*
X55950Y-32150D02*
X56600Y-32150D01*
X54050Y-32150D02*
X55150Y-32150D01*
X49450Y-32150D02*
X52850Y-32150D01*
X67550Y-32100D02*
X69750Y-32100D01*
X55950Y-32100D02*
X56600Y-32100D01*
X54050Y-32100D02*
X55100Y-32100D01*
X49450Y-32100D02*
X52850Y-32100D01*
X67550Y-32050D02*
X69750Y-32050D01*
X55900Y-32050D02*
X56600Y-32050D01*
X54050Y-32050D02*
X55050Y-32050D01*
X49450Y-32050D02*
X52850Y-32050D01*
X67550Y-32000D02*
X69750Y-32000D01*
X55900Y-32000D02*
X56600Y-32000D01*
X54050Y-32000D02*
X55000Y-32000D01*
X49450Y-32000D02*
X52850Y-32000D01*
X67550Y-31950D02*
X69750Y-31950D01*
X55900Y-31950D02*
X56600Y-31950D01*
X54050Y-31950D02*
X54950Y-31950D01*
X49450Y-31950D02*
X52850Y-31950D01*
X67550Y-31900D02*
X69750Y-31900D01*
X55900Y-31900D02*
X56600Y-31900D01*
X54050Y-31900D02*
X54900Y-31900D01*
X49450Y-31900D02*
X52850Y-31900D01*
X67550Y-31850D02*
X69750Y-31850D01*
X55850Y-31850D02*
X56600Y-31850D01*
X54050Y-31850D02*
X54850Y-31850D01*
X49450Y-31850D02*
X52850Y-31850D01*
X67550Y-31800D02*
X69750Y-31800D01*
X55800Y-31800D02*
X56600Y-31800D01*
X54050Y-31800D02*
X54800Y-31800D01*
X49450Y-31800D02*
X52850Y-31800D01*
X67550Y-31750D02*
X69750Y-31750D01*
X55750Y-31750D02*
X56600Y-31750D01*
X54050Y-31750D02*
X54750Y-31750D01*
X49450Y-31750D02*
X52850Y-31750D01*
X67550Y-31700D02*
X69750Y-31700D01*
X55700Y-31700D02*
X56600Y-31700D01*
X54050Y-31700D02*
X54700Y-31700D01*
X49450Y-31700D02*
X52850Y-31700D01*
X67550Y-31650D02*
X69750Y-31650D01*
X55650Y-31650D02*
X56600Y-31650D01*
X54050Y-31650D02*
X54650Y-31650D01*
X49450Y-31650D02*
X52850Y-31650D01*
X67550Y-31600D02*
X69750Y-31600D01*
X55600Y-31600D02*
X56600Y-31600D01*
X49450Y-31600D02*
X52450Y-31600D01*
X67550Y-31550D02*
X69750Y-31550D01*
X55550Y-31550D02*
X56600Y-31550D01*
X49450Y-31550D02*
X52350Y-31550D01*
X67550Y-31500D02*
X69750Y-31500D01*
X55500Y-31500D02*
X57250Y-31500D01*
X49450Y-31500D02*
X52300Y-31500D01*
X67550Y-31450D02*
X69750Y-31450D01*
X55450Y-31450D02*
X56450Y-31450D01*
X49450Y-31450D02*
X52250Y-31450D01*
X67550Y-31400D02*
X69750Y-31400D01*
X55400Y-31400D02*
X56300Y-31400D01*
X49450Y-31400D02*
X52200Y-31400D01*
X67550Y-31350D02*
X69750Y-31350D01*
X55350Y-31350D02*
X56250Y-31350D01*
X49450Y-31350D02*
X52150Y-31350D01*
X67550Y-31300D02*
X69750Y-31300D01*
X55300Y-31300D02*
X56200Y-31300D01*
X49450Y-31300D02*
X52100Y-31300D01*
X67550Y-31250D02*
X69750Y-31250D01*
X55250Y-31250D02*
X56150Y-31250D01*
X49450Y-31250D02*
X52050Y-31250D01*
X67550Y-31200D02*
X69750Y-31200D01*
X55200Y-31200D02*
X56100Y-31200D01*
X49450Y-31200D02*
X52000Y-31200D01*
X67550Y-31150D02*
X69750Y-31150D01*
X55150Y-31150D02*
X56050Y-31150D01*
X49450Y-31150D02*
X51950Y-31150D01*
X67550Y-31100D02*
X69750Y-31100D01*
X55100Y-31100D02*
X56000Y-31100D01*
X49450Y-31100D02*
X51900Y-31100D01*
X67550Y-31050D02*
X69750Y-31050D01*
X55050Y-31050D02*
X55950Y-31050D01*
X49450Y-31050D02*
X51850Y-31050D01*
X67550Y-31000D02*
X69750Y-31000D01*
X54950Y-31000D02*
X55900Y-31000D01*
X49450Y-31000D02*
X51800Y-31000D01*
X67550Y-30950D02*
X69750Y-30950D01*
X54050Y-30950D02*
X55850Y-30950D01*
X52750Y-30950D02*
X52850Y-30950D01*
X49450Y-30950D02*
X51750Y-30950D01*
X67550Y-30900D02*
X69750Y-30900D01*
X54050Y-30900D02*
X55800Y-30900D01*
X52700Y-30900D02*
X52850Y-30900D01*
X49450Y-30900D02*
X51700Y-30900D01*
X67550Y-30850D02*
X69750Y-30850D01*
X54050Y-30850D02*
X55750Y-30850D01*
X52650Y-30850D02*
X52850Y-30850D01*
X49450Y-30850D02*
X51650Y-30850D01*
X67550Y-30800D02*
X69750Y-30800D01*
X54050Y-30800D02*
X55750Y-30800D01*
X52600Y-30800D02*
X52850Y-30800D01*
X49450Y-30800D02*
X51600Y-30800D01*
X67550Y-30750D02*
X69750Y-30750D01*
X54050Y-30750D02*
X55700Y-30750D01*
X52550Y-30750D02*
X52850Y-30750D01*
X49450Y-30750D02*
X51550Y-30750D01*
X67550Y-30700D02*
X69750Y-30700D01*
X54050Y-30700D02*
X55700Y-30700D01*
X52500Y-30700D02*
X52850Y-30700D01*
X49450Y-30700D02*
X51500Y-30700D01*
X67550Y-30650D02*
X69750Y-30650D01*
X54050Y-30650D02*
X55700Y-30650D01*
X52450Y-30650D02*
X52850Y-30650D01*
X49450Y-30650D02*
X51450Y-30650D01*
X67550Y-30600D02*
X69750Y-30600D01*
X54050Y-30600D02*
X55700Y-30600D01*
X52400Y-30600D02*
X52850Y-30600D01*
X49450Y-30600D02*
X51400Y-30600D01*
X67550Y-30550D02*
X69750Y-30550D01*
X54050Y-30550D02*
X54250Y-30550D01*
X52350Y-30550D02*
X52850Y-30550D01*
X49450Y-30550D02*
X51350Y-30550D01*
X67550Y-30500D02*
X69750Y-30500D01*
X54050Y-30500D02*
X54250Y-30500D01*
X52300Y-30500D02*
X52850Y-30500D01*
X49450Y-30500D02*
X51300Y-30500D01*
X67550Y-30450D02*
X69750Y-30450D01*
X54050Y-30450D02*
X54250Y-30450D01*
X52250Y-30450D02*
X52850Y-30450D01*
X49450Y-30450D02*
X51300Y-30450D01*
X67550Y-30400D02*
X69750Y-30400D01*
X54050Y-30400D02*
X54250Y-30400D01*
X52200Y-30400D02*
X52850Y-30400D01*
X49450Y-30400D02*
X51250Y-30400D01*
X67550Y-30350D02*
X69750Y-30350D01*
X54050Y-30350D02*
X54250Y-30350D01*
X52150Y-30350D02*
X52850Y-30350D01*
X49450Y-30350D02*
X51250Y-30350D01*
X67550Y-30300D02*
X69750Y-30300D01*
X54050Y-30300D02*
X54250Y-30300D01*
X52100Y-30300D02*
X52850Y-30300D01*
X49450Y-30300D02*
X51250Y-30300D01*
X67550Y-30250D02*
X69750Y-30250D01*
X54050Y-30250D02*
X54250Y-30250D01*
X52050Y-30250D02*
X52850Y-30250D01*
X49450Y-30250D02*
X51250Y-30250D01*
X67550Y-30200D02*
X69750Y-30200D01*
X54050Y-30200D02*
X54250Y-30200D01*
X52000Y-30200D02*
X52850Y-30200D01*
X49450Y-30200D02*
X51250Y-30200D01*
X67550Y-30150D02*
X69750Y-30150D01*
X54050Y-30150D02*
X54250Y-30150D01*
X51950Y-30150D02*
X53100Y-30150D01*
X49450Y-30150D02*
X51250Y-30150D01*
X67550Y-30100D02*
X69750Y-30100D01*
X54100Y-30100D02*
X54250Y-30100D01*
X51950Y-30100D02*
X53100Y-30100D01*
X49450Y-30100D02*
X51250Y-30100D01*
X67550Y-30050D02*
X69750Y-30050D01*
X54150Y-30050D02*
X54250Y-30050D01*
X51950Y-30050D02*
X53150Y-30050D01*
X49450Y-30050D02*
X51250Y-30050D01*
X67550Y-30000D02*
X69750Y-30000D01*
X54200Y-30000D02*
X54250Y-30000D01*
X51950Y-30000D02*
X53200Y-30000D01*
X49450Y-30000D02*
X51250Y-30000D01*
X67550Y-29950D02*
X69750Y-29950D01*
X51950Y-29950D02*
X53250Y-29950D01*
X49450Y-29950D02*
X51250Y-29950D01*
X67550Y-29900D02*
X69750Y-29900D01*
X51950Y-29900D02*
X53300Y-29900D01*
X49450Y-29900D02*
X51250Y-29900D01*
X67550Y-29850D02*
X69750Y-29850D01*
X51950Y-29850D02*
X53350Y-29850D01*
X49450Y-29850D02*
X51250Y-29850D01*
X67550Y-29800D02*
X69750Y-29800D01*
X51950Y-29800D02*
X53400Y-29800D01*
X49450Y-29800D02*
X51250Y-29800D01*
X67550Y-29750D02*
X69750Y-29750D01*
X51950Y-29750D02*
X53450Y-29750D01*
X49450Y-29750D02*
X51250Y-29750D01*
X67550Y-29700D02*
X69750Y-29700D01*
X51950Y-29700D02*
X53500Y-29700D01*
X49450Y-29700D02*
X51250Y-29700D01*
X67550Y-29650D02*
X69750Y-29650D01*
X51950Y-29650D02*
X53550Y-29650D01*
X49450Y-29650D02*
X51250Y-29650D01*
X67550Y-29600D02*
X69750Y-29600D01*
X51950Y-29600D02*
X53600Y-29600D01*
X49450Y-29600D02*
X51250Y-29600D01*
X67550Y-29550D02*
X69750Y-29550D01*
X51950Y-29550D02*
X53650Y-29550D01*
X49450Y-29550D02*
X51250Y-29550D01*
X67550Y-29500D02*
X69750Y-29500D01*
X51950Y-29500D02*
X53700Y-29500D01*
X49450Y-29500D02*
X51250Y-29500D01*
X67550Y-29450D02*
X69750Y-29450D01*
X51950Y-29450D02*
X53750Y-29450D01*
X49450Y-29450D02*
X51250Y-29450D01*
X67550Y-29400D02*
X69750Y-29400D01*
X51950Y-29400D02*
X53800Y-29400D01*
X49450Y-29400D02*
X51250Y-29400D01*
X67550Y-29350D02*
X69750Y-29350D01*
X51950Y-29350D02*
X53850Y-29350D01*
X49450Y-29350D02*
X51250Y-29350D01*
X67550Y-29300D02*
X69750Y-29300D01*
X51950Y-29300D02*
X53950Y-29300D01*
X49450Y-29300D02*
X51250Y-29300D01*
X67550Y-29250D02*
X69750Y-29250D01*
X51950Y-29250D02*
X56150Y-29250D01*
X49450Y-29250D02*
X51250Y-29250D01*
X67550Y-29200D02*
X69750Y-29200D01*
X51950Y-29200D02*
X56200Y-29200D01*
X49450Y-29200D02*
X51250Y-29200D01*
X67550Y-29150D02*
X69750Y-29150D01*
X51950Y-29150D02*
X56250Y-29150D01*
X49450Y-29150D02*
X51250Y-29150D01*
X69000Y-29100D02*
X69750Y-29100D01*
X67550Y-29100D02*
X67750Y-29100D01*
X55850Y-29100D02*
X56300Y-29100D01*
X51950Y-29100D02*
X55350Y-29100D01*
X49450Y-29100D02*
X51250Y-29100D01*
X69000Y-29050D02*
X69750Y-29050D01*
X67550Y-29050D02*
X67750Y-29050D01*
X55950Y-29050D02*
X56350Y-29050D01*
X51950Y-29050D02*
X55250Y-29050D01*
X49450Y-29050D02*
X51250Y-29050D01*
X69000Y-29000D02*
X69750Y-29000D01*
X67550Y-29000D02*
X67750Y-29000D01*
X56000Y-29000D02*
X56400Y-29000D01*
X51950Y-29000D02*
X55200Y-29000D01*
X49450Y-29000D02*
X51250Y-29000D01*
X69000Y-28950D02*
X69750Y-28950D01*
X67550Y-28950D02*
X67750Y-28950D01*
X56050Y-28950D02*
X56450Y-28950D01*
X51950Y-28950D02*
X55150Y-28950D01*
X49450Y-28950D02*
X51250Y-28950D01*
X69000Y-28900D02*
X69750Y-28900D01*
X67550Y-28900D02*
X67750Y-28900D01*
X56100Y-28900D02*
X56500Y-28900D01*
X51950Y-28900D02*
X55100Y-28900D01*
X49450Y-28900D02*
X51250Y-28900D01*
X69000Y-28850D02*
X69750Y-28850D01*
X67550Y-28850D02*
X67750Y-28850D01*
X56100Y-28850D02*
X56550Y-28850D01*
X51950Y-28850D02*
X55100Y-28850D01*
X49450Y-28850D02*
X51250Y-28850D01*
X69000Y-28800D02*
X69750Y-28800D01*
X67550Y-28800D02*
X67750Y-28800D01*
X56150Y-28800D02*
X56600Y-28800D01*
X51950Y-28800D02*
X55050Y-28800D01*
X49450Y-28800D02*
X51250Y-28800D01*
X69000Y-28750D02*
X69750Y-28750D01*
X67550Y-28750D02*
X67750Y-28750D01*
X56150Y-28750D02*
X56650Y-28750D01*
X51950Y-28750D02*
X55050Y-28750D01*
X49450Y-28750D02*
X51250Y-28750D01*
X69000Y-28700D02*
X69750Y-28700D01*
X67550Y-28700D02*
X67750Y-28700D01*
X56150Y-28700D02*
X56700Y-28700D01*
X51950Y-28700D02*
X55050Y-28700D01*
X49450Y-28700D02*
X51250Y-28700D01*
X69000Y-28650D02*
X69750Y-28650D01*
X67550Y-28650D02*
X67750Y-28650D01*
X56150Y-28650D02*
X56750Y-28650D01*
X51950Y-28650D02*
X55050Y-28650D01*
X49450Y-28650D02*
X51250Y-28650D01*
X69000Y-28600D02*
X69750Y-28600D01*
X67550Y-28600D02*
X67750Y-28600D01*
X56150Y-28600D02*
X56800Y-28600D01*
X51950Y-28600D02*
X55050Y-28600D01*
X49450Y-28600D02*
X51250Y-28600D01*
X69000Y-28550D02*
X69750Y-28550D01*
X67550Y-28550D02*
X67750Y-28550D01*
X56150Y-28550D02*
X56700Y-28550D01*
X51950Y-28550D02*
X55050Y-28550D01*
X49450Y-28550D02*
X51250Y-28550D01*
X69000Y-28500D02*
X69750Y-28500D01*
X67550Y-28500D02*
X67750Y-28500D01*
X56150Y-28500D02*
X56600Y-28500D01*
X51950Y-28500D02*
X55050Y-28500D01*
X49450Y-28500D02*
X51250Y-28500D01*
X69000Y-28450D02*
X69750Y-28450D01*
X67550Y-28450D02*
X67750Y-28450D01*
X56150Y-28450D02*
X56550Y-28450D01*
X51950Y-28450D02*
X55050Y-28450D01*
X49450Y-28450D02*
X51250Y-28450D01*
X69000Y-28400D02*
X69750Y-28400D01*
X67550Y-28400D02*
X67750Y-28400D01*
X56150Y-28400D02*
X56550Y-28400D01*
X51950Y-28400D02*
X55050Y-28400D01*
X49450Y-28400D02*
X51250Y-28400D01*
X69000Y-28350D02*
X69750Y-28350D01*
X67550Y-28350D02*
X67750Y-28350D01*
X56100Y-28350D02*
X56500Y-28350D01*
X51950Y-28350D02*
X55100Y-28350D01*
X49450Y-28350D02*
X51250Y-28350D01*
X69000Y-28300D02*
X69750Y-28300D01*
X67550Y-28300D02*
X67750Y-28300D01*
X56100Y-28300D02*
X56500Y-28300D01*
X51950Y-28300D02*
X55100Y-28300D01*
X49450Y-28300D02*
X51250Y-28300D01*
X69000Y-28250D02*
X69750Y-28250D01*
X67550Y-28250D02*
X67750Y-28250D01*
X56050Y-28250D02*
X56450Y-28250D01*
X51950Y-28250D02*
X55150Y-28250D01*
X49450Y-28250D02*
X51250Y-28250D01*
X69000Y-28200D02*
X69750Y-28200D01*
X67550Y-28200D02*
X67750Y-28200D01*
X56000Y-28200D02*
X56400Y-28200D01*
X51950Y-28200D02*
X55200Y-28200D01*
X49450Y-28200D02*
X51250Y-28200D01*
X69000Y-28150D02*
X69750Y-28150D01*
X67550Y-28150D02*
X67750Y-28150D01*
X55950Y-28150D02*
X56350Y-28150D01*
X51950Y-28150D02*
X55250Y-28150D01*
X49450Y-28150D02*
X51250Y-28150D01*
X69000Y-28100D02*
X69750Y-28100D01*
X67550Y-28100D02*
X67750Y-28100D01*
X55850Y-28100D02*
X56300Y-28100D01*
X51950Y-28100D02*
X55350Y-28100D01*
X49450Y-28100D02*
X51250Y-28100D01*
X69000Y-28050D02*
X69750Y-28050D01*
X67550Y-28050D02*
X67750Y-28050D01*
X51950Y-28050D02*
X56250Y-28050D01*
X49450Y-28050D02*
X51250Y-28050D01*
X69000Y-28000D02*
X69750Y-28000D01*
X67550Y-28000D02*
X67750Y-28000D01*
X52000Y-28000D02*
X56200Y-28000D01*
X49450Y-28000D02*
X51200Y-28000D01*
X69000Y-27950D02*
X69750Y-27950D01*
X67550Y-27950D02*
X67750Y-27950D01*
X52050Y-27950D02*
X56150Y-27950D01*
X49450Y-27950D02*
X51150Y-27950D01*
X69000Y-27900D02*
X69750Y-27900D01*
X67550Y-27900D02*
X67750Y-27900D01*
X52100Y-27900D02*
X56100Y-27900D01*
X49450Y-27900D02*
X51100Y-27900D01*
X67550Y-27850D02*
X69750Y-27850D01*
X52100Y-27850D02*
X56050Y-27850D01*
X49450Y-27850D02*
X51100Y-27850D01*
X67550Y-27800D02*
X69750Y-27800D01*
X52150Y-27800D02*
X56000Y-27800D01*
X49450Y-27800D02*
X51050Y-27800D01*
X67550Y-27750D02*
X69750Y-27750D01*
X52150Y-27750D02*
X55950Y-27750D01*
X49450Y-27750D02*
X51050Y-27750D01*
X67550Y-27700D02*
X69750Y-27700D01*
X52150Y-27700D02*
X55900Y-27700D01*
X49450Y-27700D02*
X51050Y-27700D01*
X67550Y-27650D02*
X69750Y-27650D01*
X52150Y-27650D02*
X55850Y-27650D01*
X49450Y-27650D02*
X51050Y-27650D01*
X67550Y-27600D02*
X69750Y-27600D01*
X52150Y-27600D02*
X55800Y-27600D01*
X49450Y-27600D02*
X51050Y-27600D01*
X67550Y-27550D02*
X69750Y-27550D01*
X52150Y-27550D02*
X55750Y-27550D01*
X49450Y-27550D02*
X51050Y-27550D01*
X67550Y-27500D02*
X69750Y-27500D01*
X64650Y-27500D02*
X65100Y-27500D01*
X62400Y-27500D02*
X63450Y-27500D01*
X52150Y-27500D02*
X55700Y-27500D01*
X49450Y-27500D02*
X51050Y-27500D01*
X67550Y-27450D02*
X69750Y-27450D01*
X64650Y-27450D02*
X65150Y-27450D01*
X62400Y-27450D02*
X63450Y-27450D01*
X52150Y-27450D02*
X55650Y-27450D01*
X49450Y-27450D02*
X51050Y-27450D01*
X67550Y-27400D02*
X69750Y-27400D01*
X64650Y-27400D02*
X65200Y-27400D01*
X62550Y-27400D02*
X63450Y-27400D01*
X52150Y-27400D02*
X55600Y-27400D01*
X49450Y-27400D02*
X51050Y-27400D01*
X67550Y-27350D02*
X69750Y-27350D01*
X64650Y-27350D02*
X65250Y-27350D01*
X62650Y-27350D02*
X63450Y-27350D01*
X60650Y-27350D02*
X60700Y-27350D01*
X52100Y-27350D02*
X55550Y-27350D01*
X49450Y-27350D02*
X51100Y-27350D01*
X67550Y-27300D02*
X69750Y-27300D01*
X64650Y-27300D02*
X65300Y-27300D01*
X62700Y-27300D02*
X63450Y-27300D01*
X60600Y-27300D02*
X60700Y-27300D01*
X52100Y-27300D02*
X55500Y-27300D01*
X49450Y-27300D02*
X51100Y-27300D01*
X67750Y-27250D02*
X69750Y-27250D01*
X64650Y-27250D02*
X65350Y-27250D01*
X62750Y-27250D02*
X63450Y-27250D01*
X60550Y-27250D02*
X60750Y-27250D01*
X52050Y-27250D02*
X55450Y-27250D01*
X49450Y-27250D02*
X51150Y-27250D01*
X67750Y-27200D02*
X69750Y-27200D01*
X64650Y-27200D02*
X65400Y-27200D01*
X62800Y-27200D02*
X63450Y-27200D01*
X60500Y-27200D02*
X60800Y-27200D01*
X52000Y-27200D02*
X55400Y-27200D01*
X49450Y-27200D02*
X51200Y-27200D01*
X67750Y-27150D02*
X69750Y-27150D01*
X64650Y-27150D02*
X65450Y-27150D01*
X62850Y-27150D02*
X63450Y-27150D01*
X60450Y-27150D02*
X60850Y-27150D01*
X51950Y-27150D02*
X55350Y-27150D01*
X49450Y-27150D02*
X51250Y-27150D01*
X67750Y-27100D02*
X69750Y-27100D01*
X64650Y-27100D02*
X65500Y-27100D01*
X62900Y-27100D02*
X63450Y-27100D01*
X60400Y-27100D02*
X60900Y-27100D01*
X51850Y-27100D02*
X55300Y-27100D01*
X49450Y-27100D02*
X51350Y-27100D01*
X67750Y-27050D02*
X69750Y-27050D01*
X64650Y-27050D02*
X65550Y-27050D01*
X62900Y-27050D02*
X63450Y-27050D01*
X60350Y-27050D02*
X60950Y-27050D01*
X49450Y-27050D02*
X55250Y-27050D01*
X67750Y-27000D02*
X69750Y-27000D01*
X64650Y-27000D02*
X65600Y-27000D01*
X62950Y-27000D02*
X63450Y-27000D01*
X60300Y-27000D02*
X61000Y-27000D01*
X49450Y-27000D02*
X55200Y-27000D01*
X67750Y-26950D02*
X69750Y-26950D01*
X64650Y-26950D02*
X65650Y-26950D01*
X62950Y-26950D02*
X63450Y-26950D01*
X60250Y-26950D02*
X61050Y-26950D01*
X49450Y-26950D02*
X55150Y-26950D01*
X67750Y-26900D02*
X69750Y-26900D01*
X64650Y-26900D02*
X65700Y-26900D01*
X62950Y-26900D02*
X63450Y-26900D01*
X60200Y-26900D02*
X61100Y-26900D01*
X49450Y-26900D02*
X55100Y-26900D01*
X67750Y-26850D02*
X69750Y-26850D01*
X64650Y-26850D02*
X65750Y-26850D01*
X62950Y-26850D02*
X63450Y-26850D01*
X60150Y-26850D02*
X61150Y-26850D01*
X49450Y-26850D02*
X55100Y-26850D01*
X67750Y-26800D02*
X69750Y-26800D01*
X64650Y-26800D02*
X65800Y-26800D01*
X62950Y-26800D02*
X63450Y-26800D01*
X60100Y-26800D02*
X61100Y-26800D01*
X49450Y-26800D02*
X55050Y-26800D01*
X67750Y-26750D02*
X69750Y-26750D01*
X64650Y-26750D02*
X65850Y-26750D01*
X62950Y-26750D02*
X63450Y-26750D01*
X60050Y-26750D02*
X61050Y-26750D01*
X49450Y-26750D02*
X55050Y-26750D01*
X67750Y-26700D02*
X69750Y-26700D01*
X64650Y-26700D02*
X65900Y-26700D01*
X62950Y-26700D02*
X63450Y-26700D01*
X60000Y-26700D02*
X61000Y-26700D01*
X49450Y-26700D02*
X55050Y-26700D01*
X67750Y-26650D02*
X69750Y-26650D01*
X64650Y-26650D02*
X65950Y-26650D01*
X62950Y-26650D02*
X63450Y-26650D01*
X59950Y-26650D02*
X60950Y-26650D01*
X52700Y-26650D02*
X55050Y-26650D01*
X49450Y-26650D02*
X52250Y-26650D01*
X67750Y-26600D02*
X69750Y-26600D01*
X64650Y-26600D02*
X66000Y-26600D01*
X62950Y-26600D02*
X63450Y-26600D01*
X59900Y-26600D02*
X60900Y-26600D01*
X53150Y-26600D02*
X55050Y-26600D01*
X49450Y-26600D02*
X52150Y-26600D01*
X67750Y-26550D02*
X69750Y-26550D01*
X64650Y-26550D02*
X66050Y-26550D01*
X62950Y-26550D02*
X63450Y-26550D01*
X59900Y-26550D02*
X60850Y-26550D01*
X53550Y-26550D02*
X55050Y-26550D01*
X49450Y-26550D02*
X52100Y-26550D01*
X67750Y-26500D02*
X69750Y-26500D01*
X64650Y-26500D02*
X66100Y-26500D01*
X62950Y-26500D02*
X63450Y-26500D01*
X59850Y-26500D02*
X60800Y-26500D01*
X53950Y-26500D02*
X55050Y-26500D01*
X49450Y-26500D02*
X52050Y-26500D01*
X67750Y-26450D02*
X69750Y-26450D01*
X64650Y-26450D02*
X66150Y-26450D01*
X62950Y-26450D02*
X63450Y-26450D01*
X59850Y-26450D02*
X60750Y-26450D01*
X54350Y-26450D02*
X55050Y-26450D01*
X49450Y-26450D02*
X52000Y-26450D01*
X67750Y-26400D02*
X69750Y-26400D01*
X64650Y-26400D02*
X66250Y-26400D01*
X62950Y-26400D02*
X63450Y-26400D01*
X59800Y-26400D02*
X60700Y-26400D01*
X59150Y-26400D02*
X59200Y-26400D01*
X54800Y-26400D02*
X55050Y-26400D01*
X49450Y-26400D02*
X52000Y-26400D01*
X67750Y-26350D02*
X69750Y-26350D01*
X64650Y-26350D02*
X66400Y-26350D01*
X62950Y-26350D02*
X63450Y-26350D01*
X59700Y-26350D02*
X60600Y-26350D01*
X59150Y-26350D02*
X59300Y-26350D01*
X55050Y-26350D02*
X55100Y-26350D01*
X49450Y-26350D02*
X51950Y-26350D01*
X67750Y-26300D02*
X69750Y-26300D01*
X64650Y-26300D02*
X66400Y-26300D01*
X62950Y-26300D02*
X63450Y-26300D01*
X59150Y-26300D02*
X60500Y-26300D01*
X49450Y-26300D02*
X51900Y-26300D01*
X67750Y-26250D02*
X69750Y-26250D01*
X62950Y-26250D02*
X66400Y-26250D01*
X59150Y-26250D02*
X60450Y-26250D01*
X49450Y-26250D02*
X51850Y-26250D01*
X67750Y-26200D02*
X69750Y-26200D01*
X62950Y-26200D02*
X66400Y-26200D01*
X59150Y-26200D02*
X60450Y-26200D01*
X49450Y-26200D02*
X51800Y-26200D01*
X67750Y-26150D02*
X69750Y-26150D01*
X62950Y-26150D02*
X66400Y-26150D01*
X59150Y-26150D02*
X60400Y-26150D01*
X49450Y-26150D02*
X51750Y-26150D01*
X62950Y-26100D02*
X69750Y-26100D01*
X59150Y-26100D02*
X60400Y-26100D01*
X49450Y-26100D02*
X51700Y-26100D01*
X62950Y-26050D02*
X69750Y-26050D01*
X61350Y-26050D02*
X62250Y-26050D01*
X59150Y-26050D02*
X60400Y-26050D01*
X49450Y-26050D02*
X51650Y-26050D01*
X62950Y-26000D02*
X69750Y-26000D01*
X61300Y-26000D02*
X62250Y-26000D01*
X59150Y-26000D02*
X60400Y-26000D01*
X49450Y-26000D02*
X51650Y-26000D01*
X62950Y-25950D02*
X69750Y-25950D01*
X61250Y-25950D02*
X62250Y-25950D01*
X59150Y-25950D02*
X60400Y-25950D01*
X49450Y-25950D02*
X51600Y-25950D01*
X62950Y-25900D02*
X69750Y-25900D01*
X61200Y-25900D02*
X62200Y-25900D01*
X59150Y-25900D02*
X60400Y-25900D01*
X49450Y-25900D02*
X51550Y-25900D01*
X62950Y-25850D02*
X69750Y-25850D01*
X61200Y-25850D02*
X62150Y-25850D01*
X59150Y-25850D02*
X60400Y-25850D01*
X49450Y-25850D02*
X51500Y-25850D01*
X62950Y-25800D02*
X69750Y-25800D01*
X61150Y-25800D02*
X61200Y-25800D01*
X59150Y-25800D02*
X60450Y-25800D01*
X49450Y-25800D02*
X51450Y-25800D01*
X62950Y-25750D02*
X69750Y-25750D01*
X61150Y-25750D02*
X61200Y-25750D01*
X59150Y-25750D02*
X60450Y-25750D01*
X49450Y-25750D02*
X51400Y-25750D01*
X62950Y-25700D02*
X69750Y-25700D01*
X61100Y-25700D02*
X61200Y-25700D01*
X59150Y-25700D02*
X60500Y-25700D01*
X49450Y-25700D02*
X51350Y-25700D01*
X62900Y-25650D02*
X69750Y-25650D01*
X61000Y-25650D02*
X61200Y-25650D01*
X59150Y-25650D02*
X60600Y-25650D01*
X49450Y-25650D02*
X51300Y-25650D01*
X62900Y-25600D02*
X69750Y-25600D01*
X59150Y-25600D02*
X61200Y-25600D01*
X49450Y-25600D02*
X51300Y-25600D01*
X62850Y-25550D02*
X69750Y-25550D01*
X59150Y-25550D02*
X61200Y-25550D01*
X49450Y-25550D02*
X51250Y-25550D01*
X62800Y-25500D02*
X69750Y-25500D01*
X59200Y-25500D02*
X61200Y-25500D01*
X49450Y-25500D02*
X51200Y-25500D01*
X62750Y-25450D02*
X69750Y-25450D01*
X59250Y-25450D02*
X61200Y-25450D01*
X49450Y-25450D02*
X51150Y-25450D01*
X62700Y-25400D02*
X69750Y-25400D01*
X59300Y-25400D02*
X61200Y-25400D01*
X49450Y-25400D02*
X51100Y-25400D01*
X62650Y-25350D02*
X69750Y-25350D01*
X59350Y-25350D02*
X61200Y-25350D01*
X49450Y-25350D02*
X51050Y-25350D01*
X62600Y-25300D02*
X69750Y-25300D01*
X59400Y-25300D02*
X61200Y-25300D01*
X49450Y-25300D02*
X51000Y-25300D01*
X62550Y-25250D02*
X69750Y-25250D01*
X59450Y-25250D02*
X61200Y-25250D01*
X49450Y-25250D02*
X51000Y-25250D01*
X62500Y-25200D02*
X69750Y-25200D01*
X59500Y-25200D02*
X61200Y-25200D01*
X49450Y-25200D02*
X50950Y-25200D01*
X62450Y-25150D02*
X69750Y-25150D01*
X59550Y-25150D02*
X61200Y-25150D01*
X49450Y-25150D02*
X50900Y-25150D01*
X62400Y-25100D02*
X69750Y-25100D01*
X59600Y-25100D02*
X61200Y-25100D01*
X49450Y-25100D02*
X50850Y-25100D01*
X62400Y-25050D02*
X69750Y-25050D01*
X59650Y-25050D02*
X61200Y-25050D01*
X49450Y-25050D02*
X50800Y-25050D01*
X62400Y-25000D02*
X69750Y-25000D01*
X59700Y-25000D02*
X61200Y-25000D01*
X49450Y-25000D02*
X50750Y-25000D01*
X62400Y-24950D02*
X69750Y-24950D01*
X59750Y-24950D02*
X61200Y-24950D01*
X49450Y-24950D02*
X50700Y-24950D01*
X62400Y-24900D02*
X69750Y-24900D01*
X59800Y-24900D02*
X61200Y-24900D01*
X49450Y-24900D02*
X50650Y-24900D01*
X59850Y-24850D02*
X69750Y-24850D01*
X54850Y-24850D02*
X58850Y-24850D01*
X49450Y-24850D02*
X50650Y-24850D01*
X59900Y-24800D02*
X69750Y-24800D01*
X54850Y-24800D02*
X57600Y-24800D01*
X49450Y-24800D02*
X50600Y-24800D01*
X59950Y-24750D02*
X69750Y-24750D01*
X54850Y-24750D02*
X57600Y-24750D01*
X49450Y-24750D02*
X50550Y-24750D01*
X60000Y-24700D02*
X69750Y-24700D01*
X54850Y-24700D02*
X57600Y-24700D01*
X49450Y-24700D02*
X50500Y-24700D01*
X60050Y-24650D02*
X69750Y-24650D01*
X59000Y-24650D02*
X59050Y-24650D01*
X54850Y-24650D02*
X57600Y-24650D01*
X49450Y-24650D02*
X50450Y-24650D01*
X60050Y-24600D02*
X69750Y-24600D01*
X59000Y-24600D02*
X59100Y-24600D01*
X54850Y-24600D02*
X57600Y-24600D01*
X49450Y-24600D02*
X50400Y-24600D01*
X60100Y-24550D02*
X69750Y-24550D01*
X59000Y-24550D02*
X59150Y-24550D01*
X54850Y-24550D02*
X57600Y-24550D01*
X51300Y-24550D02*
X51350Y-24550D01*
X49450Y-24550D02*
X50400Y-24550D01*
X62400Y-24500D02*
X69750Y-24500D01*
X60100Y-24500D02*
X61200Y-24500D01*
X59000Y-24500D02*
X59200Y-24500D01*
X54850Y-24500D02*
X57600Y-24500D01*
X51250Y-24500D02*
X51350Y-24500D01*
X49450Y-24500D02*
X50350Y-24500D01*
X62400Y-24450D02*
X69750Y-24450D01*
X60100Y-24450D02*
X61200Y-24450D01*
X59000Y-24450D02*
X59250Y-24450D01*
X54850Y-24450D02*
X57600Y-24450D01*
X51200Y-24450D02*
X51350Y-24450D01*
X49450Y-24450D02*
X50350Y-24450D01*
X62400Y-24400D02*
X69750Y-24400D01*
X60100Y-24400D02*
X61200Y-24400D01*
X59000Y-24400D02*
X59300Y-24400D01*
X54850Y-24400D02*
X57600Y-24400D01*
X51150Y-24400D02*
X51350Y-24400D01*
X49450Y-24400D02*
X50350Y-24400D01*
X62600Y-24350D02*
X69750Y-24350D01*
X60100Y-24350D02*
X61200Y-24350D01*
X59000Y-24350D02*
X59350Y-24350D01*
X54850Y-24350D02*
X57600Y-24350D01*
X51100Y-24350D02*
X51350Y-24350D01*
X49450Y-24350D02*
X50350Y-24350D01*
X62700Y-24300D02*
X69750Y-24300D01*
X60100Y-24300D02*
X61200Y-24300D01*
X59000Y-24300D02*
X59400Y-24300D01*
X54850Y-24300D02*
X57600Y-24300D01*
X51100Y-24300D02*
X51350Y-24300D01*
X49450Y-24300D02*
X50350Y-24300D01*
X66000Y-24250D02*
X69750Y-24250D01*
X62750Y-24250D02*
X64650Y-24250D01*
X60100Y-24250D02*
X61200Y-24250D01*
X59000Y-24250D02*
X59400Y-24250D01*
X54850Y-24250D02*
X57600Y-24250D01*
X51050Y-24250D02*
X51350Y-24250D01*
X49450Y-24250D02*
X50350Y-24250D01*
X66000Y-24200D02*
X69750Y-24200D01*
X62800Y-24200D02*
X64650Y-24200D01*
X60100Y-24200D02*
X61200Y-24200D01*
X59000Y-24200D02*
X59400Y-24200D01*
X54850Y-24200D02*
X57600Y-24200D01*
X51050Y-24200D02*
X51350Y-24200D01*
X49450Y-24200D02*
X50350Y-24200D01*
X66000Y-24150D02*
X69750Y-24150D01*
X62850Y-24150D02*
X64650Y-24150D01*
X60100Y-24150D02*
X61200Y-24150D01*
X59000Y-24150D02*
X59400Y-24150D01*
X54850Y-24150D02*
X57600Y-24150D01*
X51050Y-24150D02*
X51400Y-24150D01*
X49450Y-24150D02*
X50300Y-24150D01*
X66000Y-24100D02*
X69750Y-24100D01*
X62900Y-24100D02*
X64650Y-24100D01*
X60100Y-24100D02*
X61200Y-24100D01*
X59000Y-24100D02*
X59400Y-24100D01*
X54800Y-24100D02*
X57600Y-24100D01*
X51050Y-24100D02*
X51400Y-24100D01*
X49450Y-24100D02*
X50300Y-24100D01*
X66000Y-24050D02*
X69750Y-24050D01*
X62950Y-24050D02*
X64650Y-24050D01*
X60100Y-24050D02*
X61200Y-24050D01*
X59000Y-24050D02*
X59400Y-24050D01*
X54750Y-24050D02*
X57600Y-24050D01*
X51050Y-24050D02*
X51450Y-24050D01*
X49450Y-24050D02*
X50300Y-24050D01*
X66550Y-24000D02*
X69750Y-24000D01*
X60100Y-24000D02*
X61200Y-24000D01*
X59000Y-24000D02*
X59400Y-24000D01*
X54700Y-24000D02*
X57600Y-24000D01*
X51050Y-24000D02*
X51500Y-24000D01*
X49450Y-24000D02*
X50300Y-24000D01*
X66650Y-23950D02*
X69750Y-23950D01*
X60100Y-23950D02*
X61200Y-23950D01*
X59000Y-23950D02*
X59400Y-23950D01*
X54650Y-23950D02*
X57600Y-23950D01*
X51000Y-23950D02*
X51550Y-23950D01*
X49450Y-23950D02*
X50300Y-23950D01*
X66700Y-23900D02*
X69750Y-23900D01*
X60100Y-23900D02*
X61200Y-23900D01*
X59000Y-23900D02*
X59400Y-23900D01*
X54600Y-23900D02*
X57600Y-23900D01*
X51000Y-23900D02*
X51550Y-23900D01*
X49450Y-23900D02*
X50300Y-23900D01*
X66750Y-23850D02*
X69750Y-23850D01*
X60100Y-23850D02*
X61200Y-23850D01*
X59000Y-23850D02*
X59400Y-23850D01*
X54550Y-23850D02*
X57600Y-23850D01*
X51000Y-23850D02*
X51550Y-23850D01*
X49450Y-23850D02*
X50300Y-23850D01*
X66800Y-23800D02*
X69750Y-23800D01*
X60100Y-23800D02*
X61200Y-23800D01*
X59000Y-23800D02*
X59400Y-23800D01*
X54450Y-23800D02*
X57600Y-23800D01*
X51000Y-23800D02*
X51550Y-23800D01*
X49450Y-23800D02*
X50300Y-23800D01*
X66850Y-23750D02*
X69750Y-23750D01*
X60100Y-23750D02*
X61200Y-23750D01*
X59000Y-23750D02*
X59400Y-23750D01*
X54450Y-23750D02*
X57600Y-23750D01*
X51000Y-23750D02*
X51550Y-23750D01*
X49450Y-23750D02*
X50300Y-23750D01*
X66900Y-23700D02*
X69750Y-23700D01*
X60100Y-23700D02*
X61200Y-23700D01*
X59000Y-23700D02*
X59400Y-23700D01*
X54450Y-23700D02*
X57600Y-23700D01*
X51000Y-23700D02*
X51550Y-23700D01*
X49450Y-23700D02*
X50300Y-23700D01*
X66950Y-23650D02*
X69750Y-23650D01*
X60100Y-23650D02*
X61200Y-23650D01*
X59000Y-23650D02*
X59400Y-23650D01*
X54450Y-23650D02*
X57600Y-23650D01*
X51000Y-23650D02*
X51550Y-23650D01*
X49450Y-23650D02*
X50300Y-23650D01*
X67000Y-23600D02*
X69750Y-23600D01*
X60100Y-23600D02*
X61200Y-23600D01*
X54450Y-23600D02*
X59400Y-23600D01*
X51000Y-23600D02*
X51550Y-23600D01*
X49450Y-23600D02*
X50300Y-23600D01*
X67050Y-23550D02*
X69750Y-23550D01*
X60100Y-23550D02*
X62450Y-23550D01*
X54450Y-23550D02*
X59400Y-23550D01*
X51000Y-23550D02*
X51550Y-23550D01*
X49450Y-23550D02*
X50300Y-23550D01*
X67100Y-23500D02*
X69750Y-23500D01*
X60100Y-23500D02*
X62500Y-23500D01*
X54450Y-23500D02*
X59400Y-23500D01*
X51000Y-23500D02*
X51550Y-23500D01*
X49450Y-23500D02*
X50250Y-23500D01*
X67150Y-23450D02*
X69750Y-23450D01*
X60100Y-23450D02*
X62550Y-23450D01*
X54450Y-23450D02*
X59400Y-23450D01*
X51000Y-23450D02*
X51550Y-23450D01*
X49450Y-23450D02*
X50250Y-23450D01*
X67200Y-23400D02*
X69750Y-23400D01*
X60100Y-23400D02*
X62600Y-23400D01*
X54450Y-23400D02*
X59400Y-23400D01*
X51000Y-23400D02*
X51550Y-23400D01*
X49450Y-23400D02*
X50200Y-23400D01*
X67250Y-23350D02*
X69750Y-23350D01*
X60100Y-23350D02*
X64650Y-23350D01*
X54450Y-23350D02*
X57950Y-23350D01*
X51000Y-23350D02*
X51550Y-23350D01*
X49450Y-23350D02*
X50200Y-23350D01*
X67300Y-23300D02*
X69750Y-23300D01*
X60100Y-23300D02*
X64650Y-23300D01*
X54450Y-23300D02*
X57950Y-23300D01*
X51050Y-23300D02*
X51550Y-23300D01*
X49450Y-23300D02*
X50150Y-23300D01*
X67350Y-23250D02*
X69750Y-23250D01*
X60100Y-23250D02*
X64650Y-23250D01*
X54450Y-23250D02*
X57950Y-23250D01*
X51050Y-23250D02*
X51550Y-23250D01*
X49450Y-23250D02*
X50150Y-23250D01*
X67400Y-23200D02*
X69750Y-23200D01*
X60100Y-23200D02*
X64650Y-23200D01*
X56500Y-23200D02*
X57950Y-23200D01*
X51100Y-23200D02*
X51550Y-23200D01*
X49450Y-23200D02*
X50100Y-23200D01*
X67400Y-23150D02*
X69750Y-23150D01*
X60100Y-23150D02*
X64650Y-23150D01*
X56500Y-23150D02*
X57950Y-23150D01*
X51100Y-23150D02*
X51550Y-23150D01*
X49450Y-23150D02*
X50100Y-23150D01*
X67400Y-23100D02*
X69750Y-23100D01*
X60100Y-23100D02*
X64650Y-23100D01*
X56500Y-23100D02*
X57950Y-23100D01*
X51100Y-23100D02*
X51400Y-23100D01*
X49450Y-23100D02*
X50100Y-23100D01*
X67450Y-23050D02*
X69750Y-23050D01*
X60100Y-23050D02*
X65200Y-23050D01*
X56500Y-23050D02*
X57950Y-23050D01*
X51100Y-23050D02*
X51400Y-23050D01*
X49450Y-23050D02*
X50100Y-23050D01*
X67450Y-23000D02*
X69750Y-23000D01*
X66550Y-23000D02*
X66600Y-23000D01*
X61100Y-23000D02*
X65200Y-23000D01*
X56500Y-23000D02*
X57950Y-23000D01*
X51100Y-23000D02*
X51400Y-23000D01*
X49450Y-23000D02*
X50100Y-23000D01*
X67450Y-22950D02*
X69750Y-22950D01*
X66550Y-22950D02*
X66650Y-22950D01*
X61100Y-22950D02*
X65200Y-22950D01*
X56500Y-22950D02*
X57950Y-22950D01*
X51050Y-22950D02*
X51400Y-22950D01*
X49450Y-22950D02*
X50150Y-22950D01*
X67450Y-22900D02*
X69750Y-22900D01*
X66550Y-22900D02*
X66700Y-22900D01*
X61100Y-22900D02*
X65200Y-22900D01*
X56500Y-22900D02*
X57950Y-22900D01*
X51050Y-22900D02*
X51400Y-22900D01*
X49450Y-22900D02*
X50150Y-22900D01*
X67450Y-22850D02*
X69750Y-22850D01*
X66550Y-22850D02*
X66700Y-22850D01*
X61100Y-22850D02*
X65200Y-22850D01*
X56500Y-22850D02*
X57950Y-22850D01*
X51000Y-22850D02*
X51400Y-22850D01*
X49450Y-22850D02*
X50200Y-22850D01*
X67450Y-22800D02*
X69750Y-22800D01*
X66550Y-22800D02*
X66700Y-22800D01*
X61100Y-22800D02*
X65200Y-22800D01*
X56500Y-22800D02*
X57950Y-22800D01*
X51000Y-22800D02*
X51400Y-22800D01*
X49450Y-22800D02*
X50200Y-22800D01*
X67450Y-22750D02*
X69750Y-22750D01*
X66550Y-22750D02*
X66700Y-22750D01*
X61100Y-22750D02*
X65200Y-22750D01*
X56500Y-22750D02*
X57950Y-22750D01*
X50950Y-22750D02*
X51400Y-22750D01*
X49450Y-22750D02*
X50250Y-22750D01*
X67450Y-22700D02*
X69750Y-22700D01*
X66550Y-22700D02*
X66700Y-22700D01*
X61100Y-22700D02*
X65200Y-22700D01*
X56500Y-22700D02*
X57950Y-22700D01*
X50850Y-22700D02*
X51400Y-22700D01*
X49450Y-22700D02*
X50350Y-22700D01*
X67450Y-22650D02*
X69750Y-22650D01*
X66550Y-22650D02*
X66700Y-22650D01*
X61100Y-22650D02*
X65200Y-22650D01*
X56500Y-22650D02*
X57950Y-22650D01*
X50750Y-22650D02*
X51400Y-22650D01*
X49450Y-22650D02*
X50450Y-22650D01*
X67450Y-22600D02*
X69750Y-22600D01*
X66550Y-22600D02*
X66700Y-22600D01*
X61100Y-22600D02*
X65200Y-22600D01*
X56500Y-22600D02*
X57950Y-22600D01*
X49450Y-22600D02*
X51400Y-22600D01*
X67450Y-22550D02*
X69750Y-22550D01*
X66550Y-22550D02*
X66700Y-22550D01*
X61100Y-22550D02*
X65200Y-22550D01*
X56500Y-22550D02*
X57950Y-22550D01*
X53300Y-22550D02*
X53350Y-22550D01*
X51100Y-22550D02*
X51400Y-22550D01*
X49450Y-22550D02*
X50100Y-22550D01*
X67450Y-22500D02*
X69750Y-22500D01*
X66550Y-22500D02*
X66700Y-22500D01*
X61100Y-22500D02*
X65200Y-22500D01*
X53350Y-22500D02*
X59400Y-22500D01*
X51100Y-22500D02*
X51400Y-22500D01*
X49450Y-22500D02*
X50100Y-22500D01*
X67450Y-22450D02*
X69750Y-22450D01*
X66550Y-22450D02*
X66700Y-22450D01*
X61100Y-22450D02*
X65200Y-22450D01*
X56500Y-22450D02*
X59400Y-22450D01*
X53350Y-22450D02*
X53950Y-22450D01*
X51100Y-22450D02*
X51400Y-22450D01*
X49450Y-22450D02*
X50100Y-22450D01*
X67450Y-22400D02*
X69750Y-22400D01*
X66550Y-22400D02*
X66700Y-22400D01*
X61100Y-22400D02*
X65200Y-22400D01*
X56500Y-22400D02*
X59400Y-22400D01*
X53400Y-22400D02*
X53800Y-22400D01*
X51100Y-22400D02*
X52350Y-22400D01*
X49450Y-22400D02*
X50100Y-22400D01*
X67450Y-22350D02*
X69750Y-22350D01*
X66550Y-22350D02*
X66700Y-22350D01*
X61100Y-22350D02*
X65200Y-22350D01*
X56500Y-22350D02*
X59400Y-22350D01*
X53400Y-22350D02*
X53750Y-22350D01*
X51100Y-22350D02*
X51400Y-22350D01*
X49450Y-22350D02*
X50100Y-22350D01*
X69000Y-22300D02*
X69750Y-22300D01*
X67450Y-22300D02*
X67750Y-22300D01*
X66550Y-22300D02*
X66700Y-22300D01*
X60700Y-22300D02*
X65200Y-22300D01*
X56500Y-22300D02*
X59400Y-22300D01*
X53400Y-22300D02*
X53700Y-22300D01*
X52400Y-22300D02*
X52450Y-22300D01*
X51100Y-22300D02*
X51400Y-22300D01*
X49450Y-22300D02*
X50100Y-22300D01*
X69000Y-22250D02*
X69750Y-22250D01*
X67450Y-22250D02*
X67750Y-22250D01*
X66550Y-22250D02*
X66700Y-22250D01*
X61100Y-22250D02*
X65200Y-22250D01*
X56500Y-22250D02*
X59400Y-22250D01*
X53400Y-22250D02*
X53650Y-22250D01*
X52400Y-22250D02*
X52500Y-22250D01*
X51100Y-22250D02*
X51400Y-22250D01*
X49450Y-22250D02*
X50100Y-22250D01*
X69000Y-22200D02*
X69750Y-22200D01*
X67450Y-22200D02*
X67750Y-22200D01*
X66550Y-22200D02*
X66700Y-22200D01*
X61100Y-22200D02*
X65200Y-22200D01*
X56500Y-22200D02*
X59400Y-22200D01*
X53400Y-22200D02*
X53600Y-22200D01*
X52400Y-22200D02*
X52550Y-22200D01*
X51100Y-22200D02*
X51400Y-22200D01*
X49450Y-22200D02*
X50100Y-22200D01*
X69000Y-22150D02*
X69750Y-22150D01*
X67450Y-22150D02*
X67750Y-22150D01*
X61100Y-22150D02*
X66700Y-22150D01*
X56500Y-22150D02*
X59400Y-22150D01*
X53400Y-22150D02*
X53550Y-22150D01*
X52400Y-22150D02*
X52600Y-22150D01*
X51100Y-22150D02*
X51400Y-22150D01*
X49450Y-22150D02*
X50100Y-22150D01*
X69000Y-22100D02*
X69750Y-22100D01*
X67450Y-22100D02*
X67750Y-22100D01*
X61100Y-22100D02*
X66700Y-22100D01*
X56500Y-22100D02*
X59450Y-22100D01*
X53400Y-22100D02*
X53500Y-22100D01*
X52400Y-22100D02*
X52600Y-22100D01*
X51100Y-22100D02*
X51400Y-22100D01*
X49450Y-22100D02*
X50100Y-22100D01*
X69000Y-22050D02*
X69750Y-22050D01*
X67450Y-22050D02*
X67750Y-22050D01*
X61100Y-22050D02*
X66700Y-22050D01*
X56500Y-22050D02*
X59450Y-22050D01*
X53350Y-22050D02*
X53450Y-22050D01*
X52400Y-22050D02*
X52650Y-22050D01*
X51100Y-22050D02*
X51400Y-22050D01*
X49450Y-22050D02*
X50100Y-22050D01*
X69000Y-22000D02*
X69750Y-22000D01*
X67450Y-22000D02*
X67750Y-22000D01*
X61100Y-22000D02*
X66700Y-22000D01*
X56500Y-22000D02*
X59500Y-22000D01*
X53350Y-22000D02*
X53400Y-22000D01*
X52400Y-22000D02*
X52650Y-22000D01*
X51100Y-22000D02*
X51400Y-22000D01*
X49450Y-22000D02*
X50100Y-22000D01*
X69000Y-21950D02*
X69750Y-21950D01*
X67450Y-21950D02*
X67750Y-21950D01*
X61150Y-21950D02*
X66700Y-21950D01*
X56500Y-21950D02*
X59550Y-21950D01*
X53300Y-21950D02*
X53350Y-21950D01*
X52400Y-21950D02*
X52700Y-21950D01*
X51100Y-21950D02*
X51400Y-21950D01*
X49450Y-21950D02*
X50100Y-21950D01*
X69000Y-21900D02*
X69750Y-21900D01*
X67450Y-21900D02*
X67750Y-21900D01*
X61200Y-21900D02*
X66700Y-21900D01*
X56500Y-21900D02*
X58750Y-21900D01*
X53200Y-21900D02*
X53350Y-21900D01*
X52400Y-21900D02*
X52800Y-21900D01*
X51100Y-21900D02*
X51400Y-21900D01*
X49450Y-21900D02*
X50100Y-21900D01*
X69000Y-21850D02*
X69750Y-21850D01*
X67450Y-21850D02*
X67750Y-21850D01*
X61250Y-21850D02*
X66700Y-21850D01*
X56500Y-21850D02*
X58650Y-21850D01*
X52400Y-21850D02*
X53300Y-21850D01*
X51100Y-21850D02*
X51400Y-21850D01*
X49450Y-21850D02*
X50100Y-21850D01*
X69000Y-21800D02*
X69750Y-21800D01*
X67450Y-21800D02*
X67750Y-21800D01*
X61300Y-21800D02*
X66700Y-21800D01*
X56500Y-21800D02*
X58600Y-21800D01*
X52400Y-21800D02*
X53300Y-21800D01*
X51100Y-21800D02*
X51400Y-21800D01*
X49450Y-21800D02*
X50100Y-21800D01*
X69000Y-21750D02*
X69750Y-21750D01*
X67450Y-21750D02*
X67750Y-21750D01*
X61350Y-21750D02*
X66700Y-21750D01*
X56400Y-21750D02*
X58550Y-21750D01*
X52400Y-21750D02*
X53300Y-21750D01*
X51100Y-21750D02*
X51400Y-21750D01*
X49450Y-21750D02*
X50100Y-21750D01*
X69000Y-21700D02*
X69750Y-21700D01*
X67450Y-21700D02*
X67750Y-21700D01*
X61400Y-21700D02*
X66700Y-21700D01*
X56400Y-21700D02*
X58500Y-21700D01*
X52400Y-21700D02*
X53300Y-21700D01*
X51100Y-21700D02*
X51400Y-21700D01*
X49450Y-21700D02*
X50100Y-21700D01*
X69000Y-21650D02*
X69750Y-21650D01*
X67450Y-21650D02*
X67750Y-21650D01*
X61450Y-21650D02*
X66700Y-21650D01*
X56400Y-21650D02*
X58450Y-21650D01*
X51100Y-21650D02*
X53300Y-21650D01*
X49450Y-21650D02*
X50100Y-21650D01*
X69000Y-21600D02*
X69750Y-21600D01*
X67450Y-21600D02*
X67750Y-21600D01*
X61500Y-21600D02*
X66700Y-21600D01*
X56400Y-21600D02*
X58450Y-21600D01*
X49450Y-21600D02*
X53300Y-21600D01*
X69000Y-21550D02*
X69750Y-21550D01*
X67450Y-21550D02*
X67750Y-21550D01*
X61500Y-21550D02*
X66700Y-21550D01*
X56400Y-21550D02*
X58400Y-21550D01*
X49450Y-21550D02*
X53300Y-21550D01*
X69000Y-21500D02*
X69750Y-21500D01*
X67450Y-21500D02*
X67750Y-21500D01*
X61550Y-21500D02*
X66700Y-21500D01*
X56400Y-21500D02*
X58400Y-21500D01*
X49450Y-21500D02*
X53300Y-21500D01*
X69000Y-21450D02*
X69750Y-21450D01*
X67450Y-21450D02*
X67750Y-21450D01*
X61550Y-21450D02*
X66700Y-21450D01*
X56400Y-21450D02*
X58400Y-21450D01*
X49450Y-21450D02*
X53300Y-21450D01*
X69000Y-21400D02*
X69750Y-21400D01*
X67450Y-21400D02*
X67750Y-21400D01*
X61550Y-21400D02*
X66700Y-21400D01*
X56400Y-21400D02*
X58400Y-21400D01*
X49450Y-21400D02*
X52350Y-21400D01*
X69000Y-21350D02*
X69750Y-21350D01*
X67450Y-21350D02*
X67750Y-21350D01*
X61550Y-21350D02*
X66700Y-21350D01*
X56400Y-21350D02*
X58400Y-21350D01*
X49450Y-21350D02*
X52350Y-21350D01*
X69000Y-21300D02*
X69750Y-21300D01*
X67450Y-21300D02*
X67750Y-21300D01*
X61550Y-21300D02*
X66700Y-21300D01*
X56400Y-21300D02*
X58400Y-21300D01*
X49450Y-21300D02*
X52350Y-21300D01*
X69000Y-21250D02*
X69750Y-21250D01*
X67450Y-21250D02*
X67750Y-21250D01*
X61500Y-21250D02*
X66700Y-21250D01*
X56400Y-21250D02*
X58400Y-21250D01*
X49450Y-21250D02*
X52350Y-21250D01*
X69000Y-21200D02*
X69750Y-21200D01*
X67450Y-21200D02*
X67750Y-21200D01*
X61500Y-21200D02*
X66700Y-21200D01*
X56400Y-21200D02*
X58400Y-21200D01*
X49450Y-21200D02*
X52350Y-21200D01*
X69000Y-21150D02*
X69750Y-21150D01*
X67450Y-21150D02*
X67750Y-21150D01*
X61500Y-21150D02*
X66700Y-21150D01*
X56400Y-21150D02*
X58400Y-21150D01*
X49450Y-21150D02*
X52350Y-21150D01*
X69000Y-21100D02*
X69750Y-21100D01*
X67450Y-21100D02*
X67750Y-21100D01*
X61500Y-21100D02*
X66700Y-21100D01*
X56400Y-21100D02*
X58400Y-21100D01*
X49450Y-21100D02*
X52350Y-21100D01*
X67450Y-21050D02*
X69750Y-21050D01*
X61950Y-21050D02*
X66700Y-21050D01*
X56400Y-21050D02*
X58400Y-21050D01*
X49450Y-21050D02*
X52350Y-21050D01*
X67450Y-21000D02*
X69750Y-21000D01*
X61950Y-21000D02*
X66700Y-21000D01*
X56400Y-21000D02*
X58400Y-21000D01*
X49450Y-21000D02*
X52350Y-21000D01*
X67450Y-20950D02*
X69750Y-20950D01*
X61950Y-20950D02*
X66700Y-20950D01*
X56400Y-20950D02*
X58400Y-20950D01*
X49450Y-20950D02*
X52350Y-20950D01*
X67450Y-20900D02*
X69750Y-20900D01*
X63150Y-20900D02*
X66700Y-20900D01*
X56400Y-20900D02*
X58400Y-20900D01*
X49450Y-20900D02*
X52350Y-20900D01*
X67450Y-20850D02*
X69750Y-20850D01*
X63250Y-20850D02*
X66700Y-20850D01*
X56400Y-20850D02*
X57950Y-20850D01*
X49450Y-20850D02*
X52350Y-20850D01*
X67450Y-20800D02*
X69750Y-20800D01*
X63300Y-20800D02*
X66700Y-20800D01*
X56400Y-20800D02*
X57950Y-20800D01*
X49450Y-20800D02*
X52350Y-20800D01*
X67450Y-20750D02*
X69750Y-20750D01*
X64650Y-20750D02*
X66700Y-20750D01*
X63350Y-20750D02*
X63450Y-20750D01*
X56400Y-20750D02*
X57950Y-20750D01*
X49450Y-20750D02*
X52250Y-20750D01*
X67450Y-20700D02*
X69750Y-20700D01*
X64650Y-20700D02*
X66700Y-20700D01*
X63400Y-20700D02*
X63450Y-20700D01*
X56400Y-20700D02*
X57950Y-20700D01*
X49450Y-20700D02*
X52150Y-20700D01*
X67450Y-20650D02*
X69750Y-20650D01*
X64650Y-20650D02*
X66700Y-20650D01*
X56400Y-20650D02*
X57950Y-20650D01*
X49450Y-20650D02*
X52100Y-20650D01*
X67450Y-20600D02*
X69750Y-20600D01*
X64650Y-20600D02*
X66700Y-20600D01*
X56400Y-20600D02*
X57950Y-20600D01*
X49450Y-20600D02*
X52050Y-20600D01*
X67450Y-20550D02*
X69750Y-20550D01*
X64650Y-20550D02*
X66700Y-20550D01*
X56400Y-20550D02*
X57950Y-20550D01*
X49450Y-20550D02*
X52000Y-20550D01*
X67450Y-20500D02*
X69750Y-20500D01*
X64650Y-20500D02*
X66700Y-20500D01*
X56400Y-20500D02*
X57950Y-20500D01*
X49450Y-20500D02*
X52000Y-20500D01*
X67750Y-20450D02*
X69750Y-20450D01*
X64650Y-20450D02*
X66400Y-20450D01*
X56400Y-20450D02*
X57950Y-20450D01*
X49450Y-20450D02*
X51950Y-20450D01*
X67750Y-20400D02*
X69750Y-20400D01*
X64650Y-20400D02*
X66400Y-20400D01*
X56400Y-20400D02*
X57950Y-20400D01*
X49450Y-20400D02*
X51950Y-20400D01*
X67750Y-20350D02*
X69750Y-20350D01*
X64650Y-20350D02*
X66400Y-20350D01*
X56400Y-20350D02*
X57950Y-20350D01*
X49450Y-20350D02*
X51150Y-20350D01*
X67750Y-20300D02*
X69750Y-20300D01*
X64650Y-20300D02*
X66400Y-20300D01*
X56400Y-20300D02*
X57950Y-20300D01*
X49450Y-20300D02*
X51150Y-20300D01*
X67750Y-20250D02*
X69750Y-20250D01*
X64650Y-20250D02*
X66400Y-20250D01*
X56400Y-20250D02*
X57950Y-20250D01*
X49450Y-20250D02*
X51150Y-20250D01*
X67750Y-20200D02*
X69750Y-20200D01*
X64650Y-20200D02*
X66400Y-20200D01*
X56400Y-20200D02*
X57950Y-20200D01*
X49450Y-20200D02*
X51150Y-20200D01*
X67750Y-20150D02*
X69750Y-20150D01*
X64650Y-20150D02*
X66400Y-20150D01*
X56400Y-20150D02*
X57950Y-20150D01*
X49450Y-20150D02*
X51150Y-20150D01*
X67750Y-20100D02*
X69750Y-20100D01*
X64650Y-20100D02*
X66400Y-20100D01*
X56400Y-20100D02*
X57950Y-20100D01*
X49450Y-20100D02*
X51150Y-20100D01*
X67750Y-20050D02*
X69750Y-20050D01*
X64650Y-20050D02*
X66400Y-20050D01*
X56400Y-20050D02*
X57950Y-20050D01*
X49450Y-20050D02*
X51150Y-20050D01*
X67750Y-20000D02*
X69750Y-20000D01*
X64650Y-20000D02*
X66400Y-20000D01*
X56400Y-20000D02*
X58900Y-20000D01*
X49450Y-20000D02*
X51150Y-20000D01*
X67750Y-19950D02*
X69750Y-19950D01*
X64650Y-19950D02*
X66400Y-19950D01*
X56400Y-19950D02*
X57550Y-19950D01*
X49450Y-19950D02*
X51150Y-19950D01*
X67750Y-19900D02*
X69750Y-19900D01*
X64650Y-19900D02*
X66400Y-19900D01*
X56400Y-19900D02*
X57550Y-19900D01*
X49450Y-19900D02*
X51150Y-19900D01*
X67750Y-19850D02*
X69750Y-19850D01*
X64650Y-19850D02*
X66400Y-19850D01*
X56400Y-19850D02*
X57550Y-19850D01*
X49450Y-19850D02*
X51150Y-19850D01*
X67750Y-19800D02*
X69750Y-19800D01*
X64650Y-19800D02*
X66400Y-19800D01*
X56400Y-19800D02*
X57550Y-19800D01*
X49450Y-19800D02*
X51150Y-19800D01*
X67750Y-19750D02*
X69750Y-19750D01*
X64650Y-19750D02*
X66400Y-19750D01*
X56400Y-19750D02*
X57550Y-19750D01*
X49450Y-19750D02*
X51150Y-19750D01*
X67750Y-19700D02*
X69750Y-19700D01*
X64650Y-19700D02*
X66400Y-19700D01*
X56400Y-19700D02*
X57550Y-19700D01*
X49450Y-19700D02*
X51150Y-19700D01*
X67750Y-19650D02*
X69750Y-19650D01*
X64650Y-19650D02*
X66400Y-19650D01*
X56400Y-19650D02*
X57550Y-19650D01*
X49450Y-19650D02*
X51150Y-19650D01*
X67750Y-19600D02*
X69750Y-19600D01*
X64650Y-19600D02*
X66400Y-19600D01*
X56400Y-19600D02*
X57550Y-19600D01*
X49450Y-19600D02*
X51150Y-19600D01*
X67750Y-19550D02*
X69750Y-19550D01*
X64650Y-19550D02*
X66400Y-19550D01*
X56400Y-19550D02*
X57550Y-19550D01*
X49450Y-19550D02*
X51150Y-19550D01*
X67750Y-19500D02*
X69750Y-19500D01*
X64650Y-19500D02*
X66400Y-19500D01*
X56400Y-19500D02*
X57550Y-19500D01*
X49450Y-19500D02*
X51150Y-19500D01*
X67750Y-19450D02*
X69750Y-19450D01*
X63800Y-19450D02*
X66400Y-19450D01*
X56400Y-19450D02*
X57550Y-19450D01*
X49450Y-19450D02*
X51150Y-19450D01*
X67750Y-19400D02*
X69750Y-19400D01*
X63800Y-19400D02*
X66400Y-19400D01*
X56400Y-19400D02*
X57550Y-19400D01*
X49450Y-19400D02*
X51150Y-19400D01*
X67750Y-19350D02*
X69750Y-19350D01*
X63800Y-19350D02*
X66400Y-19350D01*
X56400Y-19350D02*
X57550Y-19350D01*
X49450Y-19350D02*
X51150Y-19350D01*
X63800Y-19300D02*
X69750Y-19300D01*
X56400Y-19300D02*
X57550Y-19300D01*
X54250Y-19300D02*
X54700Y-19300D01*
X49450Y-19300D02*
X51150Y-19300D01*
X63800Y-19250D02*
X69750Y-19250D01*
X56400Y-19250D02*
X57550Y-19250D01*
X54350Y-19250D02*
X54700Y-19250D01*
X49450Y-19250D02*
X51150Y-19250D01*
X63800Y-19200D02*
X69750Y-19200D01*
X56400Y-19200D02*
X57550Y-19200D01*
X54400Y-19200D02*
X54700Y-19200D01*
X49450Y-19200D02*
X51900Y-19200D01*
X63750Y-19150D02*
X69750Y-19150D01*
X56400Y-19150D02*
X57550Y-19150D01*
X54450Y-19150D02*
X54700Y-19150D01*
X49450Y-19150D02*
X51850Y-19150D01*
X63750Y-19100D02*
X69750Y-19100D01*
X56400Y-19100D02*
X57550Y-19100D01*
X54500Y-19100D02*
X54700Y-19100D01*
X49450Y-19100D02*
X51850Y-19100D01*
X63700Y-19050D02*
X69750Y-19050D01*
X63050Y-19050D02*
X63100Y-19050D01*
X56400Y-19050D02*
X57550Y-19050D01*
X54550Y-19050D02*
X54700Y-19050D01*
X49450Y-19050D02*
X51800Y-19050D01*
X63600Y-19000D02*
X69750Y-19000D01*
X63050Y-19000D02*
X63200Y-19000D01*
X56400Y-19000D02*
X59000Y-19000D01*
X54600Y-19000D02*
X54700Y-19000D01*
X49450Y-19000D02*
X51800Y-19000D01*
X63050Y-18950D02*
X69750Y-18950D01*
X56400Y-18950D02*
X57550Y-18950D01*
X54650Y-18950D02*
X54700Y-18950D01*
X49450Y-18950D02*
X51800Y-18950D01*
X63050Y-18900D02*
X69750Y-18900D01*
X56400Y-18900D02*
X57550Y-18900D01*
X49450Y-18900D02*
X51800Y-18900D01*
X63050Y-18850D02*
X69750Y-18850D01*
X56400Y-18850D02*
X57550Y-18850D01*
X49450Y-18850D02*
X51050Y-18850D01*
X63050Y-18800D02*
X69750Y-18800D01*
X56400Y-18800D02*
X57550Y-18800D01*
X49450Y-18800D02*
X51050Y-18800D01*
X63050Y-18750D02*
X69750Y-18750D01*
X56400Y-18750D02*
X57550Y-18750D01*
X49450Y-18750D02*
X51050Y-18750D01*
X63050Y-18700D02*
X69750Y-18700D01*
X56400Y-18700D02*
X57550Y-18700D01*
X49450Y-18700D02*
X51050Y-18700D01*
X63050Y-18650D02*
X69750Y-18650D01*
X56400Y-18650D02*
X57550Y-18650D01*
X49450Y-18650D02*
X51050Y-18650D01*
X63050Y-18600D02*
X69750Y-18600D01*
X56400Y-18600D02*
X57550Y-18600D01*
X49450Y-18600D02*
X51050Y-18600D01*
X63050Y-18550D02*
X69750Y-18550D01*
X56400Y-18550D02*
X57550Y-18550D01*
X49450Y-18550D02*
X51050Y-18550D01*
X63050Y-18500D02*
X69750Y-18500D01*
X56400Y-18500D02*
X57550Y-18500D01*
X49450Y-18500D02*
X51050Y-18500D01*
X63050Y-18450D02*
X69750Y-18450D01*
X56400Y-18450D02*
X57550Y-18450D01*
X49450Y-18450D02*
X51050Y-18450D01*
X63150Y-18400D02*
X69750Y-18400D01*
X56400Y-18400D02*
X57550Y-18400D01*
X49450Y-18400D02*
X51050Y-18400D01*
M02*
