M48
INCH,TZ
T1C0.025
T2C0.032
T3C0.039
T4C0.051
T5C0.063
%
G05
T1
X57050Y-20550
X57000Y-19500
X57000Y-21500
X62750Y-22000
X65000Y-19250
X50250Y-19500
X53000Y-22250
X55050Y-21150
X54600Y-19350
X60800Y-26000
X59800Y-21100
X53100Y-25300
X59500Y-26700
X61500Y-17400
X61200Y-18800
X63400Y-19350
X59100Y-30900
X56900Y-28200
X63400Y-18000
T2
X65625Y-33722
X66413Y-33722
X67184Y-33722
X57910Y-27863
X57910Y-27075
X57910Y-26304
T3
X50600Y-22100
X50600Y-23100
T4
X53800Y-17200
X51800Y-17200
X55600Y-28600
X55600Y-26600
X51600Y-27600
X64600Y-15600
X64600Y-17600
X68600Y-16600
T5
X63562Y-34116
X69271Y-34116
X58304Y-29926
X58304Y-24217
X68374Y-28500
X67075Y-26709
X65303Y-30488
X64043Y-26926
X65854Y-29543
X68374Y-21700
X67075Y-19909
X65303Y-23688
X64043Y-20126
X65854Y-22743
T0
M30
